<?xml version="1.0" encoding="UTF-8" standalone="no"?>
<!DOCTYPE svg PUBLIC "-//W3C//DTD SVG 1.1//EN"
 "http://www.w3.org/Graphics/SVG/1.1/DTD/svg11.dtd">
<!-- Generated by graphviz version 2.49.1 (20210923.0004)
 -->
<!-- Title: state transitions Pages: 1 -->
<svg width="540pt" height="428pt"
 viewBox="0.00 0.00 540.00 428.00" xmlns="http://www.w3.org/2000/svg" xmlns:xlink="http://www.w3.org/1999/xlink">
<g id="graph0" class="graph" transform="scale(1 1) rotate(0) translate(4 424)">
<title>state transitions</title>
<polygon fill="white" stroke="transparent" points="-4,4 -4,-424 536,-424 536,4 -4,4"/>
<g id="clust1" class="cluster state regular">
<title>cluster_self.sm_patrol</title>
<path fill="none" stroke="black" stroke-width="2" d="M20,-8C20,-8 242,-8 242,-8 248,-8 254,-14 254,-20 254,-20 254,-400 254,-400 254,-406 248,-412 242,-412 242,-412 20,-412 20,-412 14,-412 8,-406 8,-400 8,-400 8,-20 8,-20 8,-14 14,-8 20,-8"/>
<text text-anchor="start" x="95" y="-393.9" font-family="Helvetica,sans-Serif" font-size="12.00">self.sm_patrol</text>
</g>
<g id="clust2" class="cluster state regular">
<title>cluster_self.sm</title>
<path fill="none" stroke="black" stroke-width="2" d="M274,-268C274,-268 512,-268 512,-268 518,-268 524,-274 524,-280 524,-280 524,-400 524,-400 524,-406 518,-412 512,-412 512,-412 274,-412 274,-412 268,-412 262,-406 262,-400 262,-400 262,-280 262,-280 262,-274 268,-268 274,-268"/>
<text text-anchor="start" x="375" y="-393.9" font-family="Helvetica,sans-Serif" font-size="12.00">self.sm</text>
</g>
<!-- self.sm_patrol -->
<!-- self.sm_patrol/NAV_STATE_0 -->
<g id="node2" class="node state regular">
<title>self.sm_patrol/NAV_STATE_0</title>
<polygon fill="#ffffff" fill-opacity="0.003922" stroke="transparent" stroke-width="2" points="213,-375 31,-375 31,-339 213,-339 213,-375"/>
<text text-anchor="start" x="42" y="-353.4" font-family="Helvetica,sans-Serif" font-size="12.00">self.sm_patrol/NAV_STATE_0</text>
<path fill="none" stroke="black" stroke-width="2" d="M43,-340.5C43,-340.5 201,-340.5 201,-340.5 206.5,-340.5 212,-346 212,-351.5 212,-351.5 212,-362.5 212,-362.5 212,-368 206.5,-373.5 201,-373.5 201,-373.5 43,-373.5 43,-373.5 37.5,-373.5 32,-368 32,-362.5 32,-362.5 32,-351.5 32,-351.5 32,-346 37.5,-340.5 43,-340.5"/>
</g>
<!-- self.sm_patrol/NAV_STATE_1 -->
<g id="node3" class="node state regular">
<title>self.sm_patrol/NAV_STATE_1</title>
<polygon fill="#ffffff" fill-opacity="0.003922" stroke="transparent" stroke-width="2" points="213,-312 31,-312 31,-276 213,-276 213,-312"/>
<text text-anchor="start" x="42" y="-290.4" font-family="Helvetica,sans-Serif" font-size="12.00">self.sm_patrol/NAV_STATE_1</text>
<path fill="none" stroke="black" stroke-width="2" d="M43,-277.5C43,-277.5 201,-277.5 201,-277.5 206.5,-277.5 212,-283 212,-288.5 212,-288.5 212,-299.5 212,-299.5 212,-305 206.5,-310.5 201,-310.5 201,-310.5 43,-310.5 43,-310.5 37.5,-310.5 32,-305 32,-299.5 32,-299.5 32,-288.5 32,-288.5 32,-283 37.5,-277.5 43,-277.5"/>
</g>
<!-- self.sm_patrol/NAV_STATE_0&#45;&gt;self.sm_patrol/NAV_STATE_1 -->
<g id="edge1" class="edge transition">
<title>self.sm_patrol/NAV_STATE_0&#45;&gt;self.sm_patrol/NAV_STATE_1</title>
<path fill="none" stroke="black" d="M45.46,-338.83C42.7,-336.53 40.18,-333.93 38,-331 35.06,-327.06 34.06,-323.54 34.58,-320.41"/>
<polygon fill="black" stroke="black" points="37.51,-322.33 40.26,-312.1 31.73,-318.38 37.51,-322.33"/>
<text text-anchor="start" x="38" y="-323" font-family="Helvetica,sans-Serif" font-size="10.00">succeeded &#160;&#160;</text>
</g>
<!-- self.sm_patrol/NAV_STATE_0&#45;&gt;self.sm_patrol/NAV_STATE_1 -->
<g id="edge2" class="edge transition">
<title>self.sm_patrol/NAV_STATE_0&#45;&gt;self.sm_patrol/NAV_STATE_1</title>
<path fill="none" stroke="black" d="M122,-338.68C122,-333.62 122,-327.95 122,-322.42"/>
<polygon fill="black" stroke="black" points="125.5,-322.15 122,-312.15 118.5,-322.15 125.5,-322.15"/>
<text text-anchor="start" x="122" y="-323" font-family="Helvetica,sans-Serif" font-size="10.00">aborted &#160;&#160;</text>
</g>
<!-- self.sm_patrol/NAV_STATE_0&#45;&gt;self.sm_patrol/NAV_STATE_1 -->
<g id="edge3" class="edge transition">
<title>self.sm_patrol/NAV_STATE_0&#45;&gt;self.sm_patrol/NAV_STATE_1</title>
<path fill="none" stroke="black" d="M158.88,-338.68C161.27,-336.39 163.36,-333.84 165,-331 167.17,-327.23 167.27,-323.69 165.97,-320.4"/>
<polygon fill="black" stroke="black" points="168.58,-318.05 159.67,-312.32 163.06,-322.36 168.58,-318.05"/>
<text text-anchor="start" x="166" y="-323" font-family="Helvetica,sans-Serif" font-size="10.00">preempted &#160;&#160;</text>
</g>
<!-- self.sm_patrol/NAV_STATE_2 -->
<g id="node4" class="node state regular">
<title>self.sm_patrol/NAV_STATE_2</title>
<polygon fill="#ffffff" fill-opacity="0.003922" stroke="transparent" stroke-width="2" points="213,-241 31,-241 31,-205 213,-205 213,-241"/>
<text text-anchor="start" x="42" y="-219.4" font-family="Helvetica,sans-Serif" font-size="12.00">self.sm_patrol/NAV_STATE_2</text>
<path fill="none" stroke="black" stroke-width="2" d="M43,-206.5C43,-206.5 201,-206.5 201,-206.5 206.5,-206.5 212,-212 212,-217.5 212,-217.5 212,-228.5 212,-228.5 212,-234 206.5,-239.5 201,-239.5 201,-239.5 43,-239.5 43,-239.5 37.5,-239.5 32,-234 32,-228.5 32,-228.5 32,-217.5 32,-217.5 32,-212 37.5,-206.5 43,-206.5"/>
</g>
<!-- self.sm_patrol/NAV_STATE_1&#45;&gt;self.sm_patrol/NAV_STATE_2 -->
<g id="edge4" class="edge transition">
<title>self.sm_patrol/NAV_STATE_1&#45;&gt;self.sm_patrol/NAV_STATE_2</title>
<path fill="none" stroke="black" d="M49.32,-275.8C36.4,-269.24 29.44,-260.48 38,-249 38.14,-248.82 38.27,-248.64 38.41,-248.45"/>
<polygon fill="black" stroke="black" points="41.02,-250.79 45.46,-241.17 35.99,-245.93 41.02,-250.79"/>
<text text-anchor="start" x="38" y="-252" font-family="Helvetica,sans-Serif" font-size="10.00">succeeded &#160;&#160;</text>
</g>
<!-- self.sm_patrol/NAV_STATE_1&#45;&gt;self.sm_patrol/NAV_STATE_2 -->
<g id="edge5" class="edge transition">
<title>self.sm_patrol/NAV_STATE_1&#45;&gt;self.sm_patrol/NAV_STATE_2</title>
<path fill="none" stroke="black" d="M122,-275.94C122,-268.54 122,-259.67 122,-251.38"/>
<polygon fill="black" stroke="black" points="125.5,-251.34 122,-241.34 118.5,-251.34 125.5,-251.34"/>
<text text-anchor="start" x="122" y="-252" font-family="Helvetica,sans-Serif" font-size="10.00">aborted &#160;&#160;</text>
</g>
<!-- self.sm_patrol/NAV_STATE_1&#45;&gt;self.sm_patrol/NAV_STATE_2 -->
<g id="edge6" class="edge transition">
<title>self.sm_patrol/NAV_STATE_1&#45;&gt;self.sm_patrol/NAV_STATE_2</title>
<path fill="none" stroke="black" d="M154.27,-275.91C162.17,-269.8 168.12,-262.46 163.7,-250.43"/>
<polygon fill="black" stroke="black" points="166.65,-248.53 158.88,-241.32 160.46,-251.8 166.65,-248.53"/>
<text text-anchor="start" x="167" y="-252" font-family="Helvetica,sans-Serif" font-size="10.00">preempted &#160;&#160;</text>
</g>
<!-- self.sm_patrol/NAV_STATE_3 -->
<g id="node5" class="node state regular">
<title>self.sm_patrol/NAV_STATE_3</title>
<polygon fill="#ffffff" fill-opacity="0.003922" stroke="transparent" stroke-width="2" points="213,-178 31,-178 31,-142 213,-142 213,-178"/>
<text text-anchor="start" x="42" y="-156.4" font-family="Helvetica,sans-Serif" font-size="12.00">self.sm_patrol/NAV_STATE_3</text>
<path fill="none" stroke="black" stroke-width="2" d="M43,-143.5C43,-143.5 201,-143.5 201,-143.5 206.5,-143.5 212,-149 212,-154.5 212,-154.5 212,-165.5 212,-165.5 212,-171 206.5,-176.5 201,-176.5 201,-176.5 43,-176.5 43,-176.5 37.5,-176.5 32,-171 32,-165.5 32,-165.5 32,-154.5 32,-154.5 32,-149 37.5,-143.5 43,-143.5"/>
</g>
<!-- self.sm_patrol/NAV_STATE_2&#45;&gt;self.sm_patrol/NAV_STATE_3 -->
<g id="edge7" class="edge transition">
<title>self.sm_patrol/NAV_STATE_2&#45;&gt;self.sm_patrol/NAV_STATE_3</title>
<path fill="none" stroke="black" d="M45.46,-204.83C42.7,-202.53 40.18,-199.93 38,-197 35.06,-193.06 34.06,-189.54 34.58,-186.41"/>
<polygon fill="black" stroke="black" points="37.51,-188.33 40.26,-178.1 31.73,-184.38 37.51,-188.33"/>
<text text-anchor="start" x="38" y="-189" font-family="Helvetica,sans-Serif" font-size="10.00">succeeded &#160;&#160;</text>
</g>
<!-- self.sm_patrol/NAV_STATE_2&#45;&gt;self.sm_patrol/NAV_STATE_3 -->
<g id="edge8" class="edge transition">
<title>self.sm_patrol/NAV_STATE_2&#45;&gt;self.sm_patrol/NAV_STATE_3</title>
<path fill="none" stroke="black" d="M122,-204.68C122,-199.62 122,-193.95 122,-188.42"/>
<polygon fill="black" stroke="black" points="125.5,-188.15 122,-178.15 118.5,-188.15 125.5,-188.15"/>
<text text-anchor="start" x="122" y="-189" font-family="Helvetica,sans-Serif" font-size="10.00">aborted &#160;&#160;</text>
</g>
<!-- self.sm_patrol/NAV_STATE_2&#45;&gt;self.sm_patrol/NAV_STATE_3 -->
<g id="edge9" class="edge transition">
<title>self.sm_patrol/NAV_STATE_2&#45;&gt;self.sm_patrol/NAV_STATE_3</title>
<path fill="none" stroke="black" d="M158.88,-204.68C161.27,-202.39 163.36,-199.84 165,-197 167.17,-193.23 167.27,-189.69 165.97,-186.4"/>
<polygon fill="black" stroke="black" points="168.58,-184.05 159.67,-178.32 163.06,-188.36 168.58,-184.05"/>
<text text-anchor="start" x="166" y="-189" font-family="Helvetica,sans-Serif" font-size="10.00">preempted &#160;&#160;</text>
</g>
<!-- self.sm_patrol/NAV_STATE_4 -->
<g id="node6" class="node state regular">
<title>self.sm_patrol/NAV_STATE_4</title>
<polygon fill="#ffffff" fill-opacity="0.003922" stroke="transparent" stroke-width="2" points="213,-115 31,-115 31,-79 213,-79 213,-115"/>
<text text-anchor="start" x="42" y="-93.4" font-family="Helvetica,sans-Serif" font-size="12.00">self.sm_patrol/NAV_STATE_4</text>
<path fill="none" stroke="black" stroke-width="2" d="M43,-80.5C43,-80.5 201,-80.5 201,-80.5 206.5,-80.5 212,-86 212,-91.5 212,-91.5 212,-102.5 212,-102.5 212,-108 206.5,-113.5 201,-113.5 201,-113.5 43,-113.5 43,-113.5 37.5,-113.5 32,-108 32,-102.5 32,-102.5 32,-91.5 32,-91.5 32,-86 37.5,-80.5 43,-80.5"/>
</g>
<!-- self.sm_patrol/NAV_STATE_3&#45;&gt;self.sm_patrol/NAV_STATE_4 -->
<g id="edge10" class="edge transition">
<title>self.sm_patrol/NAV_STATE_3&#45;&gt;self.sm_patrol/NAV_STATE_4</title>
<path fill="none" stroke="black" d="M45.46,-141.83C42.7,-139.53 40.18,-136.93 38,-134 35.06,-130.06 34.06,-126.54 34.58,-123.41"/>
<polygon fill="black" stroke="black" points="37.51,-125.33 40.26,-115.1 31.73,-121.38 37.51,-125.33"/>
<text text-anchor="start" x="38" y="-126" font-family="Helvetica,sans-Serif" font-size="10.00">succeeded &#160;&#160;</text>
</g>
<!-- self.sm_patrol/NAV_STATE_3&#45;&gt;self.sm_patrol/NAV_STATE_4 -->
<g id="edge11" class="edge transition">
<title>self.sm_patrol/NAV_STATE_3&#45;&gt;self.sm_patrol/NAV_STATE_4</title>
<path fill="none" stroke="black" d="M122,-141.68C122,-136.62 122,-130.95 122,-125.42"/>
<polygon fill="black" stroke="black" points="125.5,-125.15 122,-115.15 118.5,-125.15 125.5,-125.15"/>
<text text-anchor="start" x="122" y="-126" font-family="Helvetica,sans-Serif" font-size="10.00">aborted &#160;&#160;</text>
</g>
<!-- self.sm_patrol/NAV_STATE_3&#45;&gt;self.sm_patrol/NAV_STATE_4 -->
<g id="edge12" class="edge transition">
<title>self.sm_patrol/NAV_STATE_3&#45;&gt;self.sm_patrol/NAV_STATE_4</title>
<path fill="none" stroke="black" d="M158.88,-141.68C161.27,-139.39 163.36,-136.84 165,-134 167.17,-130.23 167.27,-126.69 165.97,-123.4"/>
<polygon fill="black" stroke="black" points="168.58,-121.05 159.67,-115.32 163.06,-125.36 168.58,-121.05"/>
<text text-anchor="start" x="166" y="-126" font-family="Helvetica,sans-Serif" font-size="10.00">preempted &#160;&#160;</text>
</g>
<!-- self.sm_patrol/continue -->
<g id="node7" class="node state regular">
<title>self.sm_patrol/continue</title>
<polygon fill="#ffffff" fill-opacity="0.003922" stroke="transparent" stroke-width="2" points="193,-52 51,-52 51,-16 193,-16 193,-52"/>
<text text-anchor="start" x="62" y="-30.4" font-family="Helvetica,sans-Serif" font-size="12.00">self.sm_patrol/continue</text>
<path fill="none" stroke="black" stroke-width="2" d="M63,-17.5C63,-17.5 181,-17.5 181,-17.5 186.5,-17.5 192,-23 192,-28.5 192,-28.5 192,-39.5 192,-39.5 192,-45 186.5,-50.5 181,-50.5 181,-50.5 63,-50.5 63,-50.5 57.5,-50.5 52,-45 52,-39.5 52,-39.5 52,-28.5 52,-28.5 52,-23 57.5,-17.5 63,-17.5"/>
</g>
<!-- self.sm_patrol/NAV_STATE_4&#45;&gt;self.sm_patrol/continue -->
<g id="edge13" class="edge transition">
<title>self.sm_patrol/NAV_STATE_4&#45;&gt;self.sm_patrol/continue</title>
<path fill="none" stroke="black" d="M45.46,-78.83C42.7,-76.53 40.18,-73.93 38,-71 31.8,-62.69 34.24,-56.27 41.32,-51.33"/>
<polygon fill="black" stroke="black" points="43.34,-54.22 50.62,-46.52 40.13,-48 43.34,-54.22"/>
<text text-anchor="start" x="38" y="-63" font-family="Helvetica,sans-Serif" font-size="10.00">succeeded &#160;&#160;</text>
</g>
<!-- self.sm_patrol/NAV_STATE_4&#45;&gt;self.sm_patrol/continue -->
<g id="edge14" class="edge transition">
<title>self.sm_patrol/NAV_STATE_4&#45;&gt;self.sm_patrol/continue</title>
<path fill="none" stroke="black" d="M122,-78.68C122,-73.62 122,-67.95 122,-62.42"/>
<polygon fill="black" stroke="black" points="125.5,-62.15 122,-52.15 118.5,-62.15 125.5,-62.15"/>
<text text-anchor="start" x="122" y="-63" font-family="Helvetica,sans-Serif" font-size="10.00">aborted &#160;&#160;</text>
</g>
<!-- self.sm_patrol/NAV_STATE_4&#45;&gt;self.sm_patrol/continue -->
<g id="edge15" class="edge transition">
<title>self.sm_patrol/NAV_STATE_4&#45;&gt;self.sm_patrol/continue</title>
<path fill="none" stroke="black" d="M158.88,-78.68C161.27,-76.39 163.36,-73.84 165,-71 167.17,-67.23 167.27,-63.69 165.97,-60.4"/>
<polygon fill="black" stroke="black" points="168.58,-58.05 159.67,-52.32 163.06,-62.36 168.58,-58.05"/>
<text text-anchor="start" x="166" y="-63" font-family="Helvetica,sans-Serif" font-size="10.00">preempted &#160;&#160;</text>
</g>
<!-- self.sm -->
<!-- self.sm/PATROL_ITERATOR -->
<g id="node9" class="node state regular">
<title>self.sm/PATROL_ITERATOR</title>
<polygon fill="#ffffff" fill-opacity="0.003922" stroke="transparent" stroke-width="2" points="469,-375 295,-375 295,-339 469,-339 469,-375"/>
<text text-anchor="start" x="306" y="-353.4" font-family="Helvetica,sans-Serif" font-size="12.00">self.sm/PATROL_ITERATOR</text>
<path fill="none" stroke="black" stroke-width="2" d="M307,-340.5C307,-340.5 457,-340.5 457,-340.5 462.5,-340.5 468,-346 468,-351.5 468,-351.5 468,-362.5 468,-362.5 468,-368 462.5,-373.5 457,-373.5 457,-373.5 307,-373.5 307,-373.5 301.5,-373.5 296,-368 296,-362.5 296,-362.5 296,-351.5 296,-351.5 296,-346 301.5,-340.5 307,-340.5"/>
</g>
<!-- self.sm/succeeded -->
<g id="node10" class="node state regular">
<title>self.sm/succeeded</title>
<polygon fill="#ffffff" fill-opacity="0.003922" stroke="transparent" stroke-width="2" points="390,-312 270,-312 270,-276 390,-276 390,-312"/>
<text text-anchor="start" x="281" y="-290.4" font-family="Helvetica,sans-Serif" font-size="12.00">self.sm/succeeded</text>
<path fill="none" stroke="black" stroke-width="2" d="M282,-277.5C282,-277.5 378,-277.5 378,-277.5 383.5,-277.5 389,-283 389,-288.5 389,-288.5 389,-299.5 389,-299.5 389,-305 383.5,-310.5 378,-310.5 378,-310.5 282,-310.5 282,-310.5 276.5,-310.5 271,-305 271,-299.5 271,-299.5 271,-288.5 271,-288.5 271,-283 276.5,-277.5 282,-277.5"/>
</g>
<!-- self.sm/PATROL_ITERATOR&#45;&gt;self.sm/succeeded -->
<g id="edge16" class="edge transition">
<title>self.sm/PATROL_ITERATOR&#45;&gt;self.sm/succeeded</title>
<path fill="none" stroke="black" d="M367.24,-338.68C362.26,-332.84 356.59,-326.19 351.21,-319.88"/>
<polygon fill="black" stroke="black" points="353.77,-317.49 344.62,-312.15 348.44,-322.03 353.77,-317.49"/>
<text text-anchor="start" x="360" y="-323" font-family="Helvetica,sans-Serif" font-size="10.00">succeeded &#160;&#160;</text>
</g>
<!-- self.sm/aborted -->
<g id="node11" class="node state regular">
<title>self.sm/aborted</title>
<polygon fill="#ffffff" fill-opacity="0.003922" stroke="transparent" stroke-width="2" points="515.5,-312 412.5,-312 412.5,-276 515.5,-276 515.5,-312"/>
<text text-anchor="start" x="424" y="-290.4" font-family="Helvetica,sans-Serif" font-size="12.00">self.sm/aborted</text>
<path fill="none" stroke="black" stroke-width="2" d="M424.5,-277.5C424.5,-277.5 503.5,-277.5 503.5,-277.5 509,-277.5 514.5,-283 514.5,-288.5 514.5,-288.5 514.5,-299.5 514.5,-299.5 514.5,-305 509,-310.5 503.5,-310.5 503.5,-310.5 424.5,-310.5 424.5,-310.5 419,-310.5 413.5,-305 413.5,-299.5 413.5,-299.5 413.5,-288.5 413.5,-288.5 413.5,-283 419,-277.5 424.5,-277.5"/>
</g>
<!-- self.sm/PATROL_ITERATOR&#45;&gt;self.sm/aborted -->
<g id="edge17" class="edge transition">
<title>self.sm/PATROL_ITERATOR&#45;&gt;self.sm/aborted</title>
<path fill="none" stroke="black" d="M410.75,-338.76C414.6,-336.24 418.44,-333.62 422,-331 427.18,-327.19 432.52,-322.92 437.59,-318.68"/>
<polygon fill="black" stroke="black" points="439.94,-321.27 445.26,-312.11 435.39,-315.95 439.94,-321.27"/>
<text text-anchor="start" x="435" y="-323" font-family="Helvetica,sans-Serif" font-size="10.00">aborted &#160;&#160;</text>
</g>
</g>
</svg>
