<?xml version="1.0" encoding="UTF-8" standalone="no"?>
<!DOCTYPE svg PUBLIC "-//W3C//DTD SVG 1.1//EN"
 "http://www.w3.org/Graphics/SVG/1.1/DTD/svg11.dtd">
<!-- Generated by graphviz version 2.49.1 (20210923.0004)
 -->
<!-- Title: state transitions Pages: 1 -->
<svg width="270pt" height="420pt"
 viewBox="0.00 0.00 270.00 420.00" xmlns="http://www.w3.org/2000/svg" xmlns:xlink="http://www.w3.org/1999/xlink">
<g id="graph0" class="graph" transform="scale(1 1) rotate(0) translate(4 416)">
<title>state transitions</title>
<polygon fill="white" stroke="transparent" points="-4,4 -4,-416 266,-416 266,4 -4,4"/>
<g id="clust1" class="cluster state regular">
<title>cluster_self.sm_patrol</title>
<path fill="none" stroke="black" stroke-width="2" d="M20,-8C20,-8 242,-8 242,-8 248,-8 254,-14 254,-20 254,-20 254,-392 254,-392 254,-398 248,-404 242,-404 242,-404 20,-404 20,-404 14,-404 8,-398 8,-392 8,-392 8,-20 8,-20 8,-14 14,-8 20,-8"/>
<text text-anchor="start" x="95" y="-385.9" font-family="Helvetica,sans-Serif" font-size="12.00">self.sm_patrol</text>
</g>
<!-- self.sm_patrol -->
<!-- self.sm_patrol/NAV_STATE_0 -->
<g id="node2" class="node state regular">
<title>self.sm_patrol/NAV_STATE_0</title>
<polygon fill="#ffffff" fill-opacity="0.003922" stroke="transparent" stroke-width="2" points="213,-367 31,-367 31,-331 213,-331 213,-367"/>
<text text-anchor="start" x="42" y="-345.4" font-family="Helvetica,sans-Serif" font-size="12.00">self.sm_patrol/NAV_STATE_0</text>
<path fill="none" stroke="black" stroke-width="2" d="M43,-332.5C43,-332.5 201,-332.5 201,-332.5 206.5,-332.5 212,-338 212,-343.5 212,-343.5 212,-354.5 212,-354.5 212,-360 206.5,-365.5 201,-365.5 201,-365.5 43,-365.5 43,-365.5 37.5,-365.5 32,-360 32,-354.5 32,-354.5 32,-343.5 32,-343.5 32,-338 37.5,-332.5 43,-332.5"/>
</g>
<!-- self.sm_patrol/NAV_STATE_1 -->
<g id="node3" class="node state regular">
<title>self.sm_patrol/NAV_STATE_1</title>
<polygon fill="#ffffff" fill-opacity="0.003922" stroke="transparent" stroke-width="2" points="213,-304 31,-304 31,-268 213,-268 213,-304"/>
<text text-anchor="start" x="42" y="-282.4" font-family="Helvetica,sans-Serif" font-size="12.00">self.sm_patrol/NAV_STATE_1</text>
<path fill="none" stroke="black" stroke-width="2" d="M43,-269.5C43,-269.5 201,-269.5 201,-269.5 206.5,-269.5 212,-275 212,-280.5 212,-280.5 212,-291.5 212,-291.5 212,-297 206.5,-302.5 201,-302.5 201,-302.5 43,-302.5 43,-302.5 37.5,-302.5 32,-297 32,-291.5 32,-291.5 32,-280.5 32,-280.5 32,-275 37.5,-269.5 43,-269.5"/>
</g>
<!-- self.sm_patrol/NAV_STATE_0&#45;&gt;self.sm_patrol/NAV_STATE_1 -->
<g id="edge1" class="edge transition">
<title>self.sm_patrol/NAV_STATE_0&#45;&gt;self.sm_patrol/NAV_STATE_1</title>
<path fill="none" stroke="black" d="M45.46,-330.83C42.7,-328.53 40.18,-325.93 38,-323 35.06,-319.06 34.06,-315.54 34.58,-312.41"/>
<polygon fill="black" stroke="black" points="37.51,-314.33 40.26,-304.1 31.73,-310.38 37.51,-314.33"/>
<text text-anchor="start" x="38" y="-315" font-family="Helvetica,sans-Serif" font-size="10.00">succeeded &#160;&#160;</text>
</g>
<!-- self.sm_patrol/NAV_STATE_0&#45;&gt;self.sm_patrol/NAV_STATE_1 -->
<g id="edge2" class="edge transition">
<title>self.sm_patrol/NAV_STATE_0&#45;&gt;self.sm_patrol/NAV_STATE_1</title>
<path fill="none" stroke="black" d="M122,-330.68C122,-325.62 122,-319.95 122,-314.42"/>
<polygon fill="black" stroke="black" points="125.5,-314.15 122,-304.15 118.5,-314.15 125.5,-314.15"/>
<text text-anchor="start" x="122" y="-315" font-family="Helvetica,sans-Serif" font-size="10.00">aborted &#160;&#160;</text>
</g>
<!-- self.sm_patrol/NAV_STATE_0&#45;&gt;self.sm_patrol/NAV_STATE_1 -->
<g id="edge3" class="edge transition">
<title>self.sm_patrol/NAV_STATE_0&#45;&gt;self.sm_patrol/NAV_STATE_1</title>
<path fill="none" stroke="black" d="M158.88,-330.68C161.27,-328.39 163.36,-325.84 165,-323 167.17,-319.23 167.27,-315.69 165.97,-312.4"/>
<polygon fill="black" stroke="black" points="168.58,-310.05 159.67,-304.32 163.06,-314.36 168.58,-310.05"/>
<text text-anchor="start" x="166" y="-315" font-family="Helvetica,sans-Serif" font-size="10.00">preempted &#160;&#160;</text>
</g>
<!-- self.sm_patrol/NAV_STATE_2 -->
<g id="node4" class="node state regular">
<title>self.sm_patrol/NAV_STATE_2</title>
<polygon fill="#ffffff" fill-opacity="0.003922" stroke="transparent" stroke-width="2" points="213,-241 31,-241 31,-205 213,-205 213,-241"/>
<text text-anchor="start" x="42" y="-219.4" font-family="Helvetica,sans-Serif" font-size="12.00">self.sm_patrol/NAV_STATE_2</text>
<path fill="none" stroke="black" stroke-width="2" d="M43,-206.5C43,-206.5 201,-206.5 201,-206.5 206.5,-206.5 212,-212 212,-217.5 212,-217.5 212,-228.5 212,-228.5 212,-234 206.5,-239.5 201,-239.5 201,-239.5 43,-239.5 43,-239.5 37.5,-239.5 32,-234 32,-228.5 32,-228.5 32,-217.5 32,-217.5 32,-212 37.5,-206.5 43,-206.5"/>
</g>
<!-- self.sm_patrol/NAV_STATE_1&#45;&gt;self.sm_patrol/NAV_STATE_2 -->
<g id="edge4" class="edge transition">
<title>self.sm_patrol/NAV_STATE_1&#45;&gt;self.sm_patrol/NAV_STATE_2</title>
<path fill="none" stroke="black" d="M45.46,-267.83C42.7,-265.53 40.18,-262.93 38,-260 35.06,-256.06 34.06,-252.54 34.58,-249.41"/>
<polygon fill="black" stroke="black" points="37.51,-251.33 40.26,-241.1 31.73,-247.38 37.51,-251.33"/>
<text text-anchor="start" x="38" y="-252" font-family="Helvetica,sans-Serif" font-size="10.00">succeeded &#160;&#160;</text>
</g>
<!-- self.sm_patrol/NAV_STATE_1&#45;&gt;self.sm_patrol/NAV_STATE_2 -->
<g id="edge5" class="edge transition">
<title>self.sm_patrol/NAV_STATE_1&#45;&gt;self.sm_patrol/NAV_STATE_2</title>
<path fill="none" stroke="black" d="M122,-267.68C122,-262.62 122,-256.95 122,-251.42"/>
<polygon fill="black" stroke="black" points="125.5,-251.15 122,-241.15 118.5,-251.15 125.5,-251.15"/>
<text text-anchor="start" x="122" y="-252" font-family="Helvetica,sans-Serif" font-size="10.00">aborted &#160;&#160;</text>
</g>
<!-- self.sm_patrol/NAV_STATE_1&#45;&gt;self.sm_patrol/NAV_STATE_2 -->
<g id="edge6" class="edge transition">
<title>self.sm_patrol/NAV_STATE_1&#45;&gt;self.sm_patrol/NAV_STATE_2</title>
<path fill="none" stroke="black" d="M158.88,-267.68C161.27,-265.39 163.36,-262.84 165,-260 167.17,-256.23 167.27,-252.69 165.97,-249.4"/>
<polygon fill="black" stroke="black" points="168.58,-247.05 159.67,-241.32 163.06,-251.36 168.58,-247.05"/>
<text text-anchor="start" x="166" y="-252" font-family="Helvetica,sans-Serif" font-size="10.00">preempted &#160;&#160;</text>
</g>
<!-- self.sm_patrol/NAV_STATE_3 -->
<g id="node5" class="node state regular">
<title>self.sm_patrol/NAV_STATE_3</title>
<polygon fill="#ffffff" fill-opacity="0.003922" stroke="transparent" stroke-width="2" points="213,-178 31,-178 31,-142 213,-142 213,-178"/>
<text text-anchor="start" x="42" y="-156.4" font-family="Helvetica,sans-Serif" font-size="12.00">self.sm_patrol/NAV_STATE_3</text>
<path fill="none" stroke="black" stroke-width="2" d="M43,-143.5C43,-143.5 201,-143.5 201,-143.5 206.5,-143.5 212,-149 212,-154.5 212,-154.5 212,-165.5 212,-165.5 212,-171 206.5,-176.5 201,-176.5 201,-176.5 43,-176.5 43,-176.5 37.5,-176.5 32,-171 32,-165.5 32,-165.5 32,-154.5 32,-154.5 32,-149 37.5,-143.5 43,-143.5"/>
</g>
<!-- self.sm_patrol/NAV_STATE_2&#45;&gt;self.sm_patrol/NAV_STATE_3 -->
<g id="edge7" class="edge transition">
<title>self.sm_patrol/NAV_STATE_2&#45;&gt;self.sm_patrol/NAV_STATE_3</title>
<path fill="none" stroke="black" d="M45.46,-204.83C42.7,-202.53 40.18,-199.93 38,-197 35.06,-193.06 34.06,-189.54 34.58,-186.41"/>
<polygon fill="black" stroke="black" points="37.51,-188.33 40.26,-178.1 31.73,-184.38 37.51,-188.33"/>
<text text-anchor="start" x="38" y="-189" font-family="Helvetica,sans-Serif" font-size="10.00">succeeded &#160;&#160;</text>
</g>
<!-- self.sm_patrol/NAV_STATE_2&#45;&gt;self.sm_patrol/NAV_STATE_3 -->
<g id="edge8" class="edge transition">
<title>self.sm_patrol/NAV_STATE_2&#45;&gt;self.sm_patrol/NAV_STATE_3</title>
<path fill="none" stroke="black" d="M122,-204.68C122,-199.62 122,-193.95 122,-188.42"/>
<polygon fill="black" stroke="black" points="125.5,-188.15 122,-178.15 118.5,-188.15 125.5,-188.15"/>
<text text-anchor="start" x="122" y="-189" font-family="Helvetica,sans-Serif" font-size="10.00">aborted &#160;&#160;</text>
</g>
<!-- self.sm_patrol/NAV_STATE_2&#45;&gt;self.sm_patrol/NAV_STATE_3 -->
<g id="edge9" class="edge transition">
<title>self.sm_patrol/NAV_STATE_2&#45;&gt;self.sm_patrol/NAV_STATE_3</title>
<path fill="none" stroke="black" d="M158.88,-204.68C161.27,-202.39 163.36,-199.84 165,-197 167.17,-193.23 167.27,-189.69 165.97,-186.4"/>
<polygon fill="black" stroke="black" points="168.58,-184.05 159.67,-178.32 163.06,-188.36 168.58,-184.05"/>
<text text-anchor="start" x="166" y="-189" font-family="Helvetica,sans-Serif" font-size="10.00">preempted &#160;&#160;</text>
</g>
<!-- self.sm_patrol/NAV_STATE_4 -->
<g id="node6" class="node state regular">
<title>self.sm_patrol/NAV_STATE_4</title>
<polygon fill="#ffffff" fill-opacity="0.003922" stroke="transparent" stroke-width="2" points="213,-115 31,-115 31,-79 213,-79 213,-115"/>
<text text-anchor="start" x="42" y="-93.4" font-family="Helvetica,sans-Serif" font-size="12.00">self.sm_patrol/NAV_STATE_4</text>
<path fill="none" stroke="black" stroke-width="2" d="M43,-80.5C43,-80.5 201,-80.5 201,-80.5 206.5,-80.5 212,-86 212,-91.5 212,-91.5 212,-102.5 212,-102.5 212,-108 206.5,-113.5 201,-113.5 201,-113.5 43,-113.5 43,-113.5 37.5,-113.5 32,-108 32,-102.5 32,-102.5 32,-91.5 32,-91.5 32,-86 37.5,-80.5 43,-80.5"/>
</g>
<!-- self.sm_patrol/NAV_STATE_3&#45;&gt;self.sm_patrol/NAV_STATE_4 -->
<g id="edge10" class="edge transition">
<title>self.sm_patrol/NAV_STATE_3&#45;&gt;self.sm_patrol/NAV_STATE_4</title>
<path fill="none" stroke="black" d="M45.46,-141.83C42.7,-139.53 40.18,-136.93 38,-134 35.06,-130.06 34.06,-126.54 34.58,-123.41"/>
<polygon fill="black" stroke="black" points="37.51,-125.33 40.26,-115.1 31.73,-121.38 37.51,-125.33"/>
<text text-anchor="start" x="38" y="-126" font-family="Helvetica,sans-Serif" font-size="10.00">succeeded &#160;&#160;</text>
</g>
<!-- self.sm_patrol/NAV_STATE_3&#45;&gt;self.sm_patrol/NAV_STATE_4 -->
<g id="edge11" class="edge transition">
<title>self.sm_patrol/NAV_STATE_3&#45;&gt;self.sm_patrol/NAV_STATE_4</title>
<path fill="none" stroke="black" d="M122,-141.68C122,-136.62 122,-130.95 122,-125.42"/>
<polygon fill="black" stroke="black" points="125.5,-125.15 122,-115.15 118.5,-125.15 125.5,-125.15"/>
<text text-anchor="start" x="122" y="-126" font-family="Helvetica,sans-Serif" font-size="10.00">aborted &#160;&#160;</text>
</g>
<!-- self.sm_patrol/NAV_STATE_3&#45;&gt;self.sm_patrol/NAV_STATE_4 -->
<g id="edge12" class="edge transition">
<title>self.sm_patrol/NAV_STATE_3&#45;&gt;self.sm_patrol/NAV_STATE_4</title>
<path fill="none" stroke="black" d="M158.88,-141.68C161.27,-139.39 163.36,-136.84 165,-134 167.17,-130.23 167.27,-126.69 165.97,-123.4"/>
<polygon fill="black" stroke="black" points="168.58,-121.05 159.67,-115.32 163.06,-125.36 168.58,-121.05"/>
<text text-anchor="start" x="166" y="-126" font-family="Helvetica,sans-Serif" font-size="10.00">preempted &#160;&#160;</text>
</g>
<!-- self.sm_patrol/ -->
<g id="node7" class="node state regular">
<title>self.sm_patrol/</title>
<polygon fill="#ffffff" fill-opacity="0.003922" stroke="transparent" stroke-width="2" points="171,-52 73,-52 73,-16 171,-16 171,-52"/>
<text text-anchor="start" x="84" y="-30.4" font-family="Helvetica,sans-Serif" font-size="12.00">self.sm_patrol/</text>
<path fill="none" stroke="black" stroke-width="2" d="M85,-17.5C85,-17.5 159,-17.5 159,-17.5 164.5,-17.5 170,-23 170,-28.5 170,-28.5 170,-39.5 170,-39.5 170,-45 164.5,-50.5 159,-50.5 159,-50.5 85,-50.5 85,-50.5 79.5,-50.5 74,-45 74,-39.5 74,-39.5 74,-28.5 74,-28.5 74,-23 79.5,-17.5 85,-17.5"/>
</g>
<!-- self.sm_patrol/NAV_STATE_4&#45;&gt;self.sm_patrol/ -->
<g id="edge13" class="edge transition">
<title>self.sm_patrol/NAV_STATE_4&#45;&gt;self.sm_patrol/</title>
<path fill="none" stroke="black" d="M45.46,-78.83C42.7,-76.53 40.18,-73.93 38,-71 27.23,-56.56 42.53,-47.85 62.9,-42.62"/>
<polygon fill="black" stroke="black" points="63.88,-45.99 72.87,-40.39 62.35,-39.16 63.88,-45.99"/>
<text text-anchor="start" x="38" y="-63" font-family="Helvetica,sans-Serif" font-size="10.00">succeeded &#160;&#160;</text>
</g>
<!-- self.sm_patrol/NAV_STATE_4&#45;&gt;self.sm_patrol/ -->
<g id="edge14" class="edge transition">
<title>self.sm_patrol/NAV_STATE_4&#45;&gt;self.sm_patrol/</title>
<path fill="none" stroke="black" d="M122,-78.68C122,-73.62 122,-67.95 122,-62.42"/>
<polygon fill="black" stroke="black" points="125.5,-62.15 122,-52.15 118.5,-62.15 125.5,-62.15"/>
<text text-anchor="start" x="122" y="-63" font-family="Helvetica,sans-Serif" font-size="10.00">aborted &#160;&#160;</text>
</g>
<!-- self.sm_patrol/NAV_STATE_4&#45;&gt;self.sm_patrol/ -->
<g id="edge15" class="edge transition">
<title>self.sm_patrol/NAV_STATE_4&#45;&gt;self.sm_patrol/</title>
<path fill="none" stroke="black" d="M158.88,-78.68C161.27,-76.39 163.36,-73.84 165,-71 167.17,-67.23 167.27,-63.69 165.97,-60.4"/>
<polygon fill="black" stroke="black" points="168.58,-58.05 159.67,-52.32 163.06,-62.36 168.58,-58.05"/>
<text text-anchor="start" x="166" y="-63" font-family="Helvetica,sans-Serif" font-size="10.00">preempted &#160;&#160;</text>
</g>
</g>
</svg>
