<?xml version="1.0" encoding="UTF-8" standalone="no"?>
<!DOCTYPE svg PUBLIC "-//W3C//DTD SVG 1.1//EN"
 "http://www.w3.org/Graphics/SVG/1.1/DTD/svg11.dtd">
<!-- Generated by graphviz version 2.49.1 (20210923.0004)
 -->
<!-- Title: state transitions Pages: 1 -->
<svg width="354pt" height="168pt"
 viewBox="0.00 0.00 354.00 168.00" xmlns="http://www.w3.org/2000/svg" xmlns:xlink="http://www.w3.org/1999/xlink">
<g id="graph0" class="graph" transform="scale(1 1) rotate(0) translate(4 164)">
<title>state transitions</title>
<polygon fill="white" stroke="transparent" points="-4,4 -4,-164 350,-164 350,4 -4,4"/>
<g id="clust1" class="cluster state regular">
<title>cluster_self.sm_patrol</title>
<path fill="none" stroke="black" stroke-width="2" d="M20,-8C20,-8 326,-8 326,-8 332,-8 338,-14 338,-20 338,-20 338,-140 338,-140 338,-146 332,-152 326,-152 326,-152 20,-152 20,-152 14,-152 8,-146 8,-140 8,-140 8,-20 8,-20 8,-14 14,-8 20,-8"/>
<text text-anchor="start" x="137" y="-133.9" font-family="Helvetica,sans-Serif" font-size="12.00">self.sm_patrol</text>
</g>
<!-- self.sm_patrol -->
<!-- self.sm_patrol/PICK_WAYPOINT -->
<g id="node2" class="node state regular">
<title>self.sm_patrol/PICK_WAYPOINT</title>
<polygon fill="#ffffff" fill-opacity="0.003922" stroke="transparent" stroke-width="2" points="241,-115 47,-115 47,-79 241,-79 241,-115"/>
<text text-anchor="start" x="58" y="-93.4" font-family="Helvetica,sans-Serif" font-size="12.00">self.sm_patrol/PICK_WAYPOINT</text>
<path fill="none" stroke="black" stroke-width="2" d="M59,-80.5C59,-80.5 229,-80.5 229,-80.5 234.5,-80.5 240,-86 240,-91.5 240,-91.5 240,-102.5 240,-102.5 240,-108 234.5,-113.5 229,-113.5 229,-113.5 59,-113.5 59,-113.5 53.5,-113.5 48,-108 48,-102.5 48,-102.5 48,-91.5 48,-91.5 48,-86 53.5,-80.5 59,-80.5"/>
</g>
<!-- self.sm_patrol/NAV_WAYPOINT -->
<g id="node3" class="node state regular">
<title>self.sm_patrol/NAV_WAYPOINT</title>
<polygon fill="#ffffff" fill-opacity="0.003922" stroke="transparent" stroke-width="2" points="259.5,-52 68.5,-52 68.5,-16 259.5,-16 259.5,-52"/>
<text text-anchor="start" x="80" y="-30.4" font-family="Helvetica,sans-Serif" font-size="12.00">self.sm_patrol/NAV_WAYPOINT</text>
<path fill="none" stroke="black" stroke-width="2" d="M80.5,-17.5C80.5,-17.5 247.5,-17.5 247.5,-17.5 253,-17.5 258.5,-23 258.5,-28.5 258.5,-28.5 258.5,-39.5 258.5,-39.5 258.5,-45 253,-50.5 247.5,-50.5 247.5,-50.5 80.5,-50.5 80.5,-50.5 75,-50.5 69.5,-45 69.5,-39.5 69.5,-39.5 69.5,-28.5 69.5,-28.5 69.5,-23 75,-17.5 80.5,-17.5"/>
</g>
<!-- self.sm_patrol/PICK_WAYPOINT&#45;&gt;self.sm_patrol/NAV_WAYPOINT -->
<g id="edge1" class="edge transition">
<title>self.sm_patrol/PICK_WAYPOINT&#45;&gt;self.sm_patrol/NAV_WAYPOINT</title>
<path fill="none" stroke="black" d="M46.82,-84.67C34.23,-79.33 28.57,-71.49 38,-60 41.7,-55.49 49.15,-51.79 58.65,-48.74"/>
<polygon fill="black" stroke="black" points="59.66,-52.09 68.34,-46.01 57.77,-45.35 59.66,-52.09"/>
<text text-anchor="start" x="38" y="-63" font-family="Helvetica,sans-Serif" font-size="10.00">succeeded &#160;&#160;</text>
</g>
<!-- self.sm_patrol/NAV_WAYPOINT&#45;&gt;self.sm_patrol/PICK_WAYPOINT -->
<g id="edge2" class="edge transition">
<title>self.sm_patrol/NAV_WAYPOINT&#45;&gt;self.sm_patrol/PICK_WAYPOINT</title>
<path fill="none" stroke="black" d="M128.34,-52.06C125.86,-54.41 123.68,-57.05 122,-60 120.17,-63.22 119.92,-66.57 120.7,-69.87"/>
<polygon fill="black" stroke="black" points="117.59,-71.49 125.15,-78.92 123.87,-68.4 117.59,-71.49"/>
<text text-anchor="start" x="122" y="-63" font-family="Helvetica,sans-Serif" font-size="10.00">succeeded &#160;&#160;</text>
</g>
<!-- self.sm_patrol/NAV_WAYPOINT&#45;&gt;self.sm_patrol/PICK_WAYPOINT -->
<g id="edge3" class="edge transition">
<title>self.sm_patrol/NAV_WAYPOINT&#45;&gt;self.sm_patrol/PICK_WAYPOINT</title>
<path fill="none" stroke="black" d="M178.11,-52.06C180.62,-56.65 182.23,-61.68 179.01,-69.85"/>
<polygon fill="black" stroke="black" points="175.89,-68.26 174.31,-78.73 182.08,-71.53 175.89,-68.26"/>
<text text-anchor="start" x="181" y="-63" font-family="Helvetica,sans-Serif" font-size="10.00">aborted &#160;&#160;</text>
</g>
<!-- self.sm_patrol/NAV_WAYPOINT&#45;&gt;self.sm_patrol/PICK_WAYPOINT -->
<g id="edge4" class="edge transition">
<title>self.sm_patrol/NAV_WAYPOINT&#45;&gt;self.sm_patrol/PICK_WAYPOINT</title>
<path fill="none" stroke="black" d="M223.31,-52.05C230.59,-57.07 233.72,-63.34 228,-71 227.86,-71.18 227.73,-71.36 227.59,-71.55"/>
<polygon fill="black" stroke="black" points="224.98,-69.21 220.54,-78.83 230.01,-74.07 224.98,-69.21"/>
<text text-anchor="start" x="230" y="-63" font-family="Helvetica,sans-Serif" font-size="10.00">preempted &#160;&#160;</text>
</g>
</g>
</svg>
