<?xml version="1.0" encoding="UTF-8" standalone="no"?>
<!DOCTYPE svg PUBLIC "-//W3C//DTD SVG 1.1//EN"
 "http://www.w3.org/Graphics/SVG/1.1/DTD/svg11.dtd">
<!-- Generated by graphviz version 2.49.1 (20210923.0004)
 -->
<!-- Title: state transitions Pages: 1 -->
<svg width="1481pt" height="688pt"
 viewBox="0.00 0.00 1481.00 688.00" xmlns="http://www.w3.org/2000/svg" xmlns:xlink="http://www.w3.org/1999/xlink">
<g id="graph0" class="graph" transform="scale(1 1) rotate(0) translate(4 684)">
<title>state transitions</title>
<polygon fill="white" stroke="transparent" points="-4,4 -4,-684 1477,-684 1477,4 -4,4"/>
<g id="clust3" class="cluster state regular">
<title>cluster_sm_bathroom</title>
<path fill="none" stroke="black" stroke-width="2" d="M528,-457C528,-457 750,-457 750,-457 756,-457 762,-463 762,-469 762,-469 762,-660 762,-660 762,-666 756,-672 750,-672 750,-672 528,-672 528,-672 522,-672 516,-666 516,-660 516,-660 516,-469 516,-469 516,-463 522,-457 528,-457"/>
<text text-anchor="start" x="603" y="-653.9" font-family="Helvetica,sans-Serif" font-size="12.00">sm_bathroom</text>
</g>
<g id="clust1" class="cluster state regular">
<title>cluster_sm_living_room</title>
<path fill="none" stroke="black" stroke-width="2" d="M20,-528C20,-528 242,-528 242,-528 248,-528 254,-534 254,-540 254,-540 254,-660 254,-660 254,-666 248,-672 242,-672 242,-672 20,-672 20,-672 14,-672 8,-666 8,-660 8,-660 8,-540 8,-540 8,-534 14,-528 20,-528"/>
<text text-anchor="start" x="90" y="-653.9" font-family="Helvetica,sans-Serif" font-size="12.00">sm_living_room</text>
</g>
<g id="clust2" class="cluster state regular">
<title>cluster_sm_kitchen</title>
<path fill="none" stroke="black" stroke-width="2" d="M274,-528C274,-528 496,-528 496,-528 502,-528 508,-534 508,-540 508,-540 508,-660 508,-660 508,-666 502,-672 496,-672 496,-672 274,-672 274,-672 268,-672 262,-666 262,-660 262,-660 262,-540 262,-540 262,-534 268,-528 274,-528"/>
<text text-anchor="start" x="355" y="-653.9" font-family="Helvetica,sans-Serif" font-size="12.00">sm_kitchen</text>
</g>
<g id="clust5" class="cluster state regular">
<title>cluster_sm_clean_house</title>
<path fill="none" stroke="black" stroke-width="2" d="M1036,-8C1036,-8 1453,-8 1453,-8 1459,-8 1465,-14 1465,-20 1465,-20 1465,-660 1465,-660 1465,-666 1459,-672 1453,-672 1453,-672 1036,-672 1036,-672 1030,-672 1024,-666 1024,-660 1024,-660 1024,-20 1024,-20 1024,-14 1030,-8 1036,-8"/>
<text text-anchor="start" x="1200.5" y="-653.9" font-family="Helvetica,sans-Serif" font-size="12.00">sm_clean_house</text>
</g>
<g id="clust4" class="cluster state regular">
<title>cluster_sm_hallway</title>
<path fill="none" stroke="black" stroke-width="2" d="M782,-528C782,-528 1004,-528 1004,-528 1010,-528 1016,-534 1016,-540 1016,-540 1016,-660 1016,-660 1016,-666 1010,-672 1004,-672 1004,-672 782,-672 782,-672 776,-672 770,-666 770,-660 770,-660 770,-540 770,-540 770,-534 776,-528 782,-528"/>
<text text-anchor="start" x="863" y="-653.9" font-family="Helvetica,sans-Serif" font-size="12.00">sm_hallway</text>
</g>
<!-- sm_living_room -->
<!-- sm_living_room/VACUUM_FLOOR -->
<g id="node2" class="node state regular">
<title>sm_living_room/VACUUM_FLOOR</title>
<polygon fill="#ffffff" fill-opacity="0.003922" stroke="transparent" stroke-width="2" points="223.5,-635 16.5,-635 16.5,-599 223.5,-599 223.5,-635"/>
<text text-anchor="start" x="28" y="-613.4" font-family="Helvetica,sans-Serif" font-size="12.00">sm_living_room/VACUUM_FLOOR</text>
<path fill="none" stroke="black" stroke-width="2" d="M28.5,-600.5C28.5,-600.5 211.5,-600.5 211.5,-600.5 217,-600.5 222.5,-606 222.5,-611.5 222.5,-611.5 222.5,-622.5 222.5,-622.5 222.5,-628 217,-633.5 211.5,-633.5 211.5,-633.5 28.5,-633.5 28.5,-633.5 23,-633.5 17.5,-628 17.5,-622.5 17.5,-622.5 17.5,-611.5 17.5,-611.5 17.5,-606 23,-600.5 28.5,-600.5"/>
</g>
<!-- sm_living_room/ -->
<g id="node3" class="node state regular">
<title>sm_living_room/</title>
<polygon fill="#ffffff" fill-opacity="0.003922" stroke="transparent" stroke-width="2" points="176,-572 68,-572 68,-536 176,-536 176,-572"/>
<text text-anchor="start" x="79" y="-550.4" font-family="Helvetica,sans-Serif" font-size="12.00">sm_living_room/</text>
<path fill="none" stroke="black" stroke-width="2" d="M80,-537.5C80,-537.5 164,-537.5 164,-537.5 169.5,-537.5 175,-543 175,-548.5 175,-548.5 175,-559.5 175,-559.5 175,-565 169.5,-570.5 164,-570.5 164,-570.5 80,-570.5 80,-570.5 74.5,-570.5 69,-565 69,-559.5 69,-559.5 69,-548.5 69,-548.5 69,-543 74.5,-537.5 80,-537.5"/>
</g>
<!-- sm_living_room/VACUUM_FLOOR&#45;&gt;sm_living_room/ -->
<g id="edge1" class="edge transition">
<title>sm_living_room/VACUUM_FLOOR&#45;&gt;sm_living_room/</title>
<path fill="none" stroke="black" d="M40.47,-598.86C34.14,-594.02 32.14,-587.85 38,-580 43.23,-572.99 50.35,-567.86 58.24,-564.13"/>
<polygon fill="black" stroke="black" points="59.78,-567.29 67.8,-560.37 57.21,-560.78 59.78,-567.29"/>
<text text-anchor="start" x="38" y="-583" font-family="Helvetica,sans-Serif" font-size="10.00">succeeded &#160;&#160;</text>
</g>
<!-- sm_living_room/VACUUM_FLOOR&#45;&gt;sm_living_room/ -->
<g id="edge2" class="edge transition">
<title>sm_living_room/VACUUM_FLOOR&#45;&gt;sm_living_room/</title>
<path fill="none" stroke="black" d="M120.57,-598.68C120.73,-593.62 120.92,-587.95 121.1,-582.42"/>
<polygon fill="black" stroke="black" points="124.61,-582.26 121.44,-572.15 117.61,-582.03 124.61,-582.26"/>
<text text-anchor="start" x="122" y="-583" font-family="Helvetica,sans-Serif" font-size="10.00">aborted &#160;&#160;</text>
</g>
<!-- sm_living_room/VACUUM_FLOOR&#45;&gt;sm_living_room/ -->
<g id="edge3" class="edge transition">
<title>sm_living_room/VACUUM_FLOOR&#45;&gt;sm_living_room/</title>
<path fill="none" stroke="black" d="M158.57,-598.86C161.08,-596.54 163.28,-593.93 165,-591 167.2,-587.26 167.33,-583.72 166.04,-580.44"/>
<polygon fill="black" stroke="black" points="168.67,-578.12 159.77,-572.37 163.14,-582.41 168.67,-578.12"/>
<text text-anchor="start" x="167" y="-583" font-family="Helvetica,sans-Serif" font-size="10.00">preempted &#160;&#160;</text>
</g>
<!-- sm_kitchen -->
<!-- sm_kitchen/MOP_FLOOR -->
<g id="node5" class="node state regular">
<title>sm_kitchen/MOP_FLOOR</title>
<polygon fill="#ffffff" fill-opacity="0.003922" stroke="transparent" stroke-width="2" points="455.5,-635 296.5,-635 296.5,-599 455.5,-599 455.5,-635"/>
<text text-anchor="start" x="308" y="-613.4" font-family="Helvetica,sans-Serif" font-size="12.00">sm_kitchen/MOP_FLOOR</text>
<path fill="none" stroke="black" stroke-width="2" d="M308.5,-600.5C308.5,-600.5 443.5,-600.5 443.5,-600.5 449,-600.5 454.5,-606 454.5,-611.5 454.5,-611.5 454.5,-622.5 454.5,-622.5 454.5,-628 449,-633.5 443.5,-633.5 443.5,-633.5 308.5,-633.5 308.5,-633.5 303,-633.5 297.5,-628 297.5,-622.5 297.5,-622.5 297.5,-611.5 297.5,-611.5 297.5,-606 303,-600.5 308.5,-600.5"/>
</g>
<!-- sm_kitchen/ -->
<g id="node6" class="node state regular">
<title>sm_kitchen/</title>
<polygon fill="#ffffff" fill-opacity="0.003922" stroke="transparent" stroke-width="2" points="418.5,-572 333.5,-572 333.5,-536 418.5,-536 418.5,-572"/>
<text text-anchor="start" x="345" y="-550.4" font-family="Helvetica,sans-Serif" font-size="12.00">sm_kitchen/</text>
<path fill="none" stroke="black" stroke-width="2" d="M345.5,-537.5C345.5,-537.5 406.5,-537.5 406.5,-537.5 412,-537.5 417.5,-543 417.5,-548.5 417.5,-548.5 417.5,-559.5 417.5,-559.5 417.5,-565 412,-570.5 406.5,-570.5 406.5,-570.5 345.5,-570.5 345.5,-570.5 340,-570.5 334.5,-565 334.5,-559.5 334.5,-559.5 334.5,-548.5 334.5,-548.5 334.5,-543 340,-537.5 345.5,-537.5"/>
</g>
<!-- sm_kitchen/MOP_FLOOR&#45;&gt;sm_kitchen/ -->
<g id="edge4" class="edge transition">
<title>sm_kitchen/MOP_FLOOR&#45;&gt;sm_kitchen/</title>
<path fill="none" stroke="black" d="M299.46,-598.83C296.7,-596.53 294.18,-593.93 292,-591 280.13,-575.09 299.93,-566.13 323.28,-561.13"/>
<polygon fill="black" stroke="black" points="324.24,-564.51 333.42,-559.22 322.95,-557.63 324.24,-564.51"/>
<text text-anchor="start" x="292" y="-583" font-family="Helvetica,sans-Serif" font-size="10.00">succeeded &#160;&#160;</text>
</g>
<!-- sm_kitchen/MOP_FLOOR&#45;&gt;sm_kitchen/ -->
<g id="edge5" class="edge transition">
<title>sm_kitchen/MOP_FLOOR&#45;&gt;sm_kitchen/</title>
<path fill="none" stroke="black" d="M376,-598.68C376,-593.62 376,-587.95 376,-582.42"/>
<polygon fill="black" stroke="black" points="379.5,-582.15 376,-572.15 372.5,-582.15 379.5,-582.15"/>
<text text-anchor="start" x="376" y="-583" font-family="Helvetica,sans-Serif" font-size="10.00">aborted &#160;&#160;</text>
</g>
<!-- sm_kitchen/MOP_FLOOR&#45;&gt;sm_kitchen/ -->
<g id="edge6" class="edge transition">
<title>sm_kitchen/MOP_FLOOR&#45;&gt;sm_kitchen/</title>
<path fill="none" stroke="black" d="M412.88,-598.68C415.27,-596.39 417.36,-593.84 419,-591 421.17,-587.23 421.27,-583.69 419.97,-580.4"/>
<polygon fill="black" stroke="black" points="422.58,-578.05 413.67,-572.32 417.06,-582.36 422.58,-578.05"/>
<text text-anchor="start" x="421" y="-583" font-family="Helvetica,sans-Serif" font-size="10.00">preempted &#160;&#160;</text>
</g>
<!-- sm_bathroom -->
<!-- sm_bathroom/SCRUB_TUB -->
<g id="node8" class="node state regular">
<title>sm_bathroom/SCRUB_TUB</title>
<polygon fill="#ffffff" fill-opacity="0.003922" stroke="transparent" stroke-width="2" points="715,-635 545,-635 545,-599 715,-599 715,-635"/>
<text text-anchor="start" x="556" y="-613.4" font-family="Helvetica,sans-Serif" font-size="12.00">sm_bathroom/SCRUB_TUB</text>
<path fill="none" stroke="black" stroke-width="2" d="M557,-600.5C557,-600.5 703,-600.5 703,-600.5 708.5,-600.5 714,-606 714,-611.5 714,-611.5 714,-622.5 714,-622.5 714,-628 708.5,-633.5 703,-633.5 703,-633.5 557,-633.5 557,-633.5 551.5,-633.5 546,-628 546,-622.5 546,-622.5 546,-611.5 546,-611.5 546,-606 551.5,-600.5 557,-600.5"/>
</g>
<!-- sm_bathroom/MOP_FLOOR -->
<g id="node9" class="node state regular">
<title>sm_bathroom/MOP_FLOOR</title>
<polygon fill="#ffffff" fill-opacity="0.003922" stroke="transparent" stroke-width="2" points="716,-572 544,-572 544,-536 716,-536 716,-572"/>
<text text-anchor="start" x="555" y="-550.4" font-family="Helvetica,sans-Serif" font-size="12.00">sm_bathroom/MOP_FLOOR</text>
<path fill="none" stroke="black" stroke-width="2" d="M556,-537.5C556,-537.5 704,-537.5 704,-537.5 709.5,-537.5 715,-543 715,-548.5 715,-548.5 715,-559.5 715,-559.5 715,-565 709.5,-570.5 704,-570.5 704,-570.5 556,-570.5 556,-570.5 550.5,-570.5 545,-565 545,-559.5 545,-559.5 545,-548.5 545,-548.5 545,-543 550.5,-537.5 556,-537.5"/>
</g>
<!-- sm_bathroom/SCRUB_TUB&#45;&gt;sm_bathroom/MOP_FLOOR -->
<g id="edge7" class="edge transition">
<title>sm_bathroom/SCRUB_TUB&#45;&gt;sm_bathroom/MOP_FLOOR</title>
<path fill="none" stroke="black" d="M630,-598.68C630,-593.62 630,-587.95 630,-582.42"/>
<polygon fill="black" stroke="black" points="633.5,-582.15 630,-572.15 626.5,-582.15 633.5,-582.15"/>
<text text-anchor="start" x="630" y="-583" font-family="Helvetica,sans-Serif" font-size="10.00">succeeded &#160;&#160;</text>
</g>
<!-- sm_bathroom/ -->
<g id="node10" class="node state regular">
<title>sm_bathroom/</title>
<polygon fill="#ffffff" fill-opacity="0.003922" stroke="transparent" stroke-width="2" points="679,-501 581,-501 581,-465 679,-465 679,-501"/>
<text text-anchor="start" x="592" y="-479.4" font-family="Helvetica,sans-Serif" font-size="12.00">sm_bathroom/</text>
<path fill="none" stroke="black" stroke-width="2" d="M593,-466.5C593,-466.5 667,-466.5 667,-466.5 672.5,-466.5 678,-472 678,-477.5 678,-477.5 678,-488.5 678,-488.5 678,-494 672.5,-499.5 667,-499.5 667,-499.5 593,-499.5 593,-499.5 587.5,-499.5 582,-494 582,-488.5 582,-488.5 582,-477.5 582,-477.5 582,-472 587.5,-466.5 593,-466.5"/>
</g>
<!-- sm_bathroom/MOP_FLOOR&#45;&gt;sm_bathroom/ -->
<g id="edge8" class="edge transition">
<title>sm_bathroom/MOP_FLOOR&#45;&gt;sm_bathroom/</title>
<path fill="none" stroke="black" d="M557.32,-535.8C544.4,-529.24 537.44,-520.48 546,-509 552.27,-500.59 561.26,-494.89 571.05,-491.06"/>
<polygon fill="black" stroke="black" points="572.2,-494.37 580.61,-487.94 570.02,-487.72 572.2,-494.37"/>
<text text-anchor="start" x="546" y="-512" font-family="Helvetica,sans-Serif" font-size="10.00">succeeded &#160;&#160;</text>
</g>
<!-- sm_bathroom/MOP_FLOOR&#45;&gt;sm_bathroom/ -->
<g id="edge9" class="edge transition">
<title>sm_bathroom/MOP_FLOOR&#45;&gt;sm_bathroom/</title>
<path fill="none" stroke="black" d="M630,-535.94C630,-528.54 630,-519.67 630,-511.38"/>
<polygon fill="black" stroke="black" points="633.5,-511.34 630,-501.34 626.5,-511.34 633.5,-511.34"/>
<text text-anchor="start" x="630" y="-512" font-family="Helvetica,sans-Serif" font-size="10.00">aborted &#160;&#160;</text>
</g>
<!-- sm_bathroom/MOP_FLOOR&#45;&gt;sm_bathroom/ -->
<g id="edge10" class="edge transition">
<title>sm_bathroom/MOP_FLOOR&#45;&gt;sm_bathroom/</title>
<path fill="none" stroke="black" d="M662.27,-535.91C670.17,-529.8 676.12,-522.46 671.7,-510.43"/>
<polygon fill="black" stroke="black" points="674.65,-508.53 666.88,-501.32 668.46,-511.8 674.65,-508.53"/>
<text text-anchor="start" x="675" y="-512" font-family="Helvetica,sans-Serif" font-size="10.00">preempted &#160;&#160;</text>
</g>
<!-- sm_hallway -->
<!-- sm_hallway/VACUUM_FLOOR -->
<g id="node12" class="node state regular">
<title>sm_hallway/VACUUM_FLOOR</title>
<polygon fill="#ffffff" fill-opacity="0.003922" stroke="transparent" stroke-width="2" points="976.5,-635 791.5,-635 791.5,-599 976.5,-599 976.5,-635"/>
<text text-anchor="start" x="803" y="-613.4" font-family="Helvetica,sans-Serif" font-size="12.00">sm_hallway/VACUUM_FLOOR</text>
<path fill="none" stroke="black" stroke-width="2" d="M803.5,-600.5C803.5,-600.5 964.5,-600.5 964.5,-600.5 970,-600.5 975.5,-606 975.5,-611.5 975.5,-611.5 975.5,-622.5 975.5,-622.5 975.5,-628 970,-633.5 964.5,-633.5 964.5,-633.5 803.5,-633.5 803.5,-633.5 798,-633.5 792.5,-628 792.5,-622.5 792.5,-622.5 792.5,-611.5 792.5,-611.5 792.5,-606 798,-600.5 803.5,-600.5"/>
</g>
<!-- sm_hallway/ -->
<g id="node13" class="node state regular">
<title>sm_hallway/</title>
<polygon fill="#ffffff" fill-opacity="0.003922" stroke="transparent" stroke-width="2" points="927,-572 841,-572 841,-536 927,-536 927,-572"/>
<text text-anchor="start" x="852" y="-550.4" font-family="Helvetica,sans-Serif" font-size="12.00">sm_hallway/</text>
<path fill="none" stroke="black" stroke-width="2" d="M853,-537.5C853,-537.5 915,-537.5 915,-537.5 920.5,-537.5 926,-543 926,-548.5 926,-548.5 926,-559.5 926,-559.5 926,-565 920.5,-570.5 915,-570.5 915,-570.5 853,-570.5 853,-570.5 847.5,-570.5 842,-565 842,-559.5 842,-559.5 842,-548.5 842,-548.5 842,-543 847.5,-537.5 853,-537.5"/>
</g>
<!-- sm_hallway/VACUUM_FLOOR&#45;&gt;sm_hallway/ -->
<g id="edge11" class="edge transition">
<title>sm_hallway/VACUUM_FLOOR&#45;&gt;sm_hallway/</title>
<path fill="none" stroke="black" d="M802.26,-598.9C796.01,-594.06 794.12,-587.89 800,-580 807.54,-569.89 818.99,-563.71 831.04,-559.97"/>
<polygon fill="black" stroke="black" points="831.96,-563.35 840.77,-557.47 830.21,-556.57 831.96,-563.35"/>
<text text-anchor="start" x="800" y="-583" font-family="Helvetica,sans-Serif" font-size="10.00">succeeded &#160;&#160;</text>
</g>
<!-- sm_hallway/VACUUM_FLOOR&#45;&gt;sm_hallway/ -->
<g id="edge12" class="edge transition">
<title>sm_hallway/VACUUM_FLOOR&#45;&gt;sm_hallway/</title>
<path fill="none" stroke="black" d="M884,-598.68C884,-593.62 884,-587.95 884,-582.42"/>
<polygon fill="black" stroke="black" points="887.5,-582.15 884,-572.15 880.5,-582.15 887.5,-582.15"/>
<text text-anchor="start" x="884" y="-583" font-family="Helvetica,sans-Serif" font-size="10.00">aborted &#160;&#160;</text>
</g>
<!-- sm_hallway/VACUUM_FLOOR&#45;&gt;sm_hallway/ -->
<g id="edge13" class="edge transition">
<title>sm_hallway/VACUUM_FLOOR&#45;&gt;sm_hallway/</title>
<path fill="none" stroke="black" d="M920.88,-598.68C923.27,-596.39 925.36,-593.84 927,-591 929.17,-587.23 929.27,-583.69 927.97,-580.4"/>
<polygon fill="black" stroke="black" points="930.58,-578.05 921.67,-572.32 925.06,-582.36 930.58,-578.05"/>
<text text-anchor="start" x="928" y="-583" font-family="Helvetica,sans-Serif" font-size="10.00">preempted &#160;&#160;</text>
</g>
<!-- sm_clean_house -->
<!-- sm_clean_house/START -->
<g id="node15" class="node state regular">
<title>sm_clean_house/START</title>
<polygon fill="#ffffff" fill-opacity="0.003922" stroke="transparent" stroke-width="2" points="1392,-635 1240,-635 1240,-599 1392,-599 1392,-635"/>
<text text-anchor="start" x="1251" y="-613.4" font-family="Helvetica,sans-Serif" font-size="12.00">sm_clean_house/START</text>
<path fill="none" stroke="black" stroke-width="2" d="M1252,-600.5C1252,-600.5 1380,-600.5 1380,-600.5 1385.5,-600.5 1391,-606 1391,-611.5 1391,-611.5 1391,-622.5 1391,-622.5 1391,-628 1385.5,-633.5 1380,-633.5 1380,-633.5 1252,-633.5 1252,-633.5 1246.5,-633.5 1241,-628 1241,-622.5 1241,-622.5 1241,-611.5 1241,-611.5 1241,-606 1246.5,-600.5 1252,-600.5"/>
</g>
<!-- sm_clean_house/LIVING_ROOM -->
<g id="node16" class="node state regular">
<title>sm_clean_house/LIVING_ROOM</title>
<polygon fill="#ffffff" fill-opacity="0.003922" stroke="transparent" stroke-width="2" points="1413,-572 1219,-572 1219,-536 1413,-536 1413,-572"/>
<text text-anchor="start" x="1230" y="-550.4" font-family="Helvetica,sans-Serif" font-size="12.00">sm_clean_house/LIVING_ROOM</text>
<path fill="none" stroke="black" stroke-width="2" d="M1231,-537.5C1231,-537.5 1401,-537.5 1401,-537.5 1406.5,-537.5 1412,-543 1412,-548.5 1412,-548.5 1412,-559.5 1412,-559.5 1412,-565 1406.5,-570.5 1401,-570.5 1401,-570.5 1231,-570.5 1231,-570.5 1225.5,-570.5 1220,-565 1220,-559.5 1220,-559.5 1220,-548.5 1220,-548.5 1220,-543 1225.5,-537.5 1231,-537.5"/>
</g>
<!-- sm_clean_house/START&#45;&gt;sm_clean_house/LIVING_ROOM -->
<g id="edge14" class="edge transition">
<title>sm_clean_house/START&#45;&gt;sm_clean_house/LIVING_ROOM</title>
<path fill="none" stroke="black" d="M1239.8,-599.12C1236.9,-596.74 1234.27,-594.05 1232,-591 1229.06,-587.06 1228.06,-583.54 1228.58,-580.41"/>
<polygon fill="black" stroke="black" points="1231.51,-582.33 1234.26,-572.1 1225.73,-578.38 1231.51,-582.33"/>
<text text-anchor="start" x="1232" y="-583" font-family="Helvetica,sans-Serif" font-size="10.00">succeeded &#160;&#160;</text>
</g>
<!-- sm_clean_house/START&#45;&gt;sm_clean_house/LIVING_ROOM -->
<g id="edge15" class="edge transition">
<title>sm_clean_house/START&#45;&gt;sm_clean_house/LIVING_ROOM</title>
<path fill="none" stroke="black" d="M1316,-598.68C1316,-593.62 1316,-587.95 1316,-582.42"/>
<polygon fill="black" stroke="black" points="1319.5,-582.15 1316,-572.15 1312.5,-582.15 1319.5,-582.15"/>
<text text-anchor="start" x="1316" y="-583" font-family="Helvetica,sans-Serif" font-size="10.00">aborted &#160;&#160;</text>
</g>
<!-- sm_clean_house/START&#45;&gt;sm_clean_house/LIVING_ROOM -->
<g id="edge16" class="edge transition">
<title>sm_clean_house/START&#45;&gt;sm_clean_house/LIVING_ROOM</title>
<path fill="none" stroke="black" d="M1352.88,-598.68C1355.27,-596.39 1357.36,-593.84 1359,-591 1361.17,-587.23 1361.27,-583.69 1359.97,-580.4"/>
<polygon fill="black" stroke="black" points="1362.58,-578.05 1353.67,-572.32 1357.06,-582.36 1362.58,-578.05"/>
<text text-anchor="start" x="1360" y="-583" font-family="Helvetica,sans-Serif" font-size="10.00">preempted &#160;&#160;</text>
</g>
<!-- sm_clean_house/LIVING_ROOM_TASKS -->
<g id="node17" class="node state regular">
<title>sm_clean_house/LIVING_ROOM_TASKS</title>
<polygon fill="#ffffff" fill-opacity="0.003922" stroke="transparent" stroke-width="2" points="1272,-501 1032,-501 1032,-465 1272,-465 1272,-501"/>
<text text-anchor="start" x="1043" y="-479.4" font-family="Helvetica,sans-Serif" font-size="12.00">sm_clean_house/LIVING_ROOM_TASKS</text>
<path fill="none" stroke="red" stroke-width="2" d="M1044,-466.5C1044,-466.5 1260,-466.5 1260,-466.5 1265.5,-466.5 1271,-472 1271,-477.5 1271,-477.5 1271,-488.5 1271,-488.5 1271,-494 1265.5,-499.5 1260,-499.5 1260,-499.5 1044,-499.5 1044,-499.5 1038.5,-499.5 1033,-494 1033,-488.5 1033,-488.5 1033,-477.5 1033,-477.5 1033,-472 1038.5,-466.5 1044,-466.5"/>
</g>
<!-- sm_clean_house/LIVING_ROOM&#45;&gt;sm_clean_house/LIVING_ROOM_TASKS -->
<g id="edge17" class="edge transition">
<title>sm_clean_house/LIVING_ROOM&#45;&gt;sm_clean_house/LIVING_ROOM_TASKS</title>
<path fill="none" stroke="black" d="M1275.46,-535.94C1253.28,-526.61 1225.62,-514.97 1202.1,-505.08"/>
<polygon fill="black" stroke="black" points="1203.22,-501.75 1192.64,-501.1 1200.5,-508.2 1203.22,-501.75"/>
<text text-anchor="start" x="1234" y="-512" font-family="Helvetica,sans-Serif" font-size="10.00">succeeded &#160;&#160;</text>
</g>
<!-- sm_clean_house/KITCHEN -->
<g id="node18" class="node state regular">
<title>sm_clean_house/KITCHEN</title>
<polygon fill="#ffffff" fill-opacity="0.003922" stroke="transparent" stroke-width="2" points="1367.5,-430 1202.5,-430 1202.5,-394 1367.5,-394 1367.5,-430"/>
<text text-anchor="start" x="1214" y="-408.4" font-family="Helvetica,sans-Serif" font-size="12.00">sm_clean_house/KITCHEN</text>
<path fill="none" stroke="black" stroke-width="2" d="M1214.5,-395.5C1214.5,-395.5 1355.5,-395.5 1355.5,-395.5 1361,-395.5 1366.5,-401 1366.5,-406.5 1366.5,-406.5 1366.5,-417.5 1366.5,-417.5 1366.5,-423 1361,-428.5 1355.5,-428.5 1355.5,-428.5 1214.5,-428.5 1214.5,-428.5 1209,-428.5 1203.5,-423 1203.5,-417.5 1203.5,-417.5 1203.5,-406.5 1203.5,-406.5 1203.5,-401 1209,-395.5 1214.5,-395.5"/>
</g>
<!-- sm_clean_house/LIVING_ROOM&#45;&gt;sm_clean_house/KITCHEN -->
<g id="edge18" class="edge transition">
<title>sm_clean_house/LIVING_ROOM&#45;&gt;sm_clean_house/KITCHEN</title>
<path fill="none" stroke="black" d="M1317.93,-535.84C1319.68,-514.46 1320.58,-476.94 1306.36,-439.54"/>
<polygon fill="black" stroke="black" points="1309.49,-437.94 1302.42,-430.05 1303.02,-440.63 1309.49,-437.94"/>
<text text-anchor="start" x="1318" y="-480.5" font-family="Helvetica,sans-Serif" font-size="10.00">aborted &#160;&#160;</text>
</g>
<!-- sm_clean_house/LIVING_ROOM&#45;&gt;sm_clean_house/KITCHEN -->
<g id="edge19" class="edge transition">
<title>sm_clean_house/LIVING_ROOM&#45;&gt;sm_clean_house/KITCHEN</title>
<path fill="none" stroke="black" d="M1338.66,-535.82C1348.77,-526.72 1359.6,-514.6 1365,-501 1372.21,-482.82 1374.95,-473.83 1365,-457 1359.86,-448.3 1352.31,-441.21 1343.89,-435.46"/>
<polygon fill="black" stroke="black" points="1345.57,-432.39 1335.22,-430.14 1341.92,-438.35 1345.57,-432.39"/>
<text text-anchor="start" x="1371" y="-480.5" font-family="Helvetica,sans-Serif" font-size="10.00">preempted &#160;&#160;</text>
</g>
<!-- sm_clean_house/LIVING_ROOM_TASKS&#45;&gt;sm_clean_house/KITCHEN -->
<g id="edge20" class="edge transition">
<title>sm_clean_house/LIVING_ROOM_TASKS&#45;&gt;sm_clean_house/KITCHEN</title>
<path fill="none" stroke="black" d="M1113.93,-464.95C1101.84,-457.23 1093.56,-447.67 1102,-438 1114.24,-423.97 1153.03,-417.53 1191.77,-414.67"/>
<polygon fill="black" stroke="black" points="1192.38,-418.14 1202.13,-413.99 1191.92,-411.15 1192.38,-418.14"/>
<text text-anchor="start" x="1102" y="-441" font-family="Helvetica,sans-Serif" font-size="10.00">succeeded &#160;&#160;</text>
</g>
<!-- sm_clean_house/LIVING_ROOM_TASKS&#45;&gt;sm_clean_house/KITCHEN -->
<g id="edge21" class="edge transition">
<title>sm_clean_house/LIVING_ROOM_TASKS&#45;&gt;sm_clean_house/KITCHEN</title>
<path fill="none" stroke="black" d="M1161.53,-464.64C1167.43,-455.43 1175.83,-444.67 1186,-438 1188.28,-436.5 1190.65,-435.1 1193.09,-433.77"/>
<polygon fill="black" stroke="black" points="1194.7,-436.88 1202.15,-429.34 1191.63,-430.59 1194.7,-436.88"/>
<text text-anchor="start" x="1186" y="-441" font-family="Helvetica,sans-Serif" font-size="10.00">aborted &#160;&#160;</text>
</g>
<!-- sm_clean_house/LIVING_ROOM_TASKS&#45;&gt;sm_clean_house/KITCHEN -->
<g id="edge22" class="edge transition">
<title>sm_clean_house/LIVING_ROOM_TASKS&#45;&gt;sm_clean_house/KITCHEN</title>
<path fill="none" stroke="black" d="M1195.36,-464.91C1206.5,-460.12 1218.34,-454.66 1229,-449 1236.63,-444.95 1244.58,-440.19 1252.01,-435.49"/>
<polygon fill="black" stroke="black" points="1253.95,-438.41 1260.45,-430.04 1250.15,-432.53 1253.95,-438.41"/>
<text text-anchor="start" x="1247" y="-441" font-family="Helvetica,sans-Serif" font-size="10.00">preempted &#160;&#160;</text>
</g>
<!-- sm_clean_house/KITCHEN_TASKS -->
<g id="node19" class="node state regular">
<title>sm_clean_house/KITCHEN_TASKS</title>
<polygon fill="#ffffff" fill-opacity="0.003922" stroke="transparent" stroke-width="2" points="1258,-367 1046,-367 1046,-331 1258,-331 1258,-367"/>
<text text-anchor="start" x="1057" y="-345.4" font-family="Helvetica,sans-Serif" font-size="12.00">sm_clean_house/KITCHEN_TASKS</text>
<path fill="none" stroke="red" stroke-width="2" d="M1058,-332.5C1058,-332.5 1246,-332.5 1246,-332.5 1251.5,-332.5 1257,-338 1257,-343.5 1257,-343.5 1257,-354.5 1257,-354.5 1257,-360 1251.5,-365.5 1246,-365.5 1246,-365.5 1058,-365.5 1058,-365.5 1052.5,-365.5 1047,-360 1047,-354.5 1047,-354.5 1047,-343.5 1047,-343.5 1047,-338 1052.5,-332.5 1058,-332.5"/>
</g>
<!-- sm_clean_house/KITCHEN&#45;&gt;sm_clean_house/KITCHEN_TASKS -->
<g id="edge23" class="edge transition">
<title>sm_clean_house/KITCHEN&#45;&gt;sm_clean_house/KITCHEN_TASKS</title>
<path fill="none" stroke="black" d="M1247.6,-393.85C1232.31,-386.83 1214.47,-378.65 1198.37,-371.27"/>
<polygon fill="black" stroke="black" points="1199.67,-368.01 1189.12,-367.03 1196.75,-374.38 1199.67,-368.01"/>
<text text-anchor="start" x="1230" y="-378" font-family="Helvetica,sans-Serif" font-size="10.00">succeeded &#160;&#160;</text>
</g>
<!-- sm_clean_house/BATHROOM -->
<g id="node20" class="node state regular">
<title>sm_clean_house/BATHROOM</title>
<polygon fill="#ffffff" fill-opacity="0.003922" stroke="transparent" stroke-width="2" points="1359,-304 1177,-304 1177,-268 1359,-268 1359,-304"/>
<text text-anchor="start" x="1188" y="-282.4" font-family="Helvetica,sans-Serif" font-size="12.00">sm_clean_house/BATHROOM</text>
<path fill="none" stroke="black" stroke-width="2" d="M1189,-269.5C1189,-269.5 1347,-269.5 1347,-269.5 1352.5,-269.5 1358,-275 1358,-280.5 1358,-280.5 1358,-291.5 1358,-291.5 1358,-297 1352.5,-302.5 1347,-302.5 1347,-302.5 1189,-302.5 1189,-302.5 1183.5,-302.5 1178,-297 1178,-291.5 1178,-291.5 1178,-280.5 1178,-280.5 1178,-275 1183.5,-269.5 1189,-269.5"/>
</g>
<!-- sm_clean_house/KITCHEN&#45;&gt;sm_clean_house/BATHROOM -->
<g id="edge24" class="edge transition">
<title>sm_clean_house/KITCHEN&#45;&gt;sm_clean_house/BATHROOM</title>
<path fill="none" stroke="black" d="M1291.01,-393.8C1296.55,-375.27 1302.89,-345.01 1291.98,-313.4"/>
<polygon fill="black" stroke="black" points="1295.19,-311.99 1288.23,-304 1288.69,-314.59 1295.19,-311.99"/>
<text text-anchor="start" x="1298" y="-346.5" font-family="Helvetica,sans-Serif" font-size="10.00">aborted &#160;&#160;</text>
</g>
<!-- sm_clean_house/KITCHEN&#45;&gt;sm_clean_house/BATHROOM -->
<g id="edge25" class="edge transition">
<title>sm_clean_house/KITCHEN&#45;&gt;sm_clean_house/BATHROOM</title>
<path fill="none" stroke="black" d="M1319.45,-393.88C1329.56,-387.01 1339.39,-378.06 1345,-367 1352.23,-352.73 1353.03,-344.84 1345,-331 1339.96,-322.31 1332.48,-315.19 1324.14,-309.41"/>
<polygon fill="black" stroke="black" points="1325.91,-306.39 1315.58,-304.06 1322.21,-312.33 1325.91,-306.39"/>
<text text-anchor="start" x="1350" y="-346.5" font-family="Helvetica,sans-Serif" font-size="10.00">preempted &#160;&#160;</text>
</g>
<!-- sm_clean_house/KITCHEN_TASKS&#45;&gt;sm_clean_house/BATHROOM -->
<g id="edge26" class="edge transition">
<title>sm_clean_house/KITCHEN_TASKS&#45;&gt;sm_clean_house/BATHROOM</title>
<path fill="none" stroke="black" d="M1092.73,-330.87C1084.86,-325.77 1081.47,-319.5 1088,-312 1098.98,-299.39 1131.75,-292.93 1166.37,-289.7"/>
<polygon fill="black" stroke="black" points="1166.98,-293.16 1176.65,-288.83 1166.4,-286.18 1166.98,-293.16"/>
<text text-anchor="start" x="1088" y="-315" font-family="Helvetica,sans-Serif" font-size="10.00">succeeded &#160;&#160;</text>
</g>
<!-- sm_clean_house/KITCHEN_TASKS&#45;&gt;sm_clean_house/BATHROOM -->
<g id="edge27" class="edge transition">
<title>sm_clean_house/KITCHEN_TASKS&#45;&gt;sm_clean_house/BATHROOM</title>
<path fill="none" stroke="black" d="M1158.03,-330.93C1161.22,-324.14 1165.78,-316.82 1172,-312 1173.19,-311.08 1174.41,-310.19 1175.66,-309.33"/>
<polygon fill="black" stroke="black" points="1177.51,-312.3 1184.26,-304.14 1173.89,-306.31 1177.51,-312.3"/>
<text text-anchor="start" x="1172" y="-315" font-family="Helvetica,sans-Serif" font-size="10.00">aborted &#160;&#160;</text>
</g>
<!-- sm_clean_house/KITCHEN_TASKS&#45;&gt;sm_clean_house/BATHROOM -->
<g id="edge28" class="edge transition">
<title>sm_clean_house/KITCHEN_TASKS&#45;&gt;sm_clean_house/BATHROOM</title>
<path fill="none" stroke="black" d="M1198.29,-330.99C1204.01,-328.49 1209.7,-325.81 1215,-323 1222.26,-319.16 1229.74,-314.53 1236.71,-309.9"/>
<polygon fill="black" stroke="black" points="1238.93,-312.63 1245.21,-304.09 1234.98,-306.85 1238.93,-312.63"/>
<text text-anchor="start" x="1233" y="-315" font-family="Helvetica,sans-Serif" font-size="10.00">preempted &#160;&#160;</text>
</g>
<!-- sm_clean_house/BATHROOM_TASKS -->
<g id="node21" class="node state regular">
<title>sm_clean_house/BATHROOM_TASKS</title>
<polygon fill="#ffffff" fill-opacity="0.003922" stroke="transparent" stroke-width="2" points="1266,-241 1038,-241 1038,-205 1266,-205 1266,-241"/>
<text text-anchor="start" x="1049" y="-219.4" font-family="Helvetica,sans-Serif" font-size="12.00">sm_clean_house/BATHROOM_TASKS</text>
<path fill="none" stroke="red" stroke-width="2" d="M1050,-206.5C1050,-206.5 1254,-206.5 1254,-206.5 1259.5,-206.5 1265,-212 1265,-217.5 1265,-217.5 1265,-228.5 1265,-228.5 1265,-234 1259.5,-239.5 1254,-239.5 1254,-239.5 1050,-239.5 1050,-239.5 1044.5,-239.5 1039,-234 1039,-228.5 1039,-228.5 1039,-217.5 1039,-217.5 1039,-212 1044.5,-206.5 1050,-206.5"/>
</g>
<!-- sm_clean_house/BATHROOM&#45;&gt;sm_clean_house/BATHROOM_TASKS -->
<g id="edge29" class="edge transition">
<title>sm_clean_house/BATHROOM&#45;&gt;sm_clean_house/BATHROOM_TASKS</title>
<path fill="none" stroke="black" d="M1235.38,-267.85C1222.3,-260.97 1207.07,-252.96 1193.23,-245.68"/>
<polygon fill="black" stroke="black" points="1194.86,-242.58 1184.38,-241.03 1191.6,-248.78 1194.86,-242.58"/>
<text text-anchor="start" x="1220" y="-252" font-family="Helvetica,sans-Serif" font-size="10.00">succeeded &#160;&#160;</text>
</g>
<!-- sm_clean_house/HALLWAY -->
<g id="node22" class="node state regular">
<title>sm_clean_house/HALLWAY</title>
<polygon fill="#ffffff" fill-opacity="0.003922" stroke="transparent" stroke-width="2" points="1356,-178 1186,-178 1186,-142 1356,-142 1356,-178"/>
<text text-anchor="start" x="1197" y="-156.4" font-family="Helvetica,sans-Serif" font-size="12.00">sm_clean_house/HALLWAY</text>
<path fill="none" stroke="black" stroke-width="2" d="M1198,-143.5C1198,-143.5 1344,-143.5 1344,-143.5 1349.5,-143.5 1355,-149 1355,-154.5 1355,-154.5 1355,-165.5 1355,-165.5 1355,-171 1349.5,-176.5 1344,-176.5 1344,-176.5 1198,-176.5 1198,-176.5 1192.5,-176.5 1187,-171 1187,-165.5 1187,-165.5 1187,-154.5 1187,-154.5 1187,-149 1192.5,-143.5 1198,-143.5"/>
</g>
<!-- sm_clean_house/BATHROOM&#45;&gt;sm_clean_house/HALLWAY -->
<g id="edge30" class="edge transition">
<title>sm_clean_house/BATHROOM&#45;&gt;sm_clean_house/HALLWAY</title>
<path fill="none" stroke="black" d="M1278.36,-267.79C1279.69,-265.23 1280.95,-262.58 1282,-260 1292.95,-233.14 1295.19,-225.75 1299,-197 1299.43,-193.74 1300.19,-191.91 1298.48,-187.29"/>
<polygon fill="black" stroke="black" points="1301.46,-185.44 1293.88,-178.04 1295.19,-188.55 1301.46,-185.44"/>
<text text-anchor="start" x="1297" y="-220.5" font-family="Helvetica,sans-Serif" font-size="10.00">aborted &#160;&#160;</text>
</g>
<!-- sm_clean_house/BATHROOM&#45;&gt;sm_clean_house/HALLWAY -->
<g id="edge31" class="edge transition">
<title>sm_clean_house/BATHROOM&#45;&gt;sm_clean_house/HALLWAY</title>
<path fill="none" stroke="black" d="M1314.97,-267.81C1326.48,-261.25 1337.37,-252.49 1344,-241 1351.99,-227.14 1351.87,-218.93 1344,-205 1339.19,-196.49 1332.01,-189.44 1323.99,-183.67"/>
<polygon fill="black" stroke="black" points="1325.69,-180.6 1315.4,-178.1 1321.89,-186.48 1325.69,-180.6"/>
<text text-anchor="start" x="1349" y="-220.5" font-family="Helvetica,sans-Serif" font-size="10.00">preempted &#160;&#160;</text>
</g>
<!-- sm_clean_house/BATHROOM_TASKS&#45;&gt;sm_clean_house/HALLWAY -->
<g id="edge32" class="edge transition">
<title>sm_clean_house/BATHROOM_TASKS&#45;&gt;sm_clean_house/HALLWAY</title>
<path fill="none" stroke="black" d="M1101.23,-204.83C1093.39,-199.58 1089.71,-193.25 1096,-186 1106.98,-173.34 1140.45,-166.93 1175.21,-163.74"/>
<polygon fill="black" stroke="black" points="1175.85,-167.2 1185.52,-162.89 1175.27,-160.23 1175.85,-167.2"/>
<text text-anchor="start" x="1096" y="-189" font-family="Helvetica,sans-Serif" font-size="10.00">succeeded &#160;&#160;</text>
</g>
<!-- sm_clean_house/BATHROOM_TASKS&#45;&gt;sm_clean_house/HALLWAY -->
<g id="edge33" class="edge transition">
<title>sm_clean_house/BATHROOM_TASKS&#45;&gt;sm_clean_house/HALLWAY</title>
<path fill="none" stroke="black" d="M1161.87,-204.95C1166.57,-198.17 1172.76,-190.84 1180,-186 1181.69,-184.87 1183.42,-183.8 1185.2,-182.77"/>
<polygon fill="black" stroke="black" points="1187.1,-185.73 1194.38,-178.02 1183.89,-179.51 1187.1,-185.73"/>
<text text-anchor="start" x="1180" y="-189" font-family="Helvetica,sans-Serif" font-size="10.00">aborted &#160;&#160;</text>
</g>
<!-- sm_clean_house/BATHROOM_TASKS&#45;&gt;sm_clean_house/HALLWAY -->
<g id="edge34" class="edge transition">
<title>sm_clean_house/BATHROOM_TASKS&#45;&gt;sm_clean_house/HALLWAY</title>
<path fill="none" stroke="black" d="M1206.25,-204.85C1212.01,-202.46 1217.7,-199.83 1223,-197 1229.69,-193.42 1236.47,-188.96 1242.73,-184.41"/>
<polygon fill="black" stroke="black" points="1245.04,-187.06 1250.9,-178.23 1240.82,-181.47 1245.04,-187.06"/>
<text text-anchor="start" x="1239" y="-189" font-family="Helvetica,sans-Serif" font-size="10.00">preempted &#160;&#160;</text>
</g>
<!-- sm_clean_house/HALLWAY_TASKS -->
<g id="node23" class="node state regular">
<title>sm_clean_house/HALLWAY_TASKS</title>
<polygon fill="#ffffff" fill-opacity="0.003922" stroke="transparent" stroke-width="2" points="1249.5,-115 1032.5,-115 1032.5,-79 1249.5,-79 1249.5,-115"/>
<text text-anchor="start" x="1044" y="-93.4" font-family="Helvetica,sans-Serif" font-size="12.00">sm_clean_house/HALLWAY_TASKS</text>
<path fill="none" stroke="red" stroke-width="2" d="M1044.5,-80.5C1044.5,-80.5 1237.5,-80.5 1237.5,-80.5 1243,-80.5 1248.5,-86 1248.5,-91.5 1248.5,-91.5 1248.5,-102.5 1248.5,-102.5 1248.5,-108 1243,-113.5 1237.5,-113.5 1237.5,-113.5 1044.5,-113.5 1044.5,-113.5 1039,-113.5 1033.5,-108 1033.5,-102.5 1033.5,-102.5 1033.5,-91.5 1033.5,-91.5 1033.5,-86 1039,-80.5 1044.5,-80.5"/>
</g>
<!-- sm_clean_house/HALLWAY&#45;&gt;sm_clean_house/HALLWAY_TASKS -->
<g id="edge35" class="edge transition">
<title>sm_clean_house/HALLWAY&#45;&gt;sm_clean_house/HALLWAY_TASKS</title>
<path fill="none" stroke="black" d="M1234.44,-141.85C1219.64,-134.9 1202.39,-126.8 1186.76,-119.47"/>
<polygon fill="black" stroke="black" points="1187.82,-116.1 1177.28,-115.03 1184.85,-122.44 1187.82,-116.1"/>
<text text-anchor="start" x="1217" y="-126" font-family="Helvetica,sans-Serif" font-size="10.00">succeeded &#160;&#160;</text>
</g>
<!-- sm_clean_house/ -->
<g id="node24" class="node state regular">
<title>sm_clean_house/</title>
<polygon fill="#ffffff" fill-opacity="0.003922" stroke="transparent" stroke-width="2" points="1290,-52 1176,-52 1176,-16 1290,-16 1290,-52"/>
<text text-anchor="start" x="1187" y="-30.4" font-family="Helvetica,sans-Serif" font-size="12.00">sm_clean_house/</text>
<path fill="none" stroke="black" stroke-width="2" d="M1188,-17.5C1188,-17.5 1278,-17.5 1278,-17.5 1283.5,-17.5 1289,-23 1289,-28.5 1289,-28.5 1289,-39.5 1289,-39.5 1289,-45 1283.5,-50.5 1278,-50.5 1278,-50.5 1188,-50.5 1188,-50.5 1182.5,-50.5 1177,-45 1177,-39.5 1177,-39.5 1177,-28.5 1177,-28.5 1177,-23 1182.5,-17.5 1188,-17.5"/>
</g>
<!-- sm_clean_house/HALLWAY&#45;&gt;sm_clean_house/ -->
<g id="edge36" class="edge transition">
<title>sm_clean_house/HALLWAY&#45;&gt;sm_clean_house/</title>
<path fill="none" stroke="black" d="M1277.58,-141.84C1284.42,-120.91 1292.21,-85.21 1277,-60 1276.95,-59.91 1276.89,-59.82 1276.84,-59.73"/>
<polygon fill="black" stroke="black" points="1279.72,-57.73 1270.63,-52.29 1274.35,-62.21 1279.72,-57.73"/>
<text text-anchor="start" x="1285" y="-94.5" font-family="Helvetica,sans-Serif" font-size="10.00">aborted &#160;&#160;</text>
</g>
<!-- sm_clean_house/HALLWAY&#45;&gt;sm_clean_house/ -->
<g id="edge37" class="edge transition">
<title>sm_clean_house/HALLWAY&#45;&gt;sm_clean_house/</title>
<path fill="none" stroke="black" d="M1306.01,-142C1316.28,-135.14 1326.29,-126.16 1332,-115 1339.29,-100.76 1340.72,-92.42 1332,-79 1324.25,-67.07 1312.43,-58.35 1299.63,-51.98"/>
<polygon fill="black" stroke="black" points="1300.74,-48.64 1290.18,-47.75 1297.88,-55.03 1300.74,-48.64"/>
<text text-anchor="start" x="1338" y="-94.5" font-family="Helvetica,sans-Serif" font-size="10.00">preempted &#160;&#160;</text>
</g>
<!-- sm_clean_house/HALLWAY_TASKS&#45;&gt;sm_clean_house/ -->
<g id="edge38" class="edge transition">
<title>sm_clean_house/HALLWAY_TASKS&#45;&gt;sm_clean_house/</title>
<path fill="none" stroke="black" d="M1085.11,-78.98C1077.2,-73.82 1073.63,-67.5 1080,-60 1091.27,-46.74 1130.21,-40.49 1165.98,-37.56"/>
<polygon fill="black" stroke="black" points="1166.25,-41.05 1175.96,-36.82 1165.73,-34.07 1166.25,-41.05"/>
<text text-anchor="start" x="1080" y="-63" font-family="Helvetica,sans-Serif" font-size="10.00">succeeded &#160;&#160;</text>
</g>
<!-- sm_clean_house/HALLWAY_TASKS&#45;&gt;sm_clean_house/ -->
<g id="edge39" class="edge transition">
<title>sm_clean_house/HALLWAY_TASKS&#45;&gt;sm_clean_house/</title>
<path fill="none" stroke="black" d="M1148.9,-78.83C1152.68,-72.19 1157.75,-65.01 1164,-60 1165.04,-59.17 1166.1,-58.37 1167.19,-57.59"/>
<polygon fill="black" stroke="black" points="1169.35,-60.37 1175.99,-52.12 1165.65,-54.43 1169.35,-60.37"/>
<text text-anchor="start" x="1164" y="-63" font-family="Helvetica,sans-Serif" font-size="10.00">aborted &#160;&#160;</text>
</g>
<!-- sm_clean_house/HALLWAY_TASKS&#45;&gt;sm_clean_house/ -->
<g id="edge40" class="edge transition">
<title>sm_clean_house/HALLWAY_TASKS&#45;&gt;sm_clean_house/</title>
<path fill="none" stroke="black" d="M1194.69,-78.83C1199.04,-76.51 1203.21,-73.91 1207,-71 1210.92,-67.99 1214.51,-64.23 1217.69,-60.29"/>
<polygon fill="black" stroke="black" points="1220.58,-62.26 1223.61,-52.11 1214.91,-58.16 1220.58,-62.26"/>
<text text-anchor="start" x="1217" y="-63" font-family="Helvetica,sans-Serif" font-size="10.00">preempted &#160;&#160;</text>
</g>
</g>
</svg>
