<?xml version="1.0" encoding="UTF-8" standalone="no"?>
<!DOCTYPE svg PUBLIC "-//W3C//DTD SVG 1.1//EN"
 "http://www.w3.org/Graphics/SVG/1.1/DTD/svg11.dtd">
<!-- Generated by graphviz version 2.49.1 (20210923.0004)
 -->
<!-- Title: state transitions Pages: 1 -->
<svg width="287pt" height="168pt"
 viewBox="0.00 0.00 287.00 168.00" xmlns="http://www.w3.org/2000/svg" xmlns:xlink="http://www.w3.org/1999/xlink">
<g id="graph0" class="graph" transform="scale(1 1) rotate(0) translate(4 164)">
<title>state transitions</title>
<polygon fill="white" stroke="transparent" points="-4,4 -4,-164 283,-164 283,4 -4,4"/>
<g id="clust1" class="cluster state regular">
<title>cluster_main</title>
<path fill="none" stroke="black" stroke-width="2" d="M20,-8C20,-8 259,-8 259,-8 265,-8 271,-14 271,-20 271,-20 271,-140 271,-140 271,-146 265,-152 259,-152 259,-152 20,-152 20,-152 14,-152 8,-146 8,-140 8,-140 8,-20 8,-20 8,-14 14,-8 20,-8"/>
<text text-anchor="start" x="126.5" y="-133.9" font-family="Helvetica,sans-Serif" font-size="12.00">main</text>
</g>
<!-- main -->
<!-- main/Gate_or_Post -->
<g id="node2" class="node state regular">
<title>main/Gate_or_Post</title>
<polygon fill="#ffffff" fill-opacity="0.003922" stroke="transparent" stroke-width="2" points="169.5,-115 44.5,-115 44.5,-79 169.5,-79 169.5,-115"/>
<text text-anchor="start" x="56" y="-93.4" font-family="Helvetica,sans-Serif" font-size="12.00">main/Gate_or_Post</text>
<path fill="none" stroke="black" stroke-width="2" d="M56.5,-80.5C56.5,-80.5 157.5,-80.5 157.5,-80.5 163,-80.5 168.5,-86 168.5,-91.5 168.5,-91.5 168.5,-102.5 168.5,-102.5 168.5,-108 163,-113.5 157.5,-113.5 157.5,-113.5 56.5,-113.5 56.5,-113.5 51,-113.5 45.5,-108 45.5,-102.5 45.5,-102.5 45.5,-91.5 45.5,-91.5 45.5,-86 51,-80.5 56.5,-80.5"/>
</g>
<!-- main/Gate_Code -->
<g id="node3" class="node state regular">
<title>main/Gate_Code</title>
<polygon fill="#ffffff" fill-opacity="0.003922" stroke="transparent" stroke-width="2" points="129.5,-52 16.5,-52 16.5,-16 129.5,-16 129.5,-52"/>
<text text-anchor="start" x="28" y="-30.4" font-family="Helvetica,sans-Serif" font-size="12.00">main/Gate_Code</text>
<path fill="none" stroke="black" stroke-width="2" d="M28.5,-17.5C28.5,-17.5 117.5,-17.5 117.5,-17.5 123,-17.5 128.5,-23 128.5,-28.5 128.5,-28.5 128.5,-39.5 128.5,-39.5 128.5,-45 123,-50.5 117.5,-50.5 117.5,-50.5 28.5,-50.5 28.5,-50.5 23,-50.5 17.5,-45 17.5,-39.5 17.5,-39.5 17.5,-28.5 17.5,-28.5 17.5,-23 23,-17.5 28.5,-17.5"/>
</g>
<!-- main/Gate_or_Post&#45;&gt;main/Gate_Code -->
<g id="edge1" class="edge transition">
<title>main/Gate_or_Post&#45;&gt;main/Gate_Code</title>
<path fill="none" stroke="black" d="M97.35,-78.68C94.31,-73.23 90.88,-67.08 87.57,-61.15"/>
<polygon fill="black" stroke="black" points="90.48,-59.18 82.56,-52.15 84.37,-62.59 90.48,-59.18"/>
<text text-anchor="middle" x="95" y="-63" font-family="Helvetica,sans-Serif" font-size="10.00"> </text>
</g>
<!-- main/Post_Code -->
<g id="node4" class="node state regular">
<title>main/Post_Code</title>
<polygon fill="#ffffff" fill-opacity="0.003922" stroke="transparent" stroke-width="2" points="262.5,-52 151.5,-52 151.5,-16 262.5,-16 262.5,-52"/>
<text text-anchor="start" x="163" y="-30.4" font-family="Helvetica,sans-Serif" font-size="12.00">main/Post_Code</text>
<path fill="none" stroke="black" stroke-width="2" d="M163.5,-17.5C163.5,-17.5 250.5,-17.5 250.5,-17.5 256,-17.5 261.5,-23 261.5,-28.5 261.5,-28.5 261.5,-39.5 261.5,-39.5 261.5,-45 256,-50.5 250.5,-50.5 250.5,-50.5 163.5,-50.5 163.5,-50.5 158,-50.5 152.5,-45 152.5,-39.5 152.5,-39.5 152.5,-28.5 152.5,-28.5 152.5,-23 158,-17.5 163.5,-17.5"/>
</g>
<!-- main/Gate_or_Post&#45;&gt;main/Post_Code -->
<g id="edge2" class="edge transition">
<title>main/Gate_or_Post&#45;&gt;main/Post_Code</title>
<path fill="none" stroke="black" d="M135.12,-78.85C146.08,-72.16 158.78,-64.41 170.43,-57.31"/>
<polygon fill="black" stroke="black" points="172.38,-60.22 179.09,-52.03 168.73,-54.25 172.38,-60.22"/>
<text text-anchor="middle" x="167" y="-63" font-family="Helvetica,sans-Serif" font-size="10.00"> </text>
</g>
</g>
</svg>
