<?xml version="1.0" encoding="UTF-8" standalone="no"?>
<!DOCTYPE svg PUBLIC "-//W3C//DTD SVG 1.1//EN"
 "http://www.w3.org/Graphics/SVG/1.1/DTD/svg11.dtd">
<!-- Generated by graphviz version 2.49.1 (20210923.0004)
 -->
<!-- Title: state transitions Pages: 1 -->
<svg width="292pt" height="168pt"
 viewBox="0.00 0.00 292.00 168.00" xmlns="http://www.w3.org/2000/svg" xmlns:xlink="http://www.w3.org/1999/xlink">
<g id="graph0" class="graph" transform="scale(1 1) rotate(0) translate(4 164)">
<title>state transitions</title>
<polygon fill="white" stroke="transparent" points="-4,4 -4,-164 288,-164 288,4 -4,4"/>
<g id="clust1" class="cluster state regular">
<title>cluster_main</title>
<path fill="none" stroke="black" stroke-width="2" d="M20,-8C20,-8 264,-8 264,-8 270,-8 276,-14 276,-20 276,-20 276,-140 276,-140 276,-146 270,-152 264,-152 264,-152 20,-152 20,-152 14,-152 8,-146 8,-140 8,-140 8,-20 8,-20 8,-14 14,-8 20,-8"/>
<text text-anchor="start" x="129" y="-133.9" font-family="Helvetica,sans-Serif" font-size="12.00">main</text>
</g>
<!-- main -->
<!-- main/Search_Algorithm_For_QR_Code -->
<g id="node2" class="node state regular">
<title>main/Search_Algorithm_For_QR_Code</title>
<polygon fill="#ffffff" fill-opacity="0.003922" stroke="transparent" stroke-width="2" points="246,-115 16,-115 16,-79 246,-79 246,-115"/>
<text text-anchor="start" x="27" y="-93.4" font-family="Helvetica,sans-Serif" font-size="12.00">main/Search_Algorithm_For_QR_Code</text>
<path fill="none" stroke="black" stroke-width="2" d="M28,-80.5C28,-80.5 234,-80.5 234,-80.5 239.5,-80.5 245,-86 245,-91.5 245,-91.5 245,-102.5 245,-102.5 245,-108 239.5,-113.5 234,-113.5 234,-113.5 28,-113.5 28,-113.5 22.5,-113.5 17,-108 17,-102.5 17,-102.5 17,-91.5 17,-91.5 17,-86 22.5,-80.5 28,-80.5"/>
</g>
<!-- main/Gate_or_Post -->
<g id="node3" class="node state regular">
<title>main/Gate_or_Post</title>
<polygon fill="#ffffff" fill-opacity="0.003922" stroke="transparent" stroke-width="2" points="185.5,-52 60.5,-52 60.5,-16 185.5,-16 185.5,-52"/>
<text text-anchor="start" x="72" y="-30.4" font-family="Helvetica,sans-Serif" font-size="12.00">main/Gate_or_Post</text>
<path fill="none" stroke="black" stroke-width="2" d="M72.5,-17.5C72.5,-17.5 173.5,-17.5 173.5,-17.5 179,-17.5 184.5,-23 184.5,-28.5 184.5,-28.5 184.5,-39.5 184.5,-39.5 184.5,-45 179,-50.5 173.5,-50.5 173.5,-50.5 72.5,-50.5 72.5,-50.5 67,-50.5 61.5,-45 61.5,-39.5 61.5,-39.5 61.5,-28.5 61.5,-28.5 61.5,-23 67,-17.5 72.5,-17.5"/>
</g>
<!-- main/Search_Algorithm_For_QR_Code&#45;&gt;main/Gate_or_Post -->
<g id="edge1" class="edge transition">
<title>main/Search_Algorithm_For_QR_Code&#45;&gt;main/Gate_or_Post</title>
<path fill="none" stroke="black" d="M128.73,-78.68C128.06,-73.62 127.32,-67.95 126.6,-62.42"/>
<polygon fill="black" stroke="black" points="130.02,-61.61 125.25,-52.15 123.08,-62.52 130.02,-61.61"/>
<text text-anchor="start" x="127" y="-63" font-family="Helvetica,sans-Serif" font-size="10.00">SearchAlgorithmFoundQRCode &#160;&#160;</text>
</g>
</g>
</svg>
