<?xml version="1.0" encoding="UTF-8" standalone="no"?>
<!DOCTYPE svg PUBLIC "-//W3C//DTD SVG 1.1//EN"
 "http://www.w3.org/Graphics/SVG/1.1/DTD/svg11.dtd">
<!-- Generated by graphviz version 2.49.1 (20210923.0004)
 -->
<!-- Title: state transitions Pages: 1 -->
<svg width="206pt" height="168pt"
 viewBox="0.00 0.00 206.00 168.00" xmlns="http://www.w3.org/2000/svg" xmlns:xlink="http://www.w3.org/1999/xlink">
<g id="graph0" class="graph" transform="scale(1 1) rotate(0) translate(4 164)">
<title>state transitions</title>
<polygon fill="white" stroke="transparent" points="-4,4 -4,-164 202,-164 202,4 -4,4"/>
<g id="clust1" class="cluster state regular">
<title>cluster_sm</title>
<path fill="none" stroke="black" stroke-width="2" d="M20,-8C20,-8 178,-8 178,-8 184,-8 190,-14 190,-20 190,-20 190,-140 190,-140 190,-146 184,-152 178,-152 178,-152 20,-152 20,-152 14,-152 8,-146 8,-140 8,-140 8,-20 8,-20 8,-14 14,-8 20,-8"/>
<text text-anchor="start" x="91" y="-133.9" font-family="Helvetica,sans-Serif" font-size="12.00">sm</text>
</g>
<!-- sm -->
<!-- sm/TASK -->
<g id="node2" class="node state regular">
<title>sm/TASK</title>
<polygon fill="#ffffff" fill-opacity="0.003922" stroke="transparent" stroke-width="2" points="89.5,-115 16.5,-115 16.5,-79 89.5,-79 89.5,-115"/>
<text text-anchor="start" x="28" y="-93.4" font-family="Helvetica,sans-Serif" font-size="12.00">sm/TASK</text>
<path fill="none" stroke="black" stroke-width="2" d="M28.5,-80.5C28.5,-80.5 77.5,-80.5 77.5,-80.5 83,-80.5 88.5,-86 88.5,-91.5 88.5,-91.5 88.5,-102.5 88.5,-102.5 88.5,-108 83,-113.5 77.5,-113.5 77.5,-113.5 28.5,-113.5 28.5,-113.5 23,-113.5 17.5,-108 17.5,-102.5 17.5,-102.5 17.5,-91.5 17.5,-91.5 17.5,-86 23,-80.5 28.5,-80.5"/>
</g>
<!-- sm/TASK&#45;&gt;sm/TASK -->
<g id="edge2" class="edge transition">
<title>sm/TASK&#45;&gt;sm/TASK</title>
<path fill="none" stroke="black" d="M89.56,-102.62C101.75,-102.62 111.5,-100.75 111.5,-97 111.5,-94.36 106.68,-92.65 99.58,-91.87"/>
<polygon fill="black" stroke="black" points="99.72,-88.37 89.56,-91.38 99.38,-95.37 99.72,-88.37"/>
<text text-anchor="start" x="111.5" y="-94.5" font-family="Helvetica,sans-Serif" font-size="10.00">outcome2 &#160;&#160;</text>
</g>
<!-- sm/task_finish -->
<g id="node3" class="node state regular">
<title>sm/task_finish</title>
<polygon fill="#ffffff" fill-opacity="0.003922" stroke="transparent" stroke-width="2" points="113.5,-52 16.5,-52 16.5,-16 113.5,-16 113.5,-52"/>
<text text-anchor="start" x="28" y="-30.4" font-family="Helvetica,sans-Serif" font-size="12.00">sm/task_finish</text>
<path fill="none" stroke="black" stroke-width="2" d="M28.5,-17.5C28.5,-17.5 101.5,-17.5 101.5,-17.5 107,-17.5 112.5,-23 112.5,-28.5 112.5,-28.5 112.5,-39.5 112.5,-39.5 112.5,-45 107,-50.5 101.5,-50.5 101.5,-50.5 28.5,-50.5 28.5,-50.5 23,-50.5 17.5,-45 17.5,-39.5 17.5,-39.5 17.5,-28.5 17.5,-28.5 17.5,-23 23,-17.5 28.5,-17.5"/>
</g>
<!-- sm/TASK&#45;&gt;sm/task_finish -->
<g id="edge1" class="edge transition">
<title>sm/TASK&#45;&gt;sm/task_finish</title>
<path fill="none" stroke="black" d="M56.41,-78.68C57.43,-73.49 58.58,-67.66 59.69,-62"/>
<polygon fill="black" stroke="black" points="63.13,-62.64 61.63,-52.15 56.26,-61.29 63.13,-62.64"/>
<text text-anchor="start" x="60" y="-63" font-family="Helvetica,sans-Serif" font-size="10.00">outcome1 &#160;&#160;</text>
</g>
</g>
</svg>
