<?xml version="1.0" encoding="UTF-8" standalone="no"?>
<!DOCTYPE svg PUBLIC "-//W3C//DTD SVG 1.1//EN"
 "http://www.w3.org/Graphics/SVG/1.1/DTD/svg11.dtd">
<!-- Generated by graphviz version 2.49.1 (20210923.0004)
 -->
<!-- Title: state transitions Pages: 1 -->
<svg width="1484pt" height="869pt"
 viewBox="0.00 0.00 1484.00 869.00" xmlns="http://www.w3.org/2000/svg" xmlns:xlink="http://www.w3.org/1999/xlink">
<g id="graph0" class="graph" transform="scale(1 1) rotate(0) translate(4 865)">
<title>state transitions</title>
<polygon fill="white" stroke="transparent" points="-4,4 -4,-865 1480,-865 1480,4 -4,4"/>
<g id="clust2" class="cluster state regular">
<title>cluster__state_machine</title>
<path fill="none" stroke="black" stroke-width="2" d="M739,-8C739,-8 1436,-8 1436,-8 1442,-8 1448,-14 1448,-20 1448,-20 1448,-841 1448,-841 1448,-847 1442,-853 1436,-853 1436,-853 739,-853 739,-853 733,-853 727,-847 727,-841 727,-841 727,-20 727,-20 727,-14 733,-8 739,-8"/>
<text text-anchor="start" x="1045.5" y="-834.9" font-family="Helvetica,sans-Serif" font-size="12.00">_state_machine</text>
</g>
<g id="clust1" class="cluster state regular">
<title>cluster__sm_container_0</title>
<path fill="none" stroke="black" stroke-width="2" d="M20,-709C20,-709 707,-709 707,-709 713,-709 719,-715 719,-721 719,-721 719,-841 719,-841 719,-847 713,-853 707,-853 707,-853 20,-853 20,-853 14,-853 8,-847 8,-841 8,-841 8,-721 8,-721 8,-715 14,-709 20,-709"/>
<text text-anchor="start" x="318.5" y="-834.9" font-family="Helvetica,sans-Serif" font-size="12.00">_sm_container_0</text>
</g>
<!-- _sm_container_0 -->
<!-- _sm_container_0/MidLevel -->
<g id="node2" class="node state regular">
<title>_sm_container_0/MidLevel</title>
<polygon fill="#ffffff" fill-opacity="0.003922" stroke="transparent" stroke-width="2" points="586,-816 422,-816 422,-780 586,-780 586,-816"/>
<text text-anchor="start" x="433" y="-794.4" font-family="Helvetica,sans-Serif" font-size="12.00">_sm_container_0/MidLevel</text>
<path fill="none" stroke="black" stroke-width="2" d="M434,-781.5C434,-781.5 574,-781.5 574,-781.5 579.5,-781.5 585,-787 585,-792.5 585,-792.5 585,-803.5 585,-803.5 585,-809 579.5,-814.5 574,-814.5 574,-814.5 434,-814.5 434,-814.5 428.5,-814.5 423,-809 423,-803.5 423,-803.5 423,-792.5 423,-792.5 423,-787 428.5,-781.5 434,-781.5"/>
</g>
<!-- _sm_container_0/finished -->
<g id="node5" class="node state regular">
<title>_sm_container_0/finished</title>
<polygon fill="#ffffff" fill-opacity="0.003922" stroke="transparent" stroke-width="2" points="348.5,-753 191.5,-753 191.5,-717 348.5,-717 348.5,-753"/>
<text text-anchor="start" x="203" y="-731.4" font-family="Helvetica,sans-Serif" font-size="12.00">_sm_container_0/finished</text>
<path fill="none" stroke="black" stroke-width="2" d="M203.5,-718.5C203.5,-718.5 336.5,-718.5 336.5,-718.5 342,-718.5 347.5,-724 347.5,-729.5 347.5,-729.5 347.5,-740.5 347.5,-740.5 347.5,-746 342,-751.5 336.5,-751.5 336.5,-751.5 203.5,-751.5 203.5,-751.5 198,-751.5 192.5,-746 192.5,-740.5 192.5,-740.5 192.5,-729.5 192.5,-729.5 192.5,-724 198,-718.5 203.5,-718.5"/>
</g>
<!-- _sm_container_0/MidLevel&#45;&gt;_sm_container_0/finished -->
<g id="edge1" class="edge transition">
<title>_sm_container_0/MidLevel&#45;&gt;_sm_container_0/finished</title>
<path fill="none" stroke="black" d="M453.81,-779.95C434.05,-773.56 411.08,-766.51 390,-761 379.83,-758.34 369.12,-755.78 358.46,-753.38"/>
<polygon fill="black" stroke="black" points="359.21,-749.96 348.69,-751.21 357.7,-756.79 359.21,-749.96"/>
<text text-anchor="start" x="428" y="-764" font-family="Helvetica,sans-Serif" font-size="10.00">done &#160;&#160;</text>
</g>
<!-- _sm_container_0/failed -->
<g id="node6" class="node state regular">
<title>_sm_container_0/failed</title>
<polygon fill="#ffffff" fill-opacity="0.003922" stroke="transparent" stroke-width="2" points="515.5,-753 370.5,-753 370.5,-717 515.5,-717 515.5,-753"/>
<text text-anchor="start" x="382" y="-731.4" font-family="Helvetica,sans-Serif" font-size="12.00">_sm_container_0/failed</text>
<path fill="none" stroke="black" stroke-width="2" d="M382.5,-718.5C382.5,-718.5 503.5,-718.5 503.5,-718.5 509,-718.5 514.5,-724 514.5,-729.5 514.5,-729.5 514.5,-740.5 514.5,-740.5 514.5,-746 509,-751.5 503.5,-751.5 503.5,-751.5 382.5,-751.5 382.5,-751.5 377,-751.5 371.5,-746 371.5,-740.5 371.5,-740.5 371.5,-729.5 371.5,-729.5 371.5,-724 377,-718.5 382.5,-718.5"/>
</g>
<!-- _sm_container_0/MidLevel&#45;&gt;_sm_container_0/failed -->
<g id="edge2" class="edge transition">
<title>_sm_container_0/MidLevel&#45;&gt;_sm_container_0/failed</title>
<path fill="none" stroke="black" d="M486.68,-779.68C480.71,-773.71 473.9,-766.9 467.46,-760.46"/>
<polygon fill="black" stroke="black" points="469.7,-757.75 460.15,-753.15 464.75,-762.7 469.7,-757.75"/>
<text text-anchor="start" x="479" y="-764" font-family="Helvetica,sans-Serif" font-size="10.00">failed &#160;&#160;</text>
</g>
<!-- _sm_container_0/preempted -->
<g id="node7" class="node state regular">
<title>_sm_container_0/preempted</title>
<polygon fill="#ffffff" fill-opacity="0.003922" stroke="transparent" stroke-width="2" points="710.5,-753 537.5,-753 537.5,-717 710.5,-717 710.5,-753"/>
<text text-anchor="start" x="549" y="-731.4" font-family="Helvetica,sans-Serif" font-size="12.00">_sm_container_0/preempted</text>
<path fill="none" stroke="black" stroke-width="2" d="M549.5,-718.5C549.5,-718.5 698.5,-718.5 698.5,-718.5 704,-718.5 709.5,-724 709.5,-729.5 709.5,-729.5 709.5,-740.5 709.5,-740.5 709.5,-746 704,-751.5 698.5,-751.5 698.5,-751.5 549.5,-751.5 549.5,-751.5 544,-751.5 538.5,-746 538.5,-740.5 538.5,-740.5 538.5,-729.5 538.5,-729.5 538.5,-724 544,-718.5 549.5,-718.5"/>
</g>
<!-- _sm_container_0/MidLevel&#45;&gt;_sm_container_0/preempted -->
<g id="edge3" class="edge transition">
<title>_sm_container_0/MidLevel&#45;&gt;_sm_container_0/preempted</title>
<path fill="none" stroke="black" d="M582.83,-779.96C587.79,-777.64 592.57,-775 597,-772 601.23,-769.14 605.05,-765.4 608.41,-761.41"/>
<polygon fill="black" stroke="black" points="611.45,-763.18 614.62,-753.07 605.84,-759 611.45,-763.18"/>
<text text-anchor="start" x="609" y="-764" font-family="Helvetica,sans-Serif" font-size="10.00">preempted &#160;&#160;</text>
</g>
<!-- _sm_container_0/Safety -->
<g id="node3" class="node state regular">
<title>_sm_container_0/Safety</title>
<polygon fill="#ffffff" fill-opacity="0.003922" stroke="transparent" stroke-width="2" points="200.5,-816 51.5,-816 51.5,-780 200.5,-780 200.5,-816"/>
<text text-anchor="start" x="63" y="-794.4" font-family="Helvetica,sans-Serif" font-size="12.00">_sm_container_0/Safety</text>
<path fill="none" stroke="black" stroke-width="2" d="M63.5,-781.5C63.5,-781.5 188.5,-781.5 188.5,-781.5 194,-781.5 199.5,-787 199.5,-792.5 199.5,-792.5 199.5,-803.5 199.5,-803.5 199.5,-809 194,-814.5 188.5,-814.5 188.5,-814.5 63.5,-814.5 63.5,-814.5 58,-814.5 52.5,-809 52.5,-803.5 52.5,-803.5 52.5,-792.5 52.5,-792.5 52.5,-787 58,-781.5 63.5,-781.5"/>
</g>
<!-- _sm_container_0/danger -->
<g id="node8" class="node state regular">
<title>_sm_container_0/danger</title>
<polygon fill="#ffffff" fill-opacity="0.003922" stroke="transparent" stroke-width="2" points="169.5,-753 16.5,-753 16.5,-717 169.5,-717 169.5,-753"/>
<text text-anchor="start" x="28" y="-731.4" font-family="Helvetica,sans-Serif" font-size="12.00">_sm_container_0/danger</text>
<path fill="none" stroke="black" stroke-width="2" d="M28.5,-718.5C28.5,-718.5 157.5,-718.5 157.5,-718.5 163,-718.5 168.5,-724 168.5,-729.5 168.5,-729.5 168.5,-740.5 168.5,-740.5 168.5,-746 163,-751.5 157.5,-751.5 157.5,-751.5 28.5,-751.5 28.5,-751.5 23,-751.5 17.5,-746 17.5,-740.5 17.5,-740.5 17.5,-729.5 17.5,-729.5 17.5,-724 23,-718.5 28.5,-718.5"/>
</g>
<!-- _sm_container_0/Safety&#45;&gt;_sm_container_0/danger -->
<g id="edge4" class="edge transition">
<title>_sm_container_0/Safety&#45;&gt;_sm_container_0/danger</title>
<path fill="none" stroke="black" d="M72.05,-779.84C69.37,-777.55 66.98,-774.95 65,-772 62.75,-768.65 62.51,-765.2 63.56,-761.83"/>
<polygon fill="black" stroke="black" points="66.61,-763.56 68.9,-753.21 60.66,-759.87 66.61,-763.56"/>
<text text-anchor="start" x="65" y="-764" font-family="Helvetica,sans-Serif" font-size="10.00">bumper &#160;&#160;</text>
</g>
<!-- _sm_container_0/Safety&#45;&gt;_sm_container_0/danger -->
<g id="edge5" class="edge transition">
<title>_sm_container_0/Safety&#45;&gt;_sm_container_0/danger</title>
<path fill="none" stroke="black" d="M117.66,-779.65C115.42,-775.13 112.92,-770.2 108.45,-762.03"/>
<polygon fill="black" stroke="black" points="111.42,-760.16 103.5,-753.11 105.29,-763.56 111.42,-760.16"/>
<text text-anchor="start" x="114" y="-764" font-family="Helvetica,sans-Serif" font-size="10.00">cliff &#160;&#160;</text>
</g>
<!-- _sm_container_0/DWA2 -->
<g id="node4" class="node state regular">
<title>_sm_container_0/DWA2</title>
<polygon fill="#ffffff" fill-opacity="0.003922" stroke="transparent" stroke-width="2" points="400,-816 248,-816 248,-780 400,-780 400,-816"/>
<text text-anchor="start" x="259" y="-794.4" font-family="Helvetica,sans-Serif" font-size="12.00">_sm_container_0/DWA2</text>
<path fill="none" stroke="black" stroke-width="2" d="M260,-781.5C260,-781.5 388,-781.5 388,-781.5 393.5,-781.5 399,-787 399,-792.5 399,-792.5 399,-803.5 399,-803.5 399,-809 393.5,-814.5 388,-814.5 388,-814.5 260,-814.5 260,-814.5 254.5,-814.5 249,-809 249,-803.5 249,-803.5 249,-792.5 249,-792.5 249,-787 254.5,-781.5 260,-781.5"/>
</g>
<!-- _sm_container_0/DWA2&#45;&gt;_sm_container_0/finished -->
<g id="edge6" class="edge transition">
<title>_sm_container_0/DWA2&#45;&gt;_sm_container_0/finished</title>
<path fill="none" stroke="black" d="M298.09,-779.83C295.19,-777.38 292.42,-774.75 290,-772 287.31,-768.95 284.83,-765.48 282.6,-761.92"/>
<polygon fill="black" stroke="black" points="285.57,-760.06 277.58,-753.1 279.49,-763.52 285.57,-760.06"/>
<text text-anchor="start" x="290" y="-764" font-family="Helvetica,sans-Serif" font-size="10.00">done &#160;&#160;</text>
</g>
<!-- _sm_container_0/DWA2&#45;&gt;_sm_container_0/failed -->
<g id="edge7" class="edge transition">
<title>_sm_container_0/DWA2&#45;&gt;_sm_container_0/failed</title>
<path fill="none" stroke="black" d="M336.54,-779.66C342.13,-772.99 349.22,-765.83 357,-761 358.93,-759.8 360.92,-758.66 362.96,-757.56"/>
<polygon fill="black" stroke="black" points="364.68,-760.62 372.16,-753.11 361.63,-754.32 364.68,-760.62"/>
<text text-anchor="start" x="357" y="-764" font-family="Helvetica,sans-Serif" font-size="10.00">failed &#160;&#160;</text>
</g>
<!-- _sm_container_0/DWA2&#45;&gt;_sm_container_0/preempted -->
<g id="edge8" class="edge transition">
<title>_sm_container_0/DWA2&#45;&gt;_sm_container_0/preempted</title>
<path fill="none" stroke="black" d="M400.3,-781.57C403.91,-781.01 407.49,-780.48 411,-780 456.5,-773.81 469.65,-783.88 514,-772 524.95,-769.07 526.41,-765.02 537,-761 541.25,-759.39 545.64,-757.82 550.1,-756.31"/>
<polygon fill="black" stroke="black" points="551.51,-759.53 559.93,-753.09 549.34,-752.88 551.51,-759.53"/>
<text text-anchor="start" x="537" y="-764" font-family="Helvetica,sans-Serif" font-size="10.00">preempted &#160;&#160;</text>
</g>
<!-- _state_machine -->
<!-- _state_machine/ClearCostmap -->
<g id="node10" class="node state regular">
<title>_state_machine/ClearCostmap</title>
<polygon fill="#ffffff" fill-opacity="0.003922" stroke="transparent" stroke-width="2" points="1184.5,-816 999.5,-816 999.5,-780 1184.5,-780 1184.5,-816"/>
<text text-anchor="start" x="1011" y="-794.4" font-family="Helvetica,sans-Serif" font-size="12.00">_state_machine/ClearCostmap</text>
<path fill="none" stroke="black" stroke-width="2" d="M1011.5,-781.5C1011.5,-781.5 1172.5,-781.5 1172.5,-781.5 1178,-781.5 1183.5,-787 1183.5,-792.5 1183.5,-792.5 1183.5,-803.5 1183.5,-803.5 1183.5,-809 1178,-814.5 1172.5,-814.5 1172.5,-814.5 1011.5,-814.5 1011.5,-814.5 1006,-814.5 1000.5,-809 1000.5,-803.5 1000.5,-803.5 1000.5,-792.5 1000.5,-792.5 1000.5,-787 1006,-781.5 1011.5,-781.5"/>
</g>
<!-- _state_machine/ReceiveGoal -->
<g id="node20" class="node state regular">
<title>_state_machine/ReceiveGoal</title>
<polygon fill="#ffffff" fill-opacity="0.003922" stroke="transparent" stroke-width="2" points="1180,-753 1004,-753 1004,-717 1180,-717 1180,-753"/>
<text text-anchor="start" x="1015" y="-731.4" font-family="Helvetica,sans-Serif" font-size="12.00">_state_machine/ReceiveGoal</text>
<path fill="none" stroke="black" stroke-width="2" d="M1016,-718.5C1016,-718.5 1168,-718.5 1168,-718.5 1173.5,-718.5 1179,-724 1179,-729.5 1179,-729.5 1179,-740.5 1179,-740.5 1179,-746 1173.5,-751.5 1168,-751.5 1168,-751.5 1016,-751.5 1016,-751.5 1010.5,-751.5 1005,-746 1005,-740.5 1005,-740.5 1005,-729.5 1005,-729.5 1005,-724 1010.5,-718.5 1016,-718.5"/>
</g>
<!-- _state_machine/ClearCostmap&#45;&gt;_state_machine/ReceiveGoal -->
<g id="edge9" class="edge transition">
<title>_state_machine/ClearCostmap&#45;&gt;_state_machine/ReceiveGoal</title>
<path fill="none" stroke="black" d="M1092,-779.68C1092,-774.62 1092,-768.95 1092,-763.42"/>
<polygon fill="black" stroke="black" points="1095.5,-763.15 1092,-753.15 1088.5,-763.15 1095.5,-763.15"/>
<text text-anchor="start" x="1092" y="-764" font-family="Helvetica,sans-Serif" font-size="10.00">done &#160;&#160;</text>
</g>
<!-- _state_machine/failed -->
<g id="node25" class="node state regular">
<title>_state_machine/failed</title>
<polygon fill="#ffffff" fill-opacity="0.003922" stroke="transparent" stroke-width="2" points="1308.5,-178 1171.5,-178 1171.5,-142 1308.5,-142 1308.5,-178"/>
<text text-anchor="start" x="1183" y="-156.4" font-family="Helvetica,sans-Serif" font-size="12.00">_state_machine/failed</text>
<path fill="none" stroke="black" stroke-width="2" d="M1183.5,-143.5C1183.5,-143.5 1296.5,-143.5 1296.5,-143.5 1302,-143.5 1307.5,-149 1307.5,-154.5 1307.5,-154.5 1307.5,-165.5 1307.5,-165.5 1307.5,-171 1302,-176.5 1296.5,-176.5 1296.5,-176.5 1183.5,-176.5 1183.5,-176.5 1178,-176.5 1172.5,-171 1172.5,-165.5 1172.5,-165.5 1172.5,-154.5 1172.5,-154.5 1172.5,-149 1178,-143.5 1183.5,-143.5"/>
</g>
<!-- _state_machine/ClearCostmap&#45;&gt;_state_machine/failed -->
<g id="edge10" class="edge transition">
<title>_state_machine/ClearCostmap&#45;&gt;_state_machine/failed</title>
<path fill="none" stroke="black" d="M1184.61,-793.25C1262.07,-787.5 1360,-772.92 1360,-736 1360,-736 1360,-736 1360,-505.5 1360,-370.52 1391.73,-316.73 1316,-205 1310.17,-196.39 1302.05,-189.25 1293.27,-183.4"/>
<polygon fill="black" stroke="black" points="1295.07,-180.4 1284.71,-178.18 1291.43,-186.38 1295.07,-180.4"/>
<text text-anchor="start" x="1361" y="-472.5" font-family="Helvetica,sans-Serif" font-size="10.00">failed &#160;&#160;</text>
</g>
<!-- _state_machine/ReceivePath -->
<g id="node11" class="node state regular">
<title>_state_machine/ReceivePath</title>
<polygon fill="#ffffff" fill-opacity="0.003922" stroke="transparent" stroke-width="2" points="1015,-682 839,-682 839,-646 1015,-646 1015,-682"/>
<text text-anchor="start" x="850" y="-660.4" font-family="Helvetica,sans-Serif" font-size="12.00">_state_machine/ReceivePath</text>
<path fill="none" stroke="black" stroke-width="2" d="M851,-647.5C851,-647.5 1003,-647.5 1003,-647.5 1008.5,-647.5 1014,-653 1014,-658.5 1014,-658.5 1014,-669.5 1014,-669.5 1014,-675 1008.5,-680.5 1003,-680.5 1003,-680.5 851,-680.5 851,-680.5 845.5,-680.5 840,-675 840,-669.5 840,-669.5 840,-658.5 840,-658.5 840,-653 845.5,-647.5 851,-647.5"/>
</g>
<!-- _state_machine/ExecutePlan -->
<g id="node12" class="node state regular">
<title>_state_machine/ExecutePlan</title>
<polygon fill="#ffffff" fill-opacity="0.003922" stroke="transparent" stroke-width="2" points="1069,-619 895,-619 895,-583 1069,-583 1069,-619"/>
<text text-anchor="start" x="906" y="-597.4" font-family="Helvetica,sans-Serif" font-size="12.00">_state_machine/ExecutePlan</text>
<path fill="none" stroke="black" stroke-width="2" d="M907,-584.5C907,-584.5 1057,-584.5 1057,-584.5 1062.5,-584.5 1068,-590 1068,-595.5 1068,-595.5 1068,-606.5 1068,-606.5 1068,-612 1062.5,-617.5 1057,-617.5 1057,-617.5 907,-617.5 907,-617.5 901.5,-617.5 896,-612 896,-606.5 896,-606.5 896,-595.5 896,-595.5 896,-590 901.5,-584.5 907,-584.5"/>
</g>
<!-- _state_machine/ReceivePath&#45;&gt;_state_machine/ExecutePlan -->
<g id="edge11" class="edge transition">
<title>_state_machine/ReceivePath&#45;&gt;_state_machine/ExecutePlan</title>
<path fill="none" stroke="black" d="M942.61,-645.68C947.88,-639.84 953.87,-633.19 959.57,-626.88"/>
<polygon fill="black" stroke="black" points="962.44,-628.92 966.54,-619.15 957.24,-624.23 962.44,-628.92"/>
<text text-anchor="start" x="959" y="-630" font-family="Helvetica,sans-Serif" font-size="10.00">planned &#160;&#160;</text>
</g>
<!-- _state_machine/Continue -->
<g id="node14" class="node state regular">
<title>_state_machine/Continue</title>
<polygon fill="#ffffff" fill-opacity="0.003922" stroke="transparent" stroke-width="2" points="930.5,-430 775.5,-430 775.5,-394 930.5,-394 930.5,-430"/>
<text text-anchor="start" x="787" y="-408.4" font-family="Helvetica,sans-Serif" font-size="12.00">_state_machine/Continue</text>
<path fill="none" stroke="black" stroke-width="2" d="M787.5,-395.5C787.5,-395.5 918.5,-395.5 918.5,-395.5 924,-395.5 929.5,-401 929.5,-406.5 929.5,-406.5 929.5,-417.5 929.5,-417.5 929.5,-423 924,-428.5 918.5,-428.5 918.5,-428.5 787.5,-428.5 787.5,-428.5 782,-428.5 776.5,-423 776.5,-417.5 776.5,-417.5 776.5,-406.5 776.5,-406.5 776.5,-401 782,-395.5 787.5,-395.5"/>
</g>
<!-- _state_machine/ReceivePath&#45;&gt;_state_machine/Continue -->
<g id="edge12" class="edge transition">
<title>_state_machine/ReceivePath&#45;&gt;_state_machine/Continue</title>
<path fill="none" stroke="black" d="M907.37,-645.92C899.39,-638.26 890.53,-628.77 884,-619 867.07,-593.68 866.12,-585.06 857,-556 842.12,-508.61 835.7,-491.93 844.23,-440.1"/>
<polygon fill="black" stroke="black" points="847.72,-440.46 846,-430 840.83,-439.25 847.72,-440.46"/>
<text text-anchor="start" x="857" y="-535.5" font-family="Helvetica,sans-Serif" font-size="10.00">empty &#160;&#160;</text>
</g>
<!-- _state_machine/ReceivePath&#45;&gt;_state_machine/Continue -->
<g id="edge13" class="edge transition">
<title>_state_machine/ReceivePath&#45;&gt;_state_machine/Continue</title>
<path fill="none" stroke="black" d="M897.36,-645.93C893.17,-643.35 888.94,-640.66 885,-638 873.43,-630.2 870.02,-628.72 860,-619 858.38,-617.43 809.75,-558.12 809,-556 794.69,-515.57 817.14,-467.8 834.89,-438.98"/>
<polygon fill="black" stroke="black" points="837.99,-440.63 840.44,-430.32 832.1,-436.85 837.99,-440.63"/>
<text text-anchor="start" x="809" y="-535.5" font-family="Helvetica,sans-Serif" font-size="10.00">failed &#160;&#160;</text>
</g>
<!-- _state_machine/Container -->
<g id="node13" class="node state regular">
<title>_state_machine/Container</title>
<polygon fill="#ffffff" fill-opacity="0.003922" stroke="transparent" stroke-width="2" points="1215,-556 1055,-556 1055,-520 1215,-520 1215,-556"/>
<text text-anchor="start" x="1066" y="-534.4" font-family="Helvetica,sans-Serif" font-size="12.00">_state_machine/Container</text>
<path fill="none" stroke="red" stroke-width="2" d="M1067,-521.5C1067,-521.5 1203,-521.5 1203,-521.5 1208.5,-521.5 1214,-527 1214,-532.5 1214,-532.5 1214,-543.5 1214,-543.5 1214,-549 1208.5,-554.5 1203,-554.5 1203,-554.5 1067,-554.5 1067,-554.5 1061.5,-554.5 1056,-549 1056,-543.5 1056,-543.5 1056,-532.5 1056,-532.5 1056,-527 1061.5,-521.5 1067,-521.5"/>
</g>
<!-- _state_machine/ExecutePlan&#45;&gt;_state_machine/Container -->
<g id="edge14" class="edge transition">
<title>_state_machine/ExecutePlan&#45;&gt;_state_machine/Container</title>
<path fill="none" stroke="black" d="M1052.49,-582.95C1059.85,-580.55 1067.14,-577.9 1074,-575 1083.08,-571.17 1092.46,-566.21 1101.05,-561.2"/>
<polygon fill="black" stroke="black" points="1102.91,-564.16 1109.68,-556.01 1099.31,-558.16 1102.91,-564.16"/>
<text text-anchor="start" x="1094" y="-567" font-family="Helvetica,sans-Serif" font-size="10.00">yes &#160;&#160;</text>
</g>
<!-- _state_machine/ExecutePlan&#45;&gt;_state_machine/Continue -->
<g id="edge15" class="edge transition">
<title>_state_machine/ExecutePlan&#45;&gt;_state_machine/Continue</title>
<path fill="none" stroke="black" d="M968,-582.92C952.66,-565.13 926.54,-537.48 899,-520 890.57,-514.65 886.45,-517.32 878,-512 867.62,-505.47 863.59,-503.91 858,-493 849.81,-477 848.61,-456.77 849.43,-440.66"/>
<polygon fill="black" stroke="black" points="852.96,-440.52 850.27,-430.27 845.98,-439.96 852.96,-440.52"/>
<text text-anchor="start" x="878" y="-504" font-family="Helvetica,sans-Serif" font-size="10.00">no &#160;&#160;</text>
</g>
<!-- _state_machine/Container&#45;&gt;_state_machine/Continue -->
<g id="edge19" class="edge transition">
<title>_state_machine/Container&#45;&gt;_state_machine/Continue</title>
<path fill="none" stroke="black" d="M1054.98,-530.89C992.98,-524.69 913.49,-513.08 888,-493 871.58,-480.06 862.69,-457.84 857.99,-440.1"/>
<polygon fill="black" stroke="black" points="861.37,-439.2 855.68,-430.27 854.56,-440.81 861.37,-439.2"/>
<text text-anchor="start" x="888" y="-472.5" font-family="Helvetica,sans-Serif" font-size="10.00">preempted &#160;&#160;</text>
</g>
<!-- _state_machine/LogSuccess -->
<g id="node16" class="node state regular">
<title>_state_machine/LogSuccess</title>
<polygon fill="#ffffff" fill-opacity="0.003922" stroke="transparent" stroke-width="2" points="1128,-493 954,-493 954,-457 1128,-457 1128,-493"/>
<text text-anchor="start" x="965" y="-471.4" font-family="Helvetica,sans-Serif" font-size="12.00">_state_machine/LogSuccess</text>
<path fill="none" stroke="black" stroke-width="2" d="M966,-458.5C966,-458.5 1116,-458.5 1116,-458.5 1121.5,-458.5 1127,-464 1127,-469.5 1127,-469.5 1127,-480.5 1127,-480.5 1127,-486 1121.5,-491.5 1116,-491.5 1116,-491.5 966,-491.5 966,-491.5 960.5,-491.5 955,-486 955,-480.5 955,-480.5 955,-469.5 955,-469.5 955,-464 960.5,-458.5 966,-458.5"/>
</g>
<!-- _state_machine/Container&#45;&gt;_state_machine/LogSuccess -->
<g id="edge16" class="edge transition">
<title>_state_machine/Container&#45;&gt;_state_machine/LogSuccess</title>
<path fill="none" stroke="black" d="M1108.57,-519.85C1098.37,-513.23 1086.56,-505.57 1075.7,-498.52"/>
<polygon fill="black" stroke="black" points="1077.53,-495.53 1067.24,-493.03 1073.72,-501.41 1077.53,-495.53"/>
<text text-anchor="start" x="1096" y="-504" font-family="Helvetica,sans-Serif" font-size="10.00">finished &#160;&#160;</text>
</g>
<!-- _state_machine/AutoReplan -->
<g id="node23" class="node state regular">
<title>_state_machine/AutoReplan</title>
<polygon fill="#ffffff" fill-opacity="0.003922" stroke="transparent" stroke-width="2" points="1068,-178 898,-178 898,-142 1068,-142 1068,-178"/>
<text text-anchor="start" x="909" y="-156.4" font-family="Helvetica,sans-Serif" font-size="12.00">_state_machine/AutoReplan</text>
<path fill="none" stroke="black" stroke-width="2" d="M910,-143.5C910,-143.5 1056,-143.5 1056,-143.5 1061.5,-143.5 1067,-149 1067,-154.5 1067,-154.5 1067,-165.5 1067,-165.5 1067,-171 1061.5,-176.5 1056,-176.5 1056,-176.5 910,-176.5 910,-176.5 904.5,-176.5 899,-171 899,-165.5 899,-165.5 899,-154.5 899,-154.5 899,-149 904.5,-143.5 910,-143.5"/>
</g>
<!-- _state_machine/Container&#45;&gt;_state_machine/AutoReplan -->
<g id="edge17" class="edge transition">
<title>_state_machine/Container&#45;&gt;_state_machine/AutoReplan</title>
<path fill="none" stroke="black" d="M1142,-520C1142.83,-517.36 1143.54,-514.64 1144,-512 1146.96,-495.02 1143.71,-463.39 1139,-457 1109.48,-416.95 961.21,-408.66 934,-367 896.83,-310.08 938.93,-227.9 965.17,-186.65"/>
<polygon fill="black" stroke="black" points="968.12,-188.55 970.66,-178.26 962.26,-184.72 968.12,-188.55"/>
<text text-anchor="start" x="934" y="-346.5" font-family="Helvetica,sans-Serif" font-size="10.00">failed &#160;&#160;</text>
</g>
<!-- _state_machine/EStop -->
<g id="node24" class="node state regular">
<title>_state_machine/EStop</title>
<polygon fill="#ffffff" fill-opacity="0.003922" stroke="transparent" stroke-width="2" points="1316,-493 1174,-493 1174,-457 1316,-457 1316,-493"/>
<text text-anchor="start" x="1185" y="-471.4" font-family="Helvetica,sans-Serif" font-size="12.00">_state_machine/EStop</text>
<path fill="none" stroke="black" stroke-width="2" d="M1186,-458.5C1186,-458.5 1304,-458.5 1304,-458.5 1309.5,-458.5 1315,-464 1315,-469.5 1315,-469.5 1315,-480.5 1315,-480.5 1315,-486 1309.5,-491.5 1304,-491.5 1304,-491.5 1186,-491.5 1186,-491.5 1180.5,-491.5 1175,-486 1175,-480.5 1175,-480.5 1175,-469.5 1175,-469.5 1175,-464 1180.5,-458.5 1186,-458.5"/>
</g>
<!-- _state_machine/Container&#45;&gt;_state_machine/EStop -->
<g id="edge18" class="edge transition">
<title>_state_machine/Container&#45;&gt;_state_machine/EStop</title>
<path fill="none" stroke="black" d="M1165.93,-519.85C1178.22,-513.03 1192.51,-505.11 1205.53,-497.89"/>
<polygon fill="black" stroke="black" points="1207.25,-500.94 1214.3,-493.03 1203.86,-494.81 1207.25,-500.94"/>
<text text-anchor="start" x="1199" y="-504" font-family="Helvetica,sans-Serif" font-size="10.00">danger &#160;&#160;</text>
</g>
<!-- _state_machine/Continue&#45;&gt;_state_machine/ClearCostmap -->
<g id="edge23" class="edge transition">
<title>_state_machine/Continue&#45;&gt;_state_machine/ClearCostmap</title>
<path fill="none" stroke="black" d="M829.13,-430.2C820.23,-437.61 810.68,-446.89 804,-457 771.04,-506.86 767.61,-524.18 757,-583 753.17,-604.21 757,-609.94 757,-631.5 757,-736 757,-736 757,-736 757,-759.9 890.65,-777.94 989.12,-787.99"/>
<polygon fill="black" stroke="black" points="988.83,-791.48 999.13,-789 989.53,-784.52 988.83,-791.48"/>
<text text-anchor="start" x="757" y="-598.5" font-family="Helvetica,sans-Serif" font-size="10.00">clearcostmap &#160;&#160;</text>
</g>
<!-- _state_machine/Continue&#45;&gt;_state_machine/ReceiveGoal -->
<g id="edge20" class="edge transition">
<title>_state_machine/Continue&#45;&gt;_state_machine/ReceiveGoal</title>
<path fill="none" stroke="black" d="M890.61,-430.08C903.04,-437.09 916.18,-446.13 926,-457 937.86,-470.13 932.08,-479.08 943,-493 978.68,-538.5 991.94,-549.83 1044,-575 1058.76,-582.13 1069.25,-570.63 1080,-583 1109.58,-617.02 1104.92,-673.2 1098.62,-706.6"/>
<polygon fill="black" stroke="black" points="1095.15,-706.08 1096.56,-716.58 1102.01,-707.5 1095.15,-706.08"/>
<text text-anchor="start" x="1044" y="-567" font-family="Helvetica,sans-Serif" font-size="10.00">yes &#160;&#160;</text>
</g>
<!-- _state_machine/LogRecovery -->
<g id="node22" class="node state regular">
<title>_state_machine/LogRecovery</title>
<polygon fill="#ffffff" fill-opacity="0.003922" stroke="transparent" stroke-width="2" points="1305,-304 1127,-304 1127,-268 1305,-268 1305,-304"/>
<text text-anchor="start" x="1138" y="-282.4" font-family="Helvetica,sans-Serif" font-size="12.00">_state_machine/LogRecovery</text>
<path fill="none" stroke="black" stroke-width="2" d="M1139,-269.5C1139,-269.5 1293,-269.5 1293,-269.5 1298.5,-269.5 1304,-275 1304,-280.5 1304,-280.5 1304,-291.5 1304,-291.5 1304,-297 1298.5,-302.5 1293,-302.5 1293,-302.5 1139,-302.5 1139,-302.5 1133.5,-302.5 1128,-297 1128,-291.5 1128,-291.5 1128,-280.5 1128,-280.5 1128,-275 1133.5,-269.5 1139,-269.5"/>
</g>
<!-- _state_machine/Continue&#45;&gt;_state_machine/LogRecovery -->
<g id="edge22" class="edge transition">
<title>_state_machine/Continue&#45;&gt;_state_machine/LogRecovery</title>
<path fill="none" stroke="black" d="M930.86,-405.72C1031.7,-398.82 1195.02,-387.46 1198,-386 1222.7,-373.87 1223.82,-339.19 1221.02,-314.3"/>
<polygon fill="black" stroke="black" points="1224.48,-313.76 1219.64,-304.33 1217.55,-314.71 1224.48,-313.76"/>
<text text-anchor="start" x="1222" y="-346.5" font-family="Helvetica,sans-Serif" font-size="10.00">recover &#160;&#160;</text>
</g>
<!-- _state_machine/finished -->
<g id="node26" class="node state regular">
<title>_state_machine/finished</title>
<polygon fill="#ffffff" fill-opacity="0.003922" stroke="transparent" stroke-width="2" points="1104.5,-304 955.5,-304 955.5,-268 1104.5,-268 1104.5,-304"/>
<text text-anchor="start" x="967" y="-282.4" font-family="Helvetica,sans-Serif" font-size="12.00">_state_machine/finished</text>
<path fill="none" stroke="black" stroke-width="2" d="M967.5,-269.5C967.5,-269.5 1092.5,-269.5 1092.5,-269.5 1098,-269.5 1103.5,-275 1103.5,-280.5 1103.5,-280.5 1103.5,-291.5 1103.5,-291.5 1103.5,-297 1098,-302.5 1092.5,-302.5 1092.5,-302.5 967.5,-302.5 967.5,-302.5 962,-302.5 956.5,-297 956.5,-291.5 956.5,-291.5 956.5,-280.5 956.5,-280.5 956.5,-275 962,-269.5 967.5,-269.5"/>
</g>
<!-- _state_machine/Continue&#45;&gt;_state_machine/finished -->
<g id="edge21" class="edge transition">
<title>_state_machine/Continue&#45;&gt;_state_machine/finished</title>
<path fill="none" stroke="black" d="M918.91,-393.99C936.89,-387.4 955.64,-378.58 971,-367 989.95,-352.71 1005.57,-330.68 1015.96,-313.36"/>
<polygon fill="black" stroke="black" points="1019.23,-314.71 1021.19,-304.3 1013.16,-311.21 1019.23,-314.71"/>
<text text-anchor="start" x="1003" y="-346.5" font-family="Helvetica,sans-Serif" font-size="10.00">no &#160;&#160;</text>
</g>
<!-- _state_machine/TurtlebotSimpleRecovery -->
<g id="node15" class="node state regular">
<title>_state_machine/TurtlebotSimpleRecovery</title>
<polygon fill="#ffffff" fill-opacity="0.003922" stroke="transparent" stroke-width="2" points="1304.5,-241 1065.5,-241 1065.5,-205 1304.5,-205 1304.5,-241"/>
<text text-anchor="start" x="1077" y="-219.4" font-family="Helvetica,sans-Serif" font-size="12.00">_state_machine/TurtlebotSimpleRecovery</text>
<path fill="none" stroke="black" stroke-width="2" d="M1077.5,-206.5C1077.5,-206.5 1292.5,-206.5 1292.5,-206.5 1298,-206.5 1303.5,-212 1303.5,-217.5 1303.5,-217.5 1303.5,-228.5 1303.5,-228.5 1303.5,-234 1298,-239.5 1292.5,-239.5 1292.5,-239.5 1077.5,-239.5 1077.5,-239.5 1072,-239.5 1066.5,-234 1066.5,-228.5 1066.5,-228.5 1066.5,-217.5 1066.5,-217.5 1066.5,-212 1072,-206.5 1077.5,-206.5"/>
</g>
<!-- _state_machine/TurtlebotSimpleRecovery&#45;&gt;_state_machine/AutoReplan -->
<g id="edge24" class="edge transition">
<title>_state_machine/TurtlebotSimpleRecovery&#45;&gt;_state_machine/AutoReplan</title>
<path fill="none" stroke="black" d="M1128.46,-204.93C1103.83,-197.49 1074.79,-188.72 1049.16,-180.98"/>
<polygon fill="black" stroke="black" points="1050.11,-177.61 1039.52,-178.07 1048.08,-184.31 1050.11,-177.61"/>
<text text-anchor="start" x="1102" y="-189" font-family="Helvetica,sans-Serif" font-size="10.00">finished &#160;&#160;</text>
</g>
<!-- _state_machine/TurtlebotSimpleRecovery&#45;&gt;_state_machine/failed -->
<g id="edge25" class="edge transition">
<title>_state_machine/TurtlebotSimpleRecovery&#45;&gt;_state_machine/failed</title>
<path fill="none" stroke="black" d="M1200.61,-204.68C1205.88,-198.84 1211.87,-192.19 1217.57,-185.88"/>
<polygon fill="black" stroke="black" points="1220.44,-187.92 1224.54,-178.15 1215.24,-183.23 1220.44,-187.92"/>
<text text-anchor="start" x="1217" y="-189" font-family="Helvetica,sans-Serif" font-size="10.00">failed &#160;&#160;</text>
</g>
<!-- _state_machine/LogSuccess&#45;&gt;_state_machine/Continue -->
<g id="edge26" class="edge transition">
<title>_state_machine/LogSuccess&#45;&gt;_state_machine/Continue</title>
<path fill="none" stroke="black" d="M993.25,-456.98C975.63,-450.83 955.46,-443.94 937,-438 931.84,-436.34 926.49,-434.66 921.1,-432.99"/>
<polygon fill="black" stroke="black" points="921.98,-429.6 911.39,-430.02 919.93,-436.29 921.98,-429.6"/>
<text text-anchor="start" x="968" y="-441" font-family="Helvetica,sans-Serif" font-size="10.00">done &#160;&#160;</text>
</g>
<!-- _state_machine/LogFail -->
<g id="node17" class="node state regular">
<title>_state_machine/LogFail</title>
<polygon fill="#ffffff" fill-opacity="0.003922" stroke="transparent" stroke-width="2" points="1260.5,-430 1111.5,-430 1111.5,-394 1260.5,-394 1260.5,-430"/>
<text text-anchor="start" x="1123" y="-408.4" font-family="Helvetica,sans-Serif" font-size="12.00">_state_machine/LogFail</text>
<path fill="none" stroke="black" stroke-width="2" d="M1123.5,-395.5C1123.5,-395.5 1248.5,-395.5 1248.5,-395.5 1254,-395.5 1259.5,-401 1259.5,-406.5 1259.5,-406.5 1259.5,-417.5 1259.5,-417.5 1259.5,-423 1254,-428.5 1248.5,-428.5 1248.5,-428.5 1123.5,-428.5 1123.5,-428.5 1118,-428.5 1112.5,-423 1112.5,-417.5 1112.5,-417.5 1112.5,-406.5 1112.5,-406.5 1112.5,-401 1118,-395.5 1123.5,-395.5"/>
</g>
<!-- _state_machine/Recover -->
<g id="node21" class="node state regular">
<title>_state_machine/Recover</title>
<polygon fill="#ffffff" fill-opacity="0.003922" stroke="transparent" stroke-width="2" points="1204,-367 1052,-367 1052,-331 1204,-331 1204,-367"/>
<text text-anchor="start" x="1063" y="-345.4" font-family="Helvetica,sans-Serif" font-size="12.00">_state_machine/Recover</text>
<path fill="none" stroke="black" stroke-width="2" d="M1064,-332.5C1064,-332.5 1192,-332.5 1192,-332.5 1197.5,-332.5 1203,-338 1203,-343.5 1203,-343.5 1203,-354.5 1203,-354.5 1203,-360 1197.5,-365.5 1192,-365.5 1192,-365.5 1064,-365.5 1064,-365.5 1058.5,-365.5 1053,-360 1053,-354.5 1053,-354.5 1053,-343.5 1053,-343.5 1053,-338 1058.5,-332.5 1064,-332.5"/>
</g>
<!-- _state_machine/LogFail&#45;&gt;_state_machine/Recover -->
<g id="edge27" class="edge transition">
<title>_state_machine/LogFail&#45;&gt;_state_machine/Recover</title>
<path fill="none" stroke="black" d="M1169.53,-393.68C1163.85,-387.71 1157.38,-380.9 1151.26,-374.46"/>
<polygon fill="black" stroke="black" points="1153.73,-371.98 1144.31,-367.15 1148.66,-376.81 1153.73,-371.98"/>
<text text-anchor="start" x="1162" y="-378" font-family="Helvetica,sans-Serif" font-size="10.00">done &#160;&#160;</text>
</g>
<!-- _state_machine/LogRecovered -->
<g id="node18" class="node state regular">
<title>_state_machine/LogRecovered</title>
<polygon fill="#ffffff" fill-opacity="0.003922" stroke="transparent" stroke-width="2" points="1213,-115 1027,-115 1027,-79 1213,-79 1213,-115"/>
<text text-anchor="start" x="1038" y="-93.4" font-family="Helvetica,sans-Serif" font-size="12.00">_state_machine/LogRecovered</text>
<path fill="none" stroke="black" stroke-width="2" d="M1039,-80.5C1039,-80.5 1201,-80.5 1201,-80.5 1206.5,-80.5 1212,-86 1212,-91.5 1212,-91.5 1212,-102.5 1212,-102.5 1212,-108 1206.5,-113.5 1201,-113.5 1201,-113.5 1039,-113.5 1039,-113.5 1033.5,-113.5 1028,-108 1028,-102.5 1028,-102.5 1028,-91.5 1028,-91.5 1028,-86 1033.5,-80.5 1039,-80.5"/>
</g>
<!-- _state_machine/NewPlan -->
<g id="node19" class="node state regular">
<title>_state_machine/NewPlan</title>
<polygon fill="#ffffff" fill-opacity="0.003922" stroke="transparent" stroke-width="2" points="1378.5,-52 1223.5,-52 1223.5,-16 1378.5,-16 1378.5,-52"/>
<text text-anchor="start" x="1235" y="-30.4" font-family="Helvetica,sans-Serif" font-size="12.00">_state_machine/NewPlan</text>
<path fill="none" stroke="black" stroke-width="2" d="M1235.5,-17.5C1235.5,-17.5 1366.5,-17.5 1366.5,-17.5 1372,-17.5 1377.5,-23 1377.5,-28.5 1377.5,-28.5 1377.5,-39.5 1377.5,-39.5 1377.5,-45 1372,-50.5 1366.5,-50.5 1366.5,-50.5 1235.5,-50.5 1235.5,-50.5 1230,-50.5 1224.5,-45 1224.5,-39.5 1224.5,-39.5 1224.5,-28.5 1224.5,-28.5 1224.5,-23 1230,-17.5 1235.5,-17.5"/>
</g>
<!-- _state_machine/LogRecovered&#45;&gt;_state_machine/NewPlan -->
<g id="edge28" class="edge transition">
<title>_state_machine/LogRecovered&#45;&gt;_state_machine/NewPlan</title>
<path fill="none" stroke="black" d="M1170.9,-78.85C1192.68,-71.51 1218.26,-62.88 1240.95,-55.24"/>
<polygon fill="black" stroke="black" points="1242.12,-58.54 1250.48,-52.03 1239.89,-51.9 1242.12,-58.54"/>
<text text-anchor="start" x="1226" y="-63" font-family="Helvetica,sans-Serif" font-size="10.00">done &#160;&#160;</text>
</g>
<!-- _state_machine/NewPlan&#45;&gt;_state_machine/Container -->
<g id="edge29" class="edge transition">
<title>_state_machine/NewPlan&#45;&gt;_state_machine/Container</title>
<path fill="none" stroke="black" d="M1341.21,-52.21C1357.7,-62.2 1373,-76.67 1373,-96 1373,-287 1373,-287 1373,-287 1373,-331.08 1372.22,-342.44 1379,-386 1384.01,-418.17 1392.97,-424.7 1397,-457 1398.98,-472.88 1407.33,-480.79 1397,-493 1375.11,-518.87 1292.02,-529.54 1225.2,-533.93"/>
<polygon fill="black" stroke="black" points="1224.81,-530.45 1215.05,-534.56 1225.24,-537.44 1224.81,-530.45"/>
<text text-anchor="start" x="1373" y="-283.5" font-family="Helvetica,sans-Serif" font-size="10.00">planned &#160;&#160;</text>
</g>
<!-- _state_machine/NewPlan&#45;&gt;_state_machine/Continue -->
<g id="edge31" class="edge transition">
<title>_state_machine/NewPlan&#45;&gt;_state_machine/Continue</title>
<path fill="none" stroke="black" d="M1223.36,-37.35C1090.57,-42.41 834,-57.21 834,-96 834,-350 834,-350 834,-350 834,-361.6 837.17,-373.9 840.92,-384.4"/>
<polygon fill="black" stroke="black" points="837.71,-385.79 844.61,-393.82 844.23,-383.24 837.71,-385.79"/>
<text text-anchor="start" x="834" y="-220.5" font-family="Helvetica,sans-Serif" font-size="10.00">failed &#160;&#160;</text>
</g>
<!-- _state_machine/NewPlan&#45;&gt;_state_machine/ReceiveGoal -->
<g id="edge30" class="edge transition">
<title>_state_machine/NewPlan&#45;&gt;_state_machine/ReceiveGoal</title>
<path fill="none" stroke="black" d="M1378.87,-42.32C1410.17,-49.98 1439,-65.35 1439,-96 1439,-255.5 1439,-255.5 1439,-255.5 1439,-366.61 1439,-394.39 1439,-505.5 1439,-665 1439,-665 1439,-665 1439,-716.05 1292.72,-729.89 1190.11,-733.33"/>
<polygon fill="black" stroke="black" points="1189.9,-729.83 1180.01,-733.64 1190.11,-736.83 1189.9,-729.83"/>
<text text-anchor="start" x="1439" y="-378" font-family="Helvetica,sans-Serif" font-size="10.00">empty &#160;&#160;</text>
</g>
<!-- _state_machine/ReceiveGoal&#45;&gt;_state_machine/ReceivePath -->
<g id="edge32" class="edge transition">
<title>_state_machine/ReceiveGoal&#45;&gt;_state_machine/ReceivePath</title>
<path fill="none" stroke="black" d="M1051.21,-716.94C1028.9,-707.61 1001.07,-695.97 977.41,-686.08"/>
<polygon fill="black" stroke="black" points="978.47,-682.73 967.89,-682.1 975.76,-689.19 978.47,-682.73"/>
<text text-anchor="start" x="1009" y="-693" font-family="Helvetica,sans-Serif" font-size="10.00">done &#160;&#160;</text>
</g>
<!-- _state_machine/Recover&#45;&gt;_state_machine/LogRecovery -->
<g id="edge33" class="edge transition">
<title>_state_machine/Recover&#45;&gt;_state_machine/LogRecovery</title>
<path fill="none" stroke="black" d="M1152.98,-330.68C1162.26,-324.25 1172.93,-316.86 1182.82,-310"/>
<polygon fill="black" stroke="black" points="1185.04,-312.72 1191.26,-304.15 1181.05,-306.97 1185.04,-312.72"/>
<text text-anchor="start" x="1179" y="-315" font-family="Helvetica,sans-Serif" font-size="10.00">yes &#160;&#160;</text>
</g>
<!-- _state_machine/Recover&#45;&gt;_state_machine/finished -->
<g id="edge34" class="edge transition">
<title>_state_machine/Recover&#45;&gt;_state_machine/finished</title>
<path fill="none" stroke="black" d="M1100.44,-330.85C1089.81,-324.23 1077.5,-316.57 1066.17,-309.52"/>
<polygon fill="black" stroke="black" points="1067.69,-306.34 1057.35,-304.03 1063.99,-312.28 1067.69,-306.34"/>
<text text-anchor="start" x="1087" y="-315" font-family="Helvetica,sans-Serif" font-size="10.00">no &#160;&#160;</text>
</g>
<!-- _state_machine/LogRecovery&#45;&gt;_state_machine/TurtlebotSimpleRecovery -->
<g id="edge35" class="edge transition">
<title>_state_machine/LogRecovery&#45;&gt;_state_machine/TurtlebotSimpleRecovery</title>
<path fill="none" stroke="black" d="M1207.2,-267.68C1204.43,-262.23 1201.3,-256.08 1198.29,-250.15"/>
<polygon fill="black" stroke="black" points="1201.37,-248.48 1193.72,-241.15 1195.13,-251.65 1201.37,-248.48"/>
<text text-anchor="start" x="1203" y="-252" font-family="Helvetica,sans-Serif" font-size="10.00">done &#160;&#160;</text>
</g>
<!-- _state_machine/AutoReplan&#45;&gt;_state_machine/Continue -->
<g id="edge37" class="edge transition">
<title>_state_machine/AutoReplan&#45;&gt;_state_machine/Continue</title>
<path fill="none" stroke="black" d="M924,-178.05C905.12,-187.38 889,-201.38 889,-222 889,-350 889,-350 889,-350 889,-362.87 882.98,-375.42 875.86,-385.75"/>
<polygon fill="black" stroke="black" points="872.97,-383.78 869.74,-393.87 878.55,-388 872.97,-383.78"/>
<text text-anchor="start" x="889" y="-283.5" font-family="Helvetica,sans-Serif" font-size="10.00">no &#160;&#160;</text>
</g>
<!-- _state_machine/AutoReplan&#45;&gt;_state_machine/LogRecovered -->
<g id="edge36" class="edge transition">
<title>_state_machine/AutoReplan&#45;&gt;_state_machine/LogRecovered</title>
<path fill="none" stroke="black" d="M1021.53,-141.85C1037.27,-134.83 1055.65,-126.65 1072.24,-119.27"/>
<polygon fill="black" stroke="black" points="1074.05,-122.29 1081.76,-115.03 1071.2,-115.9 1074.05,-122.29"/>
<text text-anchor="start" x="1063" y="-126" font-family="Helvetica,sans-Serif" font-size="10.00">yes &#160;&#160;</text>
</g>
<!-- _state_machine/EStop&#45;&gt;_state_machine/LogFail -->
<g id="edge38" class="edge transition">
<title>_state_machine/EStop&#45;&gt;_state_machine/LogFail</title>
<path fill="none" stroke="black" d="M1234.06,-456.7C1229.74,-450.48 1224.5,-443.62 1219,-438 1218.67,-437.67 1218.34,-437.33 1218.01,-437"/>
<polygon fill="black" stroke="black" points="1220.26,-434.32 1210.49,-430.23 1215.58,-439.53 1220.26,-434.32"/>
<text text-anchor="start" x="1227" y="-441" font-family="Helvetica,sans-Serif" font-size="10.00">done &#160;&#160;</text>
</g>
<!-- _state_machine/EStop&#45;&gt;_state_machine/LogFail -->
<g id="edge39" class="edge transition">
<title>_state_machine/EStop&#45;&gt;_state_machine/LogFail</title>
<path fill="none" stroke="black" d="M1189.03,-456.78C1186.37,-454.5 1183.98,-451.92 1182,-449 1180.22,-446.38 1179.3,-443.4 1178.96,-440.29"/>
<polygon fill="black" stroke="black" points="1182.45,-440.47 1179.56,-430.28 1175.47,-440.05 1182.45,-440.47"/>
<text text-anchor="start" x="1182" y="-441" font-family="Helvetica,sans-Serif" font-size="10.00">failed &#160;&#160;</text>
</g>
</g>
</svg>
