<?xml version="1.0" encoding="UTF-8" standalone="no"?>
<!DOCTYPE svg PUBLIC "-//W3C//DTD SVG 1.1//EN"
 "http://www.w3.org/Graphics/SVG/1.1/DTD/svg11.dtd">
<!-- Generated by graphviz version 2.49.1 (20210923.0004)
 -->
<!-- Title: state transitions Pages: 1 -->
<svg width="1251pt" height="365pt"
 viewBox="0.00 0.00 1251.00 365.00" xmlns="http://www.w3.org/2000/svg" xmlns:xlink="http://www.w3.org/1999/xlink">
<g id="graph0" class="graph" transform="scale(1 1) rotate(0) translate(4 361)">
<title>state transitions</title>
<polygon fill="white" stroke="transparent" points="-4,4 -4,-361 1247,-361 1247,4 -4,4"/>
<g id="clust2" class="cluster state regular">
<title>cluster__state_machine</title>
<path fill="none" stroke="black" stroke-width="2" d="M380,-8C380,-8 1223,-8 1223,-8 1229,-8 1235,-14 1235,-20 1235,-20 1235,-337 1235,-337 1235,-343 1229,-349 1223,-349 1223,-349 380,-349 380,-349 374,-349 368,-343 368,-337 368,-337 368,-20 368,-20 368,-14 374,-8 380,-8"/>
<text text-anchor="start" x="759.5" y="-330.9" font-family="Helvetica,sans-Serif" font-size="12.00">_state_machine</text>
</g>
<g id="clust1" class="cluster state regular">
<title>cluster__sm_continueretry_0</title>
<path fill="none" stroke="black" stroke-width="2" d="M20,-142C20,-142 348,-142 348,-142 354,-142 360,-148 360,-154 360,-154 360,-337 360,-337 360,-343 354,-349 348,-349 348,-349 20,-349 20,-349 14,-349 8,-343 8,-337 8,-337 8,-154 8,-154 8,-148 14,-142 20,-142"/>
<text text-anchor="start" x="130" y="-330.9" font-family="Helvetica,sans-Serif" font-size="12.00">_sm_continueretry_0</text>
</g>
<!-- _sm_continueretry_0 -->
<!-- _sm_continueretry_0/decrease_retry -->
<g id="node2" class="node state regular">
<title>_sm_continueretry_0/decrease_retry</title>
<polygon fill="#ffffff" fill-opacity="0.003922" stroke="transparent" stroke-width="2" points="242.5,-312 29.5,-312 29.5,-276 242.5,-276 242.5,-312"/>
<text text-anchor="start" x="41" y="-290.4" font-family="Helvetica,sans-Serif" font-size="12.00">_sm_continueretry_0/decrease_retry</text>
<path fill="none" stroke="black" stroke-width="2" d="M41.5,-277.5C41.5,-277.5 230.5,-277.5 230.5,-277.5 236,-277.5 241.5,-283 241.5,-288.5 241.5,-288.5 241.5,-299.5 241.5,-299.5 241.5,-305 236,-310.5 230.5,-310.5 230.5,-310.5 41.5,-310.5 41.5,-310.5 36,-310.5 30.5,-305 30.5,-299.5 30.5,-299.5 30.5,-288.5 30.5,-288.5 30.5,-283 36,-277.5 41.5,-277.5"/>
</g>
<!-- _sm_continueretry_0/continue_asking -->
<g id="node3" class="node state regular">
<title>_sm_continueretry_0/continue_asking</title>
<polygon fill="#ffffff" fill-opacity="0.003922" stroke="transparent" stroke-width="2" points="245.5,-249 26.5,-249 26.5,-213 245.5,-213 245.5,-249"/>
<text text-anchor="start" x="38" y="-227.4" font-family="Helvetica,sans-Serif" font-size="12.00">_sm_continueretry_0/continue_asking</text>
<path fill="none" stroke="black" stroke-width="2" d="M38.5,-214.5C38.5,-214.5 233.5,-214.5 233.5,-214.5 239,-214.5 244.5,-220 244.5,-225.5 244.5,-225.5 244.5,-236.5 244.5,-236.5 244.5,-242 239,-247.5 233.5,-247.5 233.5,-247.5 38.5,-247.5 38.5,-247.5 33,-247.5 27.5,-242 27.5,-236.5 27.5,-236.5 27.5,-225.5 27.5,-225.5 27.5,-220 33,-214.5 38.5,-214.5"/>
</g>
<!-- _sm_continueretry_0/decrease_retry&#45;&gt;_sm_continueretry_0/continue_asking -->
<g id="edge1" class="edge transition">
<title>_sm_continueretry_0/decrease_retry&#45;&gt;_sm_continueretry_0/continue_asking</title>
<path fill="none" stroke="black" d="M136,-275.68C136,-270.62 136,-264.95 136,-259.42"/>
<polygon fill="black" stroke="black" points="139.5,-259.15 136,-249.15 132.5,-259.15 139.5,-259.15"/>
<text text-anchor="start" x="136" y="-260" font-family="Helvetica,sans-Serif" font-size="10.00">done &#160;&#160;</text>
</g>
<!-- _sm_continueretry_0/true -->
<g id="node4" class="node state regular">
<title>_sm_continueretry_0/true</title>
<polygon fill="#ffffff" fill-opacity="0.003922" stroke="transparent" stroke-width="2" points="170,-186 16,-186 16,-150 170,-150 170,-186"/>
<text text-anchor="start" x="27" y="-164.4" font-family="Helvetica,sans-Serif" font-size="12.00">_sm_continueretry_0/true</text>
<path fill="none" stroke="black" stroke-width="2" d="M28,-151.5C28,-151.5 158,-151.5 158,-151.5 163.5,-151.5 169,-157 169,-162.5 169,-162.5 169,-173.5 169,-173.5 169,-179 163.5,-184.5 158,-184.5 158,-184.5 28,-184.5 28,-184.5 22.5,-184.5 17,-179 17,-173.5 17,-173.5 17,-162.5 17,-162.5 17,-157 22.5,-151.5 28,-151.5"/>
</g>
<!-- _sm_continueretry_0/continue_asking&#45;&gt;_sm_continueretry_0/true -->
<g id="edge2" class="edge transition">
<title>_sm_continueretry_0/continue_asking&#45;&gt;_sm_continueretry_0/true</title>
<path fill="none" stroke="black" d="M123.79,-212.68C119.86,-207.1 115.4,-200.78 111.13,-194.72"/>
<polygon fill="black" stroke="black" points="113.71,-192.31 105.09,-186.15 107.99,-196.34 113.71,-192.31"/>
<text text-anchor="start" x="119" y="-197" font-family="Helvetica,sans-Serif" font-size="10.00">true &#160;&#160;</text>
</g>
<!-- _sm_continueretry_0/false -->
<g id="node5" class="node state regular">
<title>_sm_continueretry_0/false</title>
<polygon fill="#ffffff" fill-opacity="0.003922" stroke="transparent" stroke-width="2" points="351.5,-186 192.5,-186 192.5,-150 351.5,-150 351.5,-186"/>
<text text-anchor="start" x="204" y="-164.4" font-family="Helvetica,sans-Serif" font-size="12.00">_sm_continueretry_0/false</text>
<path fill="none" stroke="black" stroke-width="2" d="M204.5,-151.5C204.5,-151.5 339.5,-151.5 339.5,-151.5 345,-151.5 350.5,-157 350.5,-162.5 350.5,-162.5 350.5,-173.5 350.5,-173.5 350.5,-179 345,-184.5 339.5,-184.5 339.5,-184.5 204.5,-184.5 204.5,-184.5 199,-184.5 193.5,-179 193.5,-173.5 193.5,-173.5 193.5,-162.5 193.5,-162.5 193.5,-157 199,-151.5 204.5,-151.5"/>
</g>
<!-- _sm_continueretry_0/continue_asking&#45;&gt;_sm_continueretry_0/false -->
<g id="edge3" class="edge transition">
<title>_sm_continueretry_0/continue_asking&#45;&gt;_sm_continueretry_0/false</title>
<path fill="none" stroke="black" d="M174.25,-212.85C189.88,-205.83 208.12,-197.65 224.59,-190.27"/>
<polygon fill="black" stroke="black" points="226.35,-193.31 234.04,-186.03 223.48,-186.92 226.35,-193.31"/>
<text text-anchor="start" x="217" y="-197" font-family="Helvetica,sans-Serif" font-size="10.00">false &#160;&#160;</text>
</g>
<!-- _state_machine -->
<!-- _state_machine/AskForComplete -->
<g id="node7" class="node state regular">
<title>_state_machine/AskForComplete</title>
<polygon fill="#ffffff" fill-opacity="0.003922" stroke="transparent" stroke-width="2" points="876,-312 678,-312 678,-276 876,-276 876,-312"/>
<text text-anchor="start" x="689" y="-290.4" font-family="Helvetica,sans-Serif" font-size="12.00">_state_machine/AskForComplete</text>
<path fill="none" stroke="black" stroke-width="2" d="M690,-277.5C690,-277.5 864,-277.5 864,-277.5 869.5,-277.5 875,-283 875,-288.5 875,-288.5 875,-299.5 875,-299.5 875,-305 869.5,-310.5 864,-310.5 864,-310.5 690,-310.5 690,-310.5 684.5,-310.5 679,-305 679,-299.5 679,-299.5 679,-288.5 679,-288.5 679,-283 684.5,-277.5 690,-277.5"/>
</g>
<!-- _state_machine/NotRecognized -->
<g id="node10" class="node state regular">
<title>_state_machine/NotRecognized</title>
<polygon fill="#ffffff" fill-opacity="0.003922" stroke="transparent" stroke-width="2" points="588.5,-249 399.5,-249 399.5,-213 588.5,-213 588.5,-249"/>
<text text-anchor="start" x="411" y="-227.4" font-family="Helvetica,sans-Serif" font-size="12.00">_state_machine/NotRecognized</text>
<path fill="none" stroke="black" stroke-width="2" d="M411.5,-214.5C411.5,-214.5 576.5,-214.5 576.5,-214.5 582,-214.5 587.5,-220 587.5,-225.5 587.5,-225.5 587.5,-236.5 587.5,-236.5 587.5,-242 582,-247.5 576.5,-247.5 576.5,-247.5 411.5,-247.5 411.5,-247.5 406,-247.5 400.5,-242 400.5,-236.5 400.5,-236.5 400.5,-225.5 400.5,-225.5 400.5,-220 406,-214.5 411.5,-214.5"/>
</g>
<!-- _state_machine/AskForComplete&#45;&gt;_state_machine/NotRecognized -->
<g id="edge5" class="edge transition">
<title>_state_machine/AskForComplete&#45;&gt;_state_machine/NotRecognized</title>
<path fill="none" stroke="black" d="M677.76,-289.76C604.09,-286.4 514.19,-279.91 501,-268 498.32,-265.58 496.48,-262.46 495.25,-259.08"/>
<polygon fill="black" stroke="black" points="498.65,-258.25 493.16,-249.19 491.8,-259.7 498.65,-258.25"/>
<text text-anchor="start" x="501" y="-260" font-family="Helvetica,sans-Serif" font-size="10.00">intent_not_recognized &#160;&#160;</text>
</g>
<!-- _state_machine/Recognized -->
<g id="node11" class="node state regular">
<title>_state_machine/Recognized</title>
<polygon fill="#ffffff" fill-opacity="0.003922" stroke="transparent" stroke-width="2" points="1137.5,-249 966.5,-249 966.5,-213 1137.5,-213 1137.5,-249"/>
<text text-anchor="start" x="978" y="-227.4" font-family="Helvetica,sans-Serif" font-size="12.00">_state_machine/Recognized</text>
<path fill="none" stroke="black" stroke-width="2" d="M978.5,-214.5C978.5,-214.5 1125.5,-214.5 1125.5,-214.5 1131,-214.5 1136.5,-220 1136.5,-225.5 1136.5,-225.5 1136.5,-236.5 1136.5,-236.5 1136.5,-242 1131,-247.5 1125.5,-247.5 1125.5,-247.5 978.5,-247.5 978.5,-247.5 973,-247.5 967.5,-242 967.5,-236.5 967.5,-236.5 967.5,-225.5 967.5,-225.5 967.5,-220 973,-214.5 978.5,-214.5"/>
</g>
<!-- _state_machine/AskForComplete&#45;&gt;_state_machine/Recognized -->
<g id="edge4" class="edge transition">
<title>_state_machine/AskForComplete&#45;&gt;_state_machine/Recognized</title>
<path fill="none" stroke="black" d="M876.03,-281.58C899.46,-278.01 924.24,-273.52 947,-268 963.9,-263.9 981.94,-258.21 998.21,-252.57"/>
<polygon fill="black" stroke="black" points="999.83,-255.71 1008.09,-249.08 997.49,-249.11 999.83,-255.71"/>
<text text-anchor="start" x="982" y="-260" font-family="Helvetica,sans-Serif" font-size="10.00">intent_recognized &#160;&#160;</text>
</g>
<!-- _state_machine/failed -->
<g id="node16" class="node state regular">
<title>_state_machine/failed</title>
<polygon fill="#ffffff" fill-opacity="0.003922" stroke="transparent" stroke-width="2" points="750.5,-115 613.5,-115 613.5,-79 750.5,-79 750.5,-115"/>
<text text-anchor="start" x="625" y="-93.4" font-family="Helvetica,sans-Serif" font-size="12.00">_state_machine/failed</text>
<path fill="none" stroke="black" stroke-width="2" d="M625.5,-80.5C625.5,-80.5 738.5,-80.5 738.5,-80.5 744,-80.5 749.5,-86 749.5,-91.5 749.5,-91.5 749.5,-102.5 749.5,-102.5 749.5,-108 744,-113.5 738.5,-113.5 738.5,-113.5 625.5,-113.5 625.5,-113.5 620,-113.5 614.5,-108 614.5,-102.5 614.5,-102.5 614.5,-91.5 614.5,-91.5 614.5,-86 620,-80.5 625.5,-80.5"/>
</g>
<!-- _state_machine/AskForComplete&#45;&gt;_state_machine/failed -->
<g id="edge6" class="edge transition">
<title>_state_machine/AskForComplete&#45;&gt;_state_machine/failed</title>
<path fill="none" stroke="black" d="M733.22,-275.92C720.2,-269.13 706.81,-260.22 697,-249 667.28,-214.99 670.64,-158.81 676.1,-125.41"/>
<polygon fill="black" stroke="black" points="679.57,-125.88 677.91,-115.42 672.68,-124.64 679.57,-125.88"/>
<text text-anchor="start" x="676" y="-197" font-family="Helvetica,sans-Serif" font-size="10.00">preempt &#160;&#160;</text>
</g>
<!-- _state_machine/AskForComplete&#45;&gt;_state_machine/failed -->
<g id="edge7" class="edge transition">
<title>_state_machine/AskForComplete&#45;&gt;_state_machine/failed</title>
<path fill="none" stroke="black" d="M876.03,-278.41C891.29,-271.82 905.21,-262.4 915,-249 929.42,-229.26 920.43,-217.83 915,-194 909.3,-169 909.24,-158.95 890,-142 870.75,-125.04 811.1,-113.53 760.58,-106.55"/>
<polygon fill="black" stroke="black" points="760.99,-103.07 750.62,-105.21 760.06,-110.01 760.99,-103.07"/>
<text text-anchor="start" x="917" y="-197" font-family="Helvetica,sans-Serif" font-size="10.00">timeouted &#160;&#160;</text>
</g>
<!-- _state_machine/AskForComplete&#45;&gt;_state_machine/failed -->
<g id="edge8" class="edge transition">
<title>_state_machine/AskForComplete&#45;&gt;_state_machine/failed</title>
<path fill="none" stroke="black" d="M718.24,-275.97C711.97,-273.55 705.78,-270.89 700,-268 665.41,-250.71 652.23,-241.68 640,-205 630.57,-176.71 646.46,-145 661.32,-123.49"/>
<polygon fill="black" stroke="black" points="664.28,-125.36 667.33,-115.22 658.62,-121.25 664.28,-125.36"/>
<text text-anchor="start" x="640" y="-197" font-family="Helvetica,sans-Serif" font-size="10.00">error &#160;&#160;</text>
</g>
<!-- _state_machine/ContinueRetry -->
<g id="node8" class="node state regular">
<title>_state_machine/ContinueRetry</title>
<polygon fill="#ffffff" fill-opacity="0.003922" stroke="transparent" stroke-width="2" points="575,-115 393,-115 393,-79 575,-79 575,-115"/>
<text text-anchor="start" x="404" y="-93.4" font-family="Helvetica,sans-Serif" font-size="12.00">_state_machine/ContinueRetry</text>
<path fill="none" stroke="red" stroke-width="2" d="M405,-80.5C405,-80.5 563,-80.5 563,-80.5 568.5,-80.5 574,-86 574,-91.5 574,-91.5 574,-102.5 574,-102.5 574,-108 568.5,-113.5 563,-113.5 563,-113.5 405,-113.5 405,-113.5 399.5,-113.5 394,-108 394,-102.5 394,-102.5 394,-91.5 394,-91.5 394,-86 399.5,-80.5 405,-80.5"/>
</g>
<!-- _state_machine/log_retry_value -->
<g id="node15" class="node state regular">
<title>_state_machine/log_retry_value</title>
<polygon fill="#ffffff" fill-opacity="0.003922" stroke="transparent" stroke-width="2" points="911,-52 723,-52 723,-16 911,-16 911,-52"/>
<text text-anchor="start" x="734" y="-30.4" font-family="Helvetica,sans-Serif" font-size="12.00">_state_machine/log_retry_value</text>
<path fill="none" stroke="black" stroke-width="2" d="M735,-17.5C735,-17.5 899,-17.5 899,-17.5 904.5,-17.5 910,-23 910,-28.5 910,-28.5 910,-39.5 910,-39.5 910,-45 904.5,-50.5 899,-50.5 899,-50.5 735,-50.5 735,-50.5 729.5,-50.5 724,-45 724,-39.5 724,-39.5 724,-28.5 724,-28.5 724,-23 729.5,-17.5 735,-17.5"/>
</g>
<!-- _state_machine/ContinueRetry&#45;&gt;_state_machine/log_retry_value -->
<g id="edge9" class="edge transition">
<title>_state_machine/ContinueRetry&#45;&gt;_state_machine/log_retry_value</title>
<path fill="none" stroke="black" d="M575.43,-79.25C618.39,-71.38 669.79,-61.97 714.11,-53.85"/>
<polygon fill="black" stroke="black" points="714.83,-57.27 724.03,-52.03 713.57,-50.39 714.83,-57.27"/>
<text text-anchor="start" x="680" y="-63" font-family="Helvetica,sans-Serif" font-size="10.00">true &#160;&#160;</text>
</g>
<!-- _state_machine/max_retry -->
<g id="node17" class="node state regular">
<title>_state_machine/max_retry</title>
<polygon fill="#ffffff" fill-opacity="0.003922" stroke="transparent" stroke-width="2" points="564,-52 404,-52 404,-16 564,-16 564,-52"/>
<text text-anchor="start" x="415" y="-30.4" font-family="Helvetica,sans-Serif" font-size="12.00">_state_machine/max_retry</text>
<path fill="none" stroke="black" stroke-width="2" d="M416,-17.5C416,-17.5 552,-17.5 552,-17.5 557.5,-17.5 563,-23 563,-28.5 563,-28.5 563,-39.5 563,-39.5 563,-45 557.5,-50.5 552,-50.5 552,-50.5 416,-50.5 416,-50.5 410.5,-50.5 405,-45 405,-39.5 405,-39.5 405,-28.5 405,-28.5 405,-23 410.5,-17.5 416,-17.5"/>
</g>
<!-- _state_machine/ContinueRetry&#45;&gt;_state_machine/max_retry -->
<g id="edge10" class="edge transition">
<title>_state_machine/ContinueRetry&#45;&gt;_state_machine/max_retry</title>
<path fill="none" stroke="black" d="M484,-78.68C484,-73.62 484,-67.95 484,-62.42"/>
<polygon fill="black" stroke="black" points="487.5,-62.15 484,-52.15 480.5,-62.15 487.5,-62.15"/>
<text text-anchor="start" x="484" y="-63" font-family="Helvetica,sans-Serif" font-size="10.00">false &#160;&#160;</text>
</g>
<!-- _state_machine/GetAnswerKey -->
<g id="node9" class="node state regular">
<title>_state_machine/GetAnswerKey</title>
<polygon fill="#ffffff" fill-opacity="0.003922" stroke="transparent" stroke-width="2" points="1151.5,-186 964.5,-186 964.5,-150 1151.5,-150 1151.5,-186"/>
<text text-anchor="start" x="976" y="-164.4" font-family="Helvetica,sans-Serif" font-size="12.00">_state_machine/GetAnswerKey</text>
<path fill="none" stroke="black" stroke-width="2" d="M976.5,-151.5C976.5,-151.5 1139.5,-151.5 1139.5,-151.5 1145,-151.5 1150.5,-157 1150.5,-162.5 1150.5,-162.5 1150.5,-173.5 1150.5,-173.5 1150.5,-179 1145,-184.5 1139.5,-184.5 1139.5,-184.5 976.5,-184.5 976.5,-184.5 971,-184.5 965.5,-179 965.5,-173.5 965.5,-173.5 965.5,-162.5 965.5,-162.5 965.5,-157 971,-151.5 976.5,-151.5"/>
</g>
<!-- _state_machine/log_output -->
<g id="node14" class="node state regular">
<title>_state_machine/log_output</title>
<polygon fill="#ffffff" fill-opacity="0.003922" stroke="transparent" stroke-width="2" points="1226.5,-115 1063.5,-115 1063.5,-79 1226.5,-79 1226.5,-115"/>
<text text-anchor="start" x="1075" y="-93.4" font-family="Helvetica,sans-Serif" font-size="12.00">_state_machine/log_output</text>
<path fill="none" stroke="black" stroke-width="2" d="M1075.5,-80.5C1075.5,-80.5 1214.5,-80.5 1214.5,-80.5 1220,-80.5 1225.5,-86 1225.5,-91.5 1225.5,-91.5 1225.5,-102.5 1225.5,-102.5 1225.5,-108 1220,-113.5 1214.5,-113.5 1214.5,-113.5 1075.5,-113.5 1075.5,-113.5 1070,-113.5 1064.5,-108 1064.5,-102.5 1064.5,-102.5 1064.5,-91.5 1064.5,-91.5 1064.5,-86 1070,-80.5 1075.5,-80.5"/>
</g>
<!-- _state_machine/GetAnswerKey&#45;&gt;_state_machine/log_output -->
<g id="edge11" class="edge transition">
<title>_state_machine/GetAnswerKey&#45;&gt;_state_machine/log_output</title>
<path fill="none" stroke="black" d="M1079.51,-149.94C1090.38,-141.32 1103.74,-130.72 1115.56,-121.35"/>
<polygon fill="black" stroke="black" points="1117.78,-124.06 1123.44,-115.1 1113.43,-118.57 1117.78,-124.06"/>
<text text-anchor="start" x="1111" y="-126" font-family="Helvetica,sans-Serif" font-size="10.00">done &#160;&#160;</text>
</g>
<!-- _state_machine/GetAnswerKey&#45;&gt;_state_machine/failed -->
<g id="edge12" class="edge transition">
<title>_state_machine/GetAnswerKey&#45;&gt;_state_machine/failed</title>
<path fill="none" stroke="black" d="M1022.35,-149.87C1000.98,-140.37 973,-129.25 947,-123 885.48,-108.22 813.95,-102.1 760.73,-99.6"/>
<polygon fill="black" stroke="black" points="760.82,-96.1 750.68,-99.16 760.51,-103.1 760.82,-96.1"/>
<text text-anchor="start" x="981" y="-126" font-family="Helvetica,sans-Serif" font-size="10.00">error &#160;&#160;</text>
</g>
<!-- _state_machine/UtterNotRecognizedText -->
<g id="node12" class="node state regular">
<title>_state_machine/UtterNotRecognizedText</title>
<polygon fill="#ffffff" fill-opacity="0.003922" stroke="transparent" stroke-width="2" points="612,-186 376,-186 376,-150 612,-150 612,-186"/>
<text text-anchor="start" x="387" y="-164.4" font-family="Helvetica,sans-Serif" font-size="12.00">_state_machine/UtterNotRecognizedText</text>
<path fill="none" stroke="black" stroke-width="2" d="M388,-151.5C388,-151.5 600,-151.5 600,-151.5 605.5,-151.5 611,-157 611,-162.5 611,-162.5 611,-173.5 611,-173.5 611,-179 605.5,-184.5 600,-184.5 600,-184.5 388,-184.5 388,-184.5 382.5,-184.5 377,-179 377,-173.5 377,-173.5 377,-162.5 377,-162.5 377,-157 382.5,-151.5 388,-151.5"/>
</g>
<!-- _state_machine/NotRecognized&#45;&gt;_state_machine/UtterNotRecognizedText -->
<g id="edge13" class="edge transition">
<title>_state_machine/NotRecognized&#45;&gt;_state_machine/UtterNotRecognizedText</title>
<path fill="none" stroke="black" d="M494,-212.68C494,-207.62 494,-201.95 494,-196.42"/>
<polygon fill="black" stroke="black" points="497.5,-196.15 494,-186.15 490.5,-196.15 497.5,-196.15"/>
<text text-anchor="start" x="494" y="-197" font-family="Helvetica,sans-Serif" font-size="10.00">done &#160;&#160;</text>
</g>
<!-- _state_machine/Recognized&#45;&gt;_state_machine/GetAnswerKey -->
<g id="edge14" class="edge transition">
<title>_state_machine/Recognized&#45;&gt;_state_machine/GetAnswerKey</title>
<path fill="none" stroke="black" d="M1053.7,-212.68C1054.2,-207.62 1054.76,-201.95 1055.3,-196.42"/>
<polygon fill="black" stroke="black" points="1058.82,-196.44 1056.31,-186.15 1051.85,-195.76 1058.82,-196.44"/>
<text text-anchor="start" x="1055" y="-197" font-family="Helvetica,sans-Serif" font-size="10.00">done &#160;&#160;</text>
</g>
<!-- _state_machine/UtterNotRecognizedText&#45;&gt;_state_machine/ContinueRetry -->
<g id="edge15" class="edge transition">
<title>_state_machine/UtterNotRecognizedText&#45;&gt;_state_machine/ContinueRetry</title>
<path fill="none" stroke="black" d="M424.95,-149.83C418.33,-145.65 412.44,-140.46 408,-134 405.31,-130.09 404.53,-126.59 405.22,-123.47"/>
<polygon fill="black" stroke="black" points="408.2,-125.31 411.23,-115.16 402.53,-121.2 408.2,-125.31"/>
<text text-anchor="start" x="408" y="-126" font-family="Helvetica,sans-Serif" font-size="10.00">done &#160;&#160;</text>
</g>
<!-- _state_machine/UtterNotRecognizedText&#45;&gt;_state_machine/failed -->
<g id="edge16" class="edge transition">
<title>_state_machine/UtterNotRecognizedText&#45;&gt;_state_machine/failed</title>
<path fill="none" stroke="black" d="M472.4,-149.66C464.27,-141.1 458.58,-130.93 466,-123 475.13,-113.24 572.73,-116.61 586,-115 591.7,-114.31 597.59,-113.5 603.49,-112.62"/>
<polygon fill="black" stroke="black" points="604.09,-116.07 613.44,-111.07 603.02,-109.15 604.09,-116.07"/>
<text text-anchor="start" x="466" y="-126" font-family="Helvetica,sans-Serif" font-size="10.00">preempt &#160;&#160;</text>
</g>
<!-- _state_machine/UtterNotRecognizedText&#45;&gt;_state_machine/failed -->
<g id="edge17" class="edge transition">
<title>_state_machine/UtterNotRecognizedText&#45;&gt;_state_machine/failed</title>
<path fill="none" stroke="black" d="M506.78,-149.75C514.7,-140.33 525.7,-129.33 538,-123 557.23,-113.1 564.68,-118.66 586,-115 591.66,-114.03 597.51,-113.01 603.4,-111.99"/>
<polygon fill="black" stroke="black" points="604.07,-115.42 613.32,-110.25 602.86,-108.53 604.07,-115.42"/>
<text text-anchor="start" x="538" y="-126" font-family="Helvetica,sans-Serif" font-size="10.00">timeouted &#160;&#160;</text>
</g>
<!-- _state_machine/UtterNotRecognizedText&#45;&gt;_state_machine/failed -->
<g id="edge18" class="edge transition">
<title>_state_machine/UtterNotRecognizedText&#45;&gt;_state_machine/failed</title>
<path fill="none" stroke="black" d="M546.35,-149.96C560.89,-145.02 576.62,-139.48 591,-134 602.72,-129.53 605.37,-127.7 617,-123 620.45,-121.61 624.02,-120.18 627.62,-118.76"/>
<polygon fill="black" stroke="black" points="629.13,-121.93 637.17,-115.02 626.58,-115.41 629.13,-121.93"/>
<text text-anchor="start" x="617" y="-126" font-family="Helvetica,sans-Serif" font-size="10.00">error &#160;&#160;</text>
</g>
<!-- _state_machine/UtterRecognized -->
<g id="node13" class="node state regular">
<title>_state_machine/UtterRecognized</title>
<polygon fill="#ffffff" fill-opacity="0.003922" stroke="transparent" stroke-width="2" points="904,-249 708,-249 708,-213 904,-213 904,-249"/>
<text text-anchor="start" x="719" y="-227.4" font-family="Helvetica,sans-Serif" font-size="12.00">_state_machine/UtterRecognized</text>
<path fill="none" stroke="black" stroke-width="2" d="M720,-214.5C720,-214.5 892,-214.5 892,-214.5 897.5,-214.5 903,-220 903,-225.5 903,-225.5 903,-236.5 903,-236.5 903,-242 897.5,-247.5 892,-247.5 892,-247.5 720,-247.5 720,-247.5 714.5,-247.5 709,-242 709,-236.5 709,-236.5 709,-225.5 709,-225.5 709,-220 714.5,-214.5 720,-214.5"/>
</g>
<!-- _state_machine/UtterRecognized&#45;&gt;_state_machine/GetAnswerKey -->
<g id="edge19" class="edge transition">
<title>_state_machine/UtterRecognized&#45;&gt;_state_machine/GetAnswerKey</title>
<path fill="none" stroke="black" d="M841.53,-212.81C859.52,-204.21 878.51,-195.34 883,-194 890.66,-191.72 921.09,-187.15 954.47,-182.54"/>
<polygon fill="black" stroke="black" points="954.99,-186 964.43,-181.17 954.04,-179.06 954.99,-186"/>
<text text-anchor="start" x="883" y="-197" font-family="Helvetica,sans-Serif" font-size="10.00">done &#160;&#160;</text>
</g>
<!-- _state_machine/UtterRecognized&#45;&gt;_state_machine/failed -->
<g id="edge20" class="edge transition">
<title>_state_machine/UtterRecognized&#45;&gt;_state_machine/failed</title>
<path fill="none" stroke="black" d="M759.39,-212.89C745.71,-206.14 731.59,-197.25 721,-186 704.86,-168.85 694.67,-143.92 688.77,-124.97"/>
<polygon fill="black" stroke="black" points="692.07,-123.78 685.93,-115.14 685.35,-125.72 692.07,-123.78"/>
<text text-anchor="start" x="721" y="-165.5" font-family="Helvetica,sans-Serif" font-size="10.00">preempt &#160;&#160;</text>
</g>
<!-- _state_machine/UtterRecognized&#45;&gt;_state_machine/failed -->
<g id="edge21" class="edge transition">
<title>_state_machine/UtterRecognized&#45;&gt;_state_machine/failed</title>
<path fill="none" stroke="black" d="M802.07,-212.86C796.9,-193.58 786.13,-162.32 767,-142 758.73,-133.21 748.3,-125.86 737.61,-119.85"/>
<polygon fill="black" stroke="black" points="739.09,-116.68 728.61,-115.11 735.83,-122.87 739.09,-116.68"/>
<text text-anchor="start" x="792" y="-165.5" font-family="Helvetica,sans-Serif" font-size="10.00">timeouted &#160;&#160;</text>
</g>
<!-- _state_machine/UtterRecognized&#45;&gt;_state_machine/failed -->
<g id="edge22" class="edge transition">
<title>_state_machine/UtterRecognized&#45;&gt;_state_machine/failed</title>
<path fill="none" stroke="black" d="M829.04,-212.76C836.93,-205.48 844.81,-196.29 849,-186 856.38,-167.89 860.94,-157.49 849,-142 837.7,-127.34 798.46,-116.59 760.85,-109.38"/>
<polygon fill="black" stroke="black" points="761.3,-105.9 750.83,-107.53 760.03,-112.79 761.3,-105.9"/>
<text text-anchor="start" x="856" y="-165.5" font-family="Helvetica,sans-Serif" font-size="10.00">error &#160;&#160;</text>
</g>
<!-- _state_machine/finished -->
<g id="node18" class="node state regular">
<title>_state_machine/finished</title>
<polygon fill="#ffffff" fill-opacity="0.003922" stroke="transparent" stroke-width="2" points="1219.5,-52 1070.5,-52 1070.5,-16 1219.5,-16 1219.5,-52"/>
<text text-anchor="start" x="1082" y="-30.4" font-family="Helvetica,sans-Serif" font-size="12.00">_state_machine/finished</text>
<path fill="none" stroke="black" stroke-width="2" d="M1082.5,-17.5C1082.5,-17.5 1207.5,-17.5 1207.5,-17.5 1213,-17.5 1218.5,-23 1218.5,-28.5 1218.5,-28.5 1218.5,-39.5 1218.5,-39.5 1218.5,-45 1213,-50.5 1207.5,-50.5 1207.5,-50.5 1082.5,-50.5 1082.5,-50.5 1077,-50.5 1071.5,-45 1071.5,-39.5 1071.5,-39.5 1071.5,-28.5 1071.5,-28.5 1071.5,-23 1077,-17.5 1082.5,-17.5"/>
</g>
<!-- _state_machine/log_output&#45;&gt;_state_machine/finished -->
<g id="edge23" class="edge transition">
<title>_state_machine/log_output&#45;&gt;_state_machine/finished</title>
<path fill="none" stroke="black" d="M1145,-78.68C1145,-73.62 1145,-67.95 1145,-62.42"/>
<polygon fill="black" stroke="black" points="1148.5,-62.15 1145,-52.15 1141.5,-62.15 1148.5,-62.15"/>
<text text-anchor="start" x="1145" y="-63" font-family="Helvetica,sans-Serif" font-size="10.00">done &#160;&#160;</text>
</g>
<!-- _state_machine/log_retry_value&#45;&gt;_state_machine/AskForComplete -->
<g id="edge24" class="edge transition">
<title>_state_machine/log_retry_value&#45;&gt;_state_machine/AskForComplete</title>
<path fill="none" stroke="black" d="M857.51,-52.1C903.87,-70.86 982.49,-100.28 1053,-115 1073.52,-119.29 1128.38,-113.36 1147,-123 1172.65,-136.29 1166.15,-157.28 1163,-186 1159.87,-214.51 1169.01,-228.45 1149,-249 1130.8,-267.68 989.35,-280.23 886.26,-286.99"/>
<polygon fill="black" stroke="black" points="885.85,-283.51 876.09,-287.65 886.3,-290.5 885.85,-283.51"/>
<text text-anchor="start" x="1166" y="-165.5" font-family="Helvetica,sans-Serif" font-size="10.00">done &#160;&#160;</text>
</g>
</g>
</svg>
