<?xml version="1.0" encoding="UTF-8" standalone="no"?>
<!DOCTYPE svg PUBLIC "-//W3C//DTD SVG 1.1//EN"
 "http://www.w3.org/Graphics/SVG/1.1/DTD/svg11.dtd">
<!-- Generated by graphviz version 2.49.1 (20210923.0004)
 -->
<!-- Title: state transitions Pages: 1 -->
<svg width="1697pt" height="491pt"
 viewBox="0.00 0.00 1697.00 491.00" xmlns="http://www.w3.org/2000/svg" xmlns:xlink="http://www.w3.org/1999/xlink">
<g id="graph0" class="graph" transform="scale(1 1) rotate(0) translate(4 487)">
<title>state transitions</title>
<polygon fill="white" stroke="transparent" points="-4,4 -4,-487 1693,-487 1693,4 -4,4"/>
<g id="clust2" class="cluster state regular">
<title>cluster__state_machine</title>
<path fill="none" stroke="black" stroke-width="2" d="M380,-8C380,-8 1669,-8 1669,-8 1675,-8 1681,-14 1681,-20 1681,-20 1681,-463 1681,-463 1681,-469 1675,-475 1669,-475 1669,-475 380,-475 380,-475 374,-475 368,-469 368,-463 368,-463 368,-20 368,-20 368,-14 374,-8 380,-8"/>
<text text-anchor="start" x="982.5" y="-456.9" font-family="Helvetica,sans-Serif" font-size="12.00">_state_machine</text>
</g>
<g id="clust1" class="cluster state regular">
<title>cluster__sm_continueretry_0</title>
<path fill="none" stroke="black" stroke-width="2" d="M20,-268C20,-268 348,-268 348,-268 354,-268 360,-274 360,-280 360,-280 360,-463 360,-463 360,-469 354,-475 348,-475 348,-475 20,-475 20,-475 14,-475 8,-469 8,-463 8,-463 8,-280 8,-280 8,-274 14,-268 20,-268"/>
<text text-anchor="start" x="130" y="-456.9" font-family="Helvetica,sans-Serif" font-size="12.00">_sm_continueretry_0</text>
</g>
<!-- _sm_continueretry_0 -->
<!-- _sm_continueretry_0/decrease_retry -->
<g id="node2" class="node state regular">
<title>_sm_continueretry_0/decrease_retry</title>
<polygon fill="#ffffff" fill-opacity="0.003922" stroke="transparent" stroke-width="2" points="242.5,-438 29.5,-438 29.5,-402 242.5,-402 242.5,-438"/>
<text text-anchor="start" x="41" y="-416.4" font-family="Helvetica,sans-Serif" font-size="12.00">_sm_continueretry_0/decrease_retry</text>
<path fill="none" stroke="black" stroke-width="2" d="M41.5,-403.5C41.5,-403.5 230.5,-403.5 230.5,-403.5 236,-403.5 241.5,-409 241.5,-414.5 241.5,-414.5 241.5,-425.5 241.5,-425.5 241.5,-431 236,-436.5 230.5,-436.5 230.5,-436.5 41.5,-436.5 41.5,-436.5 36,-436.5 30.5,-431 30.5,-425.5 30.5,-425.5 30.5,-414.5 30.5,-414.5 30.5,-409 36,-403.5 41.5,-403.5"/>
</g>
<!-- _sm_continueretry_0/continue_asking -->
<g id="node3" class="node state regular">
<title>_sm_continueretry_0/continue_asking</title>
<polygon fill="#ffffff" fill-opacity="0.003922" stroke="transparent" stroke-width="2" points="245.5,-375 26.5,-375 26.5,-339 245.5,-339 245.5,-375"/>
<text text-anchor="start" x="38" y="-353.4" font-family="Helvetica,sans-Serif" font-size="12.00">_sm_continueretry_0/continue_asking</text>
<path fill="none" stroke="black" stroke-width="2" d="M38.5,-340.5C38.5,-340.5 233.5,-340.5 233.5,-340.5 239,-340.5 244.5,-346 244.5,-351.5 244.5,-351.5 244.5,-362.5 244.5,-362.5 244.5,-368 239,-373.5 233.5,-373.5 233.5,-373.5 38.5,-373.5 38.5,-373.5 33,-373.5 27.5,-368 27.5,-362.5 27.5,-362.5 27.5,-351.5 27.5,-351.5 27.5,-346 33,-340.5 38.5,-340.5"/>
</g>
<!-- _sm_continueretry_0/decrease_retry&#45;&gt;_sm_continueretry_0/continue_asking -->
<g id="edge1" class="edge transition">
<title>_sm_continueretry_0/decrease_retry&#45;&gt;_sm_continueretry_0/continue_asking</title>
<path fill="none" stroke="black" d="M136,-401.68C136,-396.62 136,-390.95 136,-385.42"/>
<polygon fill="black" stroke="black" points="139.5,-385.15 136,-375.15 132.5,-385.15 139.5,-385.15"/>
<text text-anchor="start" x="136" y="-386" font-family="Helvetica,sans-Serif" font-size="10.00">done &#160;&#160;</text>
</g>
<!-- _sm_continueretry_0/true -->
<g id="node4" class="node state regular">
<title>_sm_continueretry_0/true</title>
<polygon fill="#ffffff" fill-opacity="0.003922" stroke="transparent" stroke-width="2" points="170,-312 16,-312 16,-276 170,-276 170,-312"/>
<text text-anchor="start" x="27" y="-290.4" font-family="Helvetica,sans-Serif" font-size="12.00">_sm_continueretry_0/true</text>
<path fill="none" stroke="black" stroke-width="2" d="M28,-277.5C28,-277.5 158,-277.5 158,-277.5 163.5,-277.5 169,-283 169,-288.5 169,-288.5 169,-299.5 169,-299.5 169,-305 163.5,-310.5 158,-310.5 158,-310.5 28,-310.5 28,-310.5 22.5,-310.5 17,-305 17,-299.5 17,-299.5 17,-288.5 17,-288.5 17,-283 22.5,-277.5 28,-277.5"/>
</g>
<!-- _sm_continueretry_0/continue_asking&#45;&gt;_sm_continueretry_0/true -->
<g id="edge2" class="edge transition">
<title>_sm_continueretry_0/continue_asking&#45;&gt;_sm_continueretry_0/true</title>
<path fill="none" stroke="black" d="M123.79,-338.68C119.86,-333.1 115.4,-326.78 111.13,-320.72"/>
<polygon fill="black" stroke="black" points="113.71,-318.31 105.09,-312.15 107.99,-322.34 113.71,-318.31"/>
<text text-anchor="start" x="119" y="-323" font-family="Helvetica,sans-Serif" font-size="10.00">true &#160;&#160;</text>
</g>
<!-- _sm_continueretry_0/false -->
<g id="node5" class="node state regular">
<title>_sm_continueretry_0/false</title>
<polygon fill="#ffffff" fill-opacity="0.003922" stroke="transparent" stroke-width="2" points="351.5,-312 192.5,-312 192.5,-276 351.5,-276 351.5,-312"/>
<text text-anchor="start" x="204" y="-290.4" font-family="Helvetica,sans-Serif" font-size="12.00">_sm_continueretry_0/false</text>
<path fill="none" stroke="black" stroke-width="2" d="M204.5,-277.5C204.5,-277.5 339.5,-277.5 339.5,-277.5 345,-277.5 350.5,-283 350.5,-288.5 350.5,-288.5 350.5,-299.5 350.5,-299.5 350.5,-305 345,-310.5 339.5,-310.5 339.5,-310.5 204.5,-310.5 204.5,-310.5 199,-310.5 193.5,-305 193.5,-299.5 193.5,-299.5 193.5,-288.5 193.5,-288.5 193.5,-283 199,-277.5 204.5,-277.5"/>
</g>
<!-- _sm_continueretry_0/continue_asking&#45;&gt;_sm_continueretry_0/false -->
<g id="edge3" class="edge transition">
<title>_sm_continueretry_0/continue_asking&#45;&gt;_sm_continueretry_0/false</title>
<path fill="none" stroke="black" d="M174.25,-338.85C189.88,-331.83 208.12,-323.65 224.59,-316.27"/>
<polygon fill="black" stroke="black" points="226.35,-319.31 234.04,-312.03 223.48,-312.92 226.35,-319.31"/>
<text text-anchor="start" x="217" y="-323" font-family="Helvetica,sans-Serif" font-size="10.00">false &#160;&#160;</text>
</g>
<!-- _state_machine -->
<!-- _state_machine/log_insert_success -->
<g id="node7" class="node state regular">
<title>_state_machine/log_insert_success</title>
<polygon fill="#ffffff" fill-opacity="0.003922" stroke="transparent" stroke-width="2" points="1415.5,-438 1206.5,-438 1206.5,-402 1415.5,-402 1415.5,-438"/>
<text text-anchor="start" x="1218" y="-416.4" font-family="Helvetica,sans-Serif" font-size="12.00">_state_machine/log_insert_success</text>
<path fill="none" stroke="black" stroke-width="2" d="M1218.5,-403.5C1218.5,-403.5 1403.5,-403.5 1403.5,-403.5 1409,-403.5 1414.5,-409 1414.5,-414.5 1414.5,-414.5 1414.5,-425.5 1414.5,-425.5 1414.5,-431 1409,-436.5 1403.5,-436.5 1403.5,-436.5 1218.5,-436.5 1218.5,-436.5 1213,-436.5 1207.5,-431 1207.5,-425.5 1207.5,-425.5 1207.5,-414.5 1207.5,-414.5 1207.5,-409 1213,-403.5 1218.5,-403.5"/>
</g>
<!-- _state_machine/log_screw_id -->
<g id="node21" class="node state regular">
<title>_state_machine/log_screw_id</title>
<polygon fill="#ffffff" fill-opacity="0.003922" stroke="transparent" stroke-width="2" points="1403.5,-375 1224.5,-375 1224.5,-339 1403.5,-339 1403.5,-375"/>
<text text-anchor="start" x="1236" y="-353.4" font-family="Helvetica,sans-Serif" font-size="12.00">_state_machine/log_screw_id</text>
<path fill="none" stroke="black" stroke-width="2" d="M1236.5,-340.5C1236.5,-340.5 1391.5,-340.5 1391.5,-340.5 1397,-340.5 1402.5,-346 1402.5,-351.5 1402.5,-351.5 1402.5,-362.5 1402.5,-362.5 1402.5,-368 1397,-373.5 1391.5,-373.5 1391.5,-373.5 1236.5,-373.5 1236.5,-373.5 1231,-373.5 1225.5,-368 1225.5,-362.5 1225.5,-362.5 1225.5,-351.5 1225.5,-351.5 1225.5,-346 1231,-340.5 1236.5,-340.5"/>
</g>
<!-- _state_machine/log_insert_success&#45;&gt;_state_machine/log_screw_id -->
<g id="edge4" class="edge transition">
<title>_state_machine/log_insert_success&#45;&gt;_state_machine/log_screw_id</title>
<path fill="none" stroke="black" d="M1311.85,-401.68C1312.1,-396.62 1312.38,-390.95 1312.65,-385.42"/>
<polygon fill="black" stroke="black" points="1316.16,-385.31 1313.16,-375.15 1309.17,-384.97 1316.16,-385.31"/>
<text text-anchor="start" x="1312" y="-386" font-family="Helvetica,sans-Serif" font-size="10.00">done &#160;&#160;</text>
</g>
<!-- _state_machine/ContinueRetry -->
<g id="node8" class="node state regular">
<title>_state_machine/ContinueRetry</title>
<polygon fill="#ffffff" fill-opacity="0.003922" stroke="transparent" stroke-width="2" points="695,-178 513,-178 513,-142 695,-142 695,-178"/>
<text text-anchor="start" x="524" y="-156.4" font-family="Helvetica,sans-Serif" font-size="12.00">_state_machine/ContinueRetry</text>
<path fill="none" stroke="red" stroke-width="2" d="M525,-143.5C525,-143.5 683,-143.5 683,-143.5 688.5,-143.5 694,-149 694,-154.5 694,-154.5 694,-165.5 694,-165.5 694,-171 688.5,-176.5 683,-176.5 683,-176.5 525,-176.5 525,-176.5 519.5,-176.5 514,-171 514,-165.5 514,-165.5 514,-154.5 514,-154.5 514,-149 519.5,-143.5 525,-143.5"/>
</g>
<!-- _state_machine/log_retry_value -->
<g id="node19" class="node state regular">
<title>_state_machine/log_retry_value</title>
<polygon fill="#ffffff" fill-opacity="0.003922" stroke="transparent" stroke-width="2" points="824,-115 636,-115 636,-79 824,-79 824,-115"/>
<text text-anchor="start" x="647" y="-93.4" font-family="Helvetica,sans-Serif" font-size="12.00">_state_machine/log_retry_value</text>
<path fill="none" stroke="black" stroke-width="2" d="M648,-80.5C648,-80.5 812,-80.5 812,-80.5 817.5,-80.5 823,-86 823,-91.5 823,-91.5 823,-102.5 823,-102.5 823,-108 817.5,-113.5 812,-113.5 812,-113.5 648,-113.5 648,-113.5 642.5,-113.5 637,-108 637,-102.5 637,-102.5 637,-91.5 637,-91.5 637,-86 642.5,-80.5 648,-80.5"/>
</g>
<!-- _state_machine/ContinueRetry&#45;&gt;_state_machine/log_retry_value -->
<g id="edge5" class="edge transition">
<title>_state_machine/ContinueRetry&#45;&gt;_state_machine/log_retry_value</title>
<path fill="none" stroke="black" d="M639.43,-141.85C653.78,-134.9 670.5,-126.8 685.64,-119.47"/>
<polygon fill="black" stroke="black" points="687.36,-122.53 694.83,-115.03 684.31,-116.23 687.36,-122.53"/>
<text text-anchor="start" x="678" y="-126" font-family="Helvetica,sans-Serif" font-size="10.00">true &#160;&#160;</text>
</g>
<!-- _state_machine/wait_unknown -->
<g id="node24" class="node state regular">
<title>_state_machine/wait_unknown</title>
<polygon fill="#ffffff" fill-opacity="0.003922" stroke="transparent" stroke-width="2" points="558,-115 376,-115 376,-79 558,-79 558,-115"/>
<text text-anchor="start" x="387" y="-93.4" font-family="Helvetica,sans-Serif" font-size="12.00">_state_machine/wait_unknown</text>
<path fill="none" stroke="black" stroke-width="2" d="M388,-80.5C388,-80.5 546,-80.5 546,-80.5 551.5,-80.5 557,-86 557,-91.5 557,-91.5 557,-102.5 557,-102.5 557,-108 551.5,-113.5 546,-113.5 546,-113.5 388,-113.5 388,-113.5 382.5,-113.5 377,-108 377,-102.5 377,-102.5 377,-91.5 377,-91.5 377,-86 382.5,-80.5 388,-80.5"/>
</g>
<!-- _state_machine/ContinueRetry&#45;&gt;_state_machine/wait_unknown -->
<g id="edge6" class="edge transition">
<title>_state_machine/ContinueRetry&#45;&gt;_state_machine/wait_unknown</title>
<path fill="none" stroke="black" d="M565.47,-141.85C549.73,-134.83 531.35,-126.65 514.76,-119.27"/>
<polygon fill="black" stroke="black" points="515.8,-115.9 505.24,-115.03 512.95,-122.29 515.8,-115.9"/>
<text text-anchor="start" x="547" y="-126" font-family="Helvetica,sans-Serif" font-size="10.00">false &#160;&#160;</text>
</g>
<!-- _state_machine/GetConfirm -->
<g id="node9" class="node state regular">
<title>_state_machine/GetConfirm</title>
<polygon fill="#ffffff" fill-opacity="0.003922" stroke="transparent" stroke-width="2" points="1079.5,-178 910.5,-178 910.5,-142 1079.5,-142 1079.5,-178"/>
<text text-anchor="start" x="922" y="-156.4" font-family="Helvetica,sans-Serif" font-size="12.00">_state_machine/GetConfirm</text>
<path fill="none" stroke="black" stroke-width="2" d="M922.5,-143.5C922.5,-143.5 1067.5,-143.5 1067.5,-143.5 1073,-143.5 1078.5,-149 1078.5,-154.5 1078.5,-154.5 1078.5,-165.5 1078.5,-165.5 1078.5,-171 1073,-176.5 1067.5,-176.5 1067.5,-176.5 922.5,-176.5 922.5,-176.5 917,-176.5 911.5,-171 911.5,-165.5 911.5,-165.5 911.5,-154.5 911.5,-154.5 911.5,-149 917,-143.5 922.5,-143.5"/>
</g>
<!-- _state_machine/wait_complete -->
<g id="node23" class="node state regular">
<title>_state_machine/wait_complete</title>
<polygon fill="#ffffff" fill-opacity="0.003922" stroke="transparent" stroke-width="2" points="1087.5,-115 902.5,-115 902.5,-79 1087.5,-79 1087.5,-115"/>
<text text-anchor="start" x="914" y="-93.4" font-family="Helvetica,sans-Serif" font-size="12.00">_state_machine/wait_complete</text>
<path fill="none" stroke="black" stroke-width="2" d="M914.5,-80.5C914.5,-80.5 1075.5,-80.5 1075.5,-80.5 1081,-80.5 1086.5,-86 1086.5,-91.5 1086.5,-91.5 1086.5,-102.5 1086.5,-102.5 1086.5,-108 1081,-113.5 1075.5,-113.5 1075.5,-113.5 914.5,-113.5 914.5,-113.5 909,-113.5 903.5,-108 903.5,-102.5 903.5,-102.5 903.5,-91.5 903.5,-91.5 903.5,-86 909,-80.5 914.5,-80.5"/>
</g>
<!-- _state_machine/GetConfirm&#45;&gt;_state_machine/wait_complete -->
<g id="edge7" class="edge transition">
<title>_state_machine/GetConfirm&#45;&gt;_state_machine/wait_complete</title>
<path fill="none" stroke="black" d="M995,-141.68C995,-136.62 995,-130.95 995,-125.42"/>
<polygon fill="black" stroke="black" points="998.5,-125.15 995,-115.15 991.5,-125.15 998.5,-125.15"/>
<text text-anchor="start" x="995" y="-126" font-family="Helvetica,sans-Serif" font-size="10.00">done &#160;&#160;</text>
</g>
<!-- _state_machine/fail -->
<g id="node26" class="node state regular">
<title>_state_machine/fail</title>
<polygon fill="#ffffff" fill-opacity="0.003922" stroke="transparent" stroke-width="2" points="1252,-115 1128,-115 1128,-79 1252,-79 1252,-115"/>
<text text-anchor="start" x="1139" y="-93.4" font-family="Helvetica,sans-Serif" font-size="12.00">_state_machine/fail</text>
<path fill="none" stroke="black" stroke-width="2" d="M1140,-80.5C1140,-80.5 1240,-80.5 1240,-80.5 1245.5,-80.5 1251,-86 1251,-91.5 1251,-91.5 1251,-102.5 1251,-102.5 1251,-108 1245.5,-113.5 1240,-113.5 1240,-113.5 1140,-113.5 1140,-113.5 1134.5,-113.5 1129,-108 1129,-102.5 1129,-102.5 1129,-91.5 1129,-91.5 1129,-86 1134.5,-80.5 1140,-80.5"/>
</g>
<!-- _state_machine/GetConfirm&#45;&gt;_state_machine/fail -->
<g id="edge8" class="edge transition">
<title>_state_machine/GetConfirm&#45;&gt;_state_machine/fail</title>
<path fill="none" stroke="black" d="M1036.26,-141.94C1052.53,-135.54 1071.49,-128.5 1089,-123 1098.37,-120.06 1108.32,-117.24 1118.17,-114.62"/>
<polygon fill="black" stroke="black" points="1119.18,-117.98 1127.97,-112.07 1117.41,-111.2 1119.18,-117.98"/>
<text text-anchor="start" x="1089" y="-126" font-family="Helvetica,sans-Serif" font-size="10.00">error &#160;&#160;</text>
</g>
<!-- _state_machine/NotRecognized -->
<g id="node10" class="node state regular">
<title>_state_machine/NotRecognized</title>
<polygon fill="#ffffff" fill-opacity="0.003922" stroke="transparent" stroke-width="2" points="842.5,-312 653.5,-312 653.5,-276 842.5,-276 842.5,-312"/>
<text text-anchor="start" x="665" y="-290.4" font-family="Helvetica,sans-Serif" font-size="12.00">_state_machine/NotRecognized</text>
<path fill="none" stroke="black" stroke-width="2" d="M665.5,-277.5C665.5,-277.5 830.5,-277.5 830.5,-277.5 836,-277.5 841.5,-283 841.5,-288.5 841.5,-288.5 841.5,-299.5 841.5,-299.5 841.5,-305 836,-310.5 830.5,-310.5 830.5,-310.5 665.5,-310.5 665.5,-310.5 660,-310.5 654.5,-305 654.5,-299.5 654.5,-299.5 654.5,-288.5 654.5,-288.5 654.5,-283 660,-277.5 665.5,-277.5"/>
</g>
<!-- _state_machine/UtterRecognizedText -->
<g id="node16" class="node state regular">
<title>_state_machine/UtterRecognizedText</title>
<polygon fill="#ffffff" fill-opacity="0.003922" stroke="transparent" stroke-width="2" points="839,-241 621,-241 621,-205 839,-205 839,-241"/>
<text text-anchor="start" x="632" y="-219.4" font-family="Helvetica,sans-Serif" font-size="12.00">_state_machine/UtterRecognizedText</text>
<path fill="none" stroke="black" stroke-width="2" d="M633,-206.5C633,-206.5 827,-206.5 827,-206.5 832.5,-206.5 838,-212 838,-217.5 838,-217.5 838,-228.5 838,-228.5 838,-234 832.5,-239.5 827,-239.5 827,-239.5 633,-239.5 633,-239.5 627.5,-239.5 622,-234 622,-228.5 622,-228.5 622,-217.5 622,-217.5 622,-212 627.5,-206.5 633,-206.5"/>
</g>
<!-- _state_machine/NotRecognized&#45;&gt;_state_machine/UtterRecognizedText -->
<g id="edge9" class="edge transition">
<title>_state_machine/NotRecognized&#45;&gt;_state_machine/UtterRecognizedText</title>
<path fill="none" stroke="black" d="M743.55,-275.94C741.6,-268.45 739.25,-259.47 737.07,-251.11"/>
<polygon fill="black" stroke="black" points="740.43,-250.13 734.52,-241.34 733.66,-251.9 740.43,-250.13"/>
<text text-anchor="start" x="739" y="-252" font-family="Helvetica,sans-Serif" font-size="10.00">done &#160;&#160;</text>
</g>
<!-- _state_machine/Recognized -->
<g id="node11" class="node state regular">
<title>_state_machine/Recognized</title>
<polygon fill="#ffffff" fill-opacity="0.003922" stroke="transparent" stroke-width="2" points="1088.5,-312 917.5,-312 917.5,-276 1088.5,-276 1088.5,-312"/>
<text text-anchor="start" x="929" y="-290.4" font-family="Helvetica,sans-Serif" font-size="12.00">_state_machine/Recognized</text>
<path fill="none" stroke="black" stroke-width="2" d="M929.5,-277.5C929.5,-277.5 1076.5,-277.5 1076.5,-277.5 1082,-277.5 1087.5,-283 1087.5,-288.5 1087.5,-288.5 1087.5,-299.5 1087.5,-299.5 1087.5,-305 1082,-310.5 1076.5,-310.5 1076.5,-310.5 929.5,-310.5 929.5,-310.5 924,-310.5 918.5,-305 918.5,-299.5 918.5,-299.5 918.5,-288.5 918.5,-288.5 918.5,-283 924,-277.5 929.5,-277.5"/>
</g>
<!-- _state_machine/UtterRecognized -->
<g id="node15" class="node state regular">
<title>_state_machine/UtterRecognized</title>
<polygon fill="#ffffff" fill-opacity="0.003922" stroke="transparent" stroke-width="2" points="1132,-241 936,-241 936,-205 1132,-205 1132,-241"/>
<text text-anchor="start" x="947" y="-219.4" font-family="Helvetica,sans-Serif" font-size="12.00">_state_machine/UtterRecognized</text>
<path fill="none" stroke="black" stroke-width="2" d="M948,-206.5C948,-206.5 1120,-206.5 1120,-206.5 1125.5,-206.5 1131,-212 1131,-217.5 1131,-217.5 1131,-228.5 1131,-228.5 1131,-234 1125.5,-239.5 1120,-239.5 1120,-239.5 948,-239.5 948,-239.5 942.5,-239.5 937,-234 937,-228.5 937,-228.5 937,-217.5 937,-217.5 937,-212 942.5,-206.5 948,-206.5"/>
</g>
<!-- _state_machine/Recognized&#45;&gt;_state_machine/UtterRecognized -->
<g id="edge10" class="edge transition">
<title>_state_machine/Recognized&#45;&gt;_state_machine/UtterRecognized</title>
<path fill="none" stroke="black" d="M1010.66,-275.94C1014.1,-268.29 1018.24,-259.08 1022.07,-250.55"/>
<polygon fill="black" stroke="black" points="1025.3,-251.9 1026.21,-241.34 1018.92,-249.03 1025.3,-251.9"/>
<text text-anchor="start" x="1022" y="-252" font-family="Helvetica,sans-Serif" font-size="10.00">done &#160;&#160;</text>
</g>
<!-- _state_machine/UpdateScrewState -->
<g id="node12" class="node state regular">
<title>_state_machine/UpdateScrewState</title>
<polygon fill="#ffffff" fill-opacity="0.003922" stroke="transparent" stroke-width="2" points="1435,-241 1227,-241 1227,-205 1435,-205 1435,-241"/>
<text text-anchor="start" x="1238" y="-219.4" font-family="Helvetica,sans-Serif" font-size="12.00">_state_machine/UpdateScrewState</text>
<path fill="none" stroke="black" stroke-width="2" d="M1239,-206.5C1239,-206.5 1423,-206.5 1423,-206.5 1428.5,-206.5 1434,-212 1434,-217.5 1434,-217.5 1434,-228.5 1434,-228.5 1434,-234 1428.5,-239.5 1423,-239.5 1423,-239.5 1239,-239.5 1239,-239.5 1233.5,-239.5 1228,-234 1228,-228.5 1228,-228.5 1228,-217.5 1228,-217.5 1228,-212 1233.5,-206.5 1239,-206.5"/>
</g>
<!-- _state_machine/UpdateSuccess -->
<g id="node13" class="node state regular">
<title>_state_machine/UpdateSuccess</title>
<polygon fill="#ffffff" fill-opacity="0.003922" stroke="transparent" stroke-width="2" points="1673,-178 1481,-178 1481,-142 1673,-142 1673,-178"/>
<text text-anchor="start" x="1492" y="-156.4" font-family="Helvetica,sans-Serif" font-size="12.00">_state_machine/UpdateSuccess</text>
<path fill="none" stroke="black" stroke-width="2" d="M1493,-143.5C1493,-143.5 1661,-143.5 1661,-143.5 1666.5,-143.5 1672,-149 1672,-154.5 1672,-154.5 1672,-165.5 1672,-165.5 1672,-171 1666.5,-176.5 1661,-176.5 1661,-176.5 1493,-176.5 1493,-176.5 1487.5,-176.5 1482,-171 1482,-165.5 1482,-165.5 1482,-154.5 1482,-154.5 1482,-149 1487.5,-143.5 1493,-143.5"/>
</g>
<!-- _state_machine/UpdateScrewState&#45;&gt;_state_machine/UpdateSuccess -->
<g id="edge11" class="edge transition">
<title>_state_machine/UpdateScrewState&#45;&gt;_state_machine/UpdateSuccess</title>
<path fill="none" stroke="black" d="M1399.85,-204.93C1430.38,-197.36 1466.46,-188.41 1498.07,-180.57"/>
<polygon fill="black" stroke="black" points="1499.3,-183.87 1508.16,-178.07 1497.62,-177.08 1499.3,-183.87"/>
<text text-anchor="start" x="1476" y="-189" font-family="Helvetica,sans-Serif" font-size="10.00">succeeded &#160;&#160;</text>
</g>
<!-- _state_machine/UtterErrorUpdateScrewState -->
<g id="node14" class="node state regular">
<title>_state_machine/UtterErrorUpdateScrewState</title>
<polygon fill="#ffffff" fill-opacity="0.003922" stroke="transparent" stroke-width="2" points="1458.5,-178 1199.5,-178 1199.5,-142 1458.5,-142 1458.5,-178"/>
<text text-anchor="start" x="1211" y="-156.4" font-family="Helvetica,sans-Serif" font-size="12.00">_state_machine/UtterErrorUpdateScrewState</text>
<path fill="none" stroke="black" stroke-width="2" d="M1211.5,-143.5C1211.5,-143.5 1446.5,-143.5 1446.5,-143.5 1452,-143.5 1457.5,-149 1457.5,-154.5 1457.5,-154.5 1457.5,-165.5 1457.5,-165.5 1457.5,-171 1452,-176.5 1446.5,-176.5 1446.5,-176.5 1211.5,-176.5 1211.5,-176.5 1206,-176.5 1200.5,-171 1200.5,-165.5 1200.5,-165.5 1200.5,-154.5 1200.5,-154.5 1200.5,-149 1206,-143.5 1211.5,-143.5"/>
</g>
<!-- _state_machine/UpdateScrewState&#45;&gt;_state_machine/UtterErrorUpdateScrewState -->
<g id="edge12" class="edge transition">
<title>_state_machine/UpdateScrewState&#45;&gt;_state_machine/UtterErrorUpdateScrewState</title>
<path fill="none" stroke="black" d="M1330.43,-204.68C1330.27,-199.62 1330.08,-193.95 1329.9,-188.42"/>
<polygon fill="black" stroke="black" points="1333.39,-188.03 1329.56,-178.15 1326.39,-188.26 1333.39,-188.03"/>
<text text-anchor="start" x="1330" y="-189" font-family="Helvetica,sans-Serif" font-size="10.00">aborted &#160;&#160;</text>
</g>
<!-- _state_machine/ValidScrewInCurrentGripper -->
<g id="node17" class="node state regular">
<title>_state_machine/ValidScrewInCurrentGripper</title>
<polygon fill="#ffffff" fill-opacity="0.003922" stroke="transparent" stroke-width="2" points="1672.5,-115 1417.5,-115 1417.5,-79 1672.5,-79 1672.5,-115"/>
<text text-anchor="start" x="1429" y="-93.4" font-family="Helvetica,sans-Serif" font-size="12.00">_state_machine/ValidScrewInCurrentGripper</text>
<path fill="none" stroke="black" stroke-width="2" d="M1429.5,-80.5C1429.5,-80.5 1660.5,-80.5 1660.5,-80.5 1666,-80.5 1671.5,-86 1671.5,-91.5 1671.5,-91.5 1671.5,-102.5 1671.5,-102.5 1671.5,-108 1666,-113.5 1660.5,-113.5 1660.5,-113.5 1429.5,-113.5 1429.5,-113.5 1424,-113.5 1418.5,-108 1418.5,-102.5 1418.5,-102.5 1418.5,-91.5 1418.5,-91.5 1418.5,-86 1424,-80.5 1429.5,-80.5"/>
</g>
<!-- _state_machine/UpdateSuccess&#45;&gt;_state_machine/ValidScrewInCurrentGripper -->
<g id="edge13" class="edge transition">
<title>_state_machine/UpdateSuccess&#45;&gt;_state_machine/ValidScrewInCurrentGripper</title>
<path fill="none" stroke="black" d="M1567.92,-141.68C1565.05,-136.23 1561.83,-130.08 1558.72,-124.15"/>
<polygon fill="black" stroke="black" points="1561.74,-122.38 1554,-115.15 1555.54,-125.63 1561.74,-122.38"/>
<text text-anchor="start" x="1563" y="-126" font-family="Helvetica,sans-Serif" font-size="10.00">done &#160;&#160;</text>
</g>
<!-- _state_machine/UtterErrorUpdateScrewState&#45;&gt;_state_machine/fail -->
<g id="edge14" class="edge transition">
<title>_state_machine/UtterErrorUpdateScrewState&#45;&gt;_state_machine/fail</title>
<path fill="none" stroke="black" d="M1379.55,-141.95C1387.59,-136.67 1391.41,-130.29 1385,-123 1369.05,-104.88 1311.2,-99.15 1262.62,-97.65"/>
<polygon fill="black" stroke="black" points="1262.5,-94.15 1252.41,-97.39 1262.32,-101.15 1262.5,-94.15"/>
<text text-anchor="start" x="1388" y="-126" font-family="Helvetica,sans-Serif" font-size="10.00">done &#160;&#160;</text>
</g>
<!-- _state_machine/UtterErrorUpdateScrewState&#45;&gt;_state_machine/fail -->
<g id="edge15" class="edge transition">
<title>_state_machine/UtterErrorUpdateScrewState&#45;&gt;_state_machine/fail</title>
<path fill="none" stroke="black" d="M1220.2,-141.98C1213.18,-139.61 1207.52,-136.95 1204,-134 1201,-131.48 1198.64,-128.23 1196.78,-124.73"/>
<polygon fill="black" stroke="black" points="1199.92,-123.13 1192.96,-115.14 1193.41,-125.73 1199.92,-123.13"/>
<text text-anchor="start" x="1204" y="-126" font-family="Helvetica,sans-Serif" font-size="10.00">preempt &#160;&#160;</text>
</g>
<!-- _state_machine/UtterErrorUpdateScrewState&#45;&gt;_state_machine/fail -->
<g id="edge16" class="edge transition">
<title>_state_machine/UtterErrorUpdateScrewState&#45;&gt;_state_machine/fail</title>
<path fill="none" stroke="black" d="M1292.14,-141.9C1278.89,-135.84 1263.82,-129.02 1250,-123 1247,-121.69 1243.91,-120.36 1240.79,-119.02"/>
<polygon fill="black" stroke="black" points="1241.96,-115.72 1231.39,-115.04 1239.23,-122.16 1241.96,-115.72"/>
<text text-anchor="start" x="1273" y="-126" font-family="Helvetica,sans-Serif" font-size="10.00">timeouted &#160;&#160;</text>
</g>
<!-- _state_machine/UtterErrorUpdateScrewState&#45;&gt;_state_machine/fail -->
<g id="edge17" class="edge transition">
<title>_state_machine/UtterErrorUpdateScrewState&#45;&gt;_state_machine/fail</title>
<path fill="none" stroke="black" d="M1333.38,-141.64C1333.98,-135.13 1333.25,-128.08 1329,-123 1320.03,-112.27 1291.46,-106.14 1262.54,-102.64"/>
<polygon fill="black" stroke="black" points="1262.65,-99.13 1252.33,-101.51 1261.88,-106.09 1262.65,-99.13"/>
<text text-anchor="start" x="1333" y="-126" font-family="Helvetica,sans-Serif" font-size="10.00">error &#160;&#160;</text>
</g>
<!-- _state_machine/UtterRecognized&#45;&gt;_state_machine/GetConfirm -->
<g id="edge18" class="edge transition">
<title>_state_machine/UtterRecognized&#45;&gt;_state_machine/GetConfirm</title>
<path fill="none" stroke="black" d="M1051.63,-204.83C1055.76,-198.76 1057.95,-191.96 1054,-186 1053.94,-185.91 1053.88,-185.81 1053.81,-185.72"/>
<polygon fill="black" stroke="black" points="1056.25,-183.19 1046.95,-178.11 1051.05,-187.88 1056.25,-183.19"/>
<text text-anchor="start" x="1056" y="-189" font-family="Helvetica,sans-Serif" font-size="10.00">done &#160;&#160;</text>
</g>
<!-- _state_machine/UtterRecognized&#45;&gt;_state_machine/GetConfirm -->
<g id="edge19" class="edge transition">
<title>_state_machine/UtterRecognized&#45;&gt;_state_machine/GetConfirm</title>
<path fill="none" stroke="black" d="M940.85,-204.92C935.48,-202.57 931.32,-199.94 929,-197 925.59,-192.68 925.09,-188.8 926.64,-185.35"/>
<polygon fill="black" stroke="black" points="929.25,-187.69 933.58,-178.02 924.16,-182.88 929.25,-187.69"/>
<text text-anchor="start" x="929" y="-189" font-family="Helvetica,sans-Serif" font-size="10.00">preempt &#160;&#160;</text>
</g>
<!-- _state_machine/UtterRecognized&#45;&gt;_state_machine/GetConfirm -->
<g id="edge20" class="edge transition">
<title>_state_machine/UtterRecognized&#45;&gt;_state_machine/GetConfirm</title>
<path fill="none" stroke="black" d="M1003.03,-204.73C1000.68,-202.41 998.61,-199.83 997,-197 995.44,-194.26 994.42,-191.2 993.79,-188.06"/>
<polygon fill="black" stroke="black" points="997.26,-187.66 992.88,-178.01 990.29,-188.29 997.26,-187.66"/>
<text text-anchor="start" x="997" y="-189" font-family="Helvetica,sans-Serif" font-size="10.00">timeouted &#160;&#160;</text>
</g>
<!-- _state_machine/UtterRecognized&#45;&gt;_state_machine/fail -->
<g id="edge21" class="edge transition">
<title>_state_machine/UtterRecognized&#45;&gt;_state_machine/fail</title>
<path fill="none" stroke="black" d="M1079.1,-204.93C1083.61,-202.53 1088,-199.89 1092,-197 1118.55,-177.84 1117.9,-165.19 1141,-142 1147.76,-135.22 1155.33,-128.17 1162.47,-121.75"/>
<polygon fill="black" stroke="black" points="1164.83,-124.33 1169.99,-115.07 1160.19,-119.1 1164.83,-124.33"/>
<text text-anchor="start" x="1141" y="-157.5" font-family="Helvetica,sans-Serif" font-size="10.00">error &#160;&#160;</text>
</g>
<!-- _state_machine/UtterRecognizedText&#45;&gt;_state_machine/ContinueRetry -->
<g id="edge22" class="edge transition">
<title>_state_machine/UtterRecognizedText&#45;&gt;_state_machine/ContinueRetry</title>
<path fill="none" stroke="black" d="M694.57,-204.85C680.22,-197.9 663.5,-189.8 648.36,-182.47"/>
<polygon fill="black" stroke="black" points="649.69,-179.23 639.17,-178.03 646.64,-185.53 649.69,-179.23"/>
<text text-anchor="start" x="678" y="-189" font-family="Helvetica,sans-Serif" font-size="10.00">done &#160;&#160;</text>
</g>
<!-- _state_machine/UtterRecognizedText&#45;&gt;_state_machine/wait_unknown -->
<g id="edge23" class="edge transition">
<title>_state_machine/UtterRecognizedText&#45;&gt;_state_machine/wait_unknown</title>
<path fill="none" stroke="black" d="M620.87,-211.14C549.68,-202.92 467.97,-190.88 457,-178 444.63,-163.48 448.26,-141.75 454.37,-124.6"/>
<polygon fill="black" stroke="black" points="457.69,-125.71 458.14,-115.13 451.19,-123.12 457.69,-125.71"/>
<text text-anchor="start" x="457" y="-157.5" font-family="Helvetica,sans-Serif" font-size="10.00">preempt &#160;&#160;</text>
</g>
<!-- _state_machine/UtterRecognizedText&#45;&gt;_state_machine/wait_unknown -->
<g id="edge24" class="edge transition">
<title>_state_machine/UtterRecognizedText&#45;&gt;_state_machine/wait_unknown</title>
<path fill="none" stroke="black" d="M731.91,-204.69C733.33,-182.21 731.95,-143.47 709,-123 695.01,-110.52 643.66,-116.89 625,-115 606.62,-113.14 587.04,-111.08 568.16,-109.07"/>
<polygon fill="black" stroke="black" points="568.37,-105.57 558.05,-107.99 567.62,-112.53 568.37,-105.57"/>
<text text-anchor="start" x="731" y="-157.5" font-family="Helvetica,sans-Serif" font-size="10.00">timeouted &#160;&#160;</text>
</g>
<!-- _state_machine/UtterRecognizedText&#45;&gt;_state_machine/fail -->
<g id="edge25" class="edge transition">
<title>_state_machine/UtterRecognizedText&#45;&gt;_state_machine/fail</title>
<path fill="none" stroke="black" d="M754.17,-204.68C781.27,-186.16 827.18,-157.36 871,-142 967.29,-108.24 997.81,-128.12 1099,-115 1105.17,-114.2 1111.56,-113.25 1117.95,-112.22"/>
<polygon fill="black" stroke="black" points="1118.69,-115.65 1127.98,-110.54 1117.54,-108.74 1118.69,-115.65"/>
<text text-anchor="start" x="871" y="-157.5" font-family="Helvetica,sans-Serif" font-size="10.00">error &#160;&#160;</text>
</g>
<!-- _state_machine/succeded -->
<g id="node27" class="node state regular">
<title>_state_machine/succeded</title>
<polygon fill="#ffffff" fill-opacity="0.003922" stroke="transparent" stroke-width="2" points="1487,-52 1327,-52 1327,-16 1487,-16 1487,-52"/>
<text text-anchor="start" x="1338" y="-30.4" font-family="Helvetica,sans-Serif" font-size="12.00">_state_machine/succeded</text>
<path fill="none" stroke="black" stroke-width="2" d="M1339,-17.5C1339,-17.5 1475,-17.5 1475,-17.5 1480.5,-17.5 1486,-23 1486,-28.5 1486,-28.5 1486,-39.5 1486,-39.5 1486,-45 1480.5,-50.5 1475,-50.5 1475,-50.5 1339,-50.5 1339,-50.5 1333.5,-50.5 1328,-45 1328,-39.5 1328,-39.5 1328,-28.5 1328,-28.5 1328,-23 1333.5,-17.5 1339,-17.5"/>
</g>
<!-- _state_machine/ValidScrewInCurrentGripper&#45;&gt;_state_machine/succeded -->
<g id="edge26" class="edge transition">
<title>_state_machine/ValidScrewInCurrentGripper&#45;&gt;_state_machine/succeded</title>
<path fill="none" stroke="black" d="M1506.19,-78.85C1490.33,-71.83 1471.82,-63.65 1455.11,-56.27"/>
<polygon fill="black" stroke="black" points="1456.08,-52.87 1445.52,-52.03 1453.25,-59.27 1456.08,-52.87"/>
<text text-anchor="start" x="1488" y="-63" font-family="Helvetica,sans-Serif" font-size="10.00">succeeded &#160;&#160;</text>
</g>
<!-- _state_machine/aborted -->
<g id="node28" class="node state regular">
<title>_state_machine/aborted</title>
<polygon fill="#ffffff" fill-opacity="0.003922" stroke="transparent" stroke-width="2" points="1658.5,-52 1509.5,-52 1509.5,-16 1658.5,-16 1658.5,-52"/>
<text text-anchor="start" x="1521" y="-30.4" font-family="Helvetica,sans-Serif" font-size="12.00">_state_machine/aborted</text>
<path fill="none" stroke="black" stroke-width="2" d="M1521.5,-17.5C1521.5,-17.5 1646.5,-17.5 1646.5,-17.5 1652,-17.5 1657.5,-23 1657.5,-28.5 1657.5,-28.5 1657.5,-39.5 1657.5,-39.5 1657.5,-45 1652,-50.5 1646.5,-50.5 1646.5,-50.5 1521.5,-50.5 1521.5,-50.5 1516,-50.5 1510.5,-45 1510.5,-39.5 1510.5,-39.5 1510.5,-28.5 1510.5,-28.5 1510.5,-23 1516,-17.5 1521.5,-17.5"/>
</g>
<!-- _state_machine/ValidScrewInCurrentGripper&#45;&gt;_state_machine/aborted -->
<g id="edge27" class="edge transition">
<title>_state_machine/ValidScrewInCurrentGripper&#45;&gt;_state_machine/aborted</title>
<path fill="none" stroke="black" d="M1556.07,-78.68C1559.64,-73.1 1563.68,-66.78 1567.55,-60.72"/>
<polygon fill="black" stroke="black" points="1570.6,-62.46 1573.04,-52.15 1564.7,-58.69 1570.6,-62.46"/>
<text text-anchor="start" x="1567" y="-63" font-family="Helvetica,sans-Serif" font-size="10.00">aborted &#160;&#160;</text>
</g>
<!-- _state_machine/log_exit_incomplete -->
<g id="node18" class="node state regular">
<title>_state_machine/log_exit_incomplete</title>
<polygon fill="#ffffff" fill-opacity="0.003922" stroke="transparent" stroke-width="2" points="1650.5,-438 1437.5,-438 1437.5,-402 1650.5,-402 1650.5,-438"/>
<text text-anchor="start" x="1449" y="-416.4" font-family="Helvetica,sans-Serif" font-size="12.00">_state_machine/log_exit_incomplete</text>
<path fill="none" stroke="black" stroke-width="2" d="M1449.5,-403.5C1449.5,-403.5 1638.5,-403.5 1638.5,-403.5 1644,-403.5 1649.5,-409 1649.5,-414.5 1649.5,-414.5 1649.5,-425.5 1649.5,-425.5 1649.5,-431 1644,-436.5 1638.5,-436.5 1638.5,-436.5 1449.5,-436.5 1449.5,-436.5 1444,-436.5 1438.5,-431 1438.5,-425.5 1438.5,-425.5 1438.5,-414.5 1438.5,-414.5 1438.5,-409 1444,-403.5 1449.5,-403.5"/>
</g>
<!-- _state_machine/wait_before_incomplete -->
<g id="node22" class="node state regular">
<title>_state_machine/wait_before_incomplete</title>
<polygon fill="#ffffff" fill-opacity="0.003922" stroke="transparent" stroke-width="2" points="1661,-375 1427,-375 1427,-339 1661,-339 1661,-375"/>
<text text-anchor="start" x="1438" y="-353.4" font-family="Helvetica,sans-Serif" font-size="12.00">_state_machine/wait_before_incomplete</text>
<path fill="none" stroke="black" stroke-width="2" d="M1439,-340.5C1439,-340.5 1649,-340.5 1649,-340.5 1654.5,-340.5 1660,-346 1660,-351.5 1660,-351.5 1660,-362.5 1660,-362.5 1660,-368 1654.5,-373.5 1649,-373.5 1649,-373.5 1439,-373.5 1439,-373.5 1433.5,-373.5 1428,-368 1428,-362.5 1428,-362.5 1428,-351.5 1428,-351.5 1428,-346 1433.5,-340.5 1439,-340.5"/>
</g>
<!-- _state_machine/log_exit_incomplete&#45;&gt;_state_machine/wait_before_incomplete -->
<g id="edge28" class="edge transition">
<title>_state_machine/log_exit_incomplete&#45;&gt;_state_machine/wait_before_incomplete</title>
<path fill="none" stroke="black" d="M1544,-401.68C1544,-396.62 1544,-390.95 1544,-385.42"/>
<polygon fill="black" stroke="black" points="1547.5,-385.15 1544,-375.15 1540.5,-385.15 1547.5,-385.15"/>
<text text-anchor="start" x="1544" y="-386" font-family="Helvetica,sans-Serif" font-size="10.00">done &#160;&#160;</text>
</g>
<!-- _state_machine/AskGripperEneded -->
<g id="node25" class="node state regular">
<title>_state_machine/AskGripperEneded</title>
<polygon fill="#ffffff" fill-opacity="0.003922" stroke="transparent" stroke-width="2" points="920,-375 710,-375 710,-339 920,-339 920,-375"/>
<text text-anchor="start" x="721" y="-353.4" font-family="Helvetica,sans-Serif" font-size="12.00">_state_machine/AskGripperEneded</text>
<path fill="none" stroke="black" stroke-width="2" d="M722,-340.5C722,-340.5 908,-340.5 908,-340.5 913.5,-340.5 919,-346 919,-351.5 919,-351.5 919,-362.5 919,-362.5 919,-368 913.5,-373.5 908,-373.5 908,-373.5 722,-373.5 722,-373.5 716.5,-373.5 711,-368 711,-362.5 711,-362.5 711,-351.5 711,-351.5 711,-346 716.5,-340.5 722,-340.5"/>
</g>
<!-- _state_machine/log_retry_value&#45;&gt;_state_machine/AskGripperEneded -->
<g id="edge29" class="edge transition">
<title>_state_machine/log_retry_value&#45;&gt;_state_machine/AskGripperEneded</title>
<path fill="none" stroke="black" d="M822.17,-115.08C849.25,-122.09 873.83,-131.13 882,-142 894.62,-158.79 890.03,-313.78 878,-331 877.87,-331.19 877.74,-331.37 877.6,-331.56"/>
<polygon fill="black" stroke="black" points="874.95,-329.27 870.61,-338.94 880.03,-334.09 874.95,-329.27"/>
<text text-anchor="start" x="889" y="-220.5" font-family="Helvetica,sans-Serif" font-size="10.00">done &#160;&#160;</text>
</g>
<!-- _state_machine/log_screw_found -->
<g id="node20" class="node state regular">
<title>_state_machine/log_screw_found</title>
<polygon fill="#ffffff" fill-opacity="0.003922" stroke="transparent" stroke-width="2" points="1423.5,-312 1226.5,-312 1226.5,-276 1423.5,-276 1423.5,-312"/>
<text text-anchor="start" x="1238" y="-290.4" font-family="Helvetica,sans-Serif" font-size="12.00">_state_machine/log_screw_found</text>
<path fill="none" stroke="black" stroke-width="2" d="M1238.5,-277.5C1238.5,-277.5 1411.5,-277.5 1411.5,-277.5 1417,-277.5 1422.5,-283 1422.5,-288.5 1422.5,-288.5 1422.5,-299.5 1422.5,-299.5 1422.5,-305 1417,-310.5 1411.5,-310.5 1411.5,-310.5 1238.5,-310.5 1238.5,-310.5 1233,-310.5 1227.5,-305 1227.5,-299.5 1227.5,-299.5 1227.5,-288.5 1227.5,-288.5 1227.5,-283 1233,-277.5 1238.5,-277.5"/>
</g>
<!-- _state_machine/log_screw_found&#45;&gt;_state_machine/UpdateScrewState -->
<g id="edge30" class="edge transition">
<title>_state_machine/log_screw_found&#45;&gt;_state_machine/UpdateScrewState</title>
<path fill="none" stroke="black" d="M1326.48,-275.94C1327.13,-268.54 1327.9,-259.67 1328.62,-251.38"/>
<polygon fill="black" stroke="black" points="1332.11,-251.6 1329.49,-241.34 1325.14,-251 1332.11,-251.6"/>
<text text-anchor="start" x="1328" y="-252" font-family="Helvetica,sans-Serif" font-size="10.00">done &#160;&#160;</text>
</g>
<!-- _state_machine/log_screw_id&#45;&gt;_state_machine/log_screw_found -->
<g id="edge31" class="edge transition">
<title>_state_machine/log_screw_id&#45;&gt;_state_machine/log_screw_found</title>
<path fill="none" stroke="black" d="M1317.12,-338.68C1318.06,-333.49 1319.11,-327.66 1320.13,-322"/>
<polygon fill="black" stroke="black" points="1323.58,-322.61 1321.91,-312.15 1316.69,-321.37 1323.58,-322.61"/>
<text text-anchor="start" x="1320" y="-323" font-family="Helvetica,sans-Serif" font-size="10.00">done &#160;&#160;</text>
</g>
<!-- _state_machine/incomplete -->
<g id="node29" class="node state regular">
<title>_state_machine/incomplete</title>
<polygon fill="#ffffff" fill-opacity="0.003922" stroke="transparent" stroke-width="2" points="1627,-312 1461,-312 1461,-276 1627,-276 1627,-312"/>
<text text-anchor="start" x="1472" y="-290.4" font-family="Helvetica,sans-Serif" font-size="12.00">_state_machine/incomplete</text>
<path fill="none" stroke="black" stroke-width="2" d="M1473,-277.5C1473,-277.5 1615,-277.5 1615,-277.5 1620.5,-277.5 1626,-283 1626,-288.5 1626,-288.5 1626,-299.5 1626,-299.5 1626,-305 1620.5,-310.5 1615,-310.5 1615,-310.5 1473,-310.5 1473,-310.5 1467.5,-310.5 1462,-305 1462,-299.5 1462,-299.5 1462,-288.5 1462,-288.5 1462,-283 1467.5,-277.5 1473,-277.5"/>
</g>
<!-- _state_machine/wait_before_incomplete&#45;&gt;_state_machine/incomplete -->
<g id="edge32" class="edge transition">
<title>_state_machine/wait_before_incomplete&#45;&gt;_state_machine/incomplete</title>
<path fill="none" stroke="black" d="M1544,-338.68C1544,-333.62 1544,-327.95 1544,-322.42"/>
<polygon fill="black" stroke="black" points="1547.5,-322.15 1544,-312.15 1540.5,-322.15 1547.5,-322.15"/>
<text text-anchor="start" x="1544" y="-323" font-family="Helvetica,sans-Serif" font-size="10.00">done &#160;&#160;</text>
</g>
<!-- _state_machine/complete -->
<g id="node30" class="node state regular">
<title>_state_machine/complete</title>
<polygon fill="#ffffff" fill-opacity="0.003922" stroke="transparent" stroke-width="2" points="1073.5,-52 916.5,-52 916.5,-16 1073.5,-16 1073.5,-52"/>
<text text-anchor="start" x="928" y="-30.4" font-family="Helvetica,sans-Serif" font-size="12.00">_state_machine/complete</text>
<path fill="none" stroke="black" stroke-width="2" d="M928.5,-17.5C928.5,-17.5 1061.5,-17.5 1061.5,-17.5 1067,-17.5 1072.5,-23 1072.5,-28.5 1072.5,-28.5 1072.5,-39.5 1072.5,-39.5 1072.5,-45 1067,-50.5 1061.5,-50.5 1061.5,-50.5 928.5,-50.5 928.5,-50.5 923,-50.5 917.5,-45 917.5,-39.5 917.5,-39.5 917.5,-28.5 917.5,-28.5 917.5,-23 923,-17.5 928.5,-17.5"/>
</g>
<!-- _state_machine/wait_complete&#45;&gt;_state_machine/complete -->
<g id="edge33" class="edge transition">
<title>_state_machine/wait_complete&#45;&gt;_state_machine/complete</title>
<path fill="none" stroke="black" d="M995,-78.68C995,-73.62 995,-67.95 995,-62.42"/>
<polygon fill="black" stroke="black" points="998.5,-62.15 995,-52.15 991.5,-62.15 998.5,-62.15"/>
<text text-anchor="start" x="995" y="-63" font-family="Helvetica,sans-Serif" font-size="10.00">done &#160;&#160;</text>
</g>
<!-- _state_machine/unknwon -->
<g id="node31" class="node state regular">
<title>_state_machine/unknwon</title>
<polygon fill="#ffffff" fill-opacity="0.003922" stroke="transparent" stroke-width="2" points="544,-52 390,-52 390,-16 544,-16 544,-52"/>
<text text-anchor="start" x="401" y="-30.4" font-family="Helvetica,sans-Serif" font-size="12.00">_state_machine/unknwon</text>
<path fill="none" stroke="black" stroke-width="2" d="M402,-17.5C402,-17.5 532,-17.5 532,-17.5 537.5,-17.5 543,-23 543,-28.5 543,-28.5 543,-39.5 543,-39.5 543,-45 537.5,-50.5 532,-50.5 532,-50.5 402,-50.5 402,-50.5 396.5,-50.5 391,-45 391,-39.5 391,-39.5 391,-28.5 391,-28.5 391,-23 396.5,-17.5 402,-17.5"/>
</g>
<!-- _state_machine/wait_unknown&#45;&gt;_state_machine/unknwon -->
<g id="edge34" class="edge transition">
<title>_state_machine/wait_unknown&#45;&gt;_state_machine/unknwon</title>
<path fill="none" stroke="black" d="M467,-78.68C467,-73.62 467,-67.95 467,-62.42"/>
<polygon fill="black" stroke="black" points="470.5,-62.15 467,-52.15 463.5,-62.15 470.5,-62.15"/>
<text text-anchor="start" x="467" y="-63" font-family="Helvetica,sans-Serif" font-size="10.00">done &#160;&#160;</text>
</g>
<!-- _state_machine/AskGripperEneded&#45;&gt;_state_machine/NotRecognized -->
<g id="edge36" class="edge transition">
<title>_state_machine/AskGripperEneded&#45;&gt;_state_machine/NotRecognized</title>
<path fill="none" stroke="black" d="M781.95,-338.93C778.42,-336.49 775.02,-333.84 772,-331 768.8,-327.99 765.81,-324.48 763.1,-320.84"/>
<polygon fill="black" stroke="black" points="765.83,-318.64 757.32,-312.34 760.05,-322.58 765.83,-318.64"/>
<text text-anchor="start" x="772" y="-323" font-family="Helvetica,sans-Serif" font-size="10.00">intent_not_recognized &#160;&#160;</text>
</g>
<!-- _state_machine/AskGripperEneded&#45;&gt;_state_machine/Recognized -->
<g id="edge35" class="edge transition">
<title>_state_machine/AskGripperEneded&#45;&gt;_state_machine/Recognized</title>
<path fill="none" stroke="black" d="M867.62,-338.93C890.34,-331.55 917.09,-322.87 940.79,-315.18"/>
<polygon fill="black" stroke="black" points="941.96,-318.48 950.39,-312.07 939.8,-311.83 941.96,-318.48"/>
<text text-anchor="start" x="925" y="-323" font-family="Helvetica,sans-Serif" font-size="10.00">intent_recognized &#160;&#160;</text>
</g>
<!-- _state_machine/AskGripperEneded&#45;&gt;_state_machine/wait_unknown -->
<g id="edge37" class="edge transition">
<title>_state_machine/AskGripperEneded&#45;&gt;_state_machine/wait_unknown</title>
<path fill="none" stroke="black" d="M709.69,-352.52C619.37,-348.81 500.74,-341.95 481,-331 393.52,-282.48 337.01,-204.51 395,-123 395.06,-122.91 395.13,-122.82 395.2,-122.73"/>
<polygon fill="black" stroke="black" points="397.93,-124.93 402.21,-115.24 392.82,-120.15 397.93,-124.93"/>
<text text-anchor="start" x="385" y="-220.5" font-family="Helvetica,sans-Serif" font-size="10.00">preempt &#160;&#160;</text>
</g>
<!-- _state_machine/AskGripperEneded&#45;&gt;_state_machine/wait_unknown -->
<g id="edge38" class="edge transition">
<title>_state_machine/AskGripperEneded&#45;&gt;_state_machine/wait_unknown</title>
<path fill="none" stroke="black" d="M725.17,-338.96C698.13,-332.26 668.8,-323.39 643,-312 557.87,-274.4 543.45,-251.49 468,-197 456.97,-189.03 449.92,-190.25 444,-178 437.03,-163.6 442.75,-157.95 444,-142 444.51,-135.47 443.97,-132.39 447.29,-124.2"/>
<polygon fill="black" stroke="black" points="450.52,-125.55 451.56,-115 444.17,-122.6 450.52,-125.55"/>
<text text-anchor="start" x="525" y="-220.5" font-family="Helvetica,sans-Serif" font-size="10.00">timeouted &#160;&#160;</text>
</g>
<!-- _state_machine/AskGripperEneded&#45;&gt;_state_machine/fail -->
<g id="edge39" class="edge transition">
<title>_state_machine/AskGripperEneded&#45;&gt;_state_machine/fail</title>
<path fill="none" stroke="black" d="M920.39,-348.21C1026.94,-338.87 1176,-321.14 1176,-295 1176,-295 1176,-295 1176,-159 1176,-147.67 1178.32,-135.45 1181.07,-124.95"/>
<polygon fill="black" stroke="black" points="1184.5,-125.69 1183.9,-115.11 1177.77,-123.76 1184.5,-125.69"/>
<text text-anchor="start" x="1176" y="-220.5" font-family="Helvetica,sans-Serif" font-size="10.00">error &#160;&#160;</text>
</g>
</g>
</svg>
