<?xml version="1.0" encoding="UTF-8" standalone="no"?>
<!DOCTYPE svg PUBLIC "-//W3C//DTD SVG 1.1//EN"
 "http://www.w3.org/Graphics/SVG/1.1/DTD/svg11.dtd">
<!-- Generated by graphviz version 2.49.1 (20210923.0004)
 -->
<!-- Title: state transitions Pages: 1 -->
<svg width="254pt" height="231pt"
 viewBox="0.00 0.00 254.00 231.00" xmlns="http://www.w3.org/2000/svg" xmlns:xlink="http://www.w3.org/1999/xlink">
<g id="graph0" class="graph" transform="scale(1 1) rotate(0) translate(4 227)">
<title>state transitions</title>
<polygon fill="white" stroke="transparent" points="-4,4 -4,-227 250,-227 250,4 -4,4"/>
<g id="clust1" class="cluster state regular">
<title>cluster__state_machine</title>
<path fill="none" stroke="black" stroke-width="2" d="M20,-8C20,-8 226,-8 226,-8 232,-8 238,-14 238,-20 238,-20 238,-203 238,-203 238,-209 232,-215 226,-215 226,-215 20,-215 20,-215 14,-215 8,-209 8,-203 8,-203 8,-20 8,-20 8,-14 14,-8 20,-8"/>
<text text-anchor="start" x="81" y="-196.9" font-family="Helvetica,sans-Serif" font-size="12.00">_state_machine</text>
</g>
<!-- _state_machine -->
<!-- _state_machine/Print_Message -->
<g id="node2" class="node state regular">
<title>_state_machine/Print_Message</title>
<polygon fill="#ffffff" fill-opacity="0.003922" stroke="transparent" stroke-width="2" points="208,-178 20,-178 20,-142 208,-142 208,-178"/>
<text text-anchor="start" x="31" y="-156.4" font-family="Helvetica,sans-Serif" font-size="12.00">_state_machine/Print_Message</text>
<path fill="none" stroke="black" stroke-width="2" d="M32,-143.5C32,-143.5 196,-143.5 196,-143.5 201.5,-143.5 207,-149 207,-154.5 207,-154.5 207,-165.5 207,-165.5 207,-171 201.5,-176.5 196,-176.5 196,-176.5 32,-176.5 32,-176.5 26.5,-176.5 21,-171 21,-165.5 21,-165.5 21,-154.5 21,-154.5 21,-149 26.5,-143.5 32,-143.5"/>
</g>
<!-- _state_machine/Wait_After_Logging -->
<g id="node3" class="node state regular">
<title>_state_machine/Wait_After_Logging</title>
<polygon fill="#ffffff" fill-opacity="0.003922" stroke="transparent" stroke-width="2" points="230,-115 16,-115 16,-79 230,-79 230,-115"/>
<text text-anchor="start" x="27" y="-93.4" font-family="Helvetica,sans-Serif" font-size="12.00">_state_machine/Wait_After_Logging</text>
<path fill="none" stroke="black" stroke-width="2" d="M28,-80.5C28,-80.5 218,-80.5 218,-80.5 223.5,-80.5 229,-86 229,-91.5 229,-91.5 229,-102.5 229,-102.5 229,-108 223.5,-113.5 218,-113.5 218,-113.5 28,-113.5 28,-113.5 22.5,-113.5 17,-108 17,-102.5 17,-102.5 17,-91.5 17,-91.5 17,-86 22.5,-80.5 28,-80.5"/>
</g>
<!-- _state_machine/Print_Message&#45;&gt;_state_machine/Wait_After_Logging -->
<g id="edge1" class="edge transition">
<title>_state_machine/Print_Message&#45;&gt;_state_machine/Wait_After_Logging</title>
<path fill="none" stroke="black" d="M116.55,-141.68C117.3,-136.62 118.14,-130.95 118.95,-125.42"/>
<polygon fill="black" stroke="black" points="122.47,-125.55 120.47,-115.15 115.55,-124.53 122.47,-125.55"/>
<text text-anchor="start" x="119" y="-126" font-family="Helvetica,sans-Serif" font-size="10.00">done &#160;&#160;</text>
</g>
<!-- _state_machine/finished -->
<g id="node4" class="node state regular">
<title>_state_machine/finished</title>
<polygon fill="#ffffff" fill-opacity="0.003922" stroke="transparent" stroke-width="2" points="197.5,-52 48.5,-52 48.5,-16 197.5,-16 197.5,-52"/>
<text text-anchor="start" x="60" y="-30.4" font-family="Helvetica,sans-Serif" font-size="12.00">_state_machine/finished</text>
<path fill="none" stroke="black" stroke-width="2" d="M60.5,-17.5C60.5,-17.5 185.5,-17.5 185.5,-17.5 191,-17.5 196.5,-23 196.5,-28.5 196.5,-28.5 196.5,-39.5 196.5,-39.5 196.5,-45 191,-50.5 185.5,-50.5 185.5,-50.5 60.5,-50.5 60.5,-50.5 55,-50.5 49.5,-45 49.5,-39.5 49.5,-39.5 49.5,-28.5 49.5,-28.5 49.5,-23 55,-17.5 60.5,-17.5"/>
</g>
<!-- _state_machine/Wait_After_Logging&#45;&gt;_state_machine/finished -->
<g id="edge2" class="edge transition">
<title>_state_machine/Wait_After_Logging&#45;&gt;_state_machine/finished</title>
<path fill="none" stroke="black" d="M123,-78.68C123,-73.62 123,-67.95 123,-62.42"/>
<polygon fill="black" stroke="black" points="126.5,-62.15 123,-52.15 119.5,-62.15 126.5,-62.15"/>
<text text-anchor="start" x="123" y="-63" font-family="Helvetica,sans-Serif" font-size="10.00">done &#160;&#160;</text>
</g>
</g>
</svg>
