<?xml version="1.0" encoding="UTF-8" standalone="no"?>
<!DOCTYPE svg PUBLIC "-//W3C//DTD SVG 1.1//EN"
 "http://www.w3.org/Graphics/SVG/1.1/DTD/svg11.dtd">
<!-- Generated by graphviz version 2.49.1 (20210923.0004)
 -->
<!-- Title: state transitions Pages: 1 -->
<svg width="1532pt" height="239pt"
 viewBox="0.00 0.00 1532.00 239.00" xmlns="http://www.w3.org/2000/svg" xmlns:xlink="http://www.w3.org/1999/xlink">
<g id="graph0" class="graph" transform="scale(1 1) rotate(0) translate(4 235)">
<title>state transitions</title>
<polygon fill="white" stroke="transparent" points="-4,4 -4,-235 1528,-235 1528,4 -4,4"/>
<g id="clust2" class="cluster state regular">
<title>cluster__sm_standup_1</title>
<path fill="none" stroke="black" stroke-width="2" d="M573,-79C573,-79 1073,-79 1073,-79 1079,-79 1085,-85 1085,-91 1085,-91 1085,-211 1085,-211 1085,-217 1079,-223 1073,-223 1073,-223 573,-223 573,-223 567,-223 561,-217 561,-211 561,-211 561,-91 561,-91 561,-85 567,-79 573,-79"/>
<text text-anchor="start" x="781" y="-204.9" font-family="Helvetica,sans-Serif" font-size="12.00">_sm_standup_1</text>
</g>
<g id="clust1" class="cluster state regular">
<title>cluster__sm_container_0</title>
<path fill="none" stroke="black" stroke-width="2" d="M20,-8C20,-8 541,-8 541,-8 547,-8 553,-14 553,-20 553,-20 553,-211 553,-211 553,-217 547,-223 541,-223 541,-223 20,-223 20,-223 14,-223 8,-217 8,-211 8,-211 8,-20 8,-20 8,-14 14,-8 20,-8"/>
<text text-anchor="start" x="235.5" y="-204.9" font-family="Helvetica,sans-Serif" font-size="12.00">_sm_container_0</text>
</g>
<g id="clust3" class="cluster state regular">
<title>cluster__state_machine</title>
<path fill="none" stroke="black" stroke-width="2" d="M1105,-8C1105,-8 1504,-8 1504,-8 1510,-8 1516,-14 1516,-20 1516,-20 1516,-211 1516,-211 1516,-217 1510,-223 1504,-223 1504,-223 1105,-223 1105,-223 1099,-223 1093,-217 1093,-211 1093,-211 1093,-20 1093,-20 1093,-14 1099,-8 1105,-8"/>
<text text-anchor="start" x="1262.5" y="-204.9" font-family="Helvetica,sans-Serif" font-size="12.00">_state_machine</text>
</g>
<!-- _sm_container_0 -->
<!-- _sm_container_0/CheckBodyPose -->
<g id="node2" class="node state regular">
<title>_sm_container_0/CheckBodyPose</title>
<polygon fill="#ffffff" fill-opacity="0.003922" stroke="transparent" stroke-width="2" points="404.5,-186 199.5,-186 199.5,-150 404.5,-150 404.5,-186"/>
<text text-anchor="start" x="211" y="-164.4" font-family="Helvetica,sans-Serif" font-size="12.00">_sm_container_0/CheckBodyPose</text>
<path fill="none" stroke="black" stroke-width="2" d="M211.5,-151.5C211.5,-151.5 392.5,-151.5 392.5,-151.5 398,-151.5 403.5,-157 403.5,-162.5 403.5,-162.5 403.5,-173.5 403.5,-173.5 403.5,-179 398,-184.5 392.5,-184.5 392.5,-184.5 211.5,-184.5 211.5,-184.5 206,-184.5 200.5,-179 200.5,-173.5 200.5,-173.5 200.5,-162.5 200.5,-162.5 200.5,-157 206,-151.5 211.5,-151.5"/>
</g>
<!-- _sm_container_0/CrouchEnd -->
<g id="node3" class="node state regular">
<title>_sm_container_0/CrouchEnd</title>
<polygon fill="#ffffff" fill-opacity="0.003922" stroke="transparent" stroke-width="2" points="389.5,-123 214.5,-123 214.5,-87 389.5,-87 389.5,-123"/>
<text text-anchor="start" x="226" y="-101.4" font-family="Helvetica,sans-Serif" font-size="12.00">_sm_container_0/CrouchEnd</text>
<path fill="none" stroke="black" stroke-width="2" d="M226.5,-88.5C226.5,-88.5 377.5,-88.5 377.5,-88.5 383,-88.5 388.5,-94 388.5,-99.5 388.5,-99.5 388.5,-110.5 388.5,-110.5 388.5,-116 383,-121.5 377.5,-121.5 377.5,-121.5 226.5,-121.5 226.5,-121.5 221,-121.5 215.5,-116 215.5,-110.5 215.5,-110.5 215.5,-99.5 215.5,-99.5 215.5,-94 221,-88.5 226.5,-88.5"/>
</g>
<!-- _sm_container_0/CheckBodyPose&#45;&gt;_sm_container_0/CrouchEnd -->
<g id="edge3" class="edge transition">
<title>_sm_container_0/CheckBodyPose&#45;&gt;_sm_container_0/CrouchEnd</title>
<path fill="none" stroke="black" d="M302,-149.68C302,-144.62 302,-138.95 302,-133.42"/>
<polygon fill="black" stroke="black" points="305.5,-133.15 302,-123.15 298.5,-133.15 305.5,-133.15"/>
<text text-anchor="start" x="302" y="-134" font-family="Helvetica,sans-Serif" font-size="10.00">body_crouched &#160;&#160;</text>
</g>
<!-- _sm_container_0/finished -->
<g id="node4" class="node state regular">
<title>_sm_container_0/finished</title>
<polygon fill="#ffffff" fill-opacity="0.003922" stroke="transparent" stroke-width="2" points="544.5,-52 387.5,-52 387.5,-16 544.5,-16 544.5,-52"/>
<text text-anchor="start" x="399" y="-30.4" font-family="Helvetica,sans-Serif" font-size="12.00">_sm_container_0/finished</text>
<path fill="none" stroke="black" stroke-width="2" d="M399.5,-17.5C399.5,-17.5 532.5,-17.5 532.5,-17.5 538,-17.5 543.5,-23 543.5,-28.5 543.5,-28.5 543.5,-39.5 543.5,-39.5 543.5,-45 538,-50.5 532.5,-50.5 532.5,-50.5 399.5,-50.5 399.5,-50.5 394,-50.5 388.5,-45 388.5,-39.5 388.5,-39.5 388.5,-28.5 388.5,-28.5 388.5,-23 394,-17.5 399.5,-17.5"/>
</g>
<!-- _sm_container_0/CheckBodyPose&#45;&gt;_sm_container_0/finished -->
<g id="edge1" class="edge transition">
<title>_sm_container_0/CheckBodyPose&#45;&gt;_sm_container_0/finished</title>
<path fill="none" stroke="black" d="M367.31,-149.91C372.77,-147.57 378.07,-144.95 383,-142 421.57,-118.94 431.72,-109.44 455,-71 456.73,-68.15 458.2,-65.01 459.46,-61.8"/>
<polygon fill="black" stroke="black" points="462.81,-62.81 462.6,-52.22 456.16,-60.63 462.81,-62.81"/>
<text text-anchor="start" x="450" y="-102.5" font-family="Helvetica,sans-Serif" font-size="10.00">body_nominal &#160;&#160;</text>
</g>
<!-- _sm_container_0/invalid_pose -->
<g id="node5" class="node state regular">
<title>_sm_container_0/invalid_pose</title>
<polygon fill="#ffffff" fill-opacity="0.003922" stroke="transparent" stroke-width="2" points="198,-52 16,-52 16,-16 198,-16 198,-52"/>
<text text-anchor="start" x="27" y="-30.4" font-family="Helvetica,sans-Serif" font-size="12.00">_sm_container_0/invalid_pose</text>
<path fill="none" stroke="black" stroke-width="2" d="M28,-17.5C28,-17.5 186,-17.5 186,-17.5 191.5,-17.5 197,-23 197,-28.5 197,-28.5 197,-39.5 197,-39.5 197,-45 191.5,-50.5 186,-50.5 186,-50.5 28,-50.5 28,-50.5 22.5,-50.5 17,-45 17,-39.5 17,-39.5 17,-28.5 17,-28.5 17,-23 22.5,-17.5 28,-17.5"/>
</g>
<!-- _sm_container_0/CheckBodyPose&#45;&gt;_sm_container_0/invalid_pose -->
<g id="edge2" class="edge transition">
<title>_sm_container_0/CheckBodyPose&#45;&gt;_sm_container_0/invalid_pose</title>
<path fill="none" stroke="black" d="M220.18,-149.96C198.13,-143.41 174.9,-134.62 155,-123 126.23,-106.19 114.04,-101.66 101,-71 99.84,-68.27 99.3,-65.33 99.2,-62.35"/>
<polygon fill="black" stroke="black" points="102.69,-62.63 100.27,-52.32 95.73,-61.89 102.69,-62.63"/>
<text text-anchor="start" x="155" y="-102.5" font-family="Helvetica,sans-Serif" font-size="10.00">unknown &#160;&#160;</text>
</g>
<!-- _sm_container_0/CrouchEnd&#45;&gt;_sm_container_0/finished -->
<g id="edge4" class="edge transition">
<title>_sm_container_0/CrouchEnd&#45;&gt;_sm_container_0/finished</title>
<path fill="none" stroke="black" d="M342.54,-86.94C364.72,-77.61 392.38,-65.97 415.9,-56.08"/>
<polygon fill="black" stroke="black" points="417.5,-59.2 425.36,-52.1 414.78,-52.75 417.5,-59.2"/>
<text text-anchor="start" x="404" y="-63" font-family="Helvetica,sans-Serif" font-size="10.00">success &#160;&#160;</text>
</g>
<!-- _sm_container_0/CrouchEnd&#45;&gt;_sm_container_0/invalid_pose -->
<g id="edge5" class="edge transition">
<title>_sm_container_0/CrouchEnd&#45;&gt;_sm_container_0/invalid_pose</title>
<path fill="none" stroke="black" d="M252.66,-86.98C237.95,-81.87 221.81,-76.24 207,-71 192.94,-66.03 177.78,-60.6 163.63,-55.51"/>
<polygon fill="black" stroke="black" points="164.61,-52.15 154.02,-52.05 162.24,-58.73 164.61,-52.15"/>
<text text-anchor="start" x="207" y="-63" font-family="Helvetica,sans-Serif" font-size="10.00">partial_movement &#160;&#160;</text>
</g>
<!-- _sm_container_0/CrouchEnd&#45;&gt;_sm_container_0/invalid_pose -->
<g id="edge6" class="edge transition">
<title>_sm_container_0/CrouchEnd&#45;&gt;_sm_container_0/invalid_pose</title>
<path fill="none" stroke="black" d="M214.25,-91.34C165.47,-83.89 113.8,-75.15 110,-71 107.71,-68.5 106.26,-65.46 105.38,-62.21"/>
<polygon fill="black" stroke="black" points="108.85,-61.73 104.26,-52.18 101.89,-62.5 108.85,-61.73"/>
<text text-anchor="start" x="110" y="-63" font-family="Helvetica,sans-Serif" font-size="10.00">invalid_pose &#160;&#160;</text>
</g>
<!-- _sm_container_0/failed -->
<g id="node6" class="node state regular">
<title>_sm_container_0/failed</title>
<polygon fill="#ffffff" fill-opacity="0.003922" stroke="transparent" stroke-width="2" points="365.5,-52 220.5,-52 220.5,-16 365.5,-16 365.5,-52"/>
<text text-anchor="start" x="232" y="-30.4" font-family="Helvetica,sans-Serif" font-size="12.00">_sm_container_0/failed</text>
<path fill="none" stroke="black" stroke-width="2" d="M232.5,-17.5C232.5,-17.5 353.5,-17.5 353.5,-17.5 359,-17.5 364.5,-23 364.5,-28.5 364.5,-28.5 364.5,-39.5 364.5,-39.5 364.5,-45 359,-50.5 353.5,-50.5 353.5,-50.5 232.5,-50.5 232.5,-50.5 227,-50.5 221.5,-45 221.5,-39.5 221.5,-39.5 221.5,-28.5 221.5,-28.5 221.5,-23 227,-17.5 232.5,-17.5"/>
</g>
<!-- _sm_container_0/CrouchEnd&#45;&gt;_sm_container_0/failed -->
<g id="edge7" class="edge transition">
<title>_sm_container_0/CrouchEnd&#45;&gt;_sm_container_0/failed</title>
<path fill="none" stroke="black" d="M299.78,-86.94C298.81,-79.54 297.65,-70.67 296.57,-62.38"/>
<polygon fill="black" stroke="black" points="300.03,-61.8 295.26,-52.34 293.08,-62.71 300.03,-61.8"/>
<text text-anchor="start" x="298" y="-63" font-family="Helvetica,sans-Serif" font-size="10.00">failure &#160;&#160;</text>
</g>
<!-- _sm_standup_1 -->
<!-- _sm_standup_1/Container -->
<g id="node8" class="node state regular">
<title>_sm_standup_1/Container</title>
<polygon fill="#ffffff" fill-opacity="0.003922" stroke="transparent" stroke-width="2" points="788.5,-186 627.5,-186 627.5,-150 788.5,-150 788.5,-186"/>
<text text-anchor="start" x="639" y="-164.4" font-family="Helvetica,sans-Serif" font-size="12.00">_sm_standup_1/Container</text>
<path fill="none" stroke="red" stroke-width="2" d="M639.5,-151.5C639.5,-151.5 776.5,-151.5 776.5,-151.5 782,-151.5 787.5,-157 787.5,-162.5 787.5,-162.5 787.5,-173.5 787.5,-173.5 787.5,-179 782,-184.5 776.5,-184.5 776.5,-184.5 639.5,-184.5 639.5,-184.5 634,-184.5 628.5,-179 628.5,-173.5 628.5,-173.5 628.5,-162.5 628.5,-162.5 628.5,-157 634,-151.5 639.5,-151.5"/>
</g>
<!-- _sm_standup_1/finished -->
<g id="node10" class="node state regular">
<title>_sm_standup_1/finished</title>
<polygon fill="#ffffff" fill-opacity="0.003922" stroke="transparent" stroke-width="2" points="1077,-123 927,-123 927,-87 1077,-87 1077,-123"/>
<text text-anchor="start" x="938" y="-101.4" font-family="Helvetica,sans-Serif" font-size="12.00">_sm_standup_1/finished</text>
<path fill="none" stroke="black" stroke-width="2" d="M939,-88.5C939,-88.5 1065,-88.5 1065,-88.5 1070.5,-88.5 1076,-94 1076,-99.5 1076,-99.5 1076,-110.5 1076,-110.5 1076,-116 1070.5,-121.5 1065,-121.5 1065,-121.5 939,-121.5 939,-121.5 933.5,-121.5 928,-116 928,-110.5 928,-110.5 928,-99.5 928,-99.5 928,-94 933.5,-88.5 939,-88.5"/>
</g>
<!-- _sm_standup_1/Container&#45;&gt;_sm_standup_1/finished -->
<g id="edge8" class="edge transition">
<title>_sm_standup_1/Container&#45;&gt;_sm_standup_1/finished</title>
<path fill="none" stroke="black" d="M788.54,-153.61C802.54,-150.4 816.82,-146.56 830,-142 840.33,-138.43 841.54,-134.17 852,-131 879.44,-122.69 887.7,-127.56 916,-123 916.22,-122.97 916.43,-122.93 916.65,-122.9"/>
<polygon fill="black" stroke="black" points="917.27,-126.34 926.55,-121.23 916.1,-119.44 917.27,-126.34"/>
<text text-anchor="start" x="852" y="-134" font-family="Helvetica,sans-Serif" font-size="10.00">finished &#160;&#160;</text>
</g>
<!-- _sm_standup_1/failed -->
<g id="node11" class="node state regular">
<title>_sm_standup_1/failed</title>
<polygon fill="#ffffff" fill-opacity="0.003922" stroke="transparent" stroke-width="2" points="707,-123 569,-123 569,-87 707,-87 707,-123"/>
<text text-anchor="start" x="580" y="-101.4" font-family="Helvetica,sans-Serif" font-size="12.00">_sm_standup_1/failed</text>
<path fill="none" stroke="black" stroke-width="2" d="M581,-88.5C581,-88.5 695,-88.5 695,-88.5 700.5,-88.5 706,-94 706,-99.5 706,-99.5 706,-110.5 706,-110.5 706,-116 700.5,-121.5 695,-121.5 695,-121.5 581,-121.5 581,-121.5 575.5,-121.5 570,-116 570,-110.5 570,-110.5 570,-99.5 570,-99.5 570,-94 575.5,-88.5 581,-88.5"/>
</g>
<!-- _sm_standup_1/Container&#45;&gt;_sm_standup_1/failed -->
<g id="edge9" class="edge transition">
<title>_sm_standup_1/Container&#45;&gt;_sm_standup_1/failed</title>
<path fill="none" stroke="black" d="M658.11,-149.94C654.77,-147.61 651.68,-144.98 649,-142 646.61,-139.35 644.74,-136.18 643.27,-132.85"/>
<polygon fill="black" stroke="black" points="646.58,-131.7 640.13,-123.29 639.93,-133.89 646.58,-131.7"/>
<text text-anchor="start" x="649" y="-134" font-family="Helvetica,sans-Serif" font-size="10.00">failed &#160;&#160;</text>
</g>
<!-- _sm_standup_1/invalid_pose -->
<g id="node12" class="node state regular">
<title>_sm_standup_1/invalid_pose</title>
<polygon fill="#ffffff" fill-opacity="0.003922" stroke="transparent" stroke-width="2" points="905,-123 729,-123 729,-87 905,-87 905,-123"/>
<text text-anchor="start" x="740" y="-101.4" font-family="Helvetica,sans-Serif" font-size="12.00">_sm_standup_1/invalid_pose</text>
<path fill="none" stroke="black" stroke-width="2" d="M741,-88.5C741,-88.5 893,-88.5 893,-88.5 898.5,-88.5 904,-94 904,-99.5 904,-99.5 904,-110.5 904,-110.5 904,-116 898.5,-121.5 893,-121.5 893,-121.5 741,-121.5 741,-121.5 735.5,-121.5 730,-116 730,-110.5 730,-110.5 730,-99.5 730,-99.5 730,-94 735.5,-88.5 741,-88.5"/>
</g>
<!-- _sm_standup_1/Container&#45;&gt;_sm_standup_1/invalid_pose -->
<g id="edge10" class="edge transition">
<title>_sm_standup_1/Container&#45;&gt;_sm_standup_1/invalid_pose</title>
<path fill="none" stroke="black" d="M703.75,-149.74C703.16,-143.24 703.87,-136.18 708,-131 710.25,-128.18 714.14,-125.65 719.15,-123.39"/>
<polygon fill="black" stroke="black" points="720.43,-126.64 728.55,-119.83 717.95,-120.1 720.43,-126.64"/>
<text text-anchor="start" x="708" y="-134" font-family="Helvetica,sans-Serif" font-size="10.00">invalid_pose &#160;&#160;</text>
</g>
<!-- _sm_standup_1/HeadNominal -->
<g id="node9" class="node state regular">
<title>_sm_standup_1/HeadNominal</title>
<polygon fill="#ffffff" fill-opacity="0.003922" stroke="transparent" stroke-width="2" points="1016.5,-186 835.5,-186 835.5,-150 1016.5,-150 1016.5,-186"/>
<text text-anchor="start" x="847" y="-164.4" font-family="Helvetica,sans-Serif" font-size="12.00">_sm_standup_1/HeadNominal</text>
<path fill="none" stroke="black" stroke-width="2" d="M847.5,-151.5C847.5,-151.5 1004.5,-151.5 1004.5,-151.5 1010,-151.5 1015.5,-157 1015.5,-162.5 1015.5,-162.5 1015.5,-173.5 1015.5,-173.5 1015.5,-179 1010,-184.5 1004.5,-184.5 1004.5,-184.5 847.5,-184.5 847.5,-184.5 842,-184.5 836.5,-179 836.5,-173.5 836.5,-173.5 836.5,-162.5 836.5,-162.5 836.5,-157 842,-151.5 847.5,-151.5"/>
</g>
<!-- _sm_standup_1/HeadNominal&#45;&gt;_sm_standup_1/finished -->
<g id="edge11" class="edge transition">
<title>_sm_standup_1/HeadNominal&#45;&gt;_sm_standup_1/finished</title>
<path fill="none" stroke="black" d="M961.89,-149.9C965.79,-147.47 969.58,-144.83 973,-142 976.89,-138.78 980.62,-134.97 984.04,-131.05"/>
<polygon fill="black" stroke="black" points="986.98,-132.99 990.55,-123.01 981.54,-128.58 986.98,-132.99"/>
<text text-anchor="start" x="983" y="-134" font-family="Helvetica,sans-Serif" font-size="10.00">done &#160;&#160;</text>
</g>
<!-- _sm_standup_1/HeadNominal&#45;&gt;_sm_standup_1/failed -->
<g id="edge12" class="edge transition">
<title>_sm_standup_1/HeadNominal&#45;&gt;_sm_standup_1/failed</title>
<path fill="none" stroke="black" d="M835.19,-151.89C822.27,-149.02 809.22,-145.72 797,-142 785,-138.34 783.08,-134.41 771,-131 748.07,-124.53 741.44,-127.26 718,-123 717.78,-122.96 717.56,-122.92 717.34,-122.88"/>
<polygon fill="black" stroke="black" points="717.8,-119.41 707.33,-121 716.51,-126.29 717.8,-119.41"/>
<text text-anchor="start" x="797" y="-134" font-family="Helvetica,sans-Serif" font-size="10.00">failed &#160;&#160;</text>
</g>
<!-- _sm_standup_1/HeadNominal&#45;&gt;_sm_standup_1/invalid_pose -->
<g id="edge13" class="edge transition">
<title>_sm_standup_1/HeadNominal&#45;&gt;_sm_standup_1/invalid_pose</title>
<path fill="none" stroke="black" d="M916.78,-149.66C912.47,-142.99 906.78,-135.83 900,-131 898.57,-129.98 897.09,-129 895.58,-128.06"/>
<polygon fill="black" stroke="black" points="897.04,-124.87 886.59,-123.1 893.66,-130.99 897.04,-124.87"/>
<text text-anchor="start" x="911" y="-134" font-family="Helvetica,sans-Serif" font-size="10.00">timeout &#160;&#160;</text>
</g>
<!-- _state_machine -->
<!-- _state_machine/CompoundAction -->
<g id="node14" class="node state regular">
<title>_state_machine/CompoundAction</title>
<polygon fill="#ffffff" fill-opacity="0.003922" stroke="transparent" stroke-width="2" points="1367,-186 1167,-186 1167,-150 1367,-150 1367,-186"/>
<text text-anchor="start" x="1178" y="-164.4" font-family="Helvetica,sans-Serif" font-size="12.00">_state_machine/CompoundAction</text>
<path fill="none" stroke="black" stroke-width="2" d="M1179,-151.5C1179,-151.5 1355,-151.5 1355,-151.5 1360.5,-151.5 1366,-157 1366,-162.5 1366,-162.5 1366,-173.5 1366,-173.5 1366,-179 1360.5,-184.5 1355,-184.5 1355,-184.5 1179,-184.5 1179,-184.5 1173.5,-184.5 1168,-179 1168,-173.5 1168,-173.5 1168,-162.5 1168,-162.5 1168,-157 1173.5,-151.5 1179,-151.5"/>
</g>
<!-- _state_machine/StandUp -->
<g id="node15" class="node state regular">
<title>_state_machine/StandUp</title>
<polygon fill="#ffffff" fill-opacity="0.003922" stroke="transparent" stroke-width="2" points="1256.5,-123 1101.5,-123 1101.5,-87 1256.5,-87 1256.5,-123"/>
<text text-anchor="start" x="1113" y="-101.4" font-family="Helvetica,sans-Serif" font-size="12.00">_state_machine/StandUp</text>
<path fill="none" stroke="red" stroke-width="2" d="M1113.5,-88.5C1113.5,-88.5 1244.5,-88.5 1244.5,-88.5 1250,-88.5 1255.5,-94 1255.5,-99.5 1255.5,-99.5 1255.5,-110.5 1255.5,-110.5 1255.5,-116 1250,-121.5 1244.5,-121.5 1244.5,-121.5 1113.5,-121.5 1113.5,-121.5 1108,-121.5 1102.5,-116 1102.5,-110.5 1102.5,-110.5 1102.5,-99.5 1102.5,-99.5 1102.5,-94 1108,-88.5 1113.5,-88.5"/>
</g>
<!-- _state_machine/CompoundAction&#45;&gt;_state_machine/StandUp -->
<g id="edge15" class="edge transition">
<title>_state_machine/CompoundAction&#45;&gt;_state_machine/StandUp</title>
<path fill="none" stroke="black" d="M1242.02,-149.68C1232.74,-143.25 1222.07,-135.86 1212.18,-129"/>
<polygon fill="black" stroke="black" points="1213.95,-125.97 1203.74,-123.15 1209.96,-131.72 1213.95,-125.97"/>
<text text-anchor="start" x="1230" y="-134" font-family="Helvetica,sans-Serif" font-size="10.00">invalid_pose &#160;&#160;</text>
</g>
<!-- _state_machine/finished -->
<g id="node16" class="node state regular">
<title>_state_machine/finished</title>
<polygon fill="#ffffff" fill-opacity="0.003922" stroke="transparent" stroke-width="2" points="1507.5,-123 1358.5,-123 1358.5,-87 1507.5,-87 1507.5,-123"/>
<text text-anchor="start" x="1370" y="-101.4" font-family="Helvetica,sans-Serif" font-size="12.00">_state_machine/finished</text>
<path fill="none" stroke="black" stroke-width="2" d="M1370.5,-88.5C1370.5,-88.5 1495.5,-88.5 1495.5,-88.5 1501,-88.5 1506.5,-94 1506.5,-99.5 1506.5,-99.5 1506.5,-110.5 1506.5,-110.5 1506.5,-116 1501,-121.5 1495.5,-121.5 1495.5,-121.5 1370.5,-121.5 1370.5,-121.5 1365,-121.5 1359.5,-116 1359.5,-110.5 1359.5,-110.5 1359.5,-99.5 1359.5,-99.5 1359.5,-94 1365,-88.5 1370.5,-88.5"/>
</g>
<!-- _state_machine/CompoundAction&#45;&gt;_state_machine/finished -->
<g id="edge14" class="edge transition">
<title>_state_machine/CompoundAction&#45;&gt;_state_machine/finished</title>
<path fill="none" stroke="black" d="M1313.68,-149.85C1333.38,-142.61 1356.49,-134.12 1377.09,-126.54"/>
<polygon fill="black" stroke="black" points="1378.49,-129.76 1386.67,-123.03 1376.07,-123.19 1378.49,-129.76"/>
<text text-anchor="start" x="1364" y="-134" font-family="Helvetica,sans-Serif" font-size="10.00">success &#160;&#160;</text>
</g>
<!-- _state_machine/failed -->
<g id="node17" class="node state regular">
<title>_state_machine/failed</title>
<polygon fill="#ffffff" fill-opacity="0.003922" stroke="transparent" stroke-width="2" points="1435.5,-52 1298.5,-52 1298.5,-16 1435.5,-16 1435.5,-52"/>
<text text-anchor="start" x="1310" y="-30.4" font-family="Helvetica,sans-Serif" font-size="12.00">_state_machine/failed</text>
<path fill="none" stroke="black" stroke-width="2" d="M1310.5,-17.5C1310.5,-17.5 1423.5,-17.5 1423.5,-17.5 1429,-17.5 1434.5,-23 1434.5,-28.5 1434.5,-28.5 1434.5,-39.5 1434.5,-39.5 1434.5,-45 1429,-50.5 1423.5,-50.5 1423.5,-50.5 1310.5,-50.5 1310.5,-50.5 1305,-50.5 1299.5,-45 1299.5,-39.5 1299.5,-39.5 1299.5,-28.5 1299.5,-28.5 1299.5,-23 1305,-17.5 1310.5,-17.5"/>
</g>
<!-- _state_machine/CompoundAction&#45;&gt;_state_machine/failed -->
<g id="edge16" class="edge transition">
<title>_state_machine/CompoundAction&#45;&gt;_state_machine/failed</title>
<path fill="none" stroke="black" d="M1289.68,-149.95C1292.05,-147.48 1294.23,-144.81 1296,-142 1311.44,-117.45 1297.22,-103.33 1313,-79 1317.87,-71.49 1324.44,-64.64 1331.32,-58.7"/>
<polygon fill="black" stroke="black" points="1333.85,-61.16 1339.45,-52.16 1329.47,-55.7 1333.85,-61.16"/>
<text text-anchor="start" x="1313" y="-102.5" font-family="Helvetica,sans-Serif" font-size="10.00">failure &#160;&#160;</text>
</g>
<!-- _state_machine/StandUp&#45;&gt;_state_machine/CompoundAction -->
<g id="edge17" class="edge transition">
<title>_state_machine/StandUp&#45;&gt;_state_machine/CompoundAction</title>
<path fill="none" stroke="black" d="M1166.87,-123.29C1163.97,-129.65 1162.78,-136.6 1167,-142 1167.78,-142.99 1168.77,-143.95 1169.95,-144.88"/>
<polygon fill="black" stroke="black" points="1168.23,-147.93 1178.65,-149.84 1171.7,-141.84 1168.23,-147.93"/>
<text text-anchor="start" x="1167" y="-134" font-family="Helvetica,sans-Serif" font-size="10.00">finished &#160;&#160;</text>
</g>
<!-- _state_machine/StandUp&#45;&gt;_state_machine/failed -->
<g id="edge19" class="edge transition">
<title>_state_machine/StandUp&#45;&gt;_state_machine/failed</title>
<path fill="none" stroke="black" d="M1207.34,-86.91C1223.26,-77.89 1243.73,-67.23 1263,-60 1268.55,-57.92 1277.79,-55.32 1288.54,-52.59"/>
<polygon fill="black" stroke="black" points="1289.46,-55.97 1298.32,-50.17 1287.78,-49.18 1289.46,-55.97"/>
<text text-anchor="start" x="1263" y="-63" font-family="Helvetica,sans-Serif" font-size="10.00">failed &#160;&#160;</text>
</g>
<!-- _state_machine/invalid_pose -->
<g id="node18" class="node state regular">
<title>_state_machine/invalid_pose</title>
<polygon fill="#ffffff" fill-opacity="0.003922" stroke="transparent" stroke-width="2" points="1276.5,-52 1101.5,-52 1101.5,-16 1276.5,-16 1276.5,-52"/>
<text text-anchor="start" x="1113" y="-30.4" font-family="Helvetica,sans-Serif" font-size="12.00">_state_machine/invalid_pose</text>
<path fill="none" stroke="black" stroke-width="2" d="M1113.5,-17.5C1113.5,-17.5 1264.5,-17.5 1264.5,-17.5 1270,-17.5 1275.5,-23 1275.5,-28.5 1275.5,-28.5 1275.5,-39.5 1275.5,-39.5 1275.5,-45 1270,-50.5 1264.5,-50.5 1264.5,-50.5 1113.5,-50.5 1113.5,-50.5 1108,-50.5 1102.5,-45 1102.5,-39.5 1102.5,-39.5 1102.5,-28.5 1102.5,-28.5 1102.5,-23 1108,-17.5 1113.5,-17.5"/>
</g>
<!-- _state_machine/StandUp&#45;&gt;_state_machine/invalid_pose -->
<g id="edge18" class="edge transition">
<title>_state_machine/StandUp&#45;&gt;_state_machine/invalid_pose</title>
<path fill="none" stroke="black" d="M1174.01,-86.63C1172.77,-80.23 1172.01,-72.82 1174.34,-62.08"/>
<polygon fill="black" stroke="black" points="1177.78,-62.78 1177.08,-52.21 1171.03,-60.91 1177.78,-62.78"/>
<text text-anchor="start" x="1174" y="-63" font-family="Helvetica,sans-Serif" font-size="10.00">invalid_pose &#160;&#160;</text>
</g>
</g>
</svg>
