<?xml version="1.0" encoding="UTF-8" standalone="no"?>
<!DOCTYPE svg PUBLIC "-//W3C//DTD SVG 1.1//EN"
 "http://www.w3.org/Graphics/SVG/1.1/DTD/svg11.dtd">
<!-- Generated by graphviz version 2.49.1 (20210923.0004)
 -->
<!-- Title: state transitions Pages: 1 -->
<svg width="892pt" height="365pt"
 viewBox="0.00 0.00 892.00 365.00" xmlns="http://www.w3.org/2000/svg" xmlns:xlink="http://www.w3.org/1999/xlink">
<g id="graph0" class="graph" transform="scale(1 1) rotate(0) translate(4 361)">
<title>state transitions</title>
<polygon fill="white" stroke="transparent" points="-4,4 -4,-361 888,-361 888,4 -4,4"/>
<g id="clust2" class="cluster state regular">
<title>cluster__state_machine</title>
<path fill="none" stroke="black" stroke-width="2" d="M537,-8C537,-8 864,-8 864,-8 870,-8 876,-14 876,-20 876,-20 876,-337 876,-337 876,-343 870,-349 864,-349 864,-349 537,-349 537,-349 531,-349 525,-343 525,-337 525,-337 525,-20 525,-20 525,-14 531,-8 537,-8"/>
<text text-anchor="start" x="658.5" y="-330.9" font-family="Helvetica,sans-Serif" font-size="12.00">_state_machine</text>
</g>
<g id="clust1" class="cluster state regular">
<title>cluster__sm_randheadmovements_0</title>
<path fill="none" stroke="black" stroke-width="2" d="M20,-205C20,-205 505,-205 505,-205 511,-205 517,-211 517,-217 517,-217 517,-337 517,-337 517,-343 511,-349 505,-349 505,-349 20,-349 20,-349 14,-349 8,-343 8,-337 8,-337 8,-217 8,-217 8,-211 14,-205 20,-205"/>
<text text-anchor="start" x="186.5" y="-330.9" font-family="Helvetica,sans-Serif" font-size="12.00">_sm_randheadmovements_0</text>
</g>
<!-- _sm_randheadmovements_0 -->
<!-- _sm_randheadmovements_0/LookAt -->
<g id="node2" class="node state regular">
<title>_sm_randheadmovements_0/LookAt</title>
<polygon fill="#ffffff" fill-opacity="0.003922" stroke="transparent" stroke-width="2" points="231.5,-312 16.5,-312 16.5,-276 231.5,-276 231.5,-312"/>
<text text-anchor="start" x="28" y="-290.4" font-family="Helvetica,sans-Serif" font-size="12.00">_sm_randheadmovements_0/LookAt</text>
<path fill="none" stroke="black" stroke-width="2" d="M28.5,-277.5C28.5,-277.5 219.5,-277.5 219.5,-277.5 225,-277.5 230.5,-283 230.5,-288.5 230.5,-288.5 230.5,-299.5 230.5,-299.5 230.5,-305 225,-310.5 219.5,-310.5 219.5,-310.5 28.5,-310.5 28.5,-310.5 23,-310.5 17.5,-305 17.5,-299.5 17.5,-299.5 17.5,-288.5 17.5,-288.5 17.5,-283 23,-277.5 28.5,-277.5"/>
</g>
<!-- _sm_randheadmovements_0/finished -->
<g id="node4" class="node state regular">
<title>_sm_randheadmovements_0/finished</title>
<polygon fill="#ffffff" fill-opacity="0.003922" stroke="transparent" stroke-width="2" points="239,-249 21,-249 21,-213 239,-213 239,-249"/>
<text text-anchor="start" x="32" y="-227.4" font-family="Helvetica,sans-Serif" font-size="12.00">_sm_randheadmovements_0/finished</text>
<path fill="none" stroke="black" stroke-width="2" d="M33,-214.5C33,-214.5 227,-214.5 227,-214.5 232.5,-214.5 238,-220 238,-225.5 238,-225.5 238,-236.5 238,-236.5 238,-242 232.5,-247.5 227,-247.5 227,-247.5 33,-247.5 33,-247.5 27.5,-247.5 22,-242 22,-236.5 22,-236.5 22,-225.5 22,-225.5 22,-220 27.5,-214.5 33,-214.5"/>
</g>
<!-- _sm_randheadmovements_0/LookAt&#45;&gt;_sm_randheadmovements_0/finished -->
<g id="edge1" class="edge transition">
<title>_sm_randheadmovements_0/LookAt&#45;&gt;_sm_randheadmovements_0/finished</title>
<path fill="none" stroke="black" d="M125.7,-275.68C126.2,-270.62 126.76,-264.95 127.3,-259.42"/>
<polygon fill="black" stroke="black" points="130.82,-259.44 128.31,-249.15 123.85,-258.76 130.82,-259.44"/>
<text text-anchor="start" x="128" y="-260" font-family="Helvetica,sans-Serif" font-size="10.00">done &#160;&#160;</text>
</g>
<!-- _sm_randheadmovements_0/failed -->
<g id="node5" class="node state regular">
<title>_sm_randheadmovements_0/failed</title>
<polygon fill="#ffffff" fill-opacity="0.003922" stroke="transparent" stroke-width="2" points="470,-249 264,-249 264,-213 470,-213 470,-249"/>
<text text-anchor="start" x="275" y="-227.4" font-family="Helvetica,sans-Serif" font-size="12.00">_sm_randheadmovements_0/failed</text>
<path fill="none" stroke="black" stroke-width="2" d="M276,-214.5C276,-214.5 458,-214.5 458,-214.5 463.5,-214.5 469,-220 469,-225.5 469,-225.5 469,-236.5 469,-236.5 469,-242 463.5,-247.5 458,-247.5 458,-247.5 276,-247.5 276,-247.5 270.5,-247.5 265,-242 265,-236.5 265,-236.5 265,-225.5 265,-225.5 265,-220 270.5,-214.5 276,-214.5"/>
</g>
<!-- _sm_randheadmovements_0/LookAt&#45;&gt;_sm_randheadmovements_0/failed -->
<g id="edge2" class="edge transition">
<title>_sm_randheadmovements_0/LookAt&#45;&gt;_sm_randheadmovements_0/failed</title>
<path fill="none" stroke="black" d="M157.57,-275.9C172.13,-269.11 189.58,-261.79 206,-257 211.64,-255.35 230.6,-252.14 253.62,-248.55"/>
<polygon fill="black" stroke="black" points="254.36,-251.98 263.71,-246.99 253.29,-245.06 254.36,-251.98"/>
<text text-anchor="start" x="206" y="-260" font-family="Helvetica,sans-Serif" font-size="10.00">failure &#160;&#160;</text>
</g>
<!-- _sm_randheadmovements_0/RandPose -->
<g id="node3" class="node state regular">
<title>_sm_randheadmovements_0/RandPose</title>
<polygon fill="#ffffff" fill-opacity="0.003922" stroke="transparent" stroke-width="2" points="486.5,-312 253.5,-312 253.5,-276 486.5,-276 486.5,-312"/>
<text text-anchor="start" x="265" y="-290.4" font-family="Helvetica,sans-Serif" font-size="12.00">_sm_randheadmovements_0/RandPose</text>
<path fill="none" stroke="black" stroke-width="2" d="M265.5,-277.5C265.5,-277.5 474.5,-277.5 474.5,-277.5 480,-277.5 485.5,-283 485.5,-288.5 485.5,-288.5 485.5,-299.5 485.5,-299.5 485.5,-305 480,-310.5 474.5,-310.5 474.5,-310.5 265.5,-310.5 265.5,-310.5 260,-310.5 254.5,-305 254.5,-299.5 254.5,-299.5 254.5,-288.5 254.5,-288.5 254.5,-283 260,-277.5 265.5,-277.5"/>
</g>
<!-- _sm_randheadmovements_0/RandPose&#45;&gt;_sm_randheadmovements_0/finished -->
<g id="edge3" class="edge transition">
<title>_sm_randheadmovements_0/RandPose&#45;&gt;_sm_randheadmovements_0/finished</title>
<path fill="none" stroke="black" d="M314.36,-275.94C293.07,-269.65 268.49,-262.68 246,-257 238.33,-255.06 230.35,-253.14 222.33,-251.28"/>
<polygon fill="black" stroke="black" points="223.08,-247.86 212.55,-249.04 221.51,-254.69 223.08,-247.86"/>
<text text-anchor="start" x="284" y="-260" font-family="Helvetica,sans-Serif" font-size="10.00">done &#160;&#160;</text>
</g>
<!-- _sm_randheadmovements_0/RandPose&#45;&gt;_sm_randheadmovements_0/failed -->
<g id="edge4" class="edge transition">
<title>_sm_randheadmovements_0/RandPose&#45;&gt;_sm_randheadmovements_0/failed</title>
<path fill="none" stroke="black" d="M369.15,-275.68C368.9,-270.62 368.62,-264.95 368.35,-259.42"/>
<polygon fill="black" stroke="black" points="371.83,-258.97 367.84,-249.15 364.84,-259.31 371.83,-258.97"/>
<text text-anchor="start" x="369" y="-260" font-family="Helvetica,sans-Serif" font-size="10.00">failure &#160;&#160;</text>
</g>
<!-- _state_machine -->
<!-- _state_machine/CheckCrouched -->
<g id="node7" class="node state regular">
<title>_state_machine/CheckCrouched</title>
<polygon fill="#ffffff" fill-opacity="0.003922" stroke="transparent" stroke-width="2" points="782,-312 588,-312 588,-276 782,-276 782,-312"/>
<text text-anchor="start" x="599" y="-290.4" font-family="Helvetica,sans-Serif" font-size="12.00">_state_machine/CheckCrouched</text>
<path fill="none" stroke="black" stroke-width="2" d="M600,-277.5C600,-277.5 770,-277.5 770,-277.5 775.5,-277.5 781,-283 781,-288.5 781,-288.5 781,-299.5 781,-299.5 781,-305 775.5,-310.5 770,-310.5 770,-310.5 600,-310.5 600,-310.5 594.5,-310.5 589,-305 589,-299.5 589,-299.5 589,-288.5 589,-288.5 589,-283 594.5,-277.5 600,-277.5"/>
</g>
<!-- _state_machine/StandUp -->
<g id="node8" class="node state regular">
<title>_state_machine/StandUp</title>
<polygon fill="#ffffff" fill-opacity="0.003922" stroke="transparent" stroke-width="2" points="696.5,-249 541.5,-249 541.5,-213 696.5,-213 696.5,-249"/>
<text text-anchor="start" x="553" y="-227.4" font-family="Helvetica,sans-Serif" font-size="12.00">_state_machine/StandUp</text>
<path fill="none" stroke="black" stroke-width="2" d="M553.5,-214.5C553.5,-214.5 684.5,-214.5 684.5,-214.5 690,-214.5 695.5,-220 695.5,-225.5 695.5,-225.5 695.5,-236.5 695.5,-236.5 695.5,-242 690,-247.5 684.5,-247.5 684.5,-247.5 553.5,-247.5 553.5,-247.5 548,-247.5 542.5,-242 542.5,-236.5 542.5,-236.5 542.5,-225.5 542.5,-225.5 542.5,-220 548,-214.5 553.5,-214.5"/>
</g>
<!-- _state_machine/CheckCrouched&#45;&gt;_state_machine/StandUp -->
<g id="edge5" class="edge transition">
<title>_state_machine/CheckCrouched&#45;&gt;_state_machine/StandUp</title>
<path fill="none" stroke="black" d="M666.26,-275.68C659.66,-269.58 652.11,-262.6 645.01,-256.04"/>
<polygon fill="black" stroke="black" points="647.27,-253.37 637.55,-249.15 642.52,-258.51 647.27,-253.37"/>
<text text-anchor="start" x="657" y="-260" font-family="Helvetica,sans-Serif" font-size="10.00">body_crouched &#160;&#160;</text>
</g>
<!-- _state_machine/RandHeadMovements -->
<g id="node10" class="node state regular">
<title>_state_machine/RandHeadMovements</title>
<polygon fill="#ffffff" fill-opacity="0.003922" stroke="transparent" stroke-width="2" points="867.5,-178 642.5,-178 642.5,-142 867.5,-142 867.5,-178"/>
<text text-anchor="start" x="654" y="-156.4" font-family="Helvetica,sans-Serif" font-size="12.00">_state_machine/RandHeadMovements</text>
<path fill="none" stroke="red" stroke-width="2" d="M654.5,-143.5C654.5,-143.5 855.5,-143.5 855.5,-143.5 861,-143.5 866.5,-149 866.5,-154.5 866.5,-154.5 866.5,-165.5 866.5,-165.5 866.5,-171 861,-176.5 855.5,-176.5 855.5,-176.5 654.5,-176.5 654.5,-176.5 649,-176.5 643.5,-171 643.5,-165.5 643.5,-165.5 643.5,-154.5 643.5,-154.5 643.5,-149 649,-143.5 654.5,-143.5"/>
</g>
<!-- _state_machine/CheckCrouched&#45;&gt;_state_machine/RandHeadMovements -->
<g id="edge6" class="edge transition">
<title>_state_machine/CheckCrouched&#45;&gt;_state_machine/RandHeadMovements</title>
<path fill="none" stroke="black" d="M730.28,-275.83C733.17,-273.53 735.8,-270.93 738,-268 755.15,-245.14 757.93,-211.73 757.36,-188.34"/>
<polygon fill="black" stroke="black" points="760.84,-187.89 756.88,-178.06 753.85,-188.21 760.84,-187.89"/>
<text text-anchor="start" x="757" y="-228.5" font-family="Helvetica,sans-Serif" font-size="10.00">unknown &#160;&#160;</text>
</g>
<!-- _state_machine/StandUp&#45;&gt;_state_machine/RandHeadMovements -->
<g id="edge7" class="edge transition">
<title>_state_machine/StandUp&#45;&gt;_state_machine/RandHeadMovements</title>
<path fill="none" stroke="black" d="M647.09,-212.88C661.49,-204.38 679.44,-194.2 696,-186 698.57,-184.73 701.22,-183.46 703.91,-182.2"/>
<polygon fill="black" stroke="black" points="705.48,-185.33 713.14,-178.01 702.59,-178.96 705.48,-185.33"/>
<text text-anchor="start" x="696" y="-189" font-family="Helvetica,sans-Serif" font-size="10.00">success &#160;&#160;</text>
</g>
<!-- _state_machine/failed -->
<g id="node11" class="node state regular">
<title>_state_machine/failed</title>
<polygon fill="#ffffff" fill-opacity="0.003922" stroke="transparent" stroke-width="2" points="682.5,-52 545.5,-52 545.5,-16 682.5,-16 682.5,-52"/>
<text text-anchor="start" x="557" y="-30.4" font-family="Helvetica,sans-Serif" font-size="12.00">_state_machine/failed</text>
<path fill="none" stroke="black" stroke-width="2" d="M557.5,-17.5C557.5,-17.5 670.5,-17.5 670.5,-17.5 676,-17.5 681.5,-23 681.5,-28.5 681.5,-28.5 681.5,-39.5 681.5,-39.5 681.5,-45 676,-50.5 670.5,-50.5 670.5,-50.5 557.5,-50.5 557.5,-50.5 552,-50.5 546.5,-45 546.5,-39.5 546.5,-39.5 546.5,-28.5 546.5,-28.5 546.5,-23 552,-17.5 557.5,-17.5"/>
</g>
<!-- _state_machine/StandUp&#45;&gt;_state_machine/failed -->
<g id="edge8" class="edge transition">
<title>_state_machine/StandUp&#45;&gt;_state_machine/failed</title>
<path fill="none" stroke="black" d="M602.06,-212.73C585.89,-194.8 562.85,-165.07 555,-134 549.7,-113.02 534.23,-95.91 559,-60 559.06,-59.91 559.13,-59.82 559.19,-59.73"/>
<polygon fill="black" stroke="black" points="561.97,-61.88 566.22,-52.17 556.85,-57.11 561.97,-61.88"/>
<text text-anchor="start" x="555" y="-126" font-family="Helvetica,sans-Serif" font-size="10.00">partial_movement &#160;&#160;</text>
</g>
<!-- _state_machine/StandUp&#45;&gt;_state_machine/failed -->
<g id="edge9" class="edge transition">
<title>_state_machine/StandUp&#45;&gt;_state_machine/failed</title>
<path fill="none" stroke="black" d="M611.74,-212.89C604.85,-193.64 597.6,-162.42 613,-142 620.79,-131.67 633.21,-144.33 641,-134 643.94,-130.1 644.21,-126.69 641,-123 623.9,-103.38 600.1,-134.62 583,-115 568.63,-98.52 571.53,-85.16 583.73,-61.07"/>
<polygon fill="black" stroke="black" points="586.89,-62.56 588.41,-52.08 580.69,-59.33 586.89,-62.56"/>
<text text-anchor="start" x="643" y="-126" font-family="Helvetica,sans-Serif" font-size="10.00">invalid_pose &#160;&#160;</text>
</g>
<!-- _state_machine/StandUp&#45;&gt;_state_machine/failed -->
<g id="edge10" class="edge transition">
<title>_state_machine/StandUp&#45;&gt;_state_machine/failed</title>
<path fill="none" stroke="black" d="M615.95,-212.67C613.51,-192.61 613.14,-160.04 632,-142 644.59,-129.96 698.32,-146.93 710,-134 713.28,-130.37 713.31,-126.6 710,-123 695.98,-107.72 631.87,-129.47 617,-115 603.39,-101.76 603.45,-79.86 606.47,-62.32"/>
<polygon fill="black" stroke="black" points="609.99,-62.58 608.64,-52.08 603.14,-61.14 609.99,-62.58"/>
<text text-anchor="start" x="712" y="-126" font-family="Helvetica,sans-Serif" font-size="10.00">failure &#160;&#160;</text>
</g>
<!-- _state_machine/HeadNominal -->
<g id="node9" class="node state regular">
<title>_state_machine/HeadNominal</title>
<polygon fill="#ffffff" fill-opacity="0.003922" stroke="transparent" stroke-width="2" points="868,-115 688,-115 688,-79 868,-79 868,-115"/>
<text text-anchor="start" x="699" y="-93.4" font-family="Helvetica,sans-Serif" font-size="12.00">_state_machine/HeadNominal</text>
<path fill="none" stroke="black" stroke-width="2" d="M700,-80.5C700,-80.5 856,-80.5 856,-80.5 861.5,-80.5 867,-86 867,-91.5 867,-91.5 867,-102.5 867,-102.5 867,-108 861.5,-113.5 856,-113.5 856,-113.5 700,-113.5 700,-113.5 694.5,-113.5 689,-108 689,-102.5 689,-102.5 689,-91.5 689,-91.5 689,-86 694.5,-80.5 700,-80.5"/>
</g>
<!-- _state_machine/HeadNominal&#45;&gt;_state_machine/failed -->
<g id="edge12" class="edge transition">
<title>_state_machine/HeadNominal&#45;&gt;_state_machine/failed</title>
<path fill="none" stroke="black" d="M746.6,-78.89C733.92,-72.41 719,-65.32 705,-60 700.54,-58.31 695.93,-56.68 691.24,-55.11"/>
<polygon fill="black" stroke="black" points="692.15,-51.73 681.55,-52.01 690.01,-58.4 692.15,-51.73"/>
<text text-anchor="start" x="729" y="-63" font-family="Helvetica,sans-Serif" font-size="10.00">failed &#160;&#160;</text>
</g>
<!-- _state_machine/HeadNominal&#45;&gt;_state_machine/failed -->
<g id="edge13" class="edge transition">
<title>_state_machine/HeadNominal&#45;&gt;_state_machine/failed</title>
<path fill="none" stroke="black" d="M687.96,-82.21C677.61,-79.18 667.41,-75.49 658,-71 651.26,-67.78 644.67,-63.33 638.72,-58.64"/>
<polygon fill="black" stroke="black" points="640.96,-55.95 631.05,-52.21 636.46,-61.32 640.96,-55.95"/>
<text text-anchor="start" x="658" y="-63" font-family="Helvetica,sans-Serif" font-size="10.00">timeout &#160;&#160;</text>
</g>
<!-- _state_machine/finished -->
<g id="node12" class="node state regular">
<title>_state_machine/finished</title>
<polygon fill="#ffffff" fill-opacity="0.003922" stroke="transparent" stroke-width="2" points="864.5,-52 715.5,-52 715.5,-16 864.5,-16 864.5,-52"/>
<text text-anchor="start" x="727" y="-30.4" font-family="Helvetica,sans-Serif" font-size="12.00">_state_machine/finished</text>
<path fill="none" stroke="black" stroke-width="2" d="M727.5,-17.5C727.5,-17.5 852.5,-17.5 852.5,-17.5 858,-17.5 863.5,-23 863.5,-28.5 863.5,-28.5 863.5,-39.5 863.5,-39.5 863.5,-45 858,-50.5 852.5,-50.5 852.5,-50.5 727.5,-50.5 727.5,-50.5 722,-50.5 716.5,-45 716.5,-39.5 716.5,-39.5 716.5,-28.5 716.5,-28.5 716.5,-23 722,-17.5 727.5,-17.5"/>
</g>
<!-- _state_machine/HeadNominal&#45;&gt;_state_machine/finished -->
<g id="edge11" class="edge transition">
<title>_state_machine/HeadNominal&#45;&gt;_state_machine/finished</title>
<path fill="none" stroke="black" d="M781.41,-78.68C782.43,-73.49 783.58,-67.66 784.69,-62"/>
<polygon fill="black" stroke="black" points="788.13,-62.64 786.63,-52.15 781.26,-61.29 788.13,-62.64"/>
<text text-anchor="start" x="785" y="-63" font-family="Helvetica,sans-Serif" font-size="10.00">done &#160;&#160;</text>
</g>
<!-- _state_machine/RandHeadMovements&#45;&gt;_state_machine/HeadNominal -->
<g id="edge14" class="edge transition">
<title>_state_machine/RandHeadMovements&#45;&gt;_state_machine/HeadNominal</title>
<path fill="none" stroke="black" d="M792.73,-141.77C795.17,-139.47 797.32,-136.89 799,-134 800.78,-130.94 801.11,-127.73 800.48,-124.54"/>
<polygon fill="black" stroke="black" points="803.55,-122.84 796.2,-115.21 797.19,-125.76 803.55,-122.84"/>
<text text-anchor="start" x="800" y="-126" font-family="Helvetica,sans-Serif" font-size="10.00">finished &#160;&#160;</text>
</g>
<!-- _state_machine/RandHeadMovements&#45;&gt;_state_machine/failed -->
<g id="edge15" class="edge transition">
<title>_state_machine/RandHeadMovements&#45;&gt;_state_machine/failed</title>
<path fill="none" stroke="black" d="M787.23,-141.71C794.19,-135.87 797.92,-129.25 792,-123 780.75,-111.12 658.24,-124.61 645,-115 628.27,-102.86 620.57,-80.38 617.02,-62.33"/>
<polygon fill="black" stroke="black" points="620.46,-61.63 615.38,-52.33 613.55,-62.76 620.46,-61.63"/>
<text text-anchor="start" x="645" y="-94.5" font-family="Helvetica,sans-Serif" font-size="10.00">failed &#160;&#160;</text>
</g>
</g>
</svg>
