<?xml version="1.0" encoding="UTF-8" standalone="no"?>
<!DOCTYPE svg PUBLIC "-//W3C//DTD SVG 1.1//EN"
 "http://www.w3.org/Graphics/SVG/1.1/DTD/svg11.dtd">
<!-- Generated by graphviz version 2.49.1 (20210923.0004)
 -->
<!-- Title: state transitions Pages: 1 -->
<svg width="553pt" height="294pt"
 viewBox="0.00 0.00 553.00 294.00" xmlns="http://www.w3.org/2000/svg" xmlns:xlink="http://www.w3.org/1999/xlink">
<g id="graph0" class="graph" transform="scale(1 1) rotate(0) translate(4 290)">
<title>state transitions</title>
<polygon fill="white" stroke="transparent" points="-4,4 -4,-290 549,-290 549,4 -4,4"/>
<g id="clust1" class="cluster state regular">
<title>cluster__state_machine</title>
<path fill="none" stroke="black" stroke-width="2" d="M20,-8C20,-8 496,-8 496,-8 502,-8 508,-14 508,-20 508,-20 508,-266 508,-266 508,-272 502,-278 496,-278 496,-278 20,-278 20,-278 14,-278 8,-272 8,-266 8,-266 8,-20 8,-20 8,-14 14,-8 20,-8"/>
<text text-anchor="start" x="216" y="-259.9" font-family="Helvetica,sans-Serif" font-size="12.00">_state_machine</text>
</g>
<!-- _state_machine -->
<!-- _state_machine/CheckCrouched -->
<g id="node2" class="node state regular">
<title>_state_machine/CheckCrouched</title>
<polygon fill="#ffffff" fill-opacity="0.003922" stroke="transparent" stroke-width="2" points="377,-241 183,-241 183,-205 377,-205 377,-241"/>
<text text-anchor="start" x="194" y="-219.4" font-family="Helvetica,sans-Serif" font-size="12.00">_state_machine/CheckCrouched</text>
<path fill="none" stroke="black" stroke-width="2" d="M195,-206.5C195,-206.5 365,-206.5 365,-206.5 370.5,-206.5 376,-212 376,-217.5 376,-217.5 376,-228.5 376,-228.5 376,-234 370.5,-239.5 365,-239.5 365,-239.5 195,-239.5 195,-239.5 189.5,-239.5 184,-234 184,-228.5 184,-228.5 184,-217.5 184,-217.5 184,-212 189.5,-206.5 195,-206.5"/>
</g>
<!-- _state_machine/Crouch -->
<g id="node3" class="node state regular">
<title>_state_machine/Crouch</title>
<polygon fill="#ffffff" fill-opacity="0.003922" stroke="transparent" stroke-width="2" points="319,-178 173,-178 173,-142 319,-142 319,-178"/>
<text text-anchor="start" x="184" y="-156.4" font-family="Helvetica,sans-Serif" font-size="12.00">_state_machine/Crouch</text>
<path fill="none" stroke="black" stroke-width="2" d="M185,-143.5C185,-143.5 307,-143.5 307,-143.5 312.5,-143.5 318,-149 318,-154.5 318,-154.5 318,-165.5 318,-165.5 318,-171 312.5,-176.5 307,-176.5 307,-176.5 185,-176.5 185,-176.5 179.5,-176.5 174,-171 174,-165.5 174,-165.5 174,-154.5 174,-154.5 174,-149 179.5,-143.5 185,-143.5"/>
</g>
<!-- _state_machine/CheckCrouched&#45;&gt;_state_machine/Crouch -->
<g id="edge2" class="edge transition">
<title>_state_machine/CheckCrouched&#45;&gt;_state_machine/Crouch</title>
<path fill="none" stroke="black" d="M270.35,-204.68C267.31,-199.23 263.88,-193.08 260.57,-187.15"/>
<polygon fill="black" stroke="black" points="263.48,-185.18 255.56,-178.15 257.37,-188.59 263.48,-185.18"/>
<text text-anchor="start" x="266" y="-189" font-family="Helvetica,sans-Serif" font-size="10.00">unknown &#160;&#160;</text>
</g>
<!-- _state_machine/StepSequence -->
<g id="node4" class="node state regular">
<title>_state_machine/StepSequence</title>
<polygon fill="#ffffff" fill-opacity="0.003922" stroke="transparent" stroke-width="2" points="479.5,-115 292.5,-115 292.5,-79 479.5,-79 479.5,-115"/>
<text text-anchor="start" x="304" y="-93.4" font-family="Helvetica,sans-Serif" font-size="12.00">_state_machine/StepSequence</text>
<path fill="none" stroke="black" stroke-width="2" d="M304.5,-80.5C304.5,-80.5 467.5,-80.5 467.5,-80.5 473,-80.5 478.5,-86 478.5,-91.5 478.5,-91.5 478.5,-102.5 478.5,-102.5 478.5,-108 473,-113.5 467.5,-113.5 467.5,-113.5 304.5,-113.5 304.5,-113.5 299,-113.5 293.5,-108 293.5,-102.5 293.5,-102.5 293.5,-91.5 293.5,-91.5 293.5,-86 299,-80.5 304.5,-80.5"/>
</g>
<!-- _state_machine/CheckCrouched&#45;&gt;_state_machine/StepSequence -->
<g id="edge1" class="edge transition">
<title>_state_machine/CheckCrouched&#45;&gt;_state_machine/StepSequence</title>
<path fill="none" stroke="black" d="M369.82,-204.94C409.77,-192.4 453.1,-170.85 477,-134 479.3,-130.45 480.3,-127.25 480.21,-124.36"/>
<polygon fill="black" stroke="black" points="483.24,-122.58 475.61,-115.23 476.99,-125.73 483.24,-122.58"/>
<text text-anchor="start" x="469" y="-157.5" font-family="Helvetica,sans-Serif" font-size="10.00">body_crouched &#160;&#160;</text>
</g>
<!-- _state_machine/Crouch&#45;&gt;_state_machine/StepSequence -->
<g id="edge3" class="edge transition">
<title>_state_machine/Crouch&#45;&gt;_state_machine/StepSequence</title>
<path fill="none" stroke="black" d="M289.86,-141.99C296.3,-139.37 302.84,-136.66 309,-134 319.58,-129.43 330.88,-124.3 341.46,-119.37"/>
<polygon fill="black" stroke="black" points="342.98,-122.53 350.55,-115.11 340.01,-116.19 342.98,-122.53"/>
<text text-anchor="start" x="332" y="-126" font-family="Helvetica,sans-Serif" font-size="10.00">success &#160;&#160;</text>
</g>
<!-- _state_machine/invalid_pose -->
<g id="node5" class="node state regular">
<title>_state_machine/invalid_pose</title>
<polygon fill="#ffffff" fill-opacity="0.003922" stroke="transparent" stroke-width="2" points="270.5,-115 95.5,-115 95.5,-79 270.5,-79 270.5,-115"/>
<text text-anchor="start" x="107" y="-93.4" font-family="Helvetica,sans-Serif" font-size="12.00">_state_machine/invalid_pose</text>
<path fill="none" stroke="black" stroke-width="2" d="M107.5,-80.5C107.5,-80.5 258.5,-80.5 258.5,-80.5 264,-80.5 269.5,-86 269.5,-91.5 269.5,-91.5 269.5,-102.5 269.5,-102.5 269.5,-108 264,-113.5 258.5,-113.5 258.5,-113.5 107.5,-113.5 107.5,-113.5 102,-113.5 96.5,-108 96.5,-102.5 96.5,-102.5 96.5,-91.5 96.5,-91.5 96.5,-86 102,-80.5 107.5,-80.5"/>
</g>
<!-- _state_machine/Crouch&#45;&gt;_state_machine/invalid_pose -->
<g id="edge4" class="edge transition">
<title>_state_machine/Crouch&#45;&gt;_state_machine/invalid_pose</title>
<path fill="none" stroke="black" d="M172.87,-149.92C155.11,-146.16 139.61,-141 134,-134 130.72,-129.9 130.56,-126.04 132.43,-122.48"/>
<polygon fill="black" stroke="black" points="135.02,-124.83 139.36,-115.17 129.94,-120.02 135.02,-124.83"/>
<text text-anchor="start" x="134" y="-126" font-family="Helvetica,sans-Serif" font-size="10.00">partial_movement &#160;&#160;</text>
</g>
<!-- _state_machine/Crouch&#45;&gt;_state_machine/invalid_pose -->
<g id="edge5" class="edge transition">
<title>_state_machine/Crouch&#45;&gt;_state_machine/invalid_pose</title>
<path fill="none" stroke="black" d="M172.92,-158.45C128.73,-156.38 78.25,-150.35 64,-134 60.79,-130.32 60.92,-126.8 64,-123 66.08,-120.44 74.24,-117.64 85.38,-114.87"/>
<polygon fill="black" stroke="black" points="86.42,-118.22 95.37,-112.55 84.84,-111.4 86.42,-118.22"/>
<text text-anchor="start" x="64" y="-126" font-family="Helvetica,sans-Serif" font-size="10.00">invalid_pose &#160;&#160;</text>
</g>
<!-- _state_machine/failed -->
<g id="node6" class="node state regular">
<title>_state_machine/failed</title>
<polygon fill="#ffffff" fill-opacity="0.003922" stroke="transparent" stroke-width="2" points="221.5,-52 84.5,-52 84.5,-16 221.5,-16 221.5,-52"/>
<text text-anchor="start" x="96" y="-30.4" font-family="Helvetica,sans-Serif" font-size="12.00">_state_machine/failed</text>
<path fill="none" stroke="black" stroke-width="2" d="M96.5,-17.5C96.5,-17.5 209.5,-17.5 209.5,-17.5 215,-17.5 220.5,-23 220.5,-28.5 220.5,-28.5 220.5,-39.5 220.5,-39.5 220.5,-45 215,-50.5 209.5,-50.5 209.5,-50.5 96.5,-50.5 96.5,-50.5 91,-50.5 85.5,-45 85.5,-39.5 85.5,-39.5 85.5,-28.5 85.5,-28.5 85.5,-23 91,-17.5 96.5,-17.5"/>
</g>
<!-- _state_machine/Crouch&#45;&gt;_state_machine/failed -->
<g id="edge6" class="edge transition">
<title>_state_machine/Crouch&#45;&gt;_state_machine/failed</title>
<path fill="none" stroke="black" d="M172.64,-156.7C127.5,-153.9 74.96,-147.7 57,-134 37.36,-119.01 35.35,-99.59 49,-79 55.6,-69.04 64.95,-61.33 75.37,-55.36"/>
<polygon fill="black" stroke="black" points="77.04,-58.44 84.33,-50.75 73.84,-52.21 77.04,-58.44"/>
<text text-anchor="start" x="49" y="-94.5" font-family="Helvetica,sans-Serif" font-size="10.00">failure &#160;&#160;</text>
</g>
<!-- _state_machine/StepSequence&#45;&gt;_state_machine/Crouch -->
<g id="edge8" class="edge transition">
<title>_state_machine/StepSequence&#45;&gt;_state_machine/Crouch</title>
<path fill="none" stroke="black" d="M388.18,-115.2C388.06,-121.85 386.63,-129.03 382,-134 374.09,-142.49 352.76,-148.14 329.26,-151.87"/>
<polygon fill="black" stroke="black" points="328.49,-148.45 319.1,-153.36 329.5,-155.38 328.49,-148.45"/>
<text text-anchor="start" x="387" y="-126" font-family="Helvetica,sans-Serif" font-size="10.00">partial_movement &#160;&#160;</text>
</g>
<!-- _state_machine/StepSequence&#45;&gt;_state_machine/Crouch -->
<g id="edge9" class="edge transition">
<title>_state_machine/StepSequence&#45;&gt;_state_machine/Crouch</title>
<path fill="none" stroke="black" d="M292.12,-113.72C265.04,-118.37 242.52,-122.39 242,-123 239.92,-125.47 238.84,-128.4 238.43,-131.5"/>
<polygon fill="black" stroke="black" points="234.95,-131.9 239.07,-141.66 241.94,-131.46 234.95,-131.9"/>
<text text-anchor="start" x="242" y="-126" font-family="Helvetica,sans-Serif" font-size="10.00">invalid_pose &#160;&#160;</text>
</g>
<!-- _state_machine/StepSequence&#45;&gt;_state_machine/failed -->
<g id="edge10" class="edge transition">
<title>_state_machine/StepSequence&#45;&gt;_state_machine/failed</title>
<path fill="none" stroke="black" d="M320.79,-78.93C292,-71.39 257.99,-62.49 228.15,-54.67"/>
<polygon fill="black" stroke="black" points="228.76,-51.22 218.2,-52.07 226.99,-57.99 228.76,-51.22"/>
<text text-anchor="start" x="290" y="-63" font-family="Helvetica,sans-Serif" font-size="10.00">failure &#160;&#160;</text>
</g>
<!-- _state_machine/finished -->
<g id="node7" class="node state regular">
<title>_state_machine/finished</title>
<polygon fill="#ffffff" fill-opacity="0.003922" stroke="transparent" stroke-width="2" points="460.5,-52 311.5,-52 311.5,-16 460.5,-16 460.5,-52"/>
<text text-anchor="start" x="323" y="-30.4" font-family="Helvetica,sans-Serif" font-size="12.00">_state_machine/finished</text>
<path fill="none" stroke="black" stroke-width="2" d="M323.5,-17.5C323.5,-17.5 448.5,-17.5 448.5,-17.5 454,-17.5 459.5,-23 459.5,-28.5 459.5,-28.5 459.5,-39.5 459.5,-39.5 459.5,-45 454,-50.5 448.5,-50.5 448.5,-50.5 323.5,-50.5 323.5,-50.5 318,-50.5 312.5,-45 312.5,-39.5 312.5,-39.5 312.5,-28.5 312.5,-28.5 312.5,-23 318,-17.5 323.5,-17.5"/>
</g>
<!-- _state_machine/StepSequence&#45;&gt;_state_machine/finished -->
<g id="edge7" class="edge transition">
<title>_state_machine/StepSequence&#45;&gt;_state_machine/finished</title>
<path fill="none" stroke="black" d="M386,-78.68C386,-73.62 386,-67.95 386,-62.42"/>
<polygon fill="black" stroke="black" points="389.5,-62.15 386,-52.15 382.5,-62.15 389.5,-62.15"/>
<text text-anchor="start" x="386" y="-63" font-family="Helvetica,sans-Serif" font-size="10.00">success &#160;&#160;</text>
</g>
</g>
</svg>
