<?xml version="1.0" encoding="UTF-8" standalone="no"?>
<!DOCTYPE svg PUBLIC "-//W3C//DTD SVG 1.1//EN"
 "http://www.w3.org/Graphics/SVG/1.1/DTD/svg11.dtd">
<!-- Generated by graphviz version 2.49.1 (20210923.0004)
 -->
<!-- Title: state transitions Pages: 1 -->
<svg width="1484pt" height="869pt"
 viewBox="0.00 0.00 1484.00 869.00" xmlns="http://www.w3.org/2000/svg" xmlns:xlink="http://www.w3.org/1999/xlink">
<g id="graph0" class="graph" transform="scale(1 1) rotate(0) translate(4 865)">
<title>state transitions</title>
<polygon fill="white" stroke="transparent" points="-4,4 -4,-865 1480,-865 1480,4 -4,4"/>
<g id="clust1" class="cluster state regular">
<title>cluster__sm_container_0</title>
<path fill="none" stroke="black" stroke-width="2" d="M20,-709C20,-709 707,-709 707,-709 713,-709 719,-715 719,-721 719,-721 719,-841 719,-841 719,-847 713,-853 707,-853 707,-853 20,-853 20,-853 14,-853 8,-847 8,-841 8,-841 8,-721 8,-721 8,-715 14,-709 20,-709"/>
<text text-anchor="start" x="318.5" y="-834.9" font-family="Helvetica,sans-Serif" font-size="12.00">_sm_container_0</text>
</g>
<g id="clust2" class="cluster state regular">
<title>cluster__state_machine</title>
<path fill="none" stroke="black" stroke-width="2" d="M739,-8C739,-8 1436,-8 1436,-8 1442,-8 1448,-14 1448,-20 1448,-20 1448,-841 1448,-841 1448,-847 1442,-853 1436,-853 1436,-853 739,-853 739,-853 733,-853 727,-847 727,-841 727,-841 727,-20 727,-20 727,-14 733,-8 739,-8"/>
<text text-anchor="start" x="1045.5" y="-834.9" font-family="Helvetica,sans-Serif" font-size="12.00">_state_machine</text>
</g>
<!-- _sm_container_0 -->
<!-- _sm_container_0/DWA -->
<g id="node2" class="node state regular">
<title>_sm_container_0/DWA</title>
<polygon fill="#ffffff" fill-opacity="0.003922" stroke="transparent" stroke-width="2" points="515.5,-816 370.5,-816 370.5,-780 515.5,-780 515.5,-816"/>
<text text-anchor="start" x="382" y="-794.4" font-family="Helvetica,sans-Serif" font-size="12.00">_sm_container_0/DWA</text>
<path fill="none" stroke="black" stroke-width="2" d="M382.5,-781.5C382.5,-781.5 503.5,-781.5 503.5,-781.5 509,-781.5 514.5,-787 514.5,-792.5 514.5,-792.5 514.5,-803.5 514.5,-803.5 514.5,-809 509,-814.5 503.5,-814.5 503.5,-814.5 382.5,-814.5 382.5,-814.5 377,-814.5 371.5,-809 371.5,-803.5 371.5,-803.5 371.5,-792.5 371.5,-792.5 371.5,-787 377,-781.5 382.5,-781.5"/>
</g>
<!-- _sm_container_0/finished -->
<g id="node4" class="node state regular">
<title>_sm_container_0/finished</title>
<polygon fill="#ffffff" fill-opacity="0.003922" stroke="transparent" stroke-width="2" points="348.5,-753 191.5,-753 191.5,-717 348.5,-717 348.5,-753"/>
<text text-anchor="start" x="203" y="-731.4" font-family="Helvetica,sans-Serif" font-size="12.00">_sm_container_0/finished</text>
<path fill="none" stroke="black" stroke-width="2" d="M203.5,-718.5C203.5,-718.5 336.5,-718.5 336.5,-718.5 342,-718.5 347.5,-724 347.5,-729.5 347.5,-729.5 347.5,-740.5 347.5,-740.5 347.5,-746 342,-751.5 336.5,-751.5 336.5,-751.5 203.5,-751.5 203.5,-751.5 198,-751.5 192.5,-746 192.5,-740.5 192.5,-740.5 192.5,-729.5 192.5,-729.5 192.5,-724 198,-718.5 203.5,-718.5"/>
</g>
<!-- _sm_container_0/DWA&#45;&gt;_sm_container_0/finished -->
<g id="edge1" class="edge transition">
<title>_sm_container_0/DWA&#45;&gt;_sm_container_0/finished</title>
<path fill="none" stroke="black" d="M394.35,-779.85C373.72,-772.57 349.52,-764.04 327.97,-756.44"/>
<polygon fill="black" stroke="black" points="328.88,-753.05 318.29,-753.03 326.55,-759.65 328.88,-753.05"/>
<text text-anchor="start" x="371" y="-764" font-family="Helvetica,sans-Serif" font-size="10.00">done &#160;&#160;</text>
</g>
<!-- _sm_container_0/failed -->
<g id="node5" class="node state regular">
<title>_sm_container_0/failed</title>
<polygon fill="#ffffff" fill-opacity="0.003922" stroke="transparent" stroke-width="2" points="515.5,-753 370.5,-753 370.5,-717 515.5,-717 515.5,-753"/>
<text text-anchor="start" x="382" y="-731.4" font-family="Helvetica,sans-Serif" font-size="12.00">_sm_container_0/failed</text>
<path fill="none" stroke="black" stroke-width="2" d="M382.5,-718.5C382.5,-718.5 503.5,-718.5 503.5,-718.5 509,-718.5 514.5,-724 514.5,-729.5 514.5,-729.5 514.5,-740.5 514.5,-740.5 514.5,-746 509,-751.5 503.5,-751.5 503.5,-751.5 382.5,-751.5 382.5,-751.5 377,-751.5 371.5,-746 371.5,-740.5 371.5,-740.5 371.5,-729.5 371.5,-729.5 371.5,-724 377,-718.5 382.5,-718.5"/>
</g>
<!-- _sm_container_0/DWA&#45;&gt;_sm_container_0/failed -->
<g id="edge2" class="edge transition">
<title>_sm_container_0/DWA&#45;&gt;_sm_container_0/failed</title>
<path fill="none" stroke="black" d="M443,-779.68C443,-774.62 443,-768.95 443,-763.42"/>
<polygon fill="black" stroke="black" points="446.5,-763.15 443,-753.15 439.5,-763.15 446.5,-763.15"/>
<text text-anchor="start" x="443" y="-764" font-family="Helvetica,sans-Serif" font-size="10.00">failed &#160;&#160;</text>
</g>
<!-- _sm_container_0/preempted -->
<g id="node6" class="node state regular">
<title>_sm_container_0/preempted</title>
<polygon fill="#ffffff" fill-opacity="0.003922" stroke="transparent" stroke-width="2" points="710.5,-753 537.5,-753 537.5,-717 710.5,-717 710.5,-753"/>
<text text-anchor="start" x="549" y="-731.4" font-family="Helvetica,sans-Serif" font-size="12.00">_sm_container_0/preempted</text>
<path fill="none" stroke="black" stroke-width="2" d="M549.5,-718.5C549.5,-718.5 698.5,-718.5 698.5,-718.5 704,-718.5 709.5,-724 709.5,-729.5 709.5,-729.5 709.5,-740.5 709.5,-740.5 709.5,-746 704,-751.5 698.5,-751.5 698.5,-751.5 549.5,-751.5 549.5,-751.5 544,-751.5 538.5,-746 538.5,-740.5 538.5,-740.5 538.5,-729.5 538.5,-729.5 538.5,-724 544,-718.5 549.5,-718.5"/>
</g>
<!-- _sm_container_0/DWA&#45;&gt;_sm_container_0/preempted -->
<g id="edge3" class="edge transition">
<title>_sm_container_0/DWA&#45;&gt;_sm_container_0/preempted</title>
<path fill="none" stroke="black" d="M493.9,-779.85C515.68,-772.51 541.26,-763.88 563.95,-756.24"/>
<polygon fill="black" stroke="black" points="565.12,-759.54 573.48,-753.03 562.89,-752.9 565.12,-759.54"/>
<text text-anchor="start" x="549" y="-764" font-family="Helvetica,sans-Serif" font-size="10.00">preempted &#160;&#160;</text>
</g>
<!-- _sm_container_0/Safety -->
<g id="node3" class="node state regular">
<title>_sm_container_0/Safety</title>
<polygon fill="#ffffff" fill-opacity="0.003922" stroke="transparent" stroke-width="2" points="187.5,-816 38.5,-816 38.5,-780 187.5,-780 187.5,-816"/>
<text text-anchor="start" x="50" y="-794.4" font-family="Helvetica,sans-Serif" font-size="12.00">_sm_container_0/Safety</text>
<path fill="none" stroke="black" stroke-width="2" d="M50.5,-781.5C50.5,-781.5 175.5,-781.5 175.5,-781.5 181,-781.5 186.5,-787 186.5,-792.5 186.5,-792.5 186.5,-803.5 186.5,-803.5 186.5,-809 181,-814.5 175.5,-814.5 175.5,-814.5 50.5,-814.5 50.5,-814.5 45,-814.5 39.5,-809 39.5,-803.5 39.5,-803.5 39.5,-792.5 39.5,-792.5 39.5,-787 45,-781.5 50.5,-781.5"/>
</g>
<!-- _sm_container_0/danger -->
<g id="node7" class="node state regular">
<title>_sm_container_0/danger</title>
<polygon fill="#ffffff" fill-opacity="0.003922" stroke="transparent" stroke-width="2" points="169.5,-753 16.5,-753 16.5,-717 169.5,-717 169.5,-753"/>
<text text-anchor="start" x="28" y="-731.4" font-family="Helvetica,sans-Serif" font-size="12.00">_sm_container_0/danger</text>
<path fill="none" stroke="black" stroke-width="2" d="M28.5,-718.5C28.5,-718.5 157.5,-718.5 157.5,-718.5 163,-718.5 168.5,-724 168.5,-729.5 168.5,-729.5 168.5,-740.5 168.5,-740.5 168.5,-746 163,-751.5 157.5,-751.5 157.5,-751.5 28.5,-751.5 28.5,-751.5 23,-751.5 17.5,-746 17.5,-740.5 17.5,-740.5 17.5,-729.5 17.5,-729.5 17.5,-724 23,-718.5 28.5,-718.5"/>
</g>
<!-- _sm_container_0/Safety&#45;&gt;_sm_container_0/danger -->
<g id="edge4" class="edge transition">
<title>_sm_container_0/Safety&#45;&gt;_sm_container_0/danger</title>
<path fill="none" stroke="black" d="M72.32,-779.66C69.87,-777.4 67.71,-774.85 66,-772 63.95,-768.58 63.79,-765.1 64.84,-761.71"/>
<polygon fill="black" stroke="black" points="67.88,-763.45 70.02,-753.08 61.87,-759.85 67.88,-763.45"/>
<text text-anchor="start" x="66" y="-764" font-family="Helvetica,sans-Serif" font-size="10.00">bumper &#160;&#160;</text>
</g>
<!-- _sm_container_0/Safety&#45;&gt;_sm_container_0/danger -->
<g id="edge5" class="edge transition">
<title>_sm_container_0/Safety&#45;&gt;_sm_container_0/danger</title>
<path fill="none" stroke="black" d="M112.69,-779.79C112.31,-775.33 111.63,-770.49 109.05,-762.8"/>
<polygon fill="black" stroke="black" points="112.24,-761.35 105.43,-753.23 105.69,-763.82 112.24,-761.35"/>
<text text-anchor="start" x="111" y="-764" font-family="Helvetica,sans-Serif" font-size="10.00">cliff &#160;&#160;</text>
</g>
<!-- _state_machine -->
<!-- _state_machine/ClearCostmap -->
<g id="node9" class="node state regular">
<title>_state_machine/ClearCostmap</title>
<polygon fill="#ffffff" fill-opacity="0.003922" stroke="transparent" stroke-width="2" points="1184.5,-816 999.5,-816 999.5,-780 1184.5,-780 1184.5,-816"/>
<text text-anchor="start" x="1011" y="-794.4" font-family="Helvetica,sans-Serif" font-size="12.00">_state_machine/ClearCostmap</text>
<path fill="none" stroke="black" stroke-width="2" d="M1011.5,-781.5C1011.5,-781.5 1172.5,-781.5 1172.5,-781.5 1178,-781.5 1183.5,-787 1183.5,-792.5 1183.5,-792.5 1183.5,-803.5 1183.5,-803.5 1183.5,-809 1178,-814.5 1172.5,-814.5 1172.5,-814.5 1011.5,-814.5 1011.5,-814.5 1006,-814.5 1000.5,-809 1000.5,-803.5 1000.5,-803.5 1000.5,-792.5 1000.5,-792.5 1000.5,-787 1006,-781.5 1011.5,-781.5"/>
</g>
<!-- _state_machine/ReceiveGoal -->
<g id="node19" class="node state regular">
<title>_state_machine/ReceiveGoal</title>
<polygon fill="#ffffff" fill-opacity="0.003922" stroke="transparent" stroke-width="2" points="1180,-753 1004,-753 1004,-717 1180,-717 1180,-753"/>
<text text-anchor="start" x="1015" y="-731.4" font-family="Helvetica,sans-Serif" font-size="12.00">_state_machine/ReceiveGoal</text>
<path fill="none" stroke="black" stroke-width="2" d="M1016,-718.5C1016,-718.5 1168,-718.5 1168,-718.5 1173.5,-718.5 1179,-724 1179,-729.5 1179,-729.5 1179,-740.5 1179,-740.5 1179,-746 1173.5,-751.5 1168,-751.5 1168,-751.5 1016,-751.5 1016,-751.5 1010.5,-751.5 1005,-746 1005,-740.5 1005,-740.5 1005,-729.5 1005,-729.5 1005,-724 1010.5,-718.5 1016,-718.5"/>
</g>
<!-- _state_machine/ClearCostmap&#45;&gt;_state_machine/ReceiveGoal -->
<g id="edge6" class="edge transition">
<title>_state_machine/ClearCostmap&#45;&gt;_state_machine/ReceiveGoal</title>
<path fill="none" stroke="black" d="M1092,-779.68C1092,-774.62 1092,-768.95 1092,-763.42"/>
<polygon fill="black" stroke="black" points="1095.5,-763.15 1092,-753.15 1088.5,-763.15 1095.5,-763.15"/>
<text text-anchor="start" x="1092" y="-764" font-family="Helvetica,sans-Serif" font-size="10.00">done &#160;&#160;</text>
</g>
<!-- _state_machine/failed -->
<g id="node24" class="node state regular">
<title>_state_machine/failed</title>
<polygon fill="#ffffff" fill-opacity="0.003922" stroke="transparent" stroke-width="2" points="1334.5,-178 1197.5,-178 1197.5,-142 1334.5,-142 1334.5,-178"/>
<text text-anchor="start" x="1209" y="-156.4" font-family="Helvetica,sans-Serif" font-size="12.00">_state_machine/failed</text>
<path fill="none" stroke="black" stroke-width="2" d="M1209.5,-143.5C1209.5,-143.5 1322.5,-143.5 1322.5,-143.5 1328,-143.5 1333.5,-149 1333.5,-154.5 1333.5,-154.5 1333.5,-165.5 1333.5,-165.5 1333.5,-171 1328,-176.5 1322.5,-176.5 1322.5,-176.5 1209.5,-176.5 1209.5,-176.5 1204,-176.5 1198.5,-171 1198.5,-165.5 1198.5,-165.5 1198.5,-154.5 1198.5,-154.5 1198.5,-149 1204,-143.5 1209.5,-143.5"/>
</g>
<!-- _state_machine/ClearCostmap&#45;&gt;_state_machine/failed -->
<g id="edge7" class="edge transition">
<title>_state_machine/ClearCostmap&#45;&gt;_state_machine/failed</title>
<path fill="none" stroke="black" d="M1184.61,-793.25C1262.07,-787.5 1360,-772.92 1360,-736 1360,-736 1360,-736 1360,-505.5 1360,-370.52 1380.39,-323.63 1316,-205 1312.01,-197.64 1306.27,-190.92 1300.1,-185.07"/>
<polygon fill="black" stroke="black" points="1301.98,-182.08 1292.14,-178.15 1297.39,-187.35 1301.98,-182.08"/>
<text text-anchor="start" x="1360" y="-472.5" font-family="Helvetica,sans-Serif" font-size="10.00">failed &#160;&#160;</text>
</g>
<!-- _state_machine/ReceivePath -->
<g id="node10" class="node state regular">
<title>_state_machine/ReceivePath</title>
<polygon fill="#ffffff" fill-opacity="0.003922" stroke="transparent" stroke-width="2" points="1015,-682 839,-682 839,-646 1015,-646 1015,-682"/>
<text text-anchor="start" x="850" y="-660.4" font-family="Helvetica,sans-Serif" font-size="12.00">_state_machine/ReceivePath</text>
<path fill="none" stroke="black" stroke-width="2" d="M851,-647.5C851,-647.5 1003,-647.5 1003,-647.5 1008.5,-647.5 1014,-653 1014,-658.5 1014,-658.5 1014,-669.5 1014,-669.5 1014,-675 1008.5,-680.5 1003,-680.5 1003,-680.5 851,-680.5 851,-680.5 845.5,-680.5 840,-675 840,-669.5 840,-669.5 840,-658.5 840,-658.5 840,-653 845.5,-647.5 851,-647.5"/>
</g>
<!-- _state_machine/ExecutePlan -->
<g id="node11" class="node state regular">
<title>_state_machine/ExecutePlan</title>
<polygon fill="#ffffff" fill-opacity="0.003922" stroke="transparent" stroke-width="2" points="1069,-619 895,-619 895,-583 1069,-583 1069,-619"/>
<text text-anchor="start" x="906" y="-597.4" font-family="Helvetica,sans-Serif" font-size="12.00">_state_machine/ExecutePlan</text>
<path fill="none" stroke="black" stroke-width="2" d="M907,-584.5C907,-584.5 1057,-584.5 1057,-584.5 1062.5,-584.5 1068,-590 1068,-595.5 1068,-595.5 1068,-606.5 1068,-606.5 1068,-612 1062.5,-617.5 1057,-617.5 1057,-617.5 907,-617.5 907,-617.5 901.5,-617.5 896,-612 896,-606.5 896,-606.5 896,-595.5 896,-595.5 896,-590 901.5,-584.5 907,-584.5"/>
</g>
<!-- _state_machine/ReceivePath&#45;&gt;_state_machine/ExecutePlan -->
<g id="edge8" class="edge transition">
<title>_state_machine/ReceivePath&#45;&gt;_state_machine/ExecutePlan</title>
<path fill="none" stroke="black" d="M942.61,-645.68C947.88,-639.84 953.87,-633.19 959.57,-626.88"/>
<polygon fill="black" stroke="black" points="962.44,-628.92 966.54,-619.15 957.24,-624.23 962.44,-628.92"/>
<text text-anchor="start" x="959" y="-630" font-family="Helvetica,sans-Serif" font-size="10.00">planned &#160;&#160;</text>
</g>
<!-- _state_machine/Continue -->
<g id="node13" class="node state regular">
<title>_state_machine/Continue</title>
<polygon fill="#ffffff" fill-opacity="0.003922" stroke="transparent" stroke-width="2" points="930.5,-430 775.5,-430 775.5,-394 930.5,-394 930.5,-430"/>
<text text-anchor="start" x="787" y="-408.4" font-family="Helvetica,sans-Serif" font-size="12.00">_state_machine/Continue</text>
<path fill="none" stroke="black" stroke-width="2" d="M787.5,-395.5C787.5,-395.5 918.5,-395.5 918.5,-395.5 924,-395.5 929.5,-401 929.5,-406.5 929.5,-406.5 929.5,-417.5 929.5,-417.5 929.5,-423 924,-428.5 918.5,-428.5 918.5,-428.5 787.5,-428.5 787.5,-428.5 782,-428.5 776.5,-423 776.5,-417.5 776.5,-417.5 776.5,-406.5 776.5,-406.5 776.5,-401 782,-395.5 787.5,-395.5"/>
</g>
<!-- _state_machine/ReceivePath&#45;&gt;_state_machine/Continue -->
<g id="edge9" class="edge transition">
<title>_state_machine/ReceivePath&#45;&gt;_state_machine/Continue</title>
<path fill="none" stroke="black" d="M907.37,-645.92C899.39,-638.26 890.53,-628.77 884,-619 867.07,-593.68 866.12,-585.06 857,-556 842.12,-508.61 835.7,-491.93 844.23,-440.1"/>
<polygon fill="black" stroke="black" points="847.72,-440.46 846,-430 840.83,-439.25 847.72,-440.46"/>
<text text-anchor="start" x="857" y="-535.5" font-family="Helvetica,sans-Serif" font-size="10.00">empty &#160;&#160;</text>
</g>
<!-- _state_machine/ReceivePath&#45;&gt;_state_machine/Continue -->
<g id="edge10" class="edge transition">
<title>_state_machine/ReceivePath&#45;&gt;_state_machine/Continue</title>
<path fill="none" stroke="black" d="M897.36,-645.93C893.17,-643.35 888.94,-640.66 885,-638 873.43,-630.2 870.02,-628.72 860,-619 858.38,-617.43 809.75,-558.12 809,-556 794.69,-515.57 817.14,-467.8 834.89,-438.98"/>
<polygon fill="black" stroke="black" points="837.99,-440.63 840.44,-430.32 832.1,-436.85 837.99,-440.63"/>
<text text-anchor="start" x="809" y="-535.5" font-family="Helvetica,sans-Serif" font-size="10.00">failed &#160;&#160;</text>
</g>
<!-- _state_machine/Container -->
<g id="node12" class="node state regular">
<title>_state_machine/Container</title>
<polygon fill="#ffffff" fill-opacity="0.003922" stroke="transparent" stroke-width="2" points="1215,-556 1055,-556 1055,-520 1215,-520 1215,-556"/>
<text text-anchor="start" x="1066" y="-534.4" font-family="Helvetica,sans-Serif" font-size="12.00">_state_machine/Container</text>
<path fill="none" stroke="red" stroke-width="2" d="M1067,-521.5C1067,-521.5 1203,-521.5 1203,-521.5 1208.5,-521.5 1214,-527 1214,-532.5 1214,-532.5 1214,-543.5 1214,-543.5 1214,-549 1208.5,-554.5 1203,-554.5 1203,-554.5 1067,-554.5 1067,-554.5 1061.5,-554.5 1056,-549 1056,-543.5 1056,-543.5 1056,-532.5 1056,-532.5 1056,-527 1061.5,-521.5 1067,-521.5"/>
</g>
<!-- _state_machine/ExecutePlan&#45;&gt;_state_machine/Container -->
<g id="edge11" class="edge transition">
<title>_state_machine/ExecutePlan&#45;&gt;_state_machine/Container</title>
<path fill="none" stroke="black" d="M1040.48,-582.88C1047.79,-580.41 1055.11,-577.76 1062,-575 1072.55,-570.78 1083.67,-565.66 1093.96,-560.62"/>
<polygon fill="black" stroke="black" points="1095.76,-563.64 1103.15,-556.05 1092.64,-557.38 1095.76,-563.64"/>
<text text-anchor="start" x="1086" y="-567" font-family="Helvetica,sans-Serif" font-size="10.00">yes &#160;&#160;</text>
</g>
<!-- _state_machine/ExecutePlan&#45;&gt;_state_machine/Continue -->
<g id="edge12" class="edge transition">
<title>_state_machine/ExecutePlan&#45;&gt;_state_machine/Continue</title>
<path fill="none" stroke="black" d="M968,-582.92C952.66,-565.13 926.54,-537.48 899,-520 890.57,-514.65 886.45,-517.32 878,-512 867.62,-505.47 863.59,-503.91 858,-493 849.81,-477 848.61,-456.77 849.43,-440.66"/>
<polygon fill="black" stroke="black" points="852.96,-440.52 850.27,-430.27 845.98,-439.96 852.96,-440.52"/>
<text text-anchor="start" x="878" y="-504" font-family="Helvetica,sans-Serif" font-size="10.00">no &#160;&#160;</text>
</g>
<!-- _state_machine/Container&#45;&gt;_state_machine/Continue -->
<g id="edge16" class="edge transition">
<title>_state_machine/Container&#45;&gt;_state_machine/Continue</title>
<path fill="none" stroke="black" d="M1054.98,-530.89C992.98,-524.69 913.49,-513.08 888,-493 871.58,-480.06 862.69,-457.84 857.99,-440.1"/>
<polygon fill="black" stroke="black" points="861.37,-439.2 855.68,-430.27 854.56,-440.81 861.37,-439.2"/>
<text text-anchor="start" x="888" y="-472.5" font-family="Helvetica,sans-Serif" font-size="10.00">preempted &#160;&#160;</text>
</g>
<!-- _state_machine/LogSuccess -->
<g id="node15" class="node state regular">
<title>_state_machine/LogSuccess</title>
<polygon fill="#ffffff" fill-opacity="0.003922" stroke="transparent" stroke-width="2" points="1128,-493 954,-493 954,-457 1128,-457 1128,-493"/>
<text text-anchor="start" x="965" y="-471.4" font-family="Helvetica,sans-Serif" font-size="12.00">_state_machine/LogSuccess</text>
<path fill="none" stroke="black" stroke-width="2" d="M966,-458.5C966,-458.5 1116,-458.5 1116,-458.5 1121.5,-458.5 1127,-464 1127,-469.5 1127,-469.5 1127,-480.5 1127,-480.5 1127,-486 1121.5,-491.5 1116,-491.5 1116,-491.5 966,-491.5 966,-491.5 960.5,-491.5 955,-486 955,-480.5 955,-480.5 955,-469.5 955,-469.5 955,-464 960.5,-458.5 966,-458.5"/>
</g>
<!-- _state_machine/Container&#45;&gt;_state_machine/LogSuccess -->
<g id="edge13" class="edge transition">
<title>_state_machine/Container&#45;&gt;_state_machine/LogSuccess</title>
<path fill="none" stroke="black" d="M1108.57,-519.85C1098.37,-513.23 1086.56,-505.57 1075.7,-498.52"/>
<polygon fill="black" stroke="black" points="1077.53,-495.53 1067.24,-493.03 1073.72,-501.41 1077.53,-495.53"/>
<text text-anchor="start" x="1096" y="-504" font-family="Helvetica,sans-Serif" font-size="10.00">finished &#160;&#160;</text>
</g>
<!-- _state_machine/AutoReplan -->
<g id="node22" class="node state regular">
<title>_state_machine/AutoReplan</title>
<polygon fill="#ffffff" fill-opacity="0.003922" stroke="transparent" stroke-width="2" points="1094,-178 924,-178 924,-142 1094,-142 1094,-178"/>
<text text-anchor="start" x="935" y="-156.4" font-family="Helvetica,sans-Serif" font-size="12.00">_state_machine/AutoReplan</text>
<path fill="none" stroke="black" stroke-width="2" d="M936,-143.5C936,-143.5 1082,-143.5 1082,-143.5 1087.5,-143.5 1093,-149 1093,-154.5 1093,-154.5 1093,-165.5 1093,-165.5 1093,-171 1087.5,-176.5 1082,-176.5 1082,-176.5 936,-176.5 936,-176.5 930.5,-176.5 925,-171 925,-165.5 925,-165.5 925,-154.5 925,-154.5 925,-149 930.5,-143.5 936,-143.5"/>
</g>
<!-- _state_machine/Container&#45;&gt;_state_machine/AutoReplan -->
<g id="edge14" class="edge transition">
<title>_state_machine/Container&#45;&gt;_state_machine/AutoReplan</title>
<path fill="none" stroke="black" d="M1142,-520C1142.83,-517.36 1143.54,-514.64 1144,-512 1146.96,-495.02 1143.71,-463.39 1139,-457 1109.48,-416.95 961.21,-408.66 934,-367 895.45,-307.97 951.96,-226.51 986.14,-185.99"/>
<polygon fill="black" stroke="black" points="988.96,-188.07 992.85,-178.21 983.67,-183.5 988.96,-188.07"/>
<text text-anchor="start" x="934" y="-346.5" font-family="Helvetica,sans-Serif" font-size="10.00">failed &#160;&#160;</text>
</g>
<!-- _state_machine/EStop -->
<g id="node23" class="node state regular">
<title>_state_machine/EStop</title>
<polygon fill="#ffffff" fill-opacity="0.003922" stroke="transparent" stroke-width="2" points="1316,-493 1174,-493 1174,-457 1316,-457 1316,-493"/>
<text text-anchor="start" x="1185" y="-471.4" font-family="Helvetica,sans-Serif" font-size="12.00">_state_machine/EStop</text>
<path fill="none" stroke="black" stroke-width="2" d="M1186,-458.5C1186,-458.5 1304,-458.5 1304,-458.5 1309.5,-458.5 1315,-464 1315,-469.5 1315,-469.5 1315,-480.5 1315,-480.5 1315,-486 1309.5,-491.5 1304,-491.5 1304,-491.5 1186,-491.5 1186,-491.5 1180.5,-491.5 1175,-486 1175,-480.5 1175,-480.5 1175,-469.5 1175,-469.5 1175,-464 1180.5,-458.5 1186,-458.5"/>
</g>
<!-- _state_machine/Container&#45;&gt;_state_machine/EStop -->
<g id="edge15" class="edge transition">
<title>_state_machine/Container&#45;&gt;_state_machine/EStop</title>
<path fill="none" stroke="black" d="M1165.93,-519.85C1178.22,-513.03 1192.51,-505.11 1205.53,-497.89"/>
<polygon fill="black" stroke="black" points="1207.25,-500.94 1214.3,-493.03 1203.86,-494.81 1207.25,-500.94"/>
<text text-anchor="start" x="1199" y="-504" font-family="Helvetica,sans-Serif" font-size="10.00">danger &#160;&#160;</text>
</g>
<!-- _state_machine/Continue&#45;&gt;_state_machine/ClearCostmap -->
<g id="edge20" class="edge transition">
<title>_state_machine/Continue&#45;&gt;_state_machine/ClearCostmap</title>
<path fill="none" stroke="black" d="M829.13,-430.2C820.23,-437.61 810.68,-446.89 804,-457 771.04,-506.86 767.61,-524.18 757,-583 753.17,-604.21 757,-609.94 757,-631.5 757,-736 757,-736 757,-736 757,-759.9 890.65,-777.94 989.12,-787.99"/>
<polygon fill="black" stroke="black" points="988.83,-791.48 999.13,-789 989.53,-784.52 988.83,-791.48"/>
<text text-anchor="start" x="757" y="-598.5" font-family="Helvetica,sans-Serif" font-size="10.00">clearcostmap &#160;&#160;</text>
</g>
<!-- _state_machine/Continue&#45;&gt;_state_machine/ReceiveGoal -->
<g id="edge17" class="edge transition">
<title>_state_machine/Continue&#45;&gt;_state_machine/ReceiveGoal</title>
<path fill="none" stroke="black" d="M890.61,-430.08C903.04,-437.09 916.18,-446.13 926,-457 937.86,-470.13 932.52,-478.74 943,-493 974.85,-536.34 983.68,-551.37 1032,-575 1051.43,-584.5 1065.38,-567.06 1080,-583 1110.64,-616.39 1105.47,-673.26 1098.81,-706.86"/>
<polygon fill="black" stroke="black" points="1095.33,-706.38 1096.64,-716.9 1102.17,-707.86 1095.33,-706.38"/>
<text text-anchor="start" x="1032" y="-567" font-family="Helvetica,sans-Serif" font-size="10.00">yes &#160;&#160;</text>
</g>
<!-- _state_machine/LogRecovery -->
<g id="node21" class="node state regular">
<title>_state_machine/LogRecovery</title>
<polygon fill="#ffffff" fill-opacity="0.003922" stroke="transparent" stroke-width="2" points="1305,-304 1127,-304 1127,-268 1305,-268 1305,-304"/>
<text text-anchor="start" x="1138" y="-282.4" font-family="Helvetica,sans-Serif" font-size="12.00">_state_machine/LogRecovery</text>
<path fill="none" stroke="black" stroke-width="2" d="M1139,-269.5C1139,-269.5 1293,-269.5 1293,-269.5 1298.5,-269.5 1304,-275 1304,-280.5 1304,-280.5 1304,-291.5 1304,-291.5 1304,-297 1298.5,-302.5 1293,-302.5 1293,-302.5 1139,-302.5 1139,-302.5 1133.5,-302.5 1128,-297 1128,-291.5 1128,-291.5 1128,-280.5 1128,-280.5 1128,-275 1133.5,-269.5 1139,-269.5"/>
</g>
<!-- _state_machine/Continue&#45;&gt;_state_machine/LogRecovery -->
<g id="edge19" class="edge transition">
<title>_state_machine/Continue&#45;&gt;_state_machine/LogRecovery</title>
<path fill="none" stroke="black" d="M930.86,-405.72C1031.7,-398.82 1195.02,-387.46 1198,-386 1222.7,-373.87 1223.82,-339.19 1221.02,-314.3"/>
<polygon fill="black" stroke="black" points="1224.48,-313.76 1219.64,-304.33 1217.55,-314.71 1224.48,-313.76"/>
<text text-anchor="start" x="1222" y="-346.5" font-family="Helvetica,sans-Serif" font-size="10.00">recover &#160;&#160;</text>
</g>
<!-- _state_machine/finished -->
<g id="node25" class="node state regular">
<title>_state_machine/finished</title>
<polygon fill="#ffffff" fill-opacity="0.003922" stroke="transparent" stroke-width="2" points="1104.5,-304 955.5,-304 955.5,-268 1104.5,-268 1104.5,-304"/>
<text text-anchor="start" x="967" y="-282.4" font-family="Helvetica,sans-Serif" font-size="12.00">_state_machine/finished</text>
<path fill="none" stroke="black" stroke-width="2" d="M967.5,-269.5C967.5,-269.5 1092.5,-269.5 1092.5,-269.5 1098,-269.5 1103.5,-275 1103.5,-280.5 1103.5,-280.5 1103.5,-291.5 1103.5,-291.5 1103.5,-297 1098,-302.5 1092.5,-302.5 1092.5,-302.5 967.5,-302.5 967.5,-302.5 962,-302.5 956.5,-297 956.5,-291.5 956.5,-291.5 956.5,-280.5 956.5,-280.5 956.5,-275 962,-269.5 967.5,-269.5"/>
</g>
<!-- _state_machine/Continue&#45;&gt;_state_machine/finished -->
<g id="edge18" class="edge transition">
<title>_state_machine/Continue&#45;&gt;_state_machine/finished</title>
<path fill="none" stroke="black" d="M918.91,-393.99C936.89,-387.4 955.64,-378.58 971,-367 989.95,-352.71 1005.57,-330.68 1015.96,-313.36"/>
<polygon fill="black" stroke="black" points="1019.23,-314.71 1021.19,-304.3 1013.16,-311.21 1019.23,-314.71"/>
<text text-anchor="start" x="1003" y="-346.5" font-family="Helvetica,sans-Serif" font-size="10.00">no &#160;&#160;</text>
</g>
<!-- _state_machine/TurtlebotSimpleRecovery -->
<g id="node14" class="node state regular">
<title>_state_machine/TurtlebotSimpleRecovery</title>
<polygon fill="#ffffff" fill-opacity="0.003922" stroke="transparent" stroke-width="2" points="1304.5,-241 1065.5,-241 1065.5,-205 1304.5,-205 1304.5,-241"/>
<text text-anchor="start" x="1077" y="-219.4" font-family="Helvetica,sans-Serif" font-size="12.00">_state_machine/TurtlebotSimpleRecovery</text>
<path fill="none" stroke="black" stroke-width="2" d="M1077.5,-206.5C1077.5,-206.5 1292.5,-206.5 1292.5,-206.5 1298,-206.5 1303.5,-212 1303.5,-217.5 1303.5,-217.5 1303.5,-228.5 1303.5,-228.5 1303.5,-234 1298,-239.5 1292.5,-239.5 1292.5,-239.5 1077.5,-239.5 1077.5,-239.5 1072,-239.5 1066.5,-234 1066.5,-228.5 1066.5,-228.5 1066.5,-217.5 1066.5,-217.5 1066.5,-212 1072,-206.5 1077.5,-206.5"/>
</g>
<!-- _state_machine/TurtlebotSimpleRecovery&#45;&gt;_state_machine/AutoReplan -->
<g id="edge21" class="edge transition">
<title>_state_machine/TurtlebotSimpleRecovery&#45;&gt;_state_machine/AutoReplan</title>
<path fill="none" stroke="black" d="M1135.51,-204.85C1114.43,-197.54 1089.68,-188.96 1067.68,-181.34"/>
<polygon fill="black" stroke="black" points="1068.72,-177.99 1058.12,-178.03 1066.43,-184.61 1068.72,-177.99"/>
<text text-anchor="start" x="1112" y="-189" font-family="Helvetica,sans-Serif" font-size="10.00">finished &#160;&#160;</text>
</g>
<!-- _state_machine/TurtlebotSimpleRecovery&#45;&gt;_state_machine/failed -->
<g id="edge22" class="edge transition">
<title>_state_machine/TurtlebotSimpleRecovery&#45;&gt;_state_machine/failed</title>
<path fill="none" stroke="black" d="M1207.99,-204.68C1216.45,-198.32 1226.16,-191.01 1235.18,-184.21"/>
<polygon fill="black" stroke="black" points="1237.35,-186.96 1243.23,-178.15 1233.13,-181.37 1237.35,-186.96"/>
<text text-anchor="start" x="1232" y="-189" font-family="Helvetica,sans-Serif" font-size="10.00">failed &#160;&#160;</text>
</g>
<!-- _state_machine/LogSuccess&#45;&gt;_state_machine/Continue -->
<g id="edge23" class="edge transition">
<title>_state_machine/LogSuccess&#45;&gt;_state_machine/Continue</title>
<path fill="none" stroke="black" d="M993.25,-456.98C975.63,-450.83 955.46,-443.94 937,-438 931.84,-436.34 926.49,-434.66 921.1,-432.99"/>
<polygon fill="black" stroke="black" points="921.98,-429.6 911.39,-430.02 919.93,-436.29 921.98,-429.6"/>
<text text-anchor="start" x="968" y="-441" font-family="Helvetica,sans-Serif" font-size="10.00">done &#160;&#160;</text>
</g>
<!-- _state_machine/LogFail -->
<g id="node16" class="node state regular">
<title>_state_machine/LogFail</title>
<polygon fill="#ffffff" fill-opacity="0.003922" stroke="transparent" stroke-width="2" points="1260.5,-430 1111.5,-430 1111.5,-394 1260.5,-394 1260.5,-430"/>
<text text-anchor="start" x="1123" y="-408.4" font-family="Helvetica,sans-Serif" font-size="12.00">_state_machine/LogFail</text>
<path fill="none" stroke="black" stroke-width="2" d="M1123.5,-395.5C1123.5,-395.5 1248.5,-395.5 1248.5,-395.5 1254,-395.5 1259.5,-401 1259.5,-406.5 1259.5,-406.5 1259.5,-417.5 1259.5,-417.5 1259.5,-423 1254,-428.5 1248.5,-428.5 1248.5,-428.5 1123.5,-428.5 1123.5,-428.5 1118,-428.5 1112.5,-423 1112.5,-417.5 1112.5,-417.5 1112.5,-406.5 1112.5,-406.5 1112.5,-401 1118,-395.5 1123.5,-395.5"/>
</g>
<!-- _state_machine/Recover -->
<g id="node20" class="node state regular">
<title>_state_machine/Recover</title>
<polygon fill="#ffffff" fill-opacity="0.003922" stroke="transparent" stroke-width="2" points="1204,-367 1052,-367 1052,-331 1204,-331 1204,-367"/>
<text text-anchor="start" x="1063" y="-345.4" font-family="Helvetica,sans-Serif" font-size="12.00">_state_machine/Recover</text>
<path fill="none" stroke="black" stroke-width="2" d="M1064,-332.5C1064,-332.5 1192,-332.5 1192,-332.5 1197.5,-332.5 1203,-338 1203,-343.5 1203,-343.5 1203,-354.5 1203,-354.5 1203,-360 1197.5,-365.5 1192,-365.5 1192,-365.5 1064,-365.5 1064,-365.5 1058.5,-365.5 1053,-360 1053,-354.5 1053,-354.5 1053,-343.5 1053,-343.5 1053,-338 1058.5,-332.5 1064,-332.5"/>
</g>
<!-- _state_machine/LogFail&#45;&gt;_state_machine/Recover -->
<g id="edge24" class="edge transition">
<title>_state_machine/LogFail&#45;&gt;_state_machine/Recover</title>
<path fill="none" stroke="black" d="M1169.53,-393.68C1163.85,-387.71 1157.38,-380.9 1151.26,-374.46"/>
<polygon fill="black" stroke="black" points="1153.73,-371.98 1144.31,-367.15 1148.66,-376.81 1153.73,-371.98"/>
<text text-anchor="start" x="1162" y="-378" font-family="Helvetica,sans-Serif" font-size="10.00">done &#160;&#160;</text>
</g>
<!-- _state_machine/LogRecovered -->
<g id="node17" class="node state regular">
<title>_state_machine/LogRecovered</title>
<polygon fill="#ffffff" fill-opacity="0.003922" stroke="transparent" stroke-width="2" points="1226,-115 1040,-115 1040,-79 1226,-79 1226,-115"/>
<text text-anchor="start" x="1051" y="-93.4" font-family="Helvetica,sans-Serif" font-size="12.00">_state_machine/LogRecovered</text>
<path fill="none" stroke="black" stroke-width="2" d="M1052,-80.5C1052,-80.5 1214,-80.5 1214,-80.5 1219.5,-80.5 1225,-86 1225,-91.5 1225,-91.5 1225,-102.5 1225,-102.5 1225,-108 1219.5,-113.5 1214,-113.5 1214,-113.5 1052,-113.5 1052,-113.5 1046.5,-113.5 1041,-108 1041,-102.5 1041,-102.5 1041,-91.5 1041,-91.5 1041,-86 1046.5,-80.5 1052,-80.5"/>
</g>
<!-- _state_machine/NewPlan -->
<g id="node18" class="node state regular">
<title>_state_machine/NewPlan</title>
<polygon fill="#ffffff" fill-opacity="0.003922" stroke="transparent" stroke-width="2" points="1325.5,-52 1170.5,-52 1170.5,-16 1325.5,-16 1325.5,-52"/>
<text text-anchor="start" x="1182" y="-30.4" font-family="Helvetica,sans-Serif" font-size="12.00">_state_machine/NewPlan</text>
<path fill="none" stroke="black" stroke-width="2" d="M1182.5,-17.5C1182.5,-17.5 1313.5,-17.5 1313.5,-17.5 1319,-17.5 1324.5,-23 1324.5,-28.5 1324.5,-28.5 1324.5,-39.5 1324.5,-39.5 1324.5,-45 1319,-50.5 1313.5,-50.5 1313.5,-50.5 1182.5,-50.5 1182.5,-50.5 1177,-50.5 1171.5,-45 1171.5,-39.5 1171.5,-39.5 1171.5,-28.5 1171.5,-28.5 1171.5,-23 1177,-17.5 1182.5,-17.5"/>
</g>
<!-- _state_machine/LogRecovered&#45;&gt;_state_machine/NewPlan -->
<g id="edge25" class="edge transition">
<title>_state_machine/LogRecovered&#45;&gt;_state_machine/NewPlan</title>
<path fill="none" stroke="black" d="M1165.34,-78.85C1178.19,-72.03 1193.12,-64.11 1206.73,-56.89"/>
<polygon fill="black" stroke="black" points="1208.71,-59.8 1215.9,-52.03 1205.43,-53.62 1208.71,-59.8"/>
<text text-anchor="start" x="1200" y="-63" font-family="Helvetica,sans-Serif" font-size="10.00">done &#160;&#160;</text>
</g>
<!-- _state_machine/NewPlan&#45;&gt;_state_machine/Container -->
<g id="edge26" class="edge transition">
<title>_state_machine/NewPlan&#45;&gt;_state_machine/Container</title>
<path fill="none" stroke="black" d="M1325.74,-46.68C1351.16,-55.27 1373,-70.16 1373,-96 1373,-287 1373,-287 1373,-287 1373,-331.08 1372.22,-342.44 1379,-386 1384.01,-418.17 1392.97,-424.7 1397,-457 1398.98,-472.88 1407.33,-480.79 1397,-493 1375.11,-518.87 1292.02,-529.54 1225.2,-533.93"/>
<polygon fill="black" stroke="black" points="1224.81,-530.45 1215.05,-534.56 1225.24,-537.44 1224.81,-530.45"/>
<text text-anchor="start" x="1373" y="-283.5" font-family="Helvetica,sans-Serif" font-size="10.00">planned &#160;&#160;</text>
</g>
<!-- _state_machine/NewPlan&#45;&gt;_state_machine/Continue -->
<g id="edge28" class="edge transition">
<title>_state_machine/NewPlan&#45;&gt;_state_machine/Continue</title>
<path fill="none" stroke="black" d="M1170.13,-38.72C1050.2,-45.51 834,-62.4 834,-96 834,-350 834,-350 834,-350 834,-361.6 837.17,-373.9 840.92,-384.4"/>
<polygon fill="black" stroke="black" points="837.71,-385.79 844.61,-393.82 844.23,-383.24 837.71,-385.79"/>
<text text-anchor="start" x="834" y="-220.5" font-family="Helvetica,sans-Serif" font-size="10.00">failed &#160;&#160;</text>
</g>
<!-- _state_machine/NewPlan&#45;&gt;_state_machine/ReceiveGoal -->
<g id="edge27" class="edge transition">
<title>_state_machine/NewPlan&#45;&gt;_state_machine/ReceiveGoal</title>
<path fill="none" stroke="black" d="M1325.69,-45.42C1378.57,-54.77 1439,-70.94 1439,-96 1439,-255.5 1439,-255.5 1439,-255.5 1439,-366.61 1439,-394.39 1439,-505.5 1439,-665 1439,-665 1439,-665 1439,-716.05 1292.72,-729.89 1190.11,-733.33"/>
<polygon fill="black" stroke="black" points="1189.9,-729.83 1180.01,-733.64 1190.11,-736.83 1189.9,-729.83"/>
<text text-anchor="start" x="1439" y="-378" font-family="Helvetica,sans-Serif" font-size="10.00">empty &#160;&#160;</text>
</g>
<!-- _state_machine/ReceiveGoal&#45;&gt;_state_machine/ReceivePath -->
<g id="edge29" class="edge transition">
<title>_state_machine/ReceiveGoal&#45;&gt;_state_machine/ReceivePath</title>
<path fill="none" stroke="black" d="M1051.21,-716.94C1028.9,-707.61 1001.07,-695.97 977.41,-686.08"/>
<polygon fill="black" stroke="black" points="978.47,-682.73 967.89,-682.1 975.76,-689.19 978.47,-682.73"/>
<text text-anchor="start" x="1009" y="-693" font-family="Helvetica,sans-Serif" font-size="10.00">done &#160;&#160;</text>
</g>
<!-- _state_machine/Recover&#45;&gt;_state_machine/LogRecovery -->
<g id="edge30" class="edge transition">
<title>_state_machine/Recover&#45;&gt;_state_machine/LogRecovery</title>
<path fill="none" stroke="black" d="M1152.98,-330.68C1162.26,-324.25 1172.93,-316.86 1182.82,-310"/>
<polygon fill="black" stroke="black" points="1185.04,-312.72 1191.26,-304.15 1181.05,-306.97 1185.04,-312.72"/>
<text text-anchor="start" x="1179" y="-315" font-family="Helvetica,sans-Serif" font-size="10.00">yes &#160;&#160;</text>
</g>
<!-- _state_machine/Recover&#45;&gt;_state_machine/finished -->
<g id="edge31" class="edge transition">
<title>_state_machine/Recover&#45;&gt;_state_machine/finished</title>
<path fill="none" stroke="black" d="M1100.44,-330.85C1089.81,-324.23 1077.5,-316.57 1066.17,-309.52"/>
<polygon fill="black" stroke="black" points="1067.69,-306.34 1057.35,-304.03 1063.99,-312.28 1067.69,-306.34"/>
<text text-anchor="start" x="1087" y="-315" font-family="Helvetica,sans-Serif" font-size="10.00">no &#160;&#160;</text>
</g>
<!-- _state_machine/LogRecovery&#45;&gt;_state_machine/TurtlebotSimpleRecovery -->
<g id="edge32" class="edge transition">
<title>_state_machine/LogRecovery&#45;&gt;_state_machine/TurtlebotSimpleRecovery</title>
<path fill="none" stroke="black" d="M1207.2,-267.68C1204.43,-262.23 1201.3,-256.08 1198.29,-250.15"/>
<polygon fill="black" stroke="black" points="1201.37,-248.48 1193.72,-241.15 1195.13,-251.65 1201.37,-248.48"/>
<text text-anchor="start" x="1203" y="-252" font-family="Helvetica,sans-Serif" font-size="10.00">done &#160;&#160;</text>
</g>
<!-- _state_machine/AutoReplan&#45;&gt;_state_machine/Continue -->
<g id="edge34" class="edge transition">
<title>_state_machine/AutoReplan&#45;&gt;_state_machine/Continue</title>
<path fill="none" stroke="black" d="M923.71,-177.85C904.16,-186.88 889,-200.73 889,-222 889,-350 889,-350 889,-350 889,-362.87 882.98,-375.42 875.86,-385.75"/>
<polygon fill="black" stroke="black" points="872.97,-383.78 869.74,-393.87 878.55,-388 872.97,-383.78"/>
<text text-anchor="start" x="889" y="-283.5" font-family="Helvetica,sans-Serif" font-size="10.00">no &#160;&#160;</text>
</g>
<!-- _state_machine/AutoReplan&#45;&gt;_state_machine/LogRecovered -->
<g id="edge33" class="edge transition">
<title>_state_machine/AutoReplan&#45;&gt;_state_machine/LogRecovered</title>
<path fill="none" stroke="black" d="M1043.87,-141.85C1057.99,-134.9 1074.45,-126.8 1089.35,-119.47"/>
<polygon fill="black" stroke="black" points="1090.96,-122.58 1098.39,-115.03 1087.87,-116.3 1090.96,-122.58"/>
<text text-anchor="start" x="1082" y="-126" font-family="Helvetica,sans-Serif" font-size="10.00">yes &#160;&#160;</text>
</g>
<!-- _state_machine/EStop&#45;&gt;_state_machine/LogFail -->
<g id="edge35" class="edge transition">
<title>_state_machine/EStop&#45;&gt;_state_machine/LogFail</title>
<path fill="none" stroke="black" d="M1234.06,-456.7C1229.74,-450.48 1224.5,-443.62 1219,-438 1218.67,-437.67 1218.34,-437.33 1218.01,-437"/>
<polygon fill="black" stroke="black" points="1220.26,-434.32 1210.49,-430.23 1215.58,-439.53 1220.26,-434.32"/>
<text text-anchor="start" x="1227" y="-441" font-family="Helvetica,sans-Serif" font-size="10.00">done &#160;&#160;</text>
</g>
<!-- _state_machine/EStop&#45;&gt;_state_machine/LogFail -->
<g id="edge36" class="edge transition">
<title>_state_machine/EStop&#45;&gt;_state_machine/LogFail</title>
<path fill="none" stroke="black" d="M1189.03,-456.78C1186.37,-454.5 1183.98,-451.92 1182,-449 1180.22,-446.38 1179.3,-443.4 1178.96,-440.29"/>
<polygon fill="black" stroke="black" points="1182.45,-440.47 1179.56,-430.28 1175.47,-440.05 1182.45,-440.47"/>
<text text-anchor="start" x="1182" y="-441" font-family="Helvetica,sans-Serif" font-size="10.00">failed &#160;&#160;</text>
</g>
</g>
</svg>
