<?xml version="1.0" encoding="UTF-8" standalone="no"?>
<!DOCTYPE svg PUBLIC "-//W3C//DTD SVG 1.1//EN"
 "http://www.w3.org/Graphics/SVG/1.1/DTD/svg11.dtd">
<!-- Generated by graphviz version 2.49.1 (20210923.0004)
 -->
<!-- Title: state transitions Pages: 1 -->
<svg width="368pt" height="357pt"
 viewBox="0.00 0.00 368.00 357.00" xmlns="http://www.w3.org/2000/svg" xmlns:xlink="http://www.w3.org/1999/xlink">
<g id="graph0" class="graph" transform="scale(1 1) rotate(0) translate(4 353)">
<title>state transitions</title>
<polygon fill="white" stroke="transparent" points="-4,4 -4,-353 364,-353 364,4 -4,4"/>
<g id="clust1" class="cluster state regular">
<title>cluster__state_machine</title>
<path fill="none" stroke="black" stroke-width="2" d="M20,-8C20,-8 340,-8 340,-8 346,-8 352,-14 352,-20 352,-20 352,-329 352,-329 352,-335 346,-341 340,-341 340,-341 20,-341 20,-341 14,-341 8,-335 8,-329 8,-329 8,-20 8,-20 8,-14 14,-8 20,-8"/>
<text text-anchor="start" x="138" y="-322.9" font-family="Helvetica,sans-Serif" font-size="12.00">_state_machine</text>
</g>
<!-- _state_machine -->
<!-- _state_machine/CheckCrouched -->
<g id="node2" class="node state regular">
<title>_state_machine/CheckCrouched</title>
<polygon fill="#ffffff" fill-opacity="0.003922" stroke="transparent" stroke-width="2" points="262,-304 68,-304 68,-268 262,-268 262,-304"/>
<text text-anchor="start" x="79" y="-282.4" font-family="Helvetica,sans-Serif" font-size="12.00">_state_machine/CheckCrouched</text>
<path fill="none" stroke="black" stroke-width="2" d="M80,-269.5C80,-269.5 250,-269.5 250,-269.5 255.5,-269.5 261,-275 261,-280.5 261,-280.5 261,-291.5 261,-291.5 261,-297 255.5,-302.5 250,-302.5 250,-302.5 80,-302.5 80,-302.5 74.5,-302.5 69,-297 69,-291.5 69,-291.5 69,-280.5 69,-280.5 69,-275 74.5,-269.5 80,-269.5"/>
</g>
<!-- _state_machine/StandUp -->
<g id="node4" class="node state regular">
<title>_state_machine/StandUp</title>
<polygon fill="#ffffff" fill-opacity="0.003922" stroke="transparent" stroke-width="2" points="172.5,-241 17.5,-241 17.5,-205 172.5,-205 172.5,-241"/>
<text text-anchor="start" x="29" y="-219.4" font-family="Helvetica,sans-Serif" font-size="12.00">_state_machine/StandUp</text>
<path fill="none" stroke="black" stroke-width="2" d="M29.5,-206.5C29.5,-206.5 160.5,-206.5 160.5,-206.5 166,-206.5 171.5,-212 171.5,-217.5 171.5,-217.5 171.5,-228.5 171.5,-228.5 171.5,-234 166,-239.5 160.5,-239.5 160.5,-239.5 29.5,-239.5 29.5,-239.5 24,-239.5 18.5,-234 18.5,-228.5 18.5,-228.5 18.5,-217.5 18.5,-217.5 18.5,-212 24,-206.5 29.5,-206.5"/>
</g>
<!-- _state_machine/CheckCrouched&#45;&gt;_state_machine/StandUp -->
<g id="edge1" class="edge transition">
<title>_state_machine/CheckCrouched&#45;&gt;_state_machine/StandUp</title>
<path fill="none" stroke="black" d="M145.13,-267.68C138.12,-261.58 130.12,-254.6 122.59,-248.04"/>
<polygon fill="black" stroke="black" points="124.52,-245.08 114.68,-241.15 119.92,-250.36 124.52,-245.08"/>
<text text-anchor="start" x="136" y="-252" font-family="Helvetica,sans-Serif" font-size="10.00">body_crouched &#160;&#160;</text>
</g>
<!-- _state_machine/RandHeadMovements -->
<g id="node5" class="node state regular">
<title>_state_machine/RandHeadMovements</title>
<polygon fill="#ffffff" fill-opacity="0.003922" stroke="transparent" stroke-width="2" points="343.5,-178 118.5,-178 118.5,-142 343.5,-142 343.5,-178"/>
<text text-anchor="start" x="130" y="-156.4" font-family="Helvetica,sans-Serif" font-size="12.00">_state_machine/RandHeadMovements</text>
<path fill="none" stroke="black" stroke-width="2" d="M130.5,-143.5C130.5,-143.5 331.5,-143.5 331.5,-143.5 337,-143.5 342.5,-149 342.5,-154.5 342.5,-154.5 342.5,-165.5 342.5,-165.5 342.5,-171 337,-176.5 331.5,-176.5 331.5,-176.5 130.5,-176.5 130.5,-176.5 125,-176.5 119.5,-171 119.5,-165.5 119.5,-165.5 119.5,-154.5 119.5,-154.5 119.5,-149 125,-143.5 130.5,-143.5"/>
</g>
<!-- _state_machine/CheckCrouched&#45;&gt;_state_machine/RandHeadMovements -->
<g id="edge2" class="edge transition">
<title>_state_machine/CheckCrouched&#45;&gt;_state_machine/RandHeadMovements</title>
<path fill="none" stroke="black" d="M209.49,-267.79C212.31,-265.5 214.87,-262.91 217,-260 232.08,-239.39 234.45,-209.76 233.74,-188.3"/>
<polygon fill="black" stroke="black" points="237.23,-187.98 233.16,-178.2 230.24,-188.38 237.23,-187.98"/>
<text text-anchor="start" x="233" y="-220.5" font-family="Helvetica,sans-Serif" font-size="10.00">unknown &#160;&#160;</text>
</g>
<!-- _state_machine/HeadNominal -->
<g id="node3" class="node state regular">
<title>_state_machine/HeadNominal</title>
<polygon fill="#ffffff" fill-opacity="0.003922" stroke="transparent" stroke-width="2" points="344,-115 164,-115 164,-79 344,-79 344,-115"/>
<text text-anchor="start" x="175" y="-93.4" font-family="Helvetica,sans-Serif" font-size="12.00">_state_machine/HeadNominal</text>
<path fill="none" stroke="black" stroke-width="2" d="M176,-80.5C176,-80.5 332,-80.5 332,-80.5 337.5,-80.5 343,-86 343,-91.5 343,-91.5 343,-102.5 343,-102.5 343,-108 337.5,-113.5 332,-113.5 332,-113.5 176,-113.5 176,-113.5 170.5,-113.5 165,-108 165,-102.5 165,-102.5 165,-91.5 165,-91.5 165,-86 170.5,-80.5 176,-80.5"/>
</g>
<!-- _state_machine/finished -->
<g id="node6" class="node state regular">
<title>_state_machine/finished</title>
<polygon fill="#ffffff" fill-opacity="0.003922" stroke="transparent" stroke-width="2" points="340.5,-52 191.5,-52 191.5,-16 340.5,-16 340.5,-52"/>
<text text-anchor="start" x="203" y="-30.4" font-family="Helvetica,sans-Serif" font-size="12.00">_state_machine/finished</text>
<path fill="none" stroke="black" stroke-width="2" d="M203.5,-17.5C203.5,-17.5 328.5,-17.5 328.5,-17.5 334,-17.5 339.5,-23 339.5,-28.5 339.5,-28.5 339.5,-39.5 339.5,-39.5 339.5,-45 334,-50.5 328.5,-50.5 328.5,-50.5 203.5,-50.5 203.5,-50.5 198,-50.5 192.5,-45 192.5,-39.5 192.5,-39.5 192.5,-28.5 192.5,-28.5 192.5,-23 198,-17.5 203.5,-17.5"/>
</g>
<!-- _state_machine/HeadNominal&#45;&gt;_state_machine/finished -->
<g id="edge3" class="edge transition">
<title>_state_machine/HeadNominal&#45;&gt;_state_machine/finished</title>
<path fill="none" stroke="black" d="M257.41,-78.68C258.43,-73.49 259.58,-67.66 260.69,-62"/>
<polygon fill="black" stroke="black" points="264.13,-62.64 262.63,-52.15 257.26,-61.29 264.13,-62.64"/>
<text text-anchor="start" x="261" y="-63" font-family="Helvetica,sans-Serif" font-size="10.00">done &#160;&#160;</text>
</g>
<!-- _state_machine/failed -->
<g id="node7" class="node state regular">
<title>_state_machine/failed</title>
<polygon fill="#ffffff" fill-opacity="0.003922" stroke="transparent" stroke-width="2" points="161.5,-52 24.5,-52 24.5,-16 161.5,-16 161.5,-52"/>
<text text-anchor="start" x="36" y="-30.4" font-family="Helvetica,sans-Serif" font-size="12.00">_state_machine/failed</text>
<path fill="none" stroke="black" stroke-width="2" d="M36.5,-17.5C36.5,-17.5 149.5,-17.5 149.5,-17.5 155,-17.5 160.5,-23 160.5,-28.5 160.5,-28.5 160.5,-39.5 160.5,-39.5 160.5,-45 155,-50.5 149.5,-50.5 149.5,-50.5 36.5,-50.5 36.5,-50.5 31,-50.5 25.5,-45 25.5,-39.5 25.5,-39.5 25.5,-28.5 25.5,-28.5 25.5,-23 31,-17.5 36.5,-17.5"/>
</g>
<!-- _state_machine/HeadNominal&#45;&gt;_state_machine/failed -->
<g id="edge4" class="edge transition">
<title>_state_machine/HeadNominal&#45;&gt;_state_machine/failed</title>
<path fill="none" stroke="black" d="M163.95,-80.96C154.99,-78.18 146.19,-74.89 138,-71 131.17,-67.75 124.44,-63.28 118.36,-58.6"/>
<polygon fill="black" stroke="black" points="120.47,-55.8 110.52,-52.16 116.03,-61.21 120.47,-55.8"/>
<text text-anchor="start" x="138" y="-63" font-family="Helvetica,sans-Serif" font-size="10.00">failed &#160;&#160;</text>
</g>
<!-- _state_machine/HeadNominal&#45;&gt;_state_machine/failed -->
<g id="edge5" class="edge transition">
<title>_state_machine/HeadNominal&#45;&gt;_state_machine/failed</title>
<path fill="none" stroke="black" d="M216.72,-78.9C202.54,-72.63 186.14,-65.69 171,-60 166.84,-58.44 162.54,-56.88 158.19,-55.36"/>
<polygon fill="black" stroke="black" points="159.22,-52.01 148.63,-52.08 156.95,-58.64 159.22,-52.01"/>
<text text-anchor="start" x="196" y="-63" font-family="Helvetica,sans-Serif" font-size="10.00">timeout &#160;&#160;</text>
</g>
<!-- _state_machine/StandUp&#45;&gt;_state_machine/RandHeadMovements -->
<g id="edge6" class="edge transition">
<title>_state_machine/StandUp&#45;&gt;_state_machine/RandHeadMovements</title>
<path fill="none" stroke="black" d="M130.91,-204.88C143.82,-198.81 158.52,-192 172,-186 174.95,-184.69 177.98,-183.35 181.05,-182.01"/>
<polygon fill="black" stroke="black" points="182.5,-185.2 190.29,-178.02 179.72,-178.78 182.5,-185.2"/>
<text text-anchor="start" x="172" y="-189" font-family="Helvetica,sans-Serif" font-size="10.00">success &#160;&#160;</text>
</g>
<!-- _state_machine/StandUp&#45;&gt;_state_machine/failed -->
<g id="edge7" class="edge transition">
<title>_state_machine/StandUp&#45;&gt;_state_machine/failed</title>
<path fill="none" stroke="black" d="M71.92,-204.77C69.4,-202.33 67.03,-199.72 65,-197 41.81,-165.88 38.04,-153.69 35,-115 33.09,-90.63 21.56,-80.42 35,-60 35.06,-59.91 35.12,-59.82 35.18,-59.73"/>
<polygon fill="black" stroke="black" points="37.86,-61.98 41.92,-52.19 32.65,-57.31 37.86,-61.98"/>
<text text-anchor="start" x="37" y="-126" font-family="Helvetica,sans-Serif" font-size="10.00">partial_movement &#160;&#160;</text>
</g>
<!-- _state_machine/StandUp&#45;&gt;_state_machine/failed -->
<g id="edge8" class="edge transition">
<title>_state_machine/StandUp&#45;&gt;_state_machine/failed</title>
<path fill="none" stroke="black" d="M87.48,-204.7C81.07,-186.99 74.93,-159.64 89,-142 98.95,-129.52 114.05,-146.48 124,-134 127.05,-130.18 127.24,-126.66 124,-123 104.72,-101.2 78.28,-136.8 59,-115 44.51,-98.62 47.11,-84.99 59.78,-61.04"/>
<polygon fill="black" stroke="black" points="62.93,-62.57 64.66,-52.12 56.79,-59.21 62.93,-62.57"/>
<text text-anchor="start" x="126" y="-126" font-family="Helvetica,sans-Serif" font-size="10.00">invalid_pose &#160;&#160;</text>
</g>
<!-- _state_machine/StandUp&#45;&gt;_state_machine/failed -->
<g id="edge9" class="edge transition">
<title>_state_machine/StandUp&#45;&gt;_state_machine/failed</title>
<path fill="none" stroke="black" d="M92.09,-204.9C90.04,-186.55 90.16,-157.92 107,-142 120.95,-128.81 180.07,-148.19 193,-134 196.29,-130.39 196.31,-126.59 193,-123 178.03,-106.78 109.69,-130.53 94,-115 80.39,-101.52 81.15,-79.34 84.75,-61.75"/>
<polygon fill="black" stroke="black" points="88.16,-62.57 87.12,-52.03 81.35,-60.92 88.16,-62.57"/>
<text text-anchor="start" x="195" y="-126" font-family="Helvetica,sans-Serif" font-size="10.00">failure &#160;&#160;</text>
</g>
<!-- _state_machine/RandHeadMovements&#45;&gt;_state_machine/HeadNominal -->
<g id="edge10" class="edge transition">
<title>_state_machine/RandHeadMovements&#45;&gt;_state_machine/HeadNominal</title>
<path fill="none" stroke="black" d="M275.54,-141.62C278.02,-139.38 280.23,-136.84 282,-134 284.14,-130.57 284.31,-127.08 283.22,-123.69"/>
<polygon fill="black" stroke="black" points="286.1,-121.7 277.85,-115.05 280.16,-125.39 286.1,-121.7"/>
<text text-anchor="start" x="283" y="-126" font-family="Helvetica,sans-Serif" font-size="10.00">done &#160;&#160;</text>
</g>
<!-- _state_machine/RandHeadMovements&#45;&gt;_state_machine/failed -->
<g id="edge11" class="edge transition">
<title>_state_machine/RandHeadMovements&#45;&gt;_state_machine/failed</title>
<path fill="none" stroke="black" d="M269.49,-141.9C277.24,-136.23 281.32,-129.66 275,-123 263.2,-110.57 134.71,-125.27 121,-115 104.66,-102.76 97.81,-80.28 94.96,-62.26"/>
<polygon fill="black" stroke="black" points="98.42,-61.76 93.7,-52.28 91.48,-62.64 98.42,-61.76"/>
<text text-anchor="start" x="121" y="-94.5" font-family="Helvetica,sans-Serif" font-size="10.00">failed &#160;&#160;</text>
</g>
</g>
</svg>
