<?xml version="1.0" encoding="UTF-8" standalone="no"?>
<!DOCTYPE svg PUBLIC "-//W3C//DTD SVG 1.1//EN"
 "http://www.w3.org/Graphics/SVG/1.1/DTD/svg11.dtd">
<!-- Generated by graphviz version 2.49.1 (20210923.0004)
 -->
<!-- Title: state transitions Pages: 1 -->
<svg width="423pt" height="168pt"
 viewBox="0.00 0.00 423.00 168.00" xmlns="http://www.w3.org/2000/svg" xmlns:xlink="http://www.w3.org/1999/xlink">
<g id="graph0" class="graph" transform="scale(1 1) rotate(0) translate(4 164)">
<title>state transitions</title>
<polygon fill="white" stroke="transparent" points="-4,4 -4,-164 419,-164 419,4 -4,4"/>
<g id="clust1" class="cluster state regular">
<title>cluster_sm_battery_monitor</title>
<path fill="none" stroke="black" stroke-width="2" d="M20,-8C20,-8 395,-8 395,-8 401,-8 407,-14 407,-20 407,-20 407,-140 407,-140 407,-146 401,-152 395,-152 395,-152 20,-152 20,-152 14,-152 8,-146 8,-140 8,-140 8,-20 8,-20 8,-14 14,-8 20,-8"/>
<text text-anchor="start" x="155.5" y="-133.9" font-family="Helvetica,sans-Serif" font-size="12.00">sm_battery_monitor</text>
</g>
<!-- sm_battery_monitor -->
<!-- sm_battery_monitor/MONITOR_BATTERY -->
<g id="node2" class="node state regular">
<title>sm_battery_monitor/MONITOR_BATTERY</title>
<polygon fill="#ffffff" fill-opacity="0.003922" stroke="transparent" stroke-width="2" points="258,-115 16,-115 16,-79 258,-79 258,-115"/>
<text text-anchor="start" x="27" y="-93.4" font-family="Helvetica,sans-Serif" font-size="12.00">sm_battery_monitor/MONITOR_BATTERY</text>
<path fill="none" stroke="black" stroke-width="2" d="M28,-80.5C28,-80.5 246,-80.5 246,-80.5 251.5,-80.5 257,-86 257,-91.5 257,-91.5 257,-102.5 257,-102.5 257,-108 251.5,-113.5 246,-113.5 246,-113.5 28,-113.5 28,-113.5 22.5,-113.5 17,-108 17,-102.5 17,-102.5 17,-91.5 17,-91.5 17,-86 22.5,-80.5 28,-80.5"/>
</g>
<!-- sm_battery_monitor/MONITOR_BATTERY&#45;&gt;sm_battery_monitor/MONITOR_BATTERY -->
<g id="edge2" class="edge transition">
<title>sm_battery_monitor/MONITOR_BATTERY&#45;&gt;sm_battery_monitor/MONITOR_BATTERY</title>
<path fill="none" stroke="black" d="M258.02,-99.37C271.38,-98.92 280,-98.13 280,-97 280,-96.19 275.54,-95.55 268.08,-95.09"/>
<polygon fill="black" stroke="black" points="268.17,-91.59 258.02,-94.63 267.85,-98.59 268.17,-91.59"/>
<text text-anchor="start" x="280" y="-94.5" font-family="Helvetica,sans-Serif" font-size="10.00">valid &#160;&#160;</text>
</g>
<!-- sm_battery_monitor/MONITOR_BATTERY&#45;&gt;sm_battery_monitor/MONITOR_BATTERY -->
<g id="edge3" class="edge transition">
<title>sm_battery_monitor/MONITOR_BATTERY&#45;&gt;sm_battery_monitor/MONITOR_BATTERY</title>
<path fill="none" stroke="black" d="M258.18,-102.51C286.78,-102.04 308,-100.21 308,-97 308,-94.18 291.61,-92.42 268.22,-91.72"/>
<polygon fill="black" stroke="black" points="268.26,-88.22 258.18,-91.49 268.1,-95.22 268.26,-88.22"/>
<text text-anchor="start" x="308" y="-94.5" font-family="Helvetica,sans-Serif" font-size="10.00">preempted &#160;&#160;</text>
</g>
<!-- sm_battery_monitor/RECHARGE_BATTERY -->
<g id="node3" class="node state regular">
<title>sm_battery_monitor/RECHARGE_BATTERY</title>
<polygon fill="#ffffff" fill-opacity="0.003922" stroke="transparent" stroke-width="2" points="302.5,-52 45.5,-52 45.5,-16 302.5,-16 302.5,-52"/>
<text text-anchor="start" x="57" y="-30.4" font-family="Helvetica,sans-Serif" font-size="12.00">sm_battery_monitor/RECHARGE_BATTERY</text>
<path fill="none" stroke="black" stroke-width="2" d="M57.5,-17.5C57.5,-17.5 290.5,-17.5 290.5,-17.5 296,-17.5 301.5,-23 301.5,-28.5 301.5,-28.5 301.5,-39.5 301.5,-39.5 301.5,-45 296,-50.5 290.5,-50.5 290.5,-50.5 57.5,-50.5 57.5,-50.5 52,-50.5 46.5,-45 46.5,-39.5 46.5,-39.5 46.5,-28.5 46.5,-28.5 46.5,-23 52,-17.5 57.5,-17.5"/>
</g>
<!-- sm_battery_monitor/MONITOR_BATTERY&#45;&gt;sm_battery_monitor/RECHARGE_BATTERY -->
<g id="edge1" class="edge transition">
<title>sm_battery_monitor/MONITOR_BATTERY&#45;&gt;sm_battery_monitor/RECHARGE_BATTERY</title>
<path fill="none" stroke="black" d="M58.81,-78.98C51.89,-74.11 49.61,-67.89 56,-60 56.74,-59.08 57.65,-58.2 58.7,-57.35"/>
<polygon fill="black" stroke="black" points="60.72,-60.22 67.6,-52.17 57.2,-54.17 60.72,-60.22"/>
<text text-anchor="start" x="56" y="-63" font-family="Helvetica,sans-Serif" font-size="10.00">invalid &#160;&#160;</text>
</g>
<!-- sm_battery_monitor/RECHARGE_BATTERY&#45;&gt;sm_battery_monitor/MONITOR_BATTERY -->
<g id="edge4" class="edge transition">
<title>sm_battery_monitor/RECHARGE_BATTERY&#45;&gt;sm_battery_monitor/MONITOR_BATTERY</title>
<path fill="none" stroke="black" d="M126.01,-52.03C123.32,-54.36 120.93,-57 119,-60 117.11,-62.94 116.64,-66.1 117.12,-69.29"/>
<polygon fill="black" stroke="black" points="113.93,-70.74 120.88,-78.73 120.43,-68.15 113.93,-70.74"/>
<text text-anchor="start" x="119" y="-63" font-family="Helvetica,sans-Serif" font-size="10.00">succeeded &#160;&#160;</text>
</g>
<!-- sm_battery_monitor/RECHARGE_BATTERY&#45;&gt;sm_battery_monitor/MONITOR_BATTERY -->
<g id="edge5" class="edge transition">
<title>sm_battery_monitor/RECHARGE_BATTERY&#45;&gt;sm_battery_monitor/MONITOR_BATTERY</title>
<path fill="none" stroke="black" d="M179.32,-52.33C180.03,-57.05 180.11,-62.12 176.14,-70.12"/>
<polygon fill="black" stroke="black" points="173.1,-68.38 170.98,-78.76 179.11,-71.97 173.1,-68.38"/>
<text text-anchor="start" x="179" y="-63" font-family="Helvetica,sans-Serif" font-size="10.00">aborted &#160;&#160;</text>
</g>
<!-- sm_battery_monitor/RECHARGE_BATTERY&#45;&gt;sm_battery_monitor/MONITOR_BATTERY -->
<g id="edge6" class="edge transition">
<title>sm_battery_monitor/RECHARGE_BATTERY&#45;&gt;sm_battery_monitor/MONITOR_BATTERY</title>
<path fill="none" stroke="black" d="M220.69,-52.15C227.97,-57.4 231.5,-63.74 226,-71 225.86,-71.18 225.72,-71.37 225.58,-71.55"/>
<polygon fill="black" stroke="black" points="222.91,-69.28 218.43,-78.88 227.92,-74.16 222.91,-69.28"/>
<text text-anchor="start" x="228" y="-63" font-family="Helvetica,sans-Serif" font-size="10.00">preempted &#160;&#160;</text>
</g>
</g>
</svg>
