<?xml version="1.0" encoding="UTF-8" standalone="no"?>
<!DOCTYPE svg PUBLIC "-//W3C//DTD SVG 1.1//EN"
 "http://www.w3.org/Graphics/SVG/1.1/DTD/svg11.dtd">
<!-- Generated by graphviz version 2.49.1 (20210923.0004)
 -->
<!-- Title: state transitions Pages: 1 -->
<svg width="517pt" height="231pt"
 viewBox="0.00 0.00 517.00 231.00" xmlns="http://www.w3.org/2000/svg" xmlns:xlink="http://www.w3.org/1999/xlink">
<g id="graph0" class="graph" transform="scale(1 1) rotate(0) translate(4 227)">
<title>state transitions</title>
<polygon fill="white" stroke="transparent" points="-4,4 -4,-227 513,-227 513,4 -4,4"/>
<g id="clust1" class="cluster state regular">
<title>cluster_sm</title>
<path fill="none" stroke="black" stroke-width="2" d="M20,-8C20,-8 489,-8 489,-8 495,-8 501,-14 501,-20 501,-20 501,-203 501,-203 501,-209 495,-215 489,-215 489,-215 20,-215 20,-215 14,-215 8,-209 8,-203 8,-203 8,-20 8,-20 8,-14 14,-8 20,-8"/>
<text text-anchor="start" x="246.5" y="-196.9" font-family="Helvetica,sans-Serif" font-size="12.00">sm</text>
</g>
<!-- sm -->
<!-- sm/GateTask -->
<g id="node2" class="node state regular">
<title>sm/GateTask</title>
<polygon fill="#ffffff" fill-opacity="0.003922" stroke="transparent" stroke-width="2" points="353,-178 261,-178 261,-142 353,-142 353,-178"/>
<text text-anchor="start" x="272" y="-156.4" font-family="Helvetica,sans-Serif" font-size="12.00">sm/GateTask</text>
<path fill="none" stroke="black" stroke-width="2" d="M273,-143.5C273,-143.5 341,-143.5 341,-143.5 346.5,-143.5 352,-149 352,-154.5 352,-154.5 352,-165.5 352,-165.5 352,-171 346.5,-176.5 341,-176.5 341,-176.5 273,-176.5 273,-176.5 267.5,-176.5 262,-171 262,-165.5 262,-165.5 262,-154.5 262,-154.5 262,-149 267.5,-143.5 273,-143.5"/>
</g>
<!-- sm/FindFrontTarget -->
<g id="node4" class="node state regular">
<title>sm/FindFrontTarget</title>
<polygon fill="#ffffff" fill-opacity="0.003922" stroke="transparent" stroke-width="2" points="232.5,-115 107.5,-115 107.5,-79 232.5,-79 232.5,-115"/>
<text text-anchor="start" x="119" y="-93.4" font-family="Helvetica,sans-Serif" font-size="12.00">sm/FindFrontTarget</text>
<path fill="none" stroke="black" stroke-width="2" d="M119.5,-80.5C119.5,-80.5 220.5,-80.5 220.5,-80.5 226,-80.5 231.5,-86 231.5,-91.5 231.5,-91.5 231.5,-102.5 231.5,-102.5 231.5,-108 226,-113.5 220.5,-113.5 220.5,-113.5 119.5,-113.5 119.5,-113.5 114,-113.5 108.5,-108 108.5,-102.5 108.5,-102.5 108.5,-91.5 108.5,-91.5 108.5,-86 114,-80.5 119.5,-80.5"/>
</g>
<!-- sm/GateTask&#45;&gt;sm/FindFrontTarget -->
<g id="edge3" class="edge transition">
<title>sm/GateTask&#45;&gt;sm/FindFrontTarget</title>
<path fill="none" stroke="black" d="M260.96,-141.93C254.55,-139.37 248.08,-136.68 242,-134 232.12,-129.64 221.64,-124.63 211.82,-119.76"/>
<polygon fill="black" stroke="black" points="213.17,-116.52 202.66,-115.16 210.03,-122.78 213.17,-116.52"/>
<text text-anchor="start" x="242" y="-126" font-family="Helvetica,sans-Serif" font-size="10.00">cannot_see &#160;&#160;</text>
</g>
<!-- sm/MoveToXYZ -->
<g id="node5" class="node state regular">
<title>sm/MoveToXYZ</title>
<polygon fill="#ffffff" fill-opacity="0.003922" stroke="transparent" stroke-width="2" points="359.5,-115 254.5,-115 254.5,-79 359.5,-79 359.5,-115"/>
<text text-anchor="start" x="266" y="-93.4" font-family="Helvetica,sans-Serif" font-size="12.00">sm/MoveToXYZ</text>
<path fill="none" stroke="black" stroke-width="2" d="M266.5,-80.5C266.5,-80.5 347.5,-80.5 347.5,-80.5 353,-80.5 358.5,-86 358.5,-91.5 358.5,-91.5 358.5,-102.5 358.5,-102.5 358.5,-108 353,-113.5 347.5,-113.5 347.5,-113.5 266.5,-113.5 266.5,-113.5 261,-113.5 255.5,-108 255.5,-102.5 255.5,-102.5 255.5,-91.5 255.5,-91.5 255.5,-86 261,-80.5 266.5,-80.5"/>
</g>
<!-- sm/GateTask&#45;&gt;sm/MoveToXYZ -->
<g id="edge1" class="edge transition">
<title>sm/GateTask&#45;&gt;sm/MoveToXYZ</title>
<path fill="none" stroke="black" d="M307,-141.68C307,-136.62 307,-130.95 307,-125.42"/>
<polygon fill="black" stroke="black" points="310.5,-125.15 307,-115.15 303.5,-125.15 310.5,-125.15"/>
<text text-anchor="start" x="307" y="-126" font-family="Helvetica,sans-Serif" font-size="10.00">crossed &#160;&#160;</text>
</g>
<!-- sm/RescueMode -->
<g id="node6" class="node state regular">
<title>sm/RescueMode</title>
<polygon fill="#ffffff" fill-opacity="0.003922" stroke="transparent" stroke-width="2" points="492.5,-115 381.5,-115 381.5,-79 492.5,-79 492.5,-115"/>
<text text-anchor="start" x="393" y="-93.4" font-family="Helvetica,sans-Serif" font-size="12.00">sm/RescueMode</text>
<path fill="none" stroke="black" stroke-width="2" d="M393.5,-80.5C393.5,-80.5 480.5,-80.5 480.5,-80.5 486,-80.5 491.5,-86 491.5,-91.5 491.5,-91.5 491.5,-102.5 491.5,-102.5 491.5,-108 486,-113.5 480.5,-113.5 480.5,-113.5 393.5,-113.5 393.5,-113.5 388,-113.5 382.5,-108 382.5,-102.5 382.5,-102.5 382.5,-91.5 382.5,-91.5 382.5,-86 388,-80.5 393.5,-80.5"/>
</g>
<!-- sm/GateTask&#45;&gt;sm/RescueMode -->
<g id="edge2" class="edge transition">
<title>sm/GateTask&#45;&gt;sm/RescueMode</title>
<path fill="none" stroke="black" d="M343.56,-141.85C358.36,-134.9 375.61,-126.8 391.24,-119.47"/>
<polygon fill="black" stroke="black" points="393.15,-122.44 400.72,-115.03 390.18,-116.1 393.15,-122.44"/>
<text text-anchor="start" x="383" y="-126" font-family="Helvetica,sans-Serif" font-size="10.00">fatal_fail &#160;&#160;</text>
</g>
<!-- sm/HoverXYZ -->
<g id="node3" class="node state regular">
<title>sm/HoverXYZ</title>
<polygon fill="#ffffff" fill-opacity="0.003922" stroke="transparent" stroke-width="2" points="129,-178 35,-178 35,-142 129,-142 129,-178"/>
<text text-anchor="start" x="46" y="-156.4" font-family="Helvetica,sans-Serif" font-size="12.00">sm/HoverXYZ</text>
<path fill="none" stroke="black" stroke-width="2" d="M47,-143.5C47,-143.5 117,-143.5 117,-143.5 122.5,-143.5 128,-149 128,-154.5 128,-154.5 128,-165.5 128,-165.5 128,-171 122.5,-176.5 117,-176.5 117,-176.5 47,-176.5 47,-176.5 41.5,-176.5 36,-171 36,-165.5 36,-165.5 36,-154.5 36,-154.5 36,-149 41.5,-143.5 47,-143.5"/>
</g>
<!-- sm/HoverXYZ&#45;&gt;sm/FindFrontTarget -->
<g id="edge5" class="edge transition">
<title>sm/HoverXYZ&#45;&gt;sm/FindFrontTarget</title>
<path fill="none" stroke="black" d="M91.45,-141.96C95.79,-135.34 101.44,-128.13 108,-123 109.17,-122.08 110.38,-121.2 111.62,-120.34"/>
<polygon fill="black" stroke="black" points="113.5,-123.29 120.19,-115.07 109.84,-117.32 113.5,-123.29"/>
<text text-anchor="start" x="108" y="-126" font-family="Helvetica,sans-Serif" font-size="10.00">cannot_see &#160;&#160;</text>
</g>
<!-- sm/IdentifyTarget -->
<g id="node7" class="node state regular">
<title>sm/IdentifyTarget</title>
<polygon fill="#ffffff" fill-opacity="0.003922" stroke="transparent" stroke-width="2" points="127.5,-52 16.5,-52 16.5,-16 127.5,-16 127.5,-52"/>
<text text-anchor="start" x="28" y="-30.4" font-family="Helvetica,sans-Serif" font-size="12.00">sm/IdentifyTarget</text>
<path fill="none" stroke="black" stroke-width="2" d="M28.5,-17.5C28.5,-17.5 115.5,-17.5 115.5,-17.5 121,-17.5 126.5,-23 126.5,-28.5 126.5,-28.5 126.5,-39.5 126.5,-39.5 126.5,-45 121,-50.5 115.5,-50.5 115.5,-50.5 28.5,-50.5 28.5,-50.5 23,-50.5 17.5,-45 17.5,-39.5 17.5,-39.5 17.5,-28.5 17.5,-28.5 17.5,-23 23,-17.5 28.5,-17.5"/>
</g>
<!-- sm/HoverXYZ&#45;&gt;sm/IdentifyTarget -->
<g id="edge4" class="edge transition">
<title>sm/HoverXYZ&#45;&gt;sm/IdentifyTarget</title>
<path fill="none" stroke="black" d="M65.44,-141.61C59.34,-134.05 53.15,-124.7 50,-115 45.05,-99.78 46.32,-94.57 50,-79 51.41,-73.04 53.75,-66.96 56.4,-61.3"/>
<polygon fill="black" stroke="black" points="59.59,-62.76 61.03,-52.27 53.36,-59.57 59.59,-62.76"/>
<text text-anchor="start" x="50" y="-94.5" font-family="Helvetica,sans-Serif" font-size="10.00">detected &#160;&#160;</text>
</g>
<!-- sm/FindFrontTarget&#45;&gt;sm/IdentifyTarget -->
<g id="edge6" class="edge transition">
<title>sm/FindFrontTarget&#45;&gt;sm/IdentifyTarget</title>
<path fill="none" stroke="black" d="M123.9,-78.84C119.08,-76.45 114.35,-73.83 110,-71 104.83,-67.64 99.72,-63.52 95.02,-59.3"/>
<polygon fill="black" stroke="black" points="97.19,-56.53 87.53,-52.19 92.37,-61.61 97.19,-56.53"/>
<text text-anchor="start" x="110" y="-63" font-family="Helvetica,sans-Serif" font-size="10.00">found_visually &#160;&#160;</text>
</g>
<!-- sm/MovingToXYZ -->
<g id="node8" class="node state regular">
<title>sm/MovingToXYZ</title>
<polygon fill="#ffffff" fill-opacity="0.003922" stroke="transparent" stroke-width="2" points="264,-52 150,-52 150,-16 264,-16 264,-52"/>
<text text-anchor="start" x="161" y="-30.4" font-family="Helvetica,sans-Serif" font-size="12.00">sm/MovingToXYZ</text>
<path fill="none" stroke="black" stroke-width="2" d="M162,-17.5C162,-17.5 252,-17.5 252,-17.5 257.5,-17.5 263,-23 263,-28.5 263,-28.5 263,-39.5 263,-39.5 263,-45 257.5,-50.5 252,-50.5 252,-50.5 162,-50.5 162,-50.5 156.5,-50.5 151,-45 151,-39.5 151,-39.5 151,-28.5 151,-28.5 151,-23 156.5,-17.5 162,-17.5"/>
</g>
<!-- sm/FindFrontTarget&#45;&gt;sm/MovingToXYZ -->
<g id="edge7" class="edge transition">
<title>sm/FindFrontTarget&#45;&gt;sm/MovingToXYZ</title>
<path fill="none" stroke="black" d="M180.5,-78.68C183.89,-73.1 187.72,-66.78 191.4,-60.72"/>
<polygon fill="black" stroke="black" points="194.4,-62.51 196.6,-52.15 188.42,-58.88 194.4,-62.51"/>
<text text-anchor="start" x="191" y="-63" font-family="Helvetica,sans-Serif" font-size="10.00">lost &#160;&#160;</text>
</g>
</g>
</svg>
