<?xml version="1.0" encoding="UTF-8" standalone="no"?>
<!DOCTYPE svg PUBLIC "-//W3C//DTD SVG 1.1//EN"
 "http://www.w3.org/Graphics/SVG/1.1/DTD/svg11.dtd">
<!-- Generated by graphviz version 2.49.1 (20210923.0004)
 -->
<!-- Title: state transitions Pages: 1 -->
<svg width="699pt" height="483pt"
 viewBox="0.00 0.00 699.00 483.00" xmlns="http://www.w3.org/2000/svg" xmlns:xlink="http://www.w3.org/1999/xlink">
<g id="graph0" class="graph" transform="scale(1 1) rotate(0) translate(4 479)">
<title>state transitions</title>
<polygon fill="white" stroke="transparent" points="-4,4 -4,-479 695,-479 695,4 -4,4"/>
<g id="clust1" class="cluster state regular">
<title>cluster_main</title>
<path fill="none" stroke="black" stroke-width="2" d="M20,-8C20,-8 599,-8 599,-8 605,-8 611,-14 611,-20 611,-20 611,-455 611,-455 611,-461 605,-467 599,-467 599,-467 20,-467 20,-467 14,-467 8,-461 8,-455 8,-455 8,-20 8,-20 8,-14 14,-8 20,-8"/>
<text text-anchor="start" x="296.5" y="-448.9" font-family="Helvetica,sans-Serif" font-size="12.00">main</text>
</g>
<!-- main -->
<!-- main/Initialize -->
<g id="node2" class="node state regular">
<title>main/Initialize</title>
<polygon fill="#ffffff" fill-opacity="0.003922" stroke="transparent" stroke-width="2" points="430,-430 338,-430 338,-394 430,-394 430,-430"/>
<text text-anchor="start" x="349" y="-408.4" font-family="Helvetica,sans-Serif" font-size="12.00">main/Initialize</text>
<path fill="none" stroke="black" stroke-width="2" d="M350,-395.5C350,-395.5 418,-395.5 418,-395.5 423.5,-395.5 429,-401 429,-406.5 429,-406.5 429,-417.5 429,-417.5 429,-423 423.5,-428.5 418,-428.5 418,-428.5 350,-428.5 350,-428.5 344.5,-428.5 339,-423 339,-417.5 339,-417.5 339,-406.5 339,-406.5 339,-401 344.5,-395.5 350,-395.5"/>
</g>
<!-- main/Initialize&#45;&gt;main/Initialize -->
<g id="edge2" class="edge transition">
<title>main/Initialize&#45;&gt;main/Initialize</title>
<path fill="none" stroke="black" d="M430.08,-417.58C442.53,-417.29 452,-415.43 452,-412 452,-409.59 447.32,-407.95 440.21,-407.09"/>
<polygon fill="black" stroke="black" points="440.3,-403.59 430.08,-406.42 439.83,-410.58 440.3,-403.59"/>
<text text-anchor="start" x="452" y="-409.5" font-family="Helvetica,sans-Serif" font-size="10.00">InitializationFailed &#160;&#160;</text>
</g>
<!-- main/Waypoint -->
<g id="node3" class="node state regular">
<title>main/Waypoint</title>
<polygon fill="#ffffff" fill-opacity="0.003922" stroke="transparent" stroke-width="2" points="434,-367 334,-367 334,-331 434,-331 434,-367"/>
<text text-anchor="start" x="345" y="-345.4" font-family="Helvetica,sans-Serif" font-size="12.00">main/Waypoint</text>
<path fill="none" stroke="black" stroke-width="2" d="M346,-332.5C346,-332.5 422,-332.5 422,-332.5 427.5,-332.5 433,-338 433,-343.5 433,-343.5 433,-354.5 433,-354.5 433,-360 427.5,-365.5 422,-365.5 422,-365.5 346,-365.5 346,-365.5 340.5,-365.5 335,-360 335,-354.5 335,-354.5 335,-343.5 335,-343.5 335,-338 340.5,-332.5 346,-332.5"/>
</g>
<!-- main/Initialize&#45;&gt;main/Waypoint -->
<g id="edge1" class="edge transition">
<title>main/Initialize&#45;&gt;main/Waypoint</title>
<path fill="none" stroke="black" d="M384,-393.68C384,-388.62 384,-382.95 384,-377.42"/>
<polygon fill="black" stroke="black" points="387.5,-377.15 384,-367.15 380.5,-377.15 387.5,-377.15"/>
<text text-anchor="start" x="384" y="-378" font-family="Helvetica,sans-Serif" font-size="10.00">InitializationCompleted &#160;&#160;</text>
</g>
<!-- main/Obstacle_Avoidance -->
<g id="node4" class="node state regular">
<title>main/Obstacle_Avoidance</title>
<polygon fill="#ffffff" fill-opacity="0.003922" stroke="transparent" stroke-width="2" points="428,-304 268,-304 268,-268 428,-268 428,-304"/>
<text text-anchor="start" x="279" y="-282.4" font-family="Helvetica,sans-Serif" font-size="12.00">main/Obstacle_Avoidance</text>
<path fill="none" stroke="black" stroke-width="2" d="M280,-269.5C280,-269.5 416,-269.5 416,-269.5 421.5,-269.5 427,-275 427,-280.5 427,-280.5 427,-291.5 427,-291.5 427,-297 421.5,-302.5 416,-302.5 416,-302.5 280,-302.5 280,-302.5 274.5,-302.5 269,-297 269,-291.5 269,-291.5 269,-280.5 269,-280.5 269,-275 274.5,-269.5 280,-269.5"/>
</g>
<!-- main/Waypoint&#45;&gt;main/Obstacle_Avoidance -->
<g id="edge4" class="edge transition">
<title>main/Waypoint&#45;&gt;main/Obstacle_Avoidance</title>
<path fill="none" stroke="black" d="M333.74,-341.73C311.08,-337.76 287.85,-331.72 281,-323 277.7,-318.8 277.11,-315.03 278.47,-311.65"/>
<polygon fill="black" stroke="black" points="281.24,-313.81 285.4,-304.07 276.07,-309.09 281.24,-313.81"/>
<text text-anchor="start" x="281" y="-315" font-family="Helvetica,sans-Serif" font-size="10.00">FoundObstacle &#160;&#160;</text>
</g>
<!-- main/Gate_or_Post -->
<g id="node5" class="node state regular">
<title>main/Gate_or_Post</title>
<polygon fill="#ffffff" fill-opacity="0.003922" stroke="transparent" stroke-width="2" points="415.5,-241 290.5,-241 290.5,-205 415.5,-205 415.5,-241"/>
<text text-anchor="start" x="302" y="-219.4" font-family="Helvetica,sans-Serif" font-size="12.00">main/Gate_or_Post</text>
<path fill="none" stroke="black" stroke-width="2" d="M302.5,-206.5C302.5,-206.5 403.5,-206.5 403.5,-206.5 409,-206.5 414.5,-212 414.5,-217.5 414.5,-217.5 414.5,-228.5 414.5,-228.5 414.5,-234 409,-239.5 403.5,-239.5 403.5,-239.5 302.5,-239.5 302.5,-239.5 297,-239.5 291.5,-234 291.5,-228.5 291.5,-228.5 291.5,-217.5 291.5,-217.5 291.5,-212 297,-206.5 302.5,-206.5"/>
</g>
<!-- main/Waypoint&#45;&gt;main/Gate_or_Post -->
<g id="edge5" class="edge transition">
<title>main/Waypoint&#45;&gt;main/Gate_or_Post</title>
<path fill="none" stroke="black" d="M434.29,-339.54C442.81,-335.84 450.63,-330.55 456,-323 458.83,-319.02 456.9,-316.81 456,-312 452.16,-291.39 452.05,-284.41 439,-268 431.9,-259.06 422.49,-251.77 412.51,-245.88"/>
<polygon fill="black" stroke="black" points="414.09,-242.75 403.63,-241.05 410.75,-248.9 414.09,-242.75"/>
<text text-anchor="start" x="454" y="-283.5" font-family="Helvetica,sans-Serif" font-size="10.00">CameraFoundQRCode &#160;&#160;</text>
</g>
<!-- main/Search_Algorithm_For_QR_Code -->
<g id="node6" class="node state regular">
<title>main/Search_Algorithm_For_QR_Code</title>
<polygon fill="#ffffff" fill-opacity="0.003922" stroke="transparent" stroke-width="2" points="246,-304 16,-304 16,-268 246,-268 246,-304"/>
<text text-anchor="start" x="27" y="-282.4" font-family="Helvetica,sans-Serif" font-size="12.00">main/Search_Algorithm_For_QR_Code</text>
<path fill="none" stroke="black" stroke-width="2" d="M28,-269.5C28,-269.5 234,-269.5 234,-269.5 239.5,-269.5 245,-275 245,-280.5 245,-280.5 245,-291.5 245,-291.5 245,-297 239.5,-302.5 234,-302.5 234,-302.5 28,-302.5 28,-302.5 22.5,-302.5 17,-297 17,-291.5 17,-291.5 17,-280.5 17,-280.5 17,-275 22.5,-269.5 28,-269.5"/>
</g>
<!-- main/Waypoint&#45;&gt;main/Search_Algorithm_For_QR_Code -->
<g id="edge3" class="edge transition">
<title>main/Waypoint&#45;&gt;main/Search_Algorithm_For_QR_Code</title>
<path fill="none" stroke="black" d="M333.97,-346.61C263.86,-344.15 143.41,-337.79 130,-323 127.73,-320.5 126.47,-317.45 125.88,-314.2"/>
<polygon fill="black" stroke="black" points="129.38,-314.15 125.84,-304.17 122.38,-314.18 129.38,-314.15"/>
<text text-anchor="start" x="130" y="-315" font-family="Helvetica,sans-Serif" font-size="10.00">CompletedWaypointNavigation &#160;&#160;</text>
</g>
<!-- main/Obstacle_Avoidance&#45;&gt;main/Waypoint -->
<g id="edge6" class="edge transition">
<title>main/Obstacle_Avoidance&#45;&gt;main/Waypoint</title>
<path fill="none" stroke="black" d="M358.12,-304.15C361.33,-309.59 364.96,-315.74 368.46,-321.67"/>
<polygon fill="black" stroke="black" points="365.68,-323.85 373.78,-330.68 371.71,-320.29 365.68,-323.85"/>
<text text-anchor="start" x="369" y="-315" font-family="Helvetica,sans-Serif" font-size="10.00">AvoidedObstacle &#160;&#160;</text>
</g>
<!-- main/Gate_Code -->
<g id="node7" class="node state regular">
<title>main/Gate_Code</title>
<polygon fill="#ffffff" fill-opacity="0.003922" stroke="transparent" stroke-width="2" points="473.5,-178 360.5,-178 360.5,-142 473.5,-142 473.5,-178"/>
<text text-anchor="start" x="372" y="-156.4" font-family="Helvetica,sans-Serif" font-size="12.00">main/Gate_Code</text>
<path fill="none" stroke="black" stroke-width="2" d="M372.5,-143.5C372.5,-143.5 461.5,-143.5 461.5,-143.5 467,-143.5 472.5,-149 472.5,-154.5 472.5,-154.5 472.5,-165.5 472.5,-165.5 472.5,-171 467,-176.5 461.5,-176.5 461.5,-176.5 372.5,-176.5 372.5,-176.5 367,-176.5 361.5,-171 361.5,-165.5 361.5,-165.5 361.5,-154.5 361.5,-154.5 361.5,-149 367,-143.5 372.5,-143.5"/>
</g>
<!-- main/Gate_or_Post&#45;&gt;main/Gate_Code -->
<g id="edge7" class="edge transition">
<title>main/Gate_or_Post&#45;&gt;main/Gate_Code</title>
<path fill="none" stroke="black" d="M371.17,-204.68C377.44,-198.71 384.58,-191.9 391.34,-185.46"/>
<polygon fill="black" stroke="black" points="394.18,-187.58 399.01,-178.15 389.35,-182.52 394.18,-187.58"/>
<text text-anchor="middle" x="392" y="-189" font-family="Helvetica,sans-Serif" font-size="10.00"> </text>
</g>
<!-- main/Post_Code -->
<g id="node8" class="node state regular">
<title>main/Post_Code</title>
<polygon fill="#ffffff" fill-opacity="0.003922" stroke="transparent" stroke-width="2" points="338.5,-178 227.5,-178 227.5,-142 338.5,-142 338.5,-178"/>
<text text-anchor="start" x="239" y="-156.4" font-family="Helvetica,sans-Serif" font-size="12.00">main/Post_Code</text>
<path fill="none" stroke="black" stroke-width="2" d="M239.5,-143.5C239.5,-143.5 326.5,-143.5 326.5,-143.5 332,-143.5 337.5,-149 337.5,-154.5 337.5,-154.5 337.5,-165.5 337.5,-165.5 337.5,-171 332,-176.5 326.5,-176.5 326.5,-176.5 239.5,-176.5 239.5,-176.5 234,-176.5 228.5,-171 228.5,-165.5 228.5,-165.5 228.5,-154.5 228.5,-154.5 228.5,-149 234,-143.5 239.5,-143.5"/>
</g>
<!-- main/Gate_or_Post&#45;&gt;main/Post_Code -->
<g id="edge8" class="edge transition">
<title>main/Gate_or_Post&#45;&gt;main/Post_Code</title>
<path fill="none" stroke="black" d="M333.13,-204.68C326.12,-198.58 318.12,-191.6 310.59,-185.04"/>
<polygon fill="black" stroke="black" points="312.52,-182.08 302.68,-178.15 307.92,-187.36 312.52,-182.08"/>
<text text-anchor="middle" x="326" y="-189" font-family="Helvetica,sans-Serif" font-size="10.00"> </text>
</g>
<!-- main/Search_Algorithm_For_QR_Code&#45;&gt;main/Gate_or_Post -->
<g id="edge9" class="edge transition">
<title>main/Search_Algorithm_For_QR_Code&#45;&gt;main/Gate_or_Post</title>
<path fill="none" stroke="black" d="M193.13,-267.93C220.44,-260.42 252.68,-251.56 281.03,-243.78"/>
<polygon fill="black" stroke="black" points="282.17,-247.09 290.88,-241.07 280.31,-240.34 282.17,-247.09"/>
<text text-anchor="start" x="261" y="-252" font-family="Helvetica,sans-Serif" font-size="10.00">SearchAlgorithmFoundQRCode &#160;&#160;</text>
</g>
<!-- main/Mission_Complete -->
<g id="node9" class="node state regular">
<title>main/Mission_Complete</title>
<polygon fill="#ffffff" fill-opacity="0.003922" stroke="transparent" stroke-width="2" points="489.5,-115 340.5,-115 340.5,-79 489.5,-79 489.5,-115"/>
<text text-anchor="start" x="352" y="-93.4" font-family="Helvetica,sans-Serif" font-size="12.00">main/Mission_Complete</text>
<path fill="none" stroke="black" stroke-width="2" d="M352.5,-80.5C352.5,-80.5 477.5,-80.5 477.5,-80.5 483,-80.5 488.5,-86 488.5,-91.5 488.5,-91.5 488.5,-102.5 488.5,-102.5 488.5,-108 483,-113.5 477.5,-113.5 477.5,-113.5 352.5,-113.5 352.5,-113.5 347,-113.5 341.5,-108 341.5,-102.5 341.5,-102.5 341.5,-91.5 341.5,-91.5 341.5,-86 347,-80.5 352.5,-80.5"/>
</g>
<!-- main/Gate_Code&#45;&gt;main/Mission_Complete -->
<g id="edge10" class="edge transition">
<title>main/Gate_Code&#45;&gt;main/Mission_Complete</title>
<path fill="none" stroke="black" d="M415.44,-141.8C415.26,-139.19 415.1,-136.52 415,-134 414.89,-131.23 414.82,-128.33 414.77,-125.44"/>
<polygon fill="black" stroke="black" points="418.27,-125.2 414.72,-115.22 411.27,-125.24 418.27,-125.2"/>
<text text-anchor="start" x="415" y="-126" font-family="Helvetica,sans-Serif" font-size="10.00">GateCompleted &#160;&#160;</text>
</g>
<!-- main/Post_Code&#45;&gt;main/Mission_Complete -->
<g id="edge11" class="edge transition">
<title>main/Post_Code&#45;&gt;main/Mission_Complete</title>
<path fill="none" stroke="black" d="M303.43,-141.96C312.13,-135.34 322.65,-128.13 333,-123 335.93,-121.55 338.97,-120.16 342.07,-118.83"/>
<polygon fill="black" stroke="black" points="343.52,-122.02 351.51,-115.06 340.92,-115.52 343.52,-122.02"/>
<text text-anchor="start" x="333" y="-126" font-family="Helvetica,sans-Serif" font-size="10.00">PostCompleted &#160;&#160;</text>
</g>
<!-- main/Mission_Complete&#45;&gt;main/Waypoint -->
<g id="edge13" class="edge transition">
<title>main/Mission_Complete&#45;&gt;main/Waypoint</title>
<path fill="none" stroke="black" d="M481.7,-115.13C485.73,-117.44 489.54,-120.04 493,-123 587.75,-203.99 610.19,-247.85 566,-304 550.97,-323.1 491.4,-334.9 444.46,-341.41"/>
<polygon fill="black" stroke="black" points="443.8,-337.97 434.35,-342.76 444.73,-344.9 443.8,-337.97"/>
<text text-anchor="start" x="586" y="-220.5" font-family="Helvetica,sans-Serif" font-size="10.00">MissionNotCompleted &#160;&#160;</text>
</g>
<!-- main/Done -->
<g id="node10" class="node state regular">
<title>main/Done</title>
<polygon fill="#ffffff" fill-opacity="0.003922" stroke="transparent" stroke-width="2" points="455,-52 375,-52 375,-16 455,-16 455,-52"/>
<text text-anchor="start" x="386" y="-30.4" font-family="Helvetica,sans-Serif" font-size="12.00">main/Done</text>
<path fill="none" stroke="black" stroke-width="2" d="M387,-17.5C387,-17.5 443,-17.5 443,-17.5 448.5,-17.5 454,-23 454,-28.5 454,-28.5 454,-39.5 454,-39.5 454,-45 448.5,-50.5 443,-50.5 443,-50.5 387,-50.5 387,-50.5 381.5,-50.5 376,-45 376,-39.5 376,-39.5 376,-28.5 376,-28.5 376,-23 381.5,-17.5 387,-17.5"/>
</g>
<!-- main/Mission_Complete&#45;&gt;main/Done -->
<g id="edge12" class="edge transition">
<title>main/Mission_Complete&#45;&gt;main/Done</title>
<path fill="none" stroke="black" d="M415,-78.68C415,-73.62 415,-67.95 415,-62.42"/>
<polygon fill="black" stroke="black" points="418.5,-62.15 415,-52.15 411.5,-62.15 418.5,-62.15"/>
<text text-anchor="start" x="415" y="-63" font-family="Helvetica,sans-Serif" font-size="10.00">MissionCompleted &#160;&#160;</text>
</g>
</g>
</svg>
