<?xml version="1.0" encoding="UTF-8" standalone="no"?>
<!DOCTYPE svg PUBLIC "-//W3C//DTD SVG 1.1//EN"
 "http://www.w3.org/Graphics/SVG/1.1/DTD/svg11.dtd">
<!-- Generated by graphviz version 2.49.1 (20210923.0004)
 -->
<!-- Title: state transitions Pages: 1 -->
<svg width="574pt" height="168pt"
 viewBox="0.00 0.00 574.00 168.00" xmlns="http://www.w3.org/2000/svg" xmlns:xlink="http://www.w3.org/1999/xlink">
<g id="graph0" class="graph" transform="scale(1 1) rotate(0) translate(4 164)">
<title>state transitions</title>
<polygon fill="white" stroke="transparent" points="-4,4 -4,-164 570,-164 570,4 -4,4"/>
<g id="clust1" class="cluster state regular">
<title>cluster_main</title>
<path fill="none" stroke="black" stroke-width="2" d="M20,-8C20,-8 546,-8 546,-8 552,-8 558,-14 558,-20 558,-20 558,-140 558,-140 558,-146 552,-152 546,-152 546,-152 20,-152 20,-152 14,-152 8,-146 8,-140 8,-140 8,-20 8,-20 8,-14 14,-8 20,-8"/>
<text text-anchor="start" x="270" y="-133.9" font-family="Helvetica,sans-Serif" font-size="12.00">main</text>
</g>
<!-- main -->
<!-- main/Waypoint -->
<g id="node2" class="node state regular">
<title>main/Waypoint</title>
<polygon fill="#ffffff" fill-opacity="0.003922" stroke="transparent" stroke-width="2" points="372,-115 272,-115 272,-79 372,-79 372,-115"/>
<text text-anchor="start" x="283" y="-93.4" font-family="Helvetica,sans-Serif" font-size="12.00">main/Waypoint</text>
<path fill="none" stroke="black" stroke-width="2" d="M284,-80.5C284,-80.5 360,-80.5 360,-80.5 365.5,-80.5 371,-86 371,-91.5 371,-91.5 371,-102.5 371,-102.5 371,-108 365.5,-113.5 360,-113.5 360,-113.5 284,-113.5 284,-113.5 278.5,-113.5 273,-108 273,-102.5 273,-102.5 273,-91.5 273,-91.5 273,-86 278.5,-80.5 284,-80.5"/>
</g>
<!-- main/SearchAlgorithmForQRCode -->
<g id="node3" class="node state regular">
<title>main/SearchAlgorithmForQRCode</title>
<polygon fill="#ffffff" fill-opacity="0.003922" stroke="transparent" stroke-width="2" points="219.5,-52 16.5,-52 16.5,-16 219.5,-16 219.5,-52"/>
<text text-anchor="start" x="28" y="-30.4" font-family="Helvetica,sans-Serif" font-size="12.00">main/SearchAlgorithmForQRCode</text>
<path fill="none" stroke="black" stroke-width="2" d="M28.5,-17.5C28.5,-17.5 207.5,-17.5 207.5,-17.5 213,-17.5 218.5,-23 218.5,-28.5 218.5,-28.5 218.5,-39.5 218.5,-39.5 218.5,-45 213,-50.5 207.5,-50.5 207.5,-50.5 28.5,-50.5 28.5,-50.5 23,-50.5 17.5,-45 17.5,-39.5 17.5,-39.5 17.5,-28.5 17.5,-28.5 17.5,-23 23,-17.5 28.5,-17.5"/>
</g>
<!-- main/Waypoint&#45;&gt;main/SearchAlgorithmForQRCode -->
<g id="edge1" class="edge transition">
<title>main/Waypoint&#45;&gt;main/SearchAlgorithmForQRCode</title>
<path fill="none" stroke="black" d="M271.71,-92.39C242.69,-89.11 205.94,-82.86 175,-71 166.09,-67.59 157.08,-62.7 148.93,-57.62"/>
<polygon fill="black" stroke="black" points="150.75,-54.63 140.47,-52.09 146.93,-60.49 150.75,-54.63"/>
<text text-anchor="start" x="175" y="-63" font-family="Helvetica,sans-Serif" font-size="10.00">CompletedWaypointNavigation &#160;&#160;</text>
</g>
<!-- main/Obstacle_Avoidance -->
<g id="node4" class="node state regular">
<title>main/Obstacle_Avoidance</title>
<polygon fill="#ffffff" fill-opacity="0.003922" stroke="transparent" stroke-width="2" points="402,-52 242,-52 242,-16 402,-16 402,-52"/>
<text text-anchor="start" x="253" y="-30.4" font-family="Helvetica,sans-Serif" font-size="12.00">main/Obstacle_Avoidance</text>
<path fill="none" stroke="black" stroke-width="2" d="M254,-17.5C254,-17.5 390,-17.5 390,-17.5 395.5,-17.5 401,-23 401,-28.5 401,-28.5 401,-39.5 401,-39.5 401,-45 395.5,-50.5 390,-50.5 390,-50.5 254,-50.5 254,-50.5 248.5,-50.5 243,-45 243,-39.5 243,-39.5 243,-28.5 243,-28.5 243,-23 248.5,-17.5 254,-17.5"/>
</g>
<!-- main/Waypoint&#45;&gt;main/Obstacle_Avoidance -->
<g id="edge2" class="edge transition">
<title>main/Waypoint&#45;&gt;main/Obstacle_Avoidance</title>
<path fill="none" stroke="black" d="M322,-78.68C322,-73.62 322,-67.95 322,-62.42"/>
<polygon fill="black" stroke="black" points="325.5,-62.15 322,-52.15 318.5,-62.15 325.5,-62.15"/>
<text text-anchor="start" x="322" y="-63" font-family="Helvetica,sans-Serif" font-size="10.00">FoundObstacle &#160;&#160;</text>
</g>
<!-- main/Gate_or_Post -->
<g id="node5" class="node state regular">
<title>main/Gate_or_Post</title>
<polygon fill="#ffffff" fill-opacity="0.003922" stroke="transparent" stroke-width="2" points="549.5,-52 424.5,-52 424.5,-16 549.5,-16 549.5,-52"/>
<text text-anchor="start" x="436" y="-30.4" font-family="Helvetica,sans-Serif" font-size="12.00">main/Gate_or_Post</text>
<path fill="none" stroke="black" stroke-width="2" d="M436.5,-17.5C436.5,-17.5 537.5,-17.5 537.5,-17.5 543,-17.5 548.5,-23 548.5,-28.5 548.5,-28.5 548.5,-39.5 548.5,-39.5 548.5,-45 543,-50.5 537.5,-50.5 537.5,-50.5 436.5,-50.5 436.5,-50.5 431,-50.5 425.5,-45 425.5,-39.5 425.5,-39.5 425.5,-28.5 425.5,-28.5 425.5,-23 431,-17.5 436.5,-17.5"/>
</g>
<!-- main/Waypoint&#45;&gt;main/Gate_or_Post -->
<g id="edge3" class="edge transition">
<title>main/Waypoint&#45;&gt;main/Gate_or_Post</title>
<path fill="none" stroke="black" d="M372.4,-81.35C382.59,-78.13 393.19,-74.6 403,-71 415.1,-66.55 427.99,-61.3 439.94,-56.2"/>
<polygon fill="black" stroke="black" points="441.5,-59.34 449.29,-52.17 438.72,-52.92 441.5,-59.34"/>
<text text-anchor="start" x="428" y="-63" font-family="Helvetica,sans-Serif" font-size="10.00">CameraFoundQRCode &#160;&#160;</text>
</g>
</g>
</svg>
