<?xml version="1.0" encoding="UTF-8" standalone="no"?>
<!DOCTYPE svg PUBLIC "-//W3C//DTD SVG 1.1//EN"
 "http://www.w3.org/Graphics/SVG/1.1/DTD/svg11.dtd">
<!-- Generated by graphviz version 2.49.1 (20210923.0004)
 -->
<!-- Title: state transitions Pages: 1 -->
<svg width="270pt" height="483pt"
 viewBox="0.00 0.00 270.00 483.00" xmlns="http://www.w3.org/2000/svg" xmlns:xlink="http://www.w3.org/1999/xlink">
<g id="graph0" class="graph" transform="scale(1 1) rotate(0) translate(4 479)">
<title>state transitions</title>
<polygon fill="white" stroke="transparent" points="-4,4 -4,-479 266,-479 266,4 -4,4"/>
<g id="clust1" class="cluster state regular">
<title>cluster_sm_warehouse</title>
<path fill="none" stroke="black" stroke-width="2" d="M20,-8C20,-8 242,-8 242,-8 248,-8 254,-14 254,-20 254,-20 254,-455 254,-455 254,-461 248,-467 242,-467 242,-467 20,-467 20,-467 14,-467 8,-461 8,-455 8,-455 8,-20 8,-20 8,-14 14,-8 20,-8"/>
<text text-anchor="start" x="91" y="-448.9" font-family="Helvetica,sans-Serif" font-size="12.00">sm_warehouse</text>
</g>
<!-- sm_warehouse -->
<!-- sm_warehouse/POWER_ON -->
<g id="node2" class="node state regular">
<title>sm_warehouse/POWER_ON</title>
<polygon fill="#ffffff" fill-opacity="0.003922" stroke="transparent" stroke-width="2" points="209,-430 35,-430 35,-394 209,-394 209,-430"/>
<text text-anchor="start" x="46" y="-408.4" font-family="Helvetica,sans-Serif" font-size="12.00">sm_warehouse/POWER_ON</text>
<path fill="none" stroke="black" stroke-width="2" d="M47,-395.5C47,-395.5 197,-395.5 197,-395.5 202.5,-395.5 208,-401 208,-406.5 208,-406.5 208,-417.5 208,-417.5 208,-423 202.5,-428.5 197,-428.5 197,-428.5 47,-428.5 47,-428.5 41.5,-428.5 36,-423 36,-417.5 36,-417.5 36,-406.5 36,-406.5 36,-401 41.5,-395.5 47,-395.5"/>
</g>
<!-- sm_warehouse/LOADING_POINT1 -->
<g id="node3" class="node state regular">
<title>sm_warehouse/LOADING_POINT1</title>
<polygon fill="#ffffff" fill-opacity="0.003922" stroke="transparent" stroke-width="2" points="225,-367 19,-367 19,-331 225,-331 225,-367"/>
<text text-anchor="start" x="30" y="-345.4" font-family="Helvetica,sans-Serif" font-size="12.00">sm_warehouse/LOADING_POINT1</text>
<path fill="none" stroke="black" stroke-width="2" d="M31,-332.5C31,-332.5 213,-332.5 213,-332.5 218.5,-332.5 224,-338 224,-343.5 224,-343.5 224,-354.5 224,-354.5 224,-360 218.5,-365.5 213,-365.5 213,-365.5 31,-365.5 31,-365.5 25.5,-365.5 20,-360 20,-354.5 20,-354.5 20,-343.5 20,-343.5 20,-338 25.5,-332.5 31,-332.5"/>
</g>
<!-- sm_warehouse/POWER_ON&#45;&gt;sm_warehouse/LOADING_POINT1 -->
<g id="edge1" class="edge transition">
<title>sm_warehouse/POWER_ON&#45;&gt;sm_warehouse/LOADING_POINT1</title>
<path fill="none" stroke="black" d="M122,-393.68C122,-388.62 122,-382.95 122,-377.42"/>
<polygon fill="black" stroke="black" points="125.5,-377.15 122,-367.15 118.5,-377.15 125.5,-377.15"/>
<text text-anchor="start" x="122" y="-378" font-family="Helvetica,sans-Serif" font-size="10.00">succeeded &#160;&#160;</text>
</g>
<!-- sm_warehouse/LOADING_POINT2 -->
<g id="node4" class="node state regular">
<title>sm_warehouse/LOADING_POINT2</title>
<polygon fill="#ffffff" fill-opacity="0.003922" stroke="transparent" stroke-width="2" points="225,-304 19,-304 19,-268 225,-268 225,-304"/>
<text text-anchor="start" x="30" y="-282.4" font-family="Helvetica,sans-Serif" font-size="12.00">sm_warehouse/LOADING_POINT2</text>
<path fill="none" stroke="black" stroke-width="2" d="M31,-269.5C31,-269.5 213,-269.5 213,-269.5 218.5,-269.5 224,-275 224,-280.5 224,-280.5 224,-291.5 224,-291.5 224,-297 218.5,-302.5 213,-302.5 213,-302.5 31,-302.5 31,-302.5 25.5,-302.5 20,-297 20,-291.5 20,-291.5 20,-280.5 20,-280.5 20,-275 25.5,-269.5 31,-269.5"/>
</g>
<!-- sm_warehouse/LOADING_POINT1&#45;&gt;sm_warehouse/LOADING_POINT2 -->
<g id="edge2" class="edge transition">
<title>sm_warehouse/LOADING_POINT1&#45;&gt;sm_warehouse/LOADING_POINT2</title>
<path fill="none" stroke="black" d="M40.26,-330.9C34.01,-326.06 32.12,-319.89 38,-312 38.14,-311.82 38.27,-311.64 38.41,-311.45"/>
<polygon fill="black" stroke="black" points="41.02,-313.79 45.46,-304.17 35.99,-308.93 41.02,-313.79"/>
<text text-anchor="start" x="38" y="-315" font-family="Helvetica,sans-Serif" font-size="10.00">succeeded &#160;&#160;</text>
</g>
<!-- sm_warehouse/LOADING_POINT1&#45;&gt;sm_warehouse/LOADING_POINT2 -->
<g id="edge3" class="edge transition">
<title>sm_warehouse/LOADING_POINT1&#45;&gt;sm_warehouse/LOADING_POINT2</title>
<path fill="none" stroke="black" d="M122,-330.68C122,-325.62 122,-319.95 122,-314.42"/>
<polygon fill="black" stroke="black" points="125.5,-314.15 122,-304.15 118.5,-314.15 125.5,-314.15"/>
<text text-anchor="start" x="122" y="-315" font-family="Helvetica,sans-Serif" font-size="10.00">aborted &#160;&#160;</text>
</g>
<!-- sm_warehouse/LOADING_POINT1&#45;&gt;sm_warehouse/LOADING_POINT2 -->
<g id="edge4" class="edge transition">
<title>sm_warehouse/LOADING_POINT1&#45;&gt;sm_warehouse/LOADING_POINT2</title>
<path fill="none" stroke="black" d="M159.67,-330.68C164.45,-326.6 167.46,-321.9 163.87,-313.14"/>
<polygon fill="black" stroke="black" points="166.85,-311.31 158.88,-304.32 160.75,-314.75 166.85,-311.31"/>
<text text-anchor="start" x="166" y="-315" font-family="Helvetica,sans-Serif" font-size="10.00">preempted &#160;&#160;</text>
</g>
<!-- sm_warehouse/UNLOADING_POINT1 -->
<g id="node5" class="node state regular">
<title>sm_warehouse/UNLOADING_POINT1</title>
<polygon fill="#ffffff" fill-opacity="0.003922" stroke="transparent" stroke-width="2" points="238,-241 16,-241 16,-205 238,-205 238,-241"/>
<text text-anchor="start" x="27" y="-219.4" font-family="Helvetica,sans-Serif" font-size="12.00">sm_warehouse/UNLOADING_POINT1</text>
<path fill="none" stroke="black" stroke-width="2" d="M28,-206.5C28,-206.5 226,-206.5 226,-206.5 231.5,-206.5 237,-212 237,-217.5 237,-217.5 237,-228.5 237,-228.5 237,-234 231.5,-239.5 226,-239.5 226,-239.5 28,-239.5 28,-239.5 22.5,-239.5 17,-234 17,-228.5 17,-228.5 17,-217.5 17,-217.5 17,-212 22.5,-206.5 28,-206.5"/>
</g>
<!-- sm_warehouse/LOADING_POINT2&#45;&gt;sm_warehouse/UNLOADING_POINT1 -->
<g id="edge5" class="edge transition">
<title>sm_warehouse/LOADING_POINT2&#45;&gt;sm_warehouse/UNLOADING_POINT1</title>
<path fill="none" stroke="black" d="M40.16,-267.82C33.92,-262.99 32.06,-256.84 38,-249 38.14,-248.82 38.28,-248.63 38.42,-248.45"/>
<polygon fill="black" stroke="black" points="41.09,-250.72 45.57,-241.12 36.08,-245.84 41.09,-250.72"/>
<text text-anchor="start" x="38" y="-252" font-family="Helvetica,sans-Serif" font-size="10.00">succeeded &#160;&#160;</text>
</g>
<!-- sm_warehouse/LOADING_POINT2&#45;&gt;sm_warehouse/UNLOADING_POINT1 -->
<g id="edge6" class="edge transition">
<title>sm_warehouse/LOADING_POINT2&#45;&gt;sm_warehouse/UNLOADING_POINT1</title>
<path fill="none" stroke="black" d="M121.31,-267.75C121.27,-263.47 121.33,-258.81 122.01,-251.34"/>
<polygon fill="black" stroke="black" points="125.51,-251.47 123.11,-241.15 118.55,-250.71 125.51,-251.47"/>
<text text-anchor="start" x="122" y="-252" font-family="Helvetica,sans-Serif" font-size="10.00">aborted &#160;&#160;</text>
</g>
<!-- sm_warehouse/LOADING_POINT2&#45;&gt;sm_warehouse/UNLOADING_POINT1 -->
<g id="edge7" class="edge transition">
<title>sm_warehouse/LOADING_POINT2&#45;&gt;sm_warehouse/UNLOADING_POINT1</title>
<path fill="none" stroke="black" d="M158.88,-267.68C161.27,-265.39 163.36,-262.84 165,-260 167.12,-256.32 167.2,-252.78 165.91,-249.46"/>
<polygon fill="black" stroke="black" points="168.55,-247.14 159.77,-241.21 162.93,-251.32 168.55,-247.14"/>
<text text-anchor="start" x="166" y="-252" font-family="Helvetica,sans-Serif" font-size="10.00">preempted &#160;&#160;</text>
</g>
<!-- sm_warehouse/UNLOADING_POINT2 -->
<g id="node6" class="node state regular">
<title>sm_warehouse/UNLOADING_POINT2</title>
<polygon fill="#ffffff" fill-opacity="0.003922" stroke="transparent" stroke-width="2" points="238,-178 16,-178 16,-142 238,-142 238,-178"/>
<text text-anchor="start" x="27" y="-156.4" font-family="Helvetica,sans-Serif" font-size="12.00">sm_warehouse/UNLOADING_POINT2</text>
<path fill="none" stroke="black" stroke-width="2" d="M28,-143.5C28,-143.5 226,-143.5 226,-143.5 231.5,-143.5 237,-149 237,-154.5 237,-154.5 237,-165.5 237,-165.5 237,-171 231.5,-176.5 226,-176.5 226,-176.5 28,-176.5 28,-176.5 22.5,-176.5 17,-171 17,-165.5 17,-165.5 17,-154.5 17,-154.5 17,-149 22.5,-143.5 28,-143.5"/>
</g>
<!-- sm_warehouse/UNLOADING_POINT1&#45;&gt;sm_warehouse/UNLOADING_POINT2 -->
<g id="edge8" class="edge transition">
<title>sm_warehouse/UNLOADING_POINT1&#45;&gt;sm_warehouse/UNLOADING_POINT2</title>
<path fill="none" stroke="black" d="M45.57,-204.88C42.78,-202.56 40.23,-199.94 38,-197 35.22,-193.33 34.07,-190.03 34.25,-187.06"/>
<polygon fill="black" stroke="black" points="37.39,-188.61 39.45,-178.22 31.36,-185.06 37.39,-188.61"/>
<text text-anchor="start" x="38" y="-189" font-family="Helvetica,sans-Serif" font-size="10.00">succeeded &#160;&#160;</text>
</g>
<!-- sm_warehouse/UNLOADING_POINT1&#45;&gt;sm_warehouse/UNLOADING_POINT2 -->
<g id="edge9" class="edge transition">
<title>sm_warehouse/UNLOADING_POINT1&#45;&gt;sm_warehouse/UNLOADING_POINT2</title>
<path fill="none" stroke="black" d="M123.11,-204.85C122.65,-202.24 122.25,-199.55 122,-197 121.72,-194.21 121.69,-191.31 121.83,-188.41"/>
<polygon fill="black" stroke="black" points="125.34,-188.5 122.94,-178.18 118.38,-187.75 125.34,-188.5"/>
<text text-anchor="start" x="122" y="-189" font-family="Helvetica,sans-Serif" font-size="10.00">aborted &#160;&#160;</text>
</g>
<!-- sm_warehouse/UNLOADING_POINT1&#45;&gt;sm_warehouse/UNLOADING_POINT2 -->
<g id="edge10" class="edge transition">
<title>sm_warehouse/UNLOADING_POINT1&#45;&gt;sm_warehouse/UNLOADING_POINT2</title>
<path fill="none" stroke="black" d="M158.97,-204.92C161.35,-202.55 163.43,-199.92 165,-197 167.08,-193.15 167.03,-189.48 165.58,-186.05"/>
<polygon fill="black" stroke="black" points="168.36,-183.91 159.52,-178.07 162.78,-188.15 168.36,-183.91"/>
<text text-anchor="start" x="166" y="-189" font-family="Helvetica,sans-Serif" font-size="10.00">preempted &#160;&#160;</text>
</g>
<!-- sm_warehouse/HALTING_POINT -->
<g id="node7" class="node state regular">
<title>sm_warehouse/HALTING_POINT</title>
<polygon fill="#ffffff" fill-opacity="0.003922" stroke="transparent" stroke-width="2" points="220,-115 24,-115 24,-79 220,-79 220,-115"/>
<text text-anchor="start" x="35" y="-93.4" font-family="Helvetica,sans-Serif" font-size="12.00">sm_warehouse/HALTING_POINT</text>
<path fill="none" stroke="black" stroke-width="2" d="M36,-80.5C36,-80.5 208,-80.5 208,-80.5 213.5,-80.5 219,-86 219,-91.5 219,-91.5 219,-102.5 219,-102.5 219,-108 213.5,-113.5 208,-113.5 208,-113.5 36,-113.5 36,-113.5 30.5,-113.5 25,-108 25,-102.5 25,-102.5 25,-91.5 25,-91.5 25,-86 30.5,-80.5 36,-80.5"/>
</g>
<!-- sm_warehouse/UNLOADING_POINT2&#45;&gt;sm_warehouse/HALTING_POINT -->
<g id="edge11" class="edge transition">
<title>sm_warehouse/UNLOADING_POINT2&#45;&gt;sm_warehouse/HALTING_POINT</title>
<path fill="none" stroke="black" d="M45.57,-141.88C42.78,-139.56 40.23,-136.94 38,-134 35.03,-130.08 34.01,-126.58 34.51,-123.46"/>
<polygon fill="black" stroke="black" points="37.42,-125.41 40.16,-115.18 31.63,-121.47 37.42,-125.41"/>
<text text-anchor="start" x="38" y="-126" font-family="Helvetica,sans-Serif" font-size="10.00">succeeded &#160;&#160;</text>
</g>
<!-- sm_warehouse/UNLOADING_POINT2&#45;&gt;sm_warehouse/HALTING_POINT -->
<g id="edge12" class="edge transition">
<title>sm_warehouse/UNLOADING_POINT2&#45;&gt;sm_warehouse/HALTING_POINT</title>
<path fill="none" stroke="black" d="M123.11,-141.85C122.65,-139.24 122.25,-136.55 122,-134 121.73,-131.24 121.55,-128.35 121.44,-125.47"/>
<polygon fill="black" stroke="black" points="124.94,-125.2 121.31,-115.25 117.94,-125.29 124.94,-125.2"/>
<text text-anchor="start" x="122" y="-126" font-family="Helvetica,sans-Serif" font-size="10.00">aborted &#160;&#160;</text>
</g>
<!-- sm_warehouse/UNLOADING_POINT2&#45;&gt;sm_warehouse/HALTING_POINT -->
<g id="edge13" class="edge transition">
<title>sm_warehouse/UNLOADING_POINT2&#45;&gt;sm_warehouse/HALTING_POINT</title>
<path fill="none" stroke="black" d="M159.77,-141.79C164.39,-137.58 167.38,-132.79 163.82,-124.08"/>
<polygon fill="black" stroke="black" points="166.84,-122.31 158.88,-115.32 160.74,-125.75 166.84,-122.31"/>
<text text-anchor="start" x="166" y="-126" font-family="Helvetica,sans-Serif" font-size="10.00">preempted &#160;&#160;</text>
</g>
<!-- sm_warehouse/ -->
<g id="node8" class="node state regular">
<title>sm_warehouse/</title>
<polygon fill="#ffffff" fill-opacity="0.003922" stroke="transparent" stroke-width="2" points="174.5,-52 69.5,-52 69.5,-16 174.5,-16 174.5,-52"/>
<text text-anchor="start" x="81" y="-30.4" font-family="Helvetica,sans-Serif" font-size="12.00">sm_warehouse/</text>
<path fill="none" stroke="black" stroke-width="2" d="M81.5,-17.5C81.5,-17.5 162.5,-17.5 162.5,-17.5 168,-17.5 173.5,-23 173.5,-28.5 173.5,-28.5 173.5,-39.5 173.5,-39.5 173.5,-45 168,-50.5 162.5,-50.5 162.5,-50.5 81.5,-50.5 81.5,-50.5 76,-50.5 70.5,-45 70.5,-39.5 70.5,-39.5 70.5,-28.5 70.5,-28.5 70.5,-23 76,-17.5 81.5,-17.5"/>
</g>
<!-- sm_warehouse/HALTING_POINT&#45;&gt;sm_warehouse/ -->
<g id="edge14" class="edge transition">
<title>sm_warehouse/HALTING_POINT&#45;&gt;sm_warehouse/</title>
<path fill="none" stroke="black" d="M40.26,-78.9C34.01,-74.06 32.12,-67.89 38,-60 43.54,-52.57 51.21,-47.25 59.67,-43.48"/>
<polygon fill="black" stroke="black" points="60.97,-46.73 69.11,-39.95 58.51,-40.17 60.97,-46.73"/>
<text text-anchor="start" x="38" y="-63" font-family="Helvetica,sans-Serif" font-size="10.00">succeeded &#160;&#160;</text>
</g>
<!-- sm_warehouse/HALTING_POINT&#45;&gt;sm_warehouse/ -->
<g id="edge15" class="edge transition">
<title>sm_warehouse/HALTING_POINT&#45;&gt;sm_warehouse/</title>
<path fill="none" stroke="black" d="M122,-78.68C122,-73.62 122,-67.95 122,-62.42"/>
<polygon fill="black" stroke="black" points="125.5,-62.15 122,-52.15 118.5,-62.15 125.5,-62.15"/>
<text text-anchor="start" x="122" y="-63" font-family="Helvetica,sans-Serif" font-size="10.00">aborted &#160;&#160;</text>
</g>
<!-- sm_warehouse/HALTING_POINT&#45;&gt;sm_warehouse/ -->
<g id="edge16" class="edge transition">
<title>sm_warehouse/HALTING_POINT&#45;&gt;sm_warehouse/</title>
<path fill="none" stroke="black" d="M159.67,-78.68C164.45,-74.6 167.46,-69.9 163.87,-61.14"/>
<polygon fill="black" stroke="black" points="166.85,-59.31 158.88,-52.32 160.75,-62.75 166.85,-59.31"/>
<text text-anchor="start" x="166" y="-63" font-family="Helvetica,sans-Serif" font-size="10.00">preempted &#160;&#160;</text>
</g>
</g>
</svg>
