<?xml version="1.0" encoding="UTF-8" standalone="no"?>
<!DOCTYPE svg PUBLIC "-//W3C//DTD SVG 1.1//EN"
 "http://www.w3.org/Graphics/SVG/1.1/DTD/svg11.dtd">
<!-- Generated by graphviz version 2.49.1 (20210923.0004)
 -->
<!-- Title: state transitions Pages: 1 -->
<svg width="134pt" height="168pt"
 viewBox="0.00 0.00 134.00 168.00" xmlns="http://www.w3.org/2000/svg" xmlns:xlink="http://www.w3.org/1999/xlink">
<g id="graph0" class="graph" transform="scale(1 1) rotate(0) translate(4 164)">
<title>state transitions</title>
<polygon fill="white" stroke="transparent" points="-4,4 -4,-164 130,-164 130,4 -4,4"/>
<g id="clust1" class="cluster state regular">
<title>cluster_sm</title>
<path fill="none" stroke="black" stroke-width="2" d="M20,-8C20,-8 106,-8 106,-8 112,-8 118,-14 118,-20 118,-20 118,-140 118,-140 118,-146 112,-152 106,-152 106,-152 20,-152 20,-152 14,-152 8,-146 8,-140 8,-140 8,-20 8,-20 8,-14 14,-8 20,-8"/>
<text text-anchor="start" x="55" y="-133.9" font-family="Helvetica,sans-Serif" font-size="12.00">sm</text>
</g>
<!-- sm -->
<!-- sm/OBS -->
<g id="node2" class="node state regular">
<title>sm/OBS</title>
<polygon fill="#ffffff" fill-opacity="0.003922" stroke="transparent" stroke-width="2" points="87.5,-115 20.5,-115 20.5,-79 87.5,-79 87.5,-115"/>
<text text-anchor="start" x="32" y="-93.4" font-family="Helvetica,sans-Serif" font-size="12.00">sm/OBS</text>
<path fill="none" stroke="black" stroke-width="2" d="M32.5,-80.5C32.5,-80.5 75.5,-80.5 75.5,-80.5 81,-80.5 86.5,-86 86.5,-91.5 86.5,-91.5 86.5,-102.5 86.5,-102.5 86.5,-108 81,-113.5 75.5,-113.5 75.5,-113.5 32.5,-113.5 32.5,-113.5 27,-113.5 21.5,-108 21.5,-102.5 21.5,-102.5 21.5,-91.5 21.5,-91.5 21.5,-86 27,-80.5 32.5,-80.5"/>
</g>
<!-- sm/outcome4 -->
<g id="node3" class="node state regular">
<title>sm/outcome4</title>
<polygon fill="#ffffff" fill-opacity="0.003922" stroke="transparent" stroke-width="2" points="109.5,-52 16.5,-52 16.5,-16 109.5,-16 109.5,-52"/>
<text text-anchor="start" x="28" y="-30.4" font-family="Helvetica,sans-Serif" font-size="12.00">sm/outcome4</text>
<path fill="none" stroke="black" stroke-width="2" d="M28.5,-17.5C28.5,-17.5 97.5,-17.5 97.5,-17.5 103,-17.5 108.5,-23 108.5,-28.5 108.5,-28.5 108.5,-39.5 108.5,-39.5 108.5,-45 103,-50.5 97.5,-50.5 97.5,-50.5 28.5,-50.5 28.5,-50.5 23,-50.5 17.5,-45 17.5,-39.5 17.5,-39.5 17.5,-28.5 17.5,-28.5 17.5,-23 23,-17.5 28.5,-17.5"/>
</g>
<!-- sm/OBS&#45;&gt;sm/outcome4 -->
<g id="edge1" class="edge transition">
<title>sm/OBS&#45;&gt;sm/outcome4</title>
<path fill="none" stroke="black" d="M56.55,-78.68C57.3,-73.62 58.14,-67.95 58.95,-62.42"/>
<polygon fill="black" stroke="black" points="62.47,-62.55 60.47,-52.15 55.55,-61.53 62.47,-62.55"/>
<text text-anchor="start" x="59" y="-63" font-family="Helvetica,sans-Serif" font-size="10.00">outcome1 &#160;&#160;</text>
</g>
</g>
</svg>
