<?xml version="1.0" encoding="UTF-8" standalone="no"?>
<!DOCTYPE svg PUBLIC "-//W3C//DTD SVG 1.1//EN"
 "http://www.w3.org/Graphics/SVG/1.1/DTD/svg11.dtd">
<!-- Generated by graphviz version 2.49.1 (20210923.0004)
 -->
<!-- Title: state transitions Pages: 1 -->
<svg width="484pt" height="483pt"
 viewBox="0.00 0.00 484.00 483.00" xmlns="http://www.w3.org/2000/svg" xmlns:xlink="http://www.w3.org/1999/xlink">
<g id="graph0" class="graph" transform="scale(1 1) rotate(0) translate(4 479)">
<title>state transitions</title>
<polygon fill="white" stroke="transparent" points="-4,4 -4,-479 480,-479 480,4 -4,4"/>
<g id="clust1" class="cluster state regular">
<title>cluster_self.sm_carry_object</title>
<path fill="none" stroke="black" stroke-width="2" d="M20,-8C20,-8 456,-8 456,-8 462,-8 468,-14 468,-20 468,-20 468,-455 468,-455 468,-461 462,-467 456,-467 456,-467 20,-467 20,-467 14,-467 8,-461 8,-455 8,-455 8,-20 8,-20 8,-14 14,-8 20,-8"/>
<text text-anchor="start" x="184" y="-448.9" font-family="Helvetica,sans-Serif" font-size="12.00">self.sm_carry_object</text>
</g>
<!-- self.sm_carry_object -->
<!-- self.sm_carry_object/GRASP_OBJECT -->
<g id="node2" class="node state regular">
<title>self.sm_carry_object/GRASP_OBJECT</title>
<polygon fill="#ffffff" fill-opacity="0.003922" stroke="transparent" stroke-width="2" points="385.5,-430 156.5,-430 156.5,-394 385.5,-394 385.5,-430"/>
<text text-anchor="start" x="168" y="-408.4" font-family="Helvetica,sans-Serif" font-size="12.00">self.sm_carry_object/GRASP_OBJECT</text>
<path fill="none" stroke="black" stroke-width="2" d="M168.5,-395.5C168.5,-395.5 373.5,-395.5 373.5,-395.5 379,-395.5 384.5,-401 384.5,-406.5 384.5,-406.5 384.5,-417.5 384.5,-417.5 384.5,-423 379,-428.5 373.5,-428.5 373.5,-428.5 168.5,-428.5 168.5,-428.5 163,-428.5 157.5,-423 157.5,-417.5 157.5,-417.5 157.5,-406.5 157.5,-406.5 157.5,-401 163,-395.5 168.5,-395.5"/>
</g>
<!-- self.sm_carry_object/GET_LOCATION -->
<g id="node3" class="node state regular">
<title>self.sm_carry_object/GET_LOCATION</title>
<polygon fill="#ffffff" fill-opacity="0.003922" stroke="transparent" stroke-width="2" points="382.5,-367 159.5,-367 159.5,-331 382.5,-331 382.5,-367"/>
<text text-anchor="start" x="171" y="-345.4" font-family="Helvetica,sans-Serif" font-size="12.00">self.sm_carry_object/GET_LOCATION</text>
<path fill="none" stroke="black" stroke-width="2" d="M171.5,-332.5C171.5,-332.5 370.5,-332.5 370.5,-332.5 376,-332.5 381.5,-338 381.5,-343.5 381.5,-343.5 381.5,-354.5 381.5,-354.5 381.5,-360 376,-365.5 370.5,-365.5 370.5,-365.5 171.5,-365.5 171.5,-365.5 166,-365.5 160.5,-360 160.5,-354.5 160.5,-354.5 160.5,-343.5 160.5,-343.5 160.5,-338 166,-332.5 171.5,-332.5"/>
</g>
<!-- self.sm_carry_object/GRASP_OBJECT&#45;&gt;self.sm_carry_object/GET_LOCATION -->
<g id="edge1" class="edge transition">
<title>self.sm_carry_object/GRASP_OBJECT&#45;&gt;self.sm_carry_object/GET_LOCATION</title>
<path fill="none" stroke="black" d="M271,-393.68C271,-388.62 271,-382.95 271,-377.42"/>
<polygon fill="black" stroke="black" points="274.5,-377.15 271,-367.15 267.5,-377.15 274.5,-377.15"/>
<text text-anchor="start" x="271" y="-378" font-family="Helvetica,sans-Serif" font-size="10.00">succeeded &#160;&#160;</text>
</g>
<!-- self.sm_carry_object/END_ABORT -->
<g id="node7" class="node state regular">
<title>self.sm_carry_object/END_ABORT</title>
<polygon fill="#ffffff" fill-opacity="0.003922" stroke="transparent" stroke-width="2" points="460,-115 254,-115 254,-79 460,-79 460,-115"/>
<text text-anchor="start" x="265" y="-93.4" font-family="Helvetica,sans-Serif" font-size="12.00">self.sm_carry_object/END_ABORT</text>
<path fill="none" stroke="black" stroke-width="2" d="M266,-80.5C266,-80.5 448,-80.5 448,-80.5 453.5,-80.5 459,-86 459,-91.5 459,-91.5 459,-102.5 459,-102.5 459,-108 453.5,-113.5 448,-113.5 448,-113.5 266,-113.5 266,-113.5 260.5,-113.5 255,-108 255,-102.5 255,-102.5 255,-91.5 255,-91.5 255,-86 260.5,-80.5 266,-80.5"/>
</g>
<!-- self.sm_carry_object/GRASP_OBJECT&#45;&gt;self.sm_carry_object/END_ABORT -->
<g id="edge2" class="edge transition">
<title>self.sm_carry_object/GRASP_OBJECT&#45;&gt;self.sm_carry_object/END_ABORT</title>
<path fill="none" stroke="black" d="M352.01,-393.9C367.51,-387.56 382.46,-378.88 394,-367 435.03,-324.76 425.78,-299.16 435,-241 437.51,-225.2 439.96,-220.21 435,-205 424.63,-173.16 400.81,-142.91 382.2,-122.75"/>
<polygon fill="black" stroke="black" points="384.53,-120.12 375.11,-115.28 379.45,-124.94 384.53,-120.12"/>
<text text-anchor="start" x="433" y="-252" font-family="Helvetica,sans-Serif" font-size="10.00">aborted &#160;&#160;</text>
</g>
<!-- self.sm_carry_object/NAV_TO_WAYPOINT -->
<g id="node4" class="node state regular">
<title>self.sm_carry_object/NAV_TO_WAYPOINT</title>
<polygon fill="#ffffff" fill-opacity="0.003922" stroke="transparent" stroke-width="2" points="365,-304 117,-304 117,-268 365,-268 365,-304"/>
<text text-anchor="start" x="128" y="-282.4" font-family="Helvetica,sans-Serif" font-size="12.00">self.sm_carry_object/NAV_TO_WAYPOINT</text>
<path fill="none" stroke="black" stroke-width="2" d="M129,-269.5C129,-269.5 353,-269.5 353,-269.5 358.5,-269.5 364,-275 364,-280.5 364,-280.5 364,-291.5 364,-291.5 364,-297 358.5,-302.5 353,-302.5 353,-302.5 129,-302.5 129,-302.5 123.5,-302.5 118,-297 118,-291.5 118,-291.5 118,-280.5 118,-280.5 118,-275 123.5,-269.5 129,-269.5"/>
</g>
<!-- self.sm_carry_object/GET_LOCATION&#45;&gt;self.sm_carry_object/NAV_TO_WAYPOINT -->
<g id="edge3" class="edge transition">
<title>self.sm_carry_object/GET_LOCATION&#45;&gt;self.sm_carry_object/NAV_TO_WAYPOINT</title>
<path fill="none" stroke="black" d="M262.48,-330.68C259.8,-325.23 256.78,-319.08 253.86,-313.15"/>
<polygon fill="black" stroke="black" points="256.99,-311.58 249.43,-304.15 250.71,-314.67 256.99,-311.58"/>
<text text-anchor="start" x="258" y="-315" font-family="Helvetica,sans-Serif" font-size="10.00">succeeded &#160;&#160;</text>
</g>
<!-- self.sm_carry_object/GET_LOCATION&#45;&gt;self.sm_carry_object/END_ABORT -->
<g id="edge4" class="edge transition">
<title>self.sm_carry_object/GET_LOCATION&#45;&gt;self.sm_carry_object/END_ABORT</title>
<path fill="none" stroke="black" d="M343.19,-330.92C356.12,-324.58 368.01,-315.89 376,-304 405.25,-260.47 382.85,-238.12 377,-186 374.67,-165.24 369.34,-142.24 364.77,-124.95"/>
<polygon fill="black" stroke="black" points="368.07,-123.73 362.06,-115.01 361.31,-125.57 368.07,-123.73"/>
<text text-anchor="start" x="388" y="-220.5" font-family="Helvetica,sans-Serif" font-size="10.00">aborted &#160;&#160;</text>
</g>
<!-- self.sm_carry_object/RELEASE_OBJECT -->
<g id="node5" class="node state regular">
<title>self.sm_carry_object/RELEASE_OBJECT</title>
<polygon fill="#ffffff" fill-opacity="0.003922" stroke="transparent" stroke-width="2" points="310.5,-241 67.5,-241 67.5,-205 310.5,-205 310.5,-241"/>
<text text-anchor="start" x="79" y="-219.4" font-family="Helvetica,sans-Serif" font-size="12.00">self.sm_carry_object/RELEASE_OBJECT</text>
<path fill="none" stroke="black" stroke-width="2" d="M79.5,-206.5C79.5,-206.5 298.5,-206.5 298.5,-206.5 304,-206.5 309.5,-212 309.5,-217.5 309.5,-217.5 309.5,-228.5 309.5,-228.5 309.5,-234 304,-239.5 298.5,-239.5 298.5,-239.5 79.5,-239.5 79.5,-239.5 74,-239.5 68.5,-234 68.5,-228.5 68.5,-228.5 68.5,-217.5 68.5,-217.5 68.5,-212 74,-206.5 79.5,-206.5"/>
</g>
<!-- self.sm_carry_object/NAV_TO_WAYPOINT&#45;&gt;self.sm_carry_object/RELEASE_OBJECT -->
<g id="edge5" class="edge transition">
<title>self.sm_carry_object/NAV_TO_WAYPOINT&#45;&gt;self.sm_carry_object/RELEASE_OBJECT</title>
<path fill="none" stroke="black" d="M226.24,-267.68C221.26,-261.84 215.59,-255.19 210.21,-248.88"/>
<polygon fill="black" stroke="black" points="212.77,-246.49 203.62,-241.15 207.44,-251.03 212.77,-246.49"/>
<text text-anchor="start" x="219" y="-252" font-family="Helvetica,sans-Serif" font-size="10.00">succeeded &#160;&#160;</text>
</g>
<!-- self.sm_carry_object/NAV_TO_WAYPOINT&#45;&gt;self.sm_carry_object/END_ABORT -->
<g id="edge6" class="edge transition">
<title>self.sm_carry_object/NAV_TO_WAYPOINT&#45;&gt;self.sm_carry_object/END_ABORT</title>
<path fill="none" stroke="black" d="M288.52,-267.8C301.05,-261.18 313.45,-252.39 322,-241 337.02,-220.99 328.17,-210.33 334,-186 338.91,-165.53 344.94,-142.51 349.6,-125.15"/>
<polygon fill="black" stroke="black" points="353.07,-125.71 352.3,-115.15 346.31,-123.89 353.07,-125.71"/>
<text text-anchor="start" x="334" y="-189" font-family="Helvetica,sans-Serif" font-size="10.00">aborted &#160;&#160;</text>
</g>
<!-- self.sm_carry_object/TURN_BODY -->
<g id="node6" class="node state regular">
<title>self.sm_carry_object/TURN_BODY</title>
<polygon fill="#ffffff" fill-opacity="0.003922" stroke="transparent" stroke-width="2" points="225,-178 21,-178 21,-142 225,-142 225,-178"/>
<text text-anchor="start" x="32" y="-156.4" font-family="Helvetica,sans-Serif" font-size="12.00">self.sm_carry_object/TURN_BODY</text>
<path fill="none" stroke="black" stroke-width="2" d="M33,-143.5C33,-143.5 213,-143.5 213,-143.5 218.5,-143.5 224,-149 224,-154.5 224,-154.5 224,-165.5 224,-165.5 224,-171 218.5,-176.5 213,-176.5 213,-176.5 33,-176.5 33,-176.5 27.5,-176.5 22,-171 22,-165.5 22,-165.5 22,-154.5 22,-154.5 22,-149 27.5,-143.5 33,-143.5"/>
</g>
<!-- self.sm_carry_object/RELEASE_OBJECT&#45;&gt;self.sm_carry_object/TURN_BODY -->
<g id="edge7" class="edge transition">
<title>self.sm_carry_object/RELEASE_OBJECT&#45;&gt;self.sm_carry_object/TURN_BODY</title>
<path fill="none" stroke="black" d="M170.26,-204.68C163.66,-198.58 156.11,-191.6 149.01,-185.04"/>
<polygon fill="black" stroke="black" points="151.27,-182.37 141.55,-178.15 146.52,-187.51 151.27,-182.37"/>
<text text-anchor="start" x="161" y="-189" font-family="Helvetica,sans-Serif" font-size="10.00">succeeded &#160;&#160;</text>
</g>
<!-- self.sm_carry_object/RELEASE_OBJECT&#45;&gt;self.sm_carry_object/END_ABORT -->
<g id="edge8" class="edge transition">
<title>self.sm_carry_object/RELEASE_OBJECT&#45;&gt;self.sm_carry_object/END_ABORT</title>
<path fill="none" stroke="black" d="M212.97,-204.77C216.37,-202.21 219.8,-199.57 223,-197 252,-173.75 256.1,-164.09 286,-142 296.11,-134.53 307.52,-127.07 318.19,-120.47"/>
<polygon fill="black" stroke="black" points="320.21,-123.34 326.93,-115.15 316.57,-117.36 320.21,-123.34"/>
<text text-anchor="start" x="286" y="-157.5" font-family="Helvetica,sans-Serif" font-size="10.00">aborted &#160;&#160;</text>
</g>
<!-- self.sm_carry_object/TURN_BODY&#45;&gt;self.sm_carry_object/GRASP_OBJECT -->
<g id="edge9" class="edge transition">
<title>self.sm_carry_object/TURN_BODY&#45;&gt;self.sm_carry_object/GRASP_OBJECT</title>
<path fill="none" stroke="black" d="M72.08,-178.14C53.98,-187.69 38,-201.84 38,-222 38,-350 38,-350 38,-350 38,-375.49 90.86,-390.54 146.22,-399.31"/>
<polygon fill="black" stroke="black" points="145.8,-402.78 156.21,-400.82 146.84,-395.86 145.8,-402.78"/>
<text text-anchor="start" x="38" y="-283.5" font-family="Helvetica,sans-Serif" font-size="10.00">succeeded &#160;&#160;</text>
</g>
<!-- self.sm_carry_object/TURN_BODY&#45;&gt;self.sm_carry_object/END_ABORT -->
<g id="edge10" class="edge transition">
<title>self.sm_carry_object/TURN_BODY&#45;&gt;self.sm_carry_object/END_ABORT</title>
<path fill="none" stroke="black" d="M164.46,-141.99C181.73,-135.38 202.12,-128.16 221,-123 228.41,-120.97 236.09,-119.06 243.86,-117.27"/>
<polygon fill="black" stroke="black" points="244.74,-120.66 253.73,-115.07 243.21,-113.83 244.74,-120.66"/>
<text text-anchor="start" x="221" y="-126" font-family="Helvetica,sans-Serif" font-size="10.00">aborted &#160;&#160;</text>
</g>
<!-- self.sm_carry_object/succeeded -->
<g id="node9" class="node state regular">
<title>self.sm_carry_object/succeeded</title>
<polygon fill="#ffffff" fill-opacity="0.003922" stroke="transparent" stroke-width="2" points="298.5,-52 107.5,-52 107.5,-16 298.5,-16 298.5,-52"/>
<text text-anchor="start" x="119" y="-30.4" font-family="Helvetica,sans-Serif" font-size="12.00">self.sm_carry_object/succeeded</text>
<path fill="none" stroke="black" stroke-width="2" d="M119.5,-17.5C119.5,-17.5 286.5,-17.5 286.5,-17.5 292,-17.5 297.5,-23 297.5,-28.5 297.5,-28.5 297.5,-39.5 297.5,-39.5 297.5,-45 292,-50.5 286.5,-50.5 286.5,-50.5 119.5,-50.5 119.5,-50.5 114,-50.5 108.5,-45 108.5,-39.5 108.5,-39.5 108.5,-28.5 108.5,-28.5 108.5,-23 114,-17.5 119.5,-17.5"/>
</g>
<!-- self.sm_carry_object/END_ABORT&#45;&gt;self.sm_carry_object/succeeded -->
<g id="edge11" class="edge transition">
<title>self.sm_carry_object/END_ABORT&#45;&gt;self.sm_carry_object/succeeded</title>
<path fill="none" stroke="black" d="M313.69,-78.85C295.58,-71.67 274.37,-63.27 255.39,-55.75"/>
<polygon fill="black" stroke="black" points="256.57,-52.45 245.98,-52.03 253.99,-58.96 256.57,-52.45"/>
<text text-anchor="start" x="293" y="-63" font-family="Helvetica,sans-Serif" font-size="10.00">succeeded &#160;&#160;</text>
</g>
<!-- self.sm_carry_object/END_SUCESS -->
<g id="node8" class="node state regular">
<title>self.sm_carry_object/END_SUCESS</title>
<polygon fill="#ffffff" fill-opacity="0.003922" stroke="transparent" stroke-width="2" points="231.5,-115 16.5,-115 16.5,-79 231.5,-79 231.5,-115"/>
<text text-anchor="start" x="28" y="-93.4" font-family="Helvetica,sans-Serif" font-size="12.00">self.sm_carry_object/END_SUCESS</text>
<path fill="none" stroke="black" stroke-width="2" d="M28.5,-80.5C28.5,-80.5 219.5,-80.5 219.5,-80.5 225,-80.5 230.5,-86 230.5,-91.5 230.5,-91.5 230.5,-102.5 230.5,-102.5 230.5,-108 225,-113.5 219.5,-113.5 219.5,-113.5 28.5,-113.5 28.5,-113.5 23,-113.5 17.5,-108 17.5,-102.5 17.5,-102.5 17.5,-91.5 17.5,-91.5 17.5,-86 23,-80.5 28.5,-80.5"/>
</g>
<!-- self.sm_carry_object/END_SUCESS&#45;&gt;self.sm_carry_object/succeeded -->
<g id="edge12" class="edge transition">
<title>self.sm_carry_object/END_SUCESS&#45;&gt;self.sm_carry_object/succeeded</title>
<path fill="none" stroke="black" d="M146.43,-78.68C154.59,-72.38 163.95,-65.16 172.68,-58.42"/>
<polygon fill="black" stroke="black" points="175.01,-61.03 180.79,-52.15 170.74,-55.49 175.01,-61.03"/>
<text text-anchor="start" x="170" y="-63" font-family="Helvetica,sans-Serif" font-size="10.00">succeeded &#160;&#160;</text>
</g>
</g>
</svg>
