<?xml version="1.0" encoding="UTF-8" standalone="no"?>
<!DOCTYPE svg PUBLIC "-//W3C//DTD SVG 1.1//EN"
 "http://www.w3.org/Graphics/SVG/1.1/DTD/svg11.dtd">
<!-- Generated by graphviz version 2.49.1 (20210923.0004)
 -->
<!-- Title: state transitions Pages: 1 -->
<svg width="421pt" height="231pt"
 viewBox="0.00 0.00 421.00 231.00" xmlns="http://www.w3.org/2000/svg" xmlns:xlink="http://www.w3.org/1999/xlink">
<g id="graph0" class="graph" transform="scale(1 1) rotate(0) translate(4 227)">
<title>state transitions</title>
<polygon fill="white" stroke="transparent" points="-4,4 -4,-227 417,-227 417,4 -4,4"/>
<g id="clust1" class="cluster state regular">
<title>cluster_sm</title>
<path fill="none" stroke="black" stroke-width="2" d="M20,-8C20,-8 393,-8 393,-8 399,-8 405,-14 405,-20 405,-20 405,-203 405,-203 405,-209 399,-215 393,-215 393,-215 20,-215 20,-215 14,-215 8,-209 8,-203 8,-203 8,-20 8,-20 8,-14 14,-8 20,-8"/>
<text text-anchor="start" x="198.5" y="-196.9" font-family="Helvetica,sans-Serif" font-size="12.00">sm</text>
</g>
<!-- sm -->
<!-- sm/DISENGAGE -->
<g id="node2" class="node state regular">
<title>sm/DISENGAGE</title>
<polygon fill="#ffffff" fill-opacity="0.003922" stroke="transparent" stroke-width="2" points="208,-178 96,-178 96,-142 208,-142 208,-178"/>
<text text-anchor="start" x="107" y="-156.4" font-family="Helvetica,sans-Serif" font-size="12.00">sm/DISENGAGE</text>
<path fill="none" stroke="black" stroke-width="2" d="M108,-143.5C108,-143.5 196,-143.5 196,-143.5 201.5,-143.5 207,-149 207,-154.5 207,-154.5 207,-165.5 207,-165.5 207,-171 201.5,-176.5 196,-176.5 196,-176.5 108,-176.5 108,-176.5 102.5,-176.5 97,-171 97,-165.5 97,-165.5 97,-154.5 97,-154.5 97,-149 102.5,-143.5 108,-143.5"/>
</g>
<!-- sm/FIND_LANE -->
<g id="node3" class="node state regular">
<title>sm/FIND_LANE</title>
<polygon fill="#ffffff" fill-opacity="0.003922" stroke="transparent" stroke-width="2" points="209.5,-115 102.5,-115 102.5,-79 209.5,-79 209.5,-115"/>
<text text-anchor="start" x="114" y="-93.4" font-family="Helvetica,sans-Serif" font-size="12.00">sm/FIND_LANE</text>
<path fill="none" stroke="black" stroke-width="2" d="M114.5,-80.5C114.5,-80.5 197.5,-80.5 197.5,-80.5 203,-80.5 208.5,-86 208.5,-91.5 208.5,-91.5 208.5,-102.5 208.5,-102.5 208.5,-108 203,-113.5 197.5,-113.5 197.5,-113.5 114.5,-113.5 114.5,-113.5 109,-113.5 103.5,-108 103.5,-102.5 103.5,-102.5 103.5,-91.5 103.5,-91.5 103.5,-86 109,-80.5 114.5,-80.5"/>
</g>
<!-- sm/DISENGAGE&#45;&gt;sm/FIND_LANE -->
<g id="edge1" class="edge transition">
<title>sm/DISENGAGE&#45;&gt;sm/FIND_LANE</title>
<path fill="none" stroke="black" d="M123.85,-141.72C119.71,-137.49 116.97,-132.71 120.15,-124.17"/>
<polygon fill="black" stroke="black" points="123.32,-125.66 124.86,-115.17 117.12,-122.41 123.32,-125.66"/>
<text text-anchor="start" x="119" y="-126" font-family="Helvetica,sans-Serif" font-size="10.00">started &#160;&#160;</text>
</g>
<!-- sm/aborted -->
<g id="node4" class="node state regular">
<title>sm/aborted</title>
<polygon fill="#ffffff" fill-opacity="0.003922" stroke="transparent" stroke-width="2" points="125,-52 43,-52 43,-16 125,-16 125,-52"/>
<text text-anchor="start" x="54" y="-30.4" font-family="Helvetica,sans-Serif" font-size="12.00">sm/aborted</text>
<path fill="none" stroke="black" stroke-width="2" d="M55,-17.5C55,-17.5 113,-17.5 113,-17.5 118.5,-17.5 124,-23 124,-28.5 124,-28.5 124,-39.5 124,-39.5 124,-45 118.5,-50.5 113,-50.5 113,-50.5 55,-50.5 55,-50.5 49.5,-50.5 44,-45 44,-39.5 44,-39.5 44,-28.5 44,-28.5 44,-23 49.5,-17.5 55,-17.5"/>
</g>
<!-- sm/DISENGAGE&#45;&gt;sm/aborted -->
<g id="edge2" class="edge transition">
<title>sm/DISENGAGE&#45;&gt;sm/aborted</title>
<path fill="none" stroke="black" d="M95.8,-147.65C78.12,-141.15 60.49,-130.95 50,-115 38.77,-97.93 48.93,-76.54 61,-60.17"/>
<polygon fill="black" stroke="black" points="63.91,-62.13 67.38,-52.12 58.42,-57.78 63.91,-62.13"/>
<text text-anchor="start" x="50" y="-94.5" font-family="Helvetica,sans-Serif" font-size="10.00">aborted &#160;&#160;</text>
</g>
<!-- sm/task_complete -->
<g id="node5" class="node state regular">
<title>sm/task_complete</title>
<polygon fill="#ffffff" fill-opacity="0.003922" stroke="transparent" stroke-width="2" points="397,-115 279,-115 279,-79 397,-79 397,-115"/>
<text text-anchor="start" x="290" y="-93.4" font-family="Helvetica,sans-Serif" font-size="12.00">sm/task_complete</text>
<path fill="none" stroke="black" stroke-width="2" d="M291,-80.5C291,-80.5 385,-80.5 385,-80.5 390.5,-80.5 396,-86 396,-91.5 396,-91.5 396,-102.5 396,-102.5 396,-108 390.5,-113.5 385,-113.5 385,-113.5 291,-113.5 291,-113.5 285.5,-113.5 280,-108 280,-102.5 280,-102.5 280,-91.5 280,-91.5 280,-86 285.5,-80.5 291,-80.5"/>
</g>
<!-- sm/DISENGAGE&#45;&gt;sm/task_complete -->
<g id="edge3" class="edge transition">
<title>sm/DISENGAGE&#45;&gt;sm/task_complete</title>
<path fill="none" stroke="black" d="M204.31,-141.85C226.68,-134.51 252.97,-125.88 276.29,-118.24"/>
<polygon fill="black" stroke="black" points="277.67,-121.47 286.09,-115.03 275.49,-114.82 277.67,-121.47"/>
<text text-anchor="start" x="261" y="-126" font-family="Helvetica,sans-Serif" font-size="10.00">done &#160;&#160;</text>
</g>
<!-- sm/FIND_LANE&#45;&gt;sm/DISENGAGE -->
<g id="edge4" class="edge transition">
<title>sm/FIND_LANE&#45;&gt;sm/DISENGAGE</title>
<path fill="none" stroke="black" d="M159.78,-115.25C160.36,-119.53 160.71,-124.2 159.85,-131.7"/>
<polygon fill="black" stroke="black" points="156.33,-131.53 158.22,-141.95 163.25,-132.63 156.33,-131.53"/>
<text text-anchor="start" x="160" y="-126" font-family="Helvetica,sans-Serif" font-size="10.00">found &#160;&#160;</text>
</g>
<!-- sm/FIND_LANE&#45;&gt;sm/FIND_LANE -->
<g id="edge6" class="edge transition">
<title>sm/FIND_LANE&#45;&gt;sm/FIND_LANE</title>
<path fill="none" stroke="black" d="M209.61,-102.51C222.21,-102.06 231.5,-100.22 231.5,-97 231.5,-94.73 226.91,-93.15 219.8,-92.26"/>
<polygon fill="black" stroke="black" points="219.85,-88.75 209.61,-91.49 219.32,-95.73 219.85,-88.75"/>
<text text-anchor="start" x="231.5" y="-94.5" font-family="Helvetica,sans-Serif" font-size="10.00">retry &#160;&#160;</text>
</g>
<!-- sm/FIND_LANE&#45;&gt;sm/aborted -->
<g id="edge5" class="edge transition">
<title>sm/FIND_LANE&#45;&gt;sm/aborted</title>
<path fill="none" stroke="black" d="M135.56,-78.68C128.2,-72.45 119.77,-65.3 111.88,-58.62"/>
<polygon fill="black" stroke="black" points="114.13,-55.94 104.24,-52.15 109.61,-61.28 114.13,-55.94"/>
<text text-anchor="start" x="126" y="-63" font-family="Helvetica,sans-Serif" font-size="10.00">aborted &#160;&#160;</text>
</g>
</g>
</svg>
