<?xml version="1.0" encoding="UTF-8" standalone="no"?>
<!DOCTYPE svg PUBLIC "-//W3C//DTD SVG 1.1//EN"
 "http://www.w3.org/Graphics/SVG/1.1/DTD/svg11.dtd">
<!-- Generated by graphviz version 2.49.1 (20210923.0004)
 -->
<!-- Title: state transitions Pages: 1 -->
<svg width="310pt" height="168pt"
 viewBox="0.00 0.00 310.00 168.00" xmlns="http://www.w3.org/2000/svg" xmlns:xlink="http://www.w3.org/1999/xlink">
<g id="graph0" class="graph" transform="scale(1 1) rotate(0) translate(4 164)">
<title>state transitions</title>
<polygon fill="white" stroke="transparent" points="-4,4 -4,-164 306,-164 306,4 -4,4"/>
<g id="clust1" class="cluster state regular">
<title>cluster_patrol</title>
<path fill="none" stroke="black" stroke-width="2" d="M20,-8C20,-8 282,-8 282,-8 288,-8 294,-14 294,-20 294,-20 294,-140 294,-140 294,-146 288,-152 282,-152 282,-152 20,-152 20,-152 14,-152 8,-146 8,-140 8,-140 8,-20 8,-20 8,-14 14,-8 20,-8"/>
<text text-anchor="start" x="136" y="-133.9" font-family="Helvetica,sans-Serif" font-size="12.00">patrol</text>
</g>
<!-- patrol -->
<!-- patrol/KITCHEN -->
<g id="node2" class="node state regular">
<title>patrol/KITCHEN</title>
<polygon fill="#ffffff" fill-opacity="0.003922" stroke="transparent" stroke-width="2" points="264,-115 158,-115 158,-79 264,-79 264,-115"/>
<text text-anchor="start" x="169" y="-93.4" font-family="Helvetica,sans-Serif" font-size="12.00">patrol/KITCHEN</text>
<path fill="none" stroke="black" stroke-width="2" d="M170,-80.5C170,-80.5 252,-80.5 252,-80.5 257.5,-80.5 263,-86 263,-91.5 263,-91.5 263,-102.5 263,-102.5 263,-108 257.5,-113.5 252,-113.5 252,-113.5 170,-113.5 170,-113.5 164.5,-113.5 159,-108 159,-102.5 159,-102.5 159,-91.5 159,-91.5 159,-86 164.5,-80.5 170,-80.5"/>
</g>
<!-- patrol/entrance -->
<g id="node4" class="node state regular">
<title>patrol/entrance</title>
<polygon fill="#ffffff" fill-opacity="0.003922" stroke="transparent" stroke-width="2" points="261,-52 161,-52 161,-16 261,-16 261,-52"/>
<text text-anchor="start" x="172" y="-30.4" font-family="Helvetica,sans-Serif" font-size="12.00">patrol/entrance</text>
<path fill="none" stroke="black" stroke-width="2" d="M173,-17.5C173,-17.5 249,-17.5 249,-17.5 254.5,-17.5 260,-23 260,-28.5 260,-28.5 260,-39.5 260,-39.5 260,-45 254.5,-50.5 249,-50.5 249,-50.5 173,-50.5 173,-50.5 167.5,-50.5 162,-45 162,-39.5 162,-39.5 162,-28.5 162,-28.5 162,-23 167.5,-17.5 173,-17.5"/>
</g>
<!-- patrol/KITCHEN&#45;&gt;patrol/entrance -->
<g id="edge1" class="edge transition">
<title>patrol/KITCHEN&#45;&gt;patrol/entrance</title>
<path fill="none" stroke="black" d="M211,-78.68C211,-73.62 211,-67.95 211,-62.42"/>
<polygon fill="black" stroke="black" points="214.5,-62.15 211,-52.15 207.5,-62.15 214.5,-62.15"/>
<text text-anchor="start" x="211" y="-63" font-family="Helvetica,sans-Serif" font-size="10.00">success &#160;&#160;</text>
</g>
<!-- patrol/ENTRANCE -->
<g id="node3" class="node state regular">
<title>patrol/ENTRANCE</title>
<polygon fill="#ffffff" fill-opacity="0.003922" stroke="transparent" stroke-width="2" points="136,-115 16,-115 16,-79 136,-79 136,-115"/>
<text text-anchor="start" x="27" y="-93.4" font-family="Helvetica,sans-Serif" font-size="12.00">patrol/ENTRANCE</text>
<path fill="none" stroke="black" stroke-width="2" d="M28,-80.5C28,-80.5 124,-80.5 124,-80.5 129.5,-80.5 135,-86 135,-91.5 135,-91.5 135,-102.5 135,-102.5 135,-108 129.5,-113.5 124,-113.5 124,-113.5 28,-113.5 28,-113.5 22.5,-113.5 17,-108 17,-102.5 17,-102.5 17,-91.5 17,-91.5 17,-86 22.5,-80.5 28,-80.5"/>
</g>
<!-- patrol/kitchen -->
<g id="node5" class="node state regular">
<title>patrol/kitchen</title>
<polygon fill="#ffffff" fill-opacity="0.003922" stroke="transparent" stroke-width="2" points="122,-52 30,-52 30,-16 122,-16 122,-52"/>
<text text-anchor="start" x="41" y="-30.4" font-family="Helvetica,sans-Serif" font-size="12.00">patrol/kitchen</text>
<path fill="none" stroke="black" stroke-width="2" d="M42,-17.5C42,-17.5 110,-17.5 110,-17.5 115.5,-17.5 121,-23 121,-28.5 121,-28.5 121,-39.5 121,-39.5 121,-45 115.5,-50.5 110,-50.5 110,-50.5 42,-50.5 42,-50.5 36.5,-50.5 31,-45 31,-39.5 31,-39.5 31,-28.5 31,-28.5 31,-23 36.5,-17.5 42,-17.5"/>
</g>
<!-- patrol/ENTRANCE&#45;&gt;patrol/kitchen -->
<g id="edge2" class="edge transition">
<title>patrol/ENTRANCE&#45;&gt;patrol/kitchen</title>
<path fill="none" stroke="black" d="M76,-78.68C76,-73.62 76,-67.95 76,-62.42"/>
<polygon fill="black" stroke="black" points="79.5,-62.15 76,-52.15 72.5,-62.15 79.5,-62.15"/>
<text text-anchor="start" x="76" y="-63" font-family="Helvetica,sans-Serif" font-size="10.00">success &#160;&#160;</text>
</g>
</g>
</svg>
