<?xml version="1.0" encoding="UTF-8" standalone="no"?>
<!DOCTYPE svg PUBLIC "-//W3C//DTD SVG 1.1//EN"
 "http://www.w3.org/Graphics/SVG/1.1/DTD/svg11.dtd">
<!-- Generated by graphviz version 2.49.1 (20210923.0004)
 -->
<!-- Title: state transitions Pages: 1 -->
<svg width="466pt" height="483pt"
 viewBox="0.00 0.00 466.00 483.00" xmlns="http://www.w3.org/2000/svg" xmlns:xlink="http://www.w3.org/1999/xlink">
<g id="graph0" class="graph" transform="scale(1 1) rotate(0) translate(4 479)">
<title>state transitions</title>
<polygon fill="white" stroke="transparent" points="-4,4 -4,-479 462,-479 462,4 -4,4"/>
<g id="clust1" class="cluster state regular">
<title>cluster_sm</title>
<path fill="none" stroke="black" stroke-width="2" d="M20,-8C20,-8 390,-8 390,-8 396,-8 402,-14 402,-20 402,-20 402,-455 402,-455 402,-461 396,-467 390,-467 390,-467 20,-467 20,-467 14,-467 8,-461 8,-455 8,-455 8,-20 8,-20 8,-14 14,-8 20,-8"/>
<text text-anchor="start" x="197" y="-448.9" font-family="Helvetica,sans-Serif" font-size="12.00">sm</text>
</g>
<!-- sm -->
<!-- sm/STOP -->
<g id="node2" class="node state regular">
<title>sm/STOP</title>
<polygon fill="#ffffff" fill-opacity="0.003922" stroke="transparent" stroke-width="2" points="248,-430 174,-430 174,-394 248,-394 248,-430"/>
<text text-anchor="start" x="185" y="-408.4" font-family="Helvetica,sans-Serif" font-size="12.00">sm/STOP</text>
<path fill="none" stroke="black" stroke-width="2" d="M186,-395.5C186,-395.5 236,-395.5 236,-395.5 241.5,-395.5 247,-401 247,-406.5 247,-406.5 247,-417.5 247,-417.5 247,-423 241.5,-428.5 236,-428.5 236,-428.5 186,-428.5 186,-428.5 180.5,-428.5 175,-423 175,-417.5 175,-417.5 175,-406.5 175,-406.5 175,-401 180.5,-395.5 186,-395.5"/>
</g>
<!-- sm/STOP&#45;&gt;sm/STOP -->
<g id="edge1" class="edge transition">
<title>sm/STOP&#45;&gt;sm/STOP</title>
<path fill="none" stroke="black" d="M248.16,-417.62C260.32,-417.6 270,-415.72 270,-412 270,-409.44 265.42,-407.76 258.61,-406.94"/>
<polygon fill="black" stroke="black" points="258.34,-403.42 248.16,-406.38 257.96,-410.41 258.34,-403.42"/>
<text text-anchor="start" x="270" y="-409.5" font-family="Helvetica,sans-Serif" font-size="10.00">continue_stop &#160;&#160;</text>
</g>
<!-- sm/ROAMING -->
<g id="node3" class="node state regular">
<title>sm/ROAMING</title>
<polygon fill="#ffffff" fill-opacity="0.003922" stroke="transparent" stroke-width="2" points="238,-367 142,-367 142,-331 238,-331 238,-367"/>
<text text-anchor="start" x="153" y="-345.4" font-family="Helvetica,sans-Serif" font-size="12.00">sm/ROAMING</text>
<path fill="none" stroke="black" stroke-width="2" d="M154,-332.5C154,-332.5 226,-332.5 226,-332.5 231.5,-332.5 237,-338 237,-343.5 237,-343.5 237,-354.5 237,-354.5 237,-360 231.5,-365.5 226,-365.5 226,-365.5 154,-365.5 154,-365.5 148.5,-365.5 143,-360 143,-354.5 143,-354.5 143,-343.5 143,-343.5 143,-338 148.5,-332.5 154,-332.5"/>
</g>
<!-- sm/STOP&#45;&gt;sm/ROAMING -->
<g id="edge2" class="edge transition">
<title>sm/STOP&#45;&gt;sm/ROAMING</title>
<path fill="none" stroke="black" d="M205.04,-393.68C203.25,-388.49 201.24,-382.66 199.29,-377"/>
<polygon fill="black" stroke="black" points="202.47,-375.47 195.9,-367.15 195.85,-377.74 202.47,-375.47"/>
<text text-anchor="start" x="202" y="-378" font-family="Helvetica,sans-Serif" font-size="10.00">start_roaming &#160;&#160;</text>
</g>
<!-- sm/ROAMING&#45;&gt;sm/ROAMING -->
<g id="edge3" class="edge transition">
<title>sm/ROAMING&#45;&gt;sm/ROAMING</title>
<path fill="none" stroke="black" d="M238.09,-354.57C250.58,-354.22 260,-352.37 260,-349 260,-346.63 255.34,-345.01 248.24,-344.14"/>
<polygon fill="black" stroke="black" points="248.31,-340.63 238.09,-343.43 247.83,-347.62 248.31,-340.63"/>
<text text-anchor="start" x="260" y="-346.5" font-family="Helvetica,sans-Serif" font-size="10.00">No_one_detected &#160;&#160;</text>
</g>
<!-- sm/FOLLOW -->
<g id="node4" class="node state regular">
<title>sm/FOLLOW</title>
<polygon fill="#ffffff" fill-opacity="0.003922" stroke="transparent" stroke-width="2" points="108,-304 16,-304 16,-268 108,-268 108,-304"/>
<text text-anchor="start" x="27" y="-282.4" font-family="Helvetica,sans-Serif" font-size="12.00">sm/FOLLOW</text>
<path fill="none" stroke="black" stroke-width="2" d="M28,-269.5C28,-269.5 96,-269.5 96,-269.5 101.5,-269.5 107,-275 107,-280.5 107,-280.5 107,-291.5 107,-291.5 107,-297 101.5,-302.5 96,-302.5 96,-302.5 28,-302.5 28,-302.5 22.5,-302.5 17,-297 17,-291.5 17,-291.5 17,-280.5 17,-280.5 17,-275 22.5,-269.5 28,-269.5"/>
</g>
<!-- sm/ROAMING&#45;&gt;sm/FOLLOW -->
<g id="edge4" class="edge transition">
<title>sm/ROAMING&#45;&gt;sm/FOLLOW</title>
<path fill="none" stroke="black" d="M141.64,-346.65C102.27,-344.4 51.15,-338.49 38,-323 35.29,-319.81 34.9,-316.29 35.95,-312.76"/>
<polygon fill="black" stroke="black" points="39,-314.47 41.01,-304.07 32.95,-310.94 39,-314.47"/>
<text text-anchor="start" x="38" y="-315" font-family="Helvetica,sans-Serif" font-size="10.00">person_detected &#160;&#160;</text>
</g>
<!-- sm/FOLLOW&#45;&gt;sm/ROAMING -->
<g id="edge6" class="edge transition">
<title>sm/FOLLOW&#45;&gt;sm/ROAMING</title>
<path fill="none" stroke="black" d="M103.45,-304.07C109.37,-306.65 115.37,-309.34 121,-312 130.35,-316.41 140.27,-321.4 149.59,-326.23"/>
<polygon fill="black" stroke="black" points="148.18,-329.44 158.66,-330.98 151.43,-323.24 148.18,-329.44"/>
<text text-anchor="start" x="142" y="-315" font-family="Helvetica,sans-Serif" font-size="10.00">lost_person_in_follow &#160;&#160;</text>
</g>
<!-- sm/FOLLOW&#45;&gt;sm/FOLLOW -->
<g id="edge5" class="edge transition">
<title>sm/FOLLOW&#45;&gt;sm/FOLLOW</title>
<path fill="none" stroke="black" d="M108.08,-291.58C120.53,-291.29 130,-289.43 130,-286 130,-283.59 125.32,-281.95 118.21,-281.09"/>
<polygon fill="black" stroke="black" points="118.3,-277.59 108.08,-280.42 117.83,-284.58 118.3,-277.59"/>
<text text-anchor="start" x="130" y="-283.5" font-family="Helvetica,sans-Serif" font-size="10.00">following &#160;&#160;</text>
</g>
<!-- sm/SPEAK -->
<g id="node5" class="node state regular">
<title>sm/SPEAK</title>
<polygon fill="#ffffff" fill-opacity="0.003922" stroke="transparent" stroke-width="2" points="99.5,-241 16.5,-241 16.5,-205 99.5,-205 99.5,-241"/>
<text text-anchor="start" x="28" y="-219.4" font-family="Helvetica,sans-Serif" font-size="12.00">sm/SPEAK</text>
<path fill="none" stroke="black" stroke-width="2" d="M28.5,-206.5C28.5,-206.5 87.5,-206.5 87.5,-206.5 93,-206.5 98.5,-212 98.5,-217.5 98.5,-217.5 98.5,-228.5 98.5,-228.5 98.5,-234 93,-239.5 87.5,-239.5 87.5,-239.5 28.5,-239.5 28.5,-239.5 23,-239.5 17.5,-234 17.5,-228.5 17.5,-228.5 17.5,-217.5 17.5,-217.5 17.5,-212 23,-206.5 28.5,-206.5"/>
</g>
<!-- sm/FOLLOW&#45;&gt;sm/SPEAK -->
<g id="edge7" class="edge transition">
<title>sm/FOLLOW&#45;&gt;sm/SPEAK</title>
<path fill="none" stroke="black" d="M60.86,-267.68C60.53,-262.62 60.16,-256.95 59.8,-251.42"/>
<polygon fill="black" stroke="black" points="63.27,-250.9 59.12,-241.15 56.29,-251.36 63.27,-250.9"/>
<text text-anchor="start" x="60" y="-252" font-family="Helvetica,sans-Serif" font-size="10.00">reach_person &#160;&#160;</text>
</g>
<!-- sm/SPEAK&#45;&gt;sm/ROAMING -->
<g id="edge8" class="edge transition">
<title>sm/SPEAK&#45;&gt;sm/ROAMING</title>
<path fill="none" stroke="black" d="M99.76,-237.58C110.61,-241.2 122.27,-245.17 133,-249 155.39,-256.98 162.06,-256.74 183,-268 207.11,-280.97 209.57,-289.83 233,-304 239.8,-308.11 244.82,-305.24 249,-312 253.08,-318.6 251.34,-324.16 246.45,-328.78"/>
<polygon fill="black" stroke="black" points="244.36,-325.97 238.1,-334.52 248.33,-331.74 244.36,-325.97"/>
<text text-anchor="start" x="233" y="-283.5" font-family="Helvetica,sans-Serif" font-size="10.00">fail_speak &#160;&#160;</text>
</g>
<!-- sm/DETECT_GESTURE -->
<g id="node6" class="node state regular">
<title>sm/DETECT_GESTURE</title>
<polygon fill="#ffffff" fill-opacity="0.003922" stroke="transparent" stroke-width="2" points="169.5,-178 16.5,-178 16.5,-142 169.5,-142 169.5,-178"/>
<text text-anchor="start" x="28" y="-156.4" font-family="Helvetica,sans-Serif" font-size="12.00">sm/DETECT_GESTURE</text>
<path fill="none" stroke="black" stroke-width="2" d="M28.5,-143.5C28.5,-143.5 157.5,-143.5 157.5,-143.5 163,-143.5 168.5,-149 168.5,-154.5 168.5,-154.5 168.5,-165.5 168.5,-165.5 168.5,-171 163,-176.5 157.5,-176.5 157.5,-176.5 28.5,-176.5 28.5,-176.5 23,-176.5 17.5,-171 17.5,-165.5 17.5,-165.5 17.5,-154.5 17.5,-154.5 17.5,-149 23,-143.5 28.5,-143.5"/>
</g>
<!-- sm/SPEAK&#45;&gt;sm/DETECT_GESTURE -->
<g id="edge9" class="edge transition">
<title>sm/SPEAK&#45;&gt;sm/DETECT_GESTURE</title>
<path fill="none" stroke="black" d="M62.71,-204.92C64.3,-200.18 66.29,-195.03 71.15,-186.72"/>
<polygon fill="black" stroke="black" points="74.19,-188.45 76.49,-178.11 68.24,-184.76 74.19,-188.45"/>
<text text-anchor="start" x="71" y="-189" font-family="Helvetica,sans-Serif" font-size="10.00">speaked &#160;&#160;</text>
</g>
<!-- sm/DETECT_GESTURE&#45;&gt;sm/ROAMING -->
<g id="edge12" class="edge transition">
<title>sm/DETECT_GESTURE&#45;&gt;sm/ROAMING</title>
<path fill="none" stroke="black" d="M111.94,-178.27C114.14,-180.74 116.22,-183.35 118,-186 132.76,-208.01 121.29,-223.3 141,-241 152.04,-250.91 190.44,-257.16 205,-260 222.97,-263.51 274.7,-254.44 287,-268 297.75,-279.85 294.82,-290.04 287,-304 278.66,-318.9 263.71,-328.77 248.02,-335.31"/>
<polygon fill="black" stroke="black" points="246.35,-332.2 238.2,-338.96 248.79,-338.76 246.35,-332.2"/>
<text text-anchor="start" x="205" y="-252" font-family="Helvetica,sans-Serif" font-size="10.00">fail_to_detect_gesture &#160;&#160;</text>
</g>
<!-- sm/DETECT_GESTURE&#45;&gt;sm/DETECT_GESTURE -->
<g id="edge10" class="edge transition">
<title>sm/DETECT_GESTURE&#45;&gt;sm/DETECT_GESTURE</title>
<path fill="none" stroke="black" d="M169.82,-165.23C182.65,-164.5 191.5,-162.75 191.5,-160 191.5,-158.06 187.12,-156.63 180.06,-155.69"/>
<polygon fill="black" stroke="black" points="180.09,-152.18 169.82,-154.77 179.46,-159.15 180.09,-152.18"/>
<text text-anchor="start" x="191.5" y="-157.5" font-family="Helvetica,sans-Serif" font-size="10.00">detecting_gesture &#160;&#160;</text>
</g>
<!-- sm/DO_GESTURE -->
<g id="node7" class="node state regular">
<title>sm/DO_GESTURE</title>
<polygon fill="#ffffff" fill-opacity="0.003922" stroke="transparent" stroke-width="2" points="265.5,-115 142.5,-115 142.5,-79 265.5,-79 265.5,-115"/>
<text text-anchor="start" x="154" y="-93.4" font-family="Helvetica,sans-Serif" font-size="12.00">sm/DO_GESTURE</text>
<path fill="none" stroke="black" stroke-width="2" d="M154.5,-80.5C154.5,-80.5 253.5,-80.5 253.5,-80.5 259,-80.5 264.5,-86 264.5,-91.5 264.5,-91.5 264.5,-102.5 264.5,-102.5 264.5,-108 259,-113.5 253.5,-113.5 253.5,-113.5 154.5,-113.5 154.5,-113.5 149,-113.5 143.5,-108 143.5,-102.5 143.5,-102.5 143.5,-91.5 143.5,-91.5 143.5,-86 149,-80.5 154.5,-80.5"/>
</g>
<!-- sm/DETECT_GESTURE&#45;&gt;sm/DO_GESTURE -->
<g id="edge11" class="edge transition">
<title>sm/DETECT_GESTURE&#45;&gt;sm/DO_GESTURE</title>
<path fill="none" stroke="black" d="M124.22,-141.85C136.61,-135.03 151.03,-127.11 164.17,-119.89"/>
<polygon fill="black" stroke="black" points="165.94,-122.91 173.02,-115.03 162.57,-116.77 165.94,-122.91"/>
<text text-anchor="start" x="158" y="-126" font-family="Helvetica,sans-Serif" font-size="10.00">gesture_detected &#160;&#160;</text>
</g>
<!-- sm/DO_GESTURE&#45;&gt;sm/ROAMING -->
<g id="edge13" class="edge transition">
<title>sm/DO_GESTURE&#45;&gt;sm/ROAMING</title>
<path fill="none" stroke="black" d="M255.87,-115.13C267.81,-121.61 279.03,-130.35 286,-142 294.21,-155.73 295.93,-165.46 286,-178 276.36,-190.17 267.03,-182.1 252,-186 222.04,-193.77 203.66,-180.31 185,-205 175.35,-217.76 174.05,-229.33 185,-241 204.2,-261.46 291.8,-228.54 311,-249 335.17,-274.76 311.14,-303.04 282,-323 271.87,-329.94 259.87,-334.96 247.95,-338.59"/>
<polygon fill="black" stroke="black" points="246.72,-335.3 238,-341.32 248.57,-342.05 246.72,-335.3"/>
<text text-anchor="start" x="185" y="-220.5" font-family="Helvetica,sans-Serif" font-size="10.00">fail_doing_gesture &#160;&#160;</text>
</g>
<!-- sm/GO_TO_POINT -->
<g id="node8" class="node state regular">
<title>sm/GO_TO_POINT</title>
<polygon fill="#ffffff" fill-opacity="0.003922" stroke="transparent" stroke-width="2" points="383.5,-52 260.5,-52 260.5,-16 383.5,-16 383.5,-52"/>
<text text-anchor="start" x="272" y="-30.4" font-family="Helvetica,sans-Serif" font-size="12.00">sm/GO_TO_POINT</text>
<path fill="none" stroke="black" stroke-width="2" d="M272.5,-17.5C272.5,-17.5 371.5,-17.5 371.5,-17.5 377,-17.5 382.5,-23 382.5,-28.5 382.5,-28.5 382.5,-39.5 382.5,-39.5 382.5,-45 377,-50.5 371.5,-50.5 371.5,-50.5 272.5,-50.5 272.5,-50.5 267,-50.5 261.5,-45 261.5,-39.5 261.5,-39.5 261.5,-28.5 261.5,-28.5 261.5,-23 267,-17.5 272.5,-17.5"/>
</g>
<!-- sm/DO_GESTURE&#45;&gt;sm/GO_TO_POINT -->
<g id="edge14" class="edge transition">
<title>sm/DO_GESTURE&#45;&gt;sm/GO_TO_POINT</title>
<path fill="none" stroke="black" d="M199.7,-78.71C199.11,-72.2 199.83,-65.15 204,-60 210.49,-51.99 229.43,-46.45 250.28,-42.66"/>
<polygon fill="black" stroke="black" points="251.01,-46.08 260.3,-40.98 249.86,-39.18 251.01,-46.08"/>
<text text-anchor="start" x="204" y="-63" font-family="Helvetica,sans-Serif" font-size="10.00">succeed_doing_gesture &#160;&#160;</text>
</g>
<!-- sm/GO_TO_POINT&#45;&gt;sm/STOP -->
<g id="edge16" class="edge transition">
<title>sm/GO_TO_POINT&#45;&gt;sm/STOP</title>
<path fill="none" stroke="black" d="M331.1,-52.08C358.41,-105.92 432.89,-273.98 352,-367 328.79,-393.69 289.67,-404.39 258.51,-408.58"/>
<polygon fill="black" stroke="black" points="257.82,-405.14 248.29,-409.77 258.63,-412.1 257.82,-405.14"/>
<text text-anchor="start" x="388" y="-220.5" font-family="Helvetica,sans-Serif" font-size="10.00">point_reached &#160;&#160;</text>
</g>
<!-- sm/GO_TO_POINT&#45;&gt;sm/ROAMING -->
<g id="edge15" class="edge transition">
<title>sm/GO_TO_POINT&#45;&gt;sm/ROAMING</title>
<path fill="none" stroke="black" d="M319.84,-52.25C319.03,-58.2 318.05,-64.91 317,-71 308.77,-118.85 324.57,-139.5 295,-178 290.16,-184.31 283.18,-179.24 279,-186 272.24,-196.94 287.67,-232.15 297,-241 304.86,-248.45 313.73,-240.18 320,-249 334.17,-268.94 328.92,-282.11 318,-304 305.24,-329.56 275.74,-340.77 248.27,-345.49"/>
<polygon fill="black" stroke="black" points="247.66,-342.04 238.27,-346.95 248.67,-348.97 247.66,-342.04"/>
<text text-anchor="start" x="279" y="-189" font-family="Helvetica,sans-Serif" font-size="10.00">fail_Reach_the_point &#160;&#160;</text>
</g>
</g>
</svg>
