<?xml version="1.0" encoding="UTF-8" standalone="no"?>
<!DOCTYPE svg PUBLIC "-//W3C//DTD SVG 1.1//EN"
 "http://www.w3.org/Graphics/SVG/1.1/DTD/svg11.dtd">
<!-- Generated by graphviz version 2.49.1 (20210923.0004)
 -->
<!-- Title: state transitions Pages: 1 -->
<svg width="854pt" height="428pt"
 viewBox="0.00 0.00 854.00 428.00" xmlns="http://www.w3.org/2000/svg" xmlns:xlink="http://www.w3.org/1999/xlink">
<g id="graph0" class="graph" transform="scale(1 1) rotate(0) translate(4 424)">
<title>state transitions</title>
<polygon fill="white" stroke="transparent" points="-4,4 -4,-424 850,-424 850,4 -4,4"/>
<g id="clust1" class="cluster state regular">
<title>cluster_self.sm_nav</title>
<path fill="none" stroke="black" stroke-width="2" d="M20,-8C20,-8 204,-8 204,-8 210,-8 216,-14 216,-20 216,-20 216,-400 216,-400 216,-406 210,-412 204,-412 204,-412 20,-412 20,-412 14,-412 8,-406 8,-400 8,-400 8,-20 8,-20 8,-14 14,-8 20,-8"/>
<text text-anchor="start" x="81" y="-393.9" font-family="Helvetica,sans-Serif" font-size="12.00">self.sm_nav</text>
</g>
<g id="clust2" class="cluster state regular">
<title>cluster_self.sm_recharge</title>
<path fill="none" stroke="black" stroke-width="2" d="M236,-205C236,-205 508,-205 508,-205 514,-205 520,-211 520,-217 520,-217 520,-400 520,-400 520,-406 514,-412 508,-412 508,-412 236,-412 236,-412 230,-412 224,-406 224,-400 224,-400 224,-217 224,-217 224,-211 230,-205 236,-205"/>
<text text-anchor="start" x="327" y="-393.9" font-family="Helvetica,sans-Serif" font-size="12.00">self.sm_recharge</text>
</g>
<g id="clust3" class="cluster state regular">
<title>cluster_self.sm_top</title>
<path fill="none" stroke="black" stroke-width="2" d="M540,-205C540,-205 826,-205 826,-205 832,-205 838,-211 838,-217 838,-217 838,-400 838,-400 838,-406 832,-412 826,-412 826,-412 540,-412 540,-412 534,-412 528,-406 528,-400 528,-400 528,-217 528,-217 528,-211 534,-205 540,-205"/>
<text text-anchor="start" x="653" y="-393.9" font-family="Helvetica,sans-Serif" font-size="12.00">self.sm_top</text>
</g>
<!-- self.sm_nav -->
<!-- self.sm_nav/NAV_STATE_0 -->
<g id="node2" class="node state regular">
<title>self.sm_nav/NAV_STATE_0</title>
<polygon fill="#ffffff" fill-opacity="0.003922" stroke="transparent" stroke-width="2" points="186,-375 16,-375 16,-339 186,-339 186,-375"/>
<text text-anchor="start" x="27" y="-353.4" font-family="Helvetica,sans-Serif" font-size="12.00">self.sm_nav/NAV_STATE_0</text>
<path fill="none" stroke="black" stroke-width="2" d="M28,-340.5C28,-340.5 174,-340.5 174,-340.5 179.5,-340.5 185,-346 185,-351.5 185,-351.5 185,-362.5 185,-362.5 185,-368 179.5,-373.5 174,-373.5 174,-373.5 28,-373.5 28,-373.5 22.5,-373.5 17,-368 17,-362.5 17,-362.5 17,-351.5 17,-351.5 17,-346 22.5,-340.5 28,-340.5"/>
</g>
<!-- self.sm_nav/NAV_STATE_1 -->
<g id="node3" class="node state regular">
<title>self.sm_nav/NAV_STATE_1</title>
<polygon fill="#ffffff" fill-opacity="0.003922" stroke="transparent" stroke-width="2" points="196,-312 26,-312 26,-276 196,-276 196,-312"/>
<text text-anchor="start" x="37" y="-290.4" font-family="Helvetica,sans-Serif" font-size="12.00">self.sm_nav/NAV_STATE_1</text>
<path fill="none" stroke="black" stroke-width="2" d="M38,-277.5C38,-277.5 184,-277.5 184,-277.5 189.5,-277.5 195,-283 195,-288.5 195,-288.5 195,-299.5 195,-299.5 195,-305 189.5,-310.5 184,-310.5 184,-310.5 38,-310.5 38,-310.5 32.5,-310.5 27,-305 27,-299.5 27,-299.5 27,-288.5 27,-288.5 27,-283 32.5,-277.5 38,-277.5"/>
</g>
<!-- self.sm_nav/NAV_STATE_0&#45;&gt;self.sm_nav/NAV_STATE_1 -->
<g id="edge1" class="edge transition">
<title>self.sm_nav/NAV_STATE_0&#45;&gt;self.sm_nav/NAV_STATE_1</title>
<path fill="none" stroke="black" d="M65.51,-338.98C60.52,-334.77 57.31,-329.95 61.15,-321.18"/>
<polygon fill="black" stroke="black" points="64.29,-322.75 66.46,-312.38 58.3,-319.13 64.29,-322.75"/>
<text text-anchor="start" x="60" y="-323" font-family="Helvetica,sans-Serif" font-size="10.00">succeeded &#160;&#160;</text>
</g>
<!-- self.sm_nav/NAV_STATE_0&#45;&gt;self.sm_nav/NAV_STATE_1 -->
<g id="edge2" class="edge transition">
<title>self.sm_nav/NAV_STATE_0&#45;&gt;self.sm_nav/NAV_STATE_1</title>
<path fill="none" stroke="black" d="M114.49,-338.93C115.93,-336.39 117.17,-333.71 118,-331 118.88,-328.15 119.2,-325.13 119.14,-322.11"/>
<polygon fill="black" stroke="black" points="122.58,-321.45 117.72,-312.03 115.65,-322.42 122.58,-321.45"/>
<text text-anchor="start" x="119" y="-323" font-family="Helvetica,sans-Serif" font-size="10.00">aborted &#160;&#160;</text>
</g>
<!-- self.sm_nav/NAV_STATE_2 -->
<g id="node4" class="node state regular">
<title>self.sm_nav/NAV_STATE_2</title>
<polygon fill="#ffffff" fill-opacity="0.003922" stroke="transparent" stroke-width="2" points="196,-249 26,-249 26,-213 196,-213 196,-249"/>
<text text-anchor="start" x="37" y="-227.4" font-family="Helvetica,sans-Serif" font-size="12.00">self.sm_nav/NAV_STATE_2</text>
<path fill="none" stroke="black" stroke-width="2" d="M38,-214.5C38,-214.5 184,-214.5 184,-214.5 189.5,-214.5 195,-220 195,-225.5 195,-225.5 195,-236.5 195,-236.5 195,-242 189.5,-247.5 184,-247.5 184,-247.5 38,-247.5 38,-247.5 32.5,-247.5 27,-242 27,-236.5 27,-236.5 27,-225.5 27,-225.5 27,-220 32.5,-214.5 38,-214.5"/>
</g>
<!-- self.sm_nav/NAV_STATE_1&#45;&gt;self.sm_nav/NAV_STATE_2 -->
<g id="edge3" class="edge transition">
<title>self.sm_nav/NAV_STATE_1&#45;&gt;self.sm_nav/NAV_STATE_2</title>
<path fill="none" stroke="black" d="M66.46,-275.62C63.98,-273.38 61.77,-270.84 60,-268 57.46,-263.93 57.33,-260.18 58.84,-256.78"/>
<polygon fill="black" stroke="black" points="61.66,-258.87 65.58,-249.03 56.38,-254.28 61.66,-258.87"/>
<text text-anchor="start" x="60" y="-260" font-family="Helvetica,sans-Serif" font-size="10.00">succeeded &#160;&#160;</text>
</g>
<!-- self.sm_nav/NAV_STATE_1&#45;&gt;self.sm_nav/NAV_STATE_2 -->
<g id="edge4" class="edge transition">
<title>self.sm_nav/NAV_STATE_1&#45;&gt;self.sm_nav/NAV_STATE_2</title>
<path fill="none" stroke="black" d="M116.68,-275.85C117.64,-271.58 118.34,-266.9 117.77,-259.38"/>
<polygon fill="black" stroke="black" points="121.19,-258.56 116.45,-249.08 114.25,-259.45 121.19,-258.56"/>
<text text-anchor="start" x="118" y="-260" font-family="Helvetica,sans-Serif" font-size="10.00">aborted &#160;&#160;</text>
</g>
<!-- self.sm_nav/NAV_STATE_3 -->
<g id="node5" class="node state regular">
<title>self.sm_nav/NAV_STATE_3</title>
<polygon fill="#ffffff" fill-opacity="0.003922" stroke="transparent" stroke-width="2" points="196,-178 26,-178 26,-142 196,-142 196,-178"/>
<text text-anchor="start" x="37" y="-156.4" font-family="Helvetica,sans-Serif" font-size="12.00">self.sm_nav/NAV_STATE_3</text>
<path fill="none" stroke="black" stroke-width="2" d="M38,-143.5C38,-143.5 184,-143.5 184,-143.5 189.5,-143.5 195,-149 195,-154.5 195,-154.5 195,-165.5 195,-165.5 195,-171 189.5,-176.5 184,-176.5 184,-176.5 38,-176.5 38,-176.5 32.5,-176.5 27,-171 27,-165.5 27,-165.5 27,-154.5 27,-154.5 27,-149 32.5,-143.5 38,-143.5"/>
</g>
<!-- self.sm_nav/NAV_STATE_2&#45;&gt;self.sm_nav/NAV_STATE_3 -->
<g id="edge5" class="edge transition">
<title>self.sm_nav/NAV_STATE_2&#45;&gt;self.sm_nav/NAV_STATE_3</title>
<path fill="none" stroke="black" d="M71.61,-212.8C62.72,-206.83 56.27,-199.56 61.36,-187.24"/>
<polygon fill="black" stroke="black" points="64.51,-188.79 66.46,-178.38 58.44,-185.3 64.51,-188.79"/>
<text text-anchor="start" x="60" y="-189" font-family="Helvetica,sans-Serif" font-size="10.00">succeeded &#160;&#160;</text>
</g>
<!-- self.sm_nav/NAV_STATE_2&#45;&gt;self.sm_nav/NAV_STATE_3 -->
<g id="edge6" class="edge transition">
<title>self.sm_nav/NAV_STATE_2&#45;&gt;self.sm_nav/NAV_STATE_3</title>
<path fill="none" stroke="black" d="M116.09,-212.89C117.5,-206.54 118.62,-199.12 117.72,-188.17"/>
<polygon fill="black" stroke="black" points="121.17,-187.57 116.45,-178.08 114.22,-188.44 121.17,-187.57"/>
<text text-anchor="start" x="118" y="-189" font-family="Helvetica,sans-Serif" font-size="10.00">aborted &#160;&#160;</text>
</g>
<!-- self.sm_nav/NAV_STATE_4 -->
<g id="node6" class="node state regular">
<title>self.sm_nav/NAV_STATE_4</title>
<polygon fill="#ffffff" fill-opacity="0.003922" stroke="transparent" stroke-width="2" points="196,-115 26,-115 26,-79 196,-79 196,-115"/>
<text text-anchor="start" x="37" y="-93.4" font-family="Helvetica,sans-Serif" font-size="12.00">self.sm_nav/NAV_STATE_4</text>
<path fill="none" stroke="black" stroke-width="2" d="M38,-80.5C38,-80.5 184,-80.5 184,-80.5 189.5,-80.5 195,-86 195,-91.5 195,-91.5 195,-102.5 195,-102.5 195,-108 189.5,-113.5 184,-113.5 184,-113.5 38,-113.5 38,-113.5 32.5,-113.5 27,-108 27,-102.5 27,-102.5 27,-91.5 27,-91.5 27,-86 32.5,-80.5 38,-80.5"/>
</g>
<!-- self.sm_nav/NAV_STATE_3&#45;&gt;self.sm_nav/NAV_STATE_4 -->
<g id="edge7" class="edge transition">
<title>self.sm_nav/NAV_STATE_3&#45;&gt;self.sm_nav/NAV_STATE_4</title>
<path fill="none" stroke="black" d="M66.46,-141.62C63.98,-139.38 61.77,-136.84 60,-134 57.46,-129.93 57.33,-126.18 58.84,-122.78"/>
<polygon fill="black" stroke="black" points="61.66,-124.87 65.58,-115.03 56.38,-120.28 61.66,-124.87"/>
<text text-anchor="start" x="60" y="-126" font-family="Helvetica,sans-Serif" font-size="10.00">succeeded &#160;&#160;</text>
</g>
<!-- self.sm_nav/NAV_STATE_3&#45;&gt;self.sm_nav/NAV_STATE_4 -->
<g id="edge8" class="edge transition">
<title>self.sm_nav/NAV_STATE_3&#45;&gt;self.sm_nav/NAV_STATE_4</title>
<path fill="none" stroke="black" d="M116.68,-141.85C117.64,-137.58 118.34,-132.9 117.77,-125.38"/>
<polygon fill="black" stroke="black" points="121.19,-124.56 116.45,-115.08 114.25,-125.45 121.19,-124.56"/>
<text text-anchor="start" x="118" y="-126" font-family="Helvetica,sans-Serif" font-size="10.00">aborted &#160;&#160;</text>
</g>
<!-- self.sm_nav/ -->
<g id="node7" class="node state regular">
<title>self.sm_nav/</title>
<polygon fill="#ffffff" fill-opacity="0.003922" stroke="transparent" stroke-width="2" points="139.5,-52 52.5,-52 52.5,-16 139.5,-16 139.5,-52"/>
<text text-anchor="start" x="64" y="-30.4" font-family="Helvetica,sans-Serif" font-size="12.00">self.sm_nav/</text>
<path fill="none" stroke="black" stroke-width="2" d="M64.5,-17.5C64.5,-17.5 127.5,-17.5 127.5,-17.5 133,-17.5 138.5,-23 138.5,-28.5 138.5,-28.5 138.5,-39.5 138.5,-39.5 138.5,-45 133,-50.5 127.5,-50.5 127.5,-50.5 64.5,-50.5 64.5,-50.5 59,-50.5 53.5,-45 53.5,-39.5 53.5,-39.5 53.5,-28.5 53.5,-28.5 53.5,-23 59,-17.5 64.5,-17.5"/>
</g>
<!-- self.sm_nav/NAV_STATE_4&#45;&gt;self.sm_nav/ -->
<g id="edge9" class="edge transition">
<title>self.sm_nav/NAV_STATE_4&#45;&gt;self.sm_nav/</title>
<path fill="none" stroke="black" d="M56.17,-78.92C53.45,-76.61 51.01,-73.98 49,-71 46.36,-67.09 46.18,-63.42 47.66,-60.03"/>
<polygon fill="black" stroke="black" points="50.49,-62.11 54.32,-52.22 45.17,-57.56 50.49,-62.11"/>
<text text-anchor="start" x="49" y="-63" font-family="Helvetica,sans-Serif" font-size="10.00">succeeded &#160;&#160;</text>
</g>
<!-- self.sm_nav/NAV_STATE_4&#45;&gt;self.sm_nav/ -->
<g id="edge10" class="edge transition">
<title>self.sm_nav/NAV_STATE_4&#45;&gt;self.sm_nav/</title>
<path fill="none" stroke="black" d="M110.17,-78.95C109.75,-74.5 109.12,-69.64 107.13,-61.9"/>
<polygon fill="black" stroke="black" points="110.49,-60.9 104.39,-52.24 103.75,-62.81 110.49,-60.9"/>
<text text-anchor="start" x="109" y="-63" font-family="Helvetica,sans-Serif" font-size="10.00">aborted &#160;&#160;</text>
</g>
<!-- self.sm_recharge -->
<!-- self.sm_recharge/NAV_DOCKING_STATION -->
<g id="node9" class="node state regular">
<title>self.sm_recharge/NAV_DOCKING_STATION</title>
<polygon fill="#ffffff" fill-opacity="0.003922" stroke="transparent" stroke-width="2" points="490,-375 232,-375 232,-339 490,-339 490,-375"/>
<text text-anchor="start" x="243" y="-353.4" font-family="Helvetica,sans-Serif" font-size="12.00">self.sm_recharge/NAV_DOCKING_STATION</text>
<path fill="none" stroke="black" stroke-width="2" d="M244,-340.5C244,-340.5 478,-340.5 478,-340.5 483.5,-340.5 489,-346 489,-351.5 489,-351.5 489,-362.5 489,-362.5 489,-368 483.5,-373.5 478,-373.5 478,-373.5 244,-373.5 244,-373.5 238.5,-373.5 233,-368 233,-362.5 233,-362.5 233,-351.5 233,-351.5 233,-346 238.5,-340.5 244,-340.5"/>
</g>
<!-- self.sm_recharge/RECHARGE_BATTERY -->
<g id="node10" class="node state regular">
<title>self.sm_recharge/RECHARGE_BATTERY</title>
<polygon fill="#ffffff" fill-opacity="0.003922" stroke="transparent" stroke-width="2" points="482.5,-312 239.5,-312 239.5,-276 482.5,-276 482.5,-312"/>
<text text-anchor="start" x="251" y="-290.4" font-family="Helvetica,sans-Serif" font-size="12.00">self.sm_recharge/RECHARGE_BATTERY</text>
<path fill="none" stroke="black" stroke-width="2" d="M251.5,-277.5C251.5,-277.5 470.5,-277.5 470.5,-277.5 476,-277.5 481.5,-283 481.5,-288.5 481.5,-288.5 481.5,-299.5 481.5,-299.5 481.5,-305 476,-310.5 470.5,-310.5 470.5,-310.5 251.5,-310.5 251.5,-310.5 246,-310.5 240.5,-305 240.5,-299.5 240.5,-299.5 240.5,-288.5 240.5,-288.5 240.5,-283 246,-277.5 251.5,-277.5"/>
</g>
<!-- self.sm_recharge/NAV_DOCKING_STATION&#45;&gt;self.sm_recharge/RECHARGE_BATTERY -->
<g id="edge11" class="edge transition">
<title>self.sm_recharge/NAV_DOCKING_STATION&#45;&gt;self.sm_recharge/RECHARGE_BATTERY</title>
<path fill="none" stroke="black" d="M361,-338.68C361,-333.62 361,-327.95 361,-322.42"/>
<polygon fill="black" stroke="black" points="364.5,-322.15 361,-312.15 357.5,-322.15 364.5,-322.15"/>
<text text-anchor="start" x="361" y="-323" font-family="Helvetica,sans-Serif" font-size="10.00">succeeded &#160;&#160;</text>
</g>
<!-- self.sm_recharge/ -->
<g id="node11" class="node state regular">
<title>self.sm_recharge/</title>
<polygon fill="#ffffff" fill-opacity="0.003922" stroke="transparent" stroke-width="2" points="419,-249 303,-249 303,-213 419,-213 419,-249"/>
<text text-anchor="start" x="314" y="-227.4" font-family="Helvetica,sans-Serif" font-size="12.00">self.sm_recharge/</text>
<path fill="none" stroke="black" stroke-width="2" d="M315,-214.5C315,-214.5 407,-214.5 407,-214.5 412.5,-214.5 418,-220 418,-225.5 418,-225.5 418,-236.5 418,-236.5 418,-242 412.5,-247.5 407,-247.5 407,-247.5 315,-247.5 315,-247.5 309.5,-247.5 304,-242 304,-236.5 304,-236.5 304,-225.5 304,-225.5 304,-220 309.5,-214.5 315,-214.5"/>
</g>
<!-- self.sm_recharge/RECHARGE_BATTERY&#45;&gt;self.sm_recharge/ -->
<g id="edge12" class="edge transition">
<title>self.sm_recharge/RECHARGE_BATTERY&#45;&gt;self.sm_recharge/</title>
<path fill="none" stroke="black" d="M361,-275.68C361,-270.62 361,-264.95 361,-259.42"/>
<polygon fill="black" stroke="black" points="364.5,-259.15 361,-249.15 357.5,-259.15 364.5,-259.15"/>
<text text-anchor="start" x="361" y="-260" font-family="Helvetica,sans-Serif" font-size="10.00">succeeded &#160;&#160;</text>
</g>
<!-- self.sm_top -->
<!-- self.sm_top/PATROL -->
<g id="node13" class="node state regular">
<title>self.sm_top/PATROL</title>
<polygon fill="#ffffff" fill-opacity="0.003922" stroke="transparent" stroke-width="2" points="732.5,-375 599.5,-375 599.5,-339 732.5,-339 732.5,-375"/>
<text text-anchor="start" x="611" y="-353.4" font-family="Helvetica,sans-Serif" font-size="12.00">self.sm_top/PATROL</text>
<path fill="none" stroke="black" stroke-width="2" d="M611.5,-340.5C611.5,-340.5 720.5,-340.5 720.5,-340.5 726,-340.5 731.5,-346 731.5,-351.5 731.5,-351.5 731.5,-362.5 731.5,-362.5 731.5,-368 726,-373.5 720.5,-373.5 720.5,-373.5 611.5,-373.5 611.5,-373.5 606,-373.5 600.5,-368 600.5,-362.5 600.5,-362.5 600.5,-351.5 600.5,-351.5 600.5,-346 606,-340.5 611.5,-340.5"/>
</g>
<!-- self.sm_top/PATROL&#45;&gt;self.sm_top/PATROL -->
<g id="edge13" class="edge transition">
<title>self.sm_top/PATROL&#45;&gt;self.sm_top/PATROL</title>
<path fill="none" stroke="black" d="M732.77,-362.36C745.5,-361.71 754.5,-359.93 754.5,-357 754.5,-354.94 750.05,-353.45 742.98,-352.52"/>
<polygon fill="black" stroke="black" points="743.03,-349.01 732.77,-351.64 742.43,-355.98 743.03,-349.01"/>
<text text-anchor="start" x="754.5" y="-354.5" font-family="Helvetica,sans-Serif" font-size="10.00">succeeded &#160;&#160;</text>
</g>
<!-- self.sm_top/RECHARGE -->
<g id="node14" class="node state regular">
<title>self.sm_top/RECHARGE</title>
<polygon fill="#ffffff" fill-opacity="0.003922" stroke="transparent" stroke-width="2" points="689.5,-312 536.5,-312 536.5,-276 689.5,-276 689.5,-312"/>
<text text-anchor="start" x="548" y="-290.4" font-family="Helvetica,sans-Serif" font-size="12.00">self.sm_top/RECHARGE</text>
<path fill="none" stroke="red" stroke-width="2" d="M548.5,-277.5C548.5,-277.5 677.5,-277.5 677.5,-277.5 683,-277.5 688.5,-283 688.5,-288.5 688.5,-288.5 688.5,-299.5 688.5,-299.5 688.5,-305 683,-310.5 677.5,-310.5 677.5,-310.5 548.5,-310.5 548.5,-310.5 543,-310.5 537.5,-305 537.5,-299.5 537.5,-299.5 537.5,-288.5 537.5,-288.5 537.5,-283 543,-277.5 548.5,-277.5"/>
</g>
<!-- self.sm_top/PATROL&#45;&gt;self.sm_top/RECHARGE -->
<g id="edge14" class="edge transition">
<title>self.sm_top/PATROL&#45;&gt;self.sm_top/RECHARGE</title>
<path fill="none" stroke="black" d="M609.15,-338.86C606.44,-336.56 604.02,-333.96 602,-331 600.08,-328.19 599.4,-325.04 599.53,-321.8"/>
<polygon fill="black" stroke="black" points="602.93,-322.61 601.92,-312.07 596.13,-320.94 602.93,-322.61"/>
<text text-anchor="start" x="602" y="-323" font-family="Helvetica,sans-Serif" font-size="10.00">recharge &#160;&#160;</text>
</g>
<!-- self.sm_top/STOP -->
<g id="node15" class="node state regular">
<title>self.sm_top/STOP</title>
<polygon fill="#ffffff" fill-opacity="0.003922" stroke="transparent" stroke-width="2" points="830,-312 712,-312 712,-276 830,-276 830,-312"/>
<text text-anchor="start" x="723" y="-290.4" font-family="Helvetica,sans-Serif" font-size="12.00">self.sm_top/STOP</text>
<path fill="none" stroke="black" stroke-width="2" d="M724,-277.5C724,-277.5 818,-277.5 818,-277.5 823.5,-277.5 829,-283 829,-288.5 829,-288.5 829,-299.5 829,-299.5 829,-305 823.5,-310.5 818,-310.5 818,-310.5 724,-310.5 724,-310.5 718.5,-310.5 713,-305 713,-299.5 713,-299.5 713,-288.5 713,-288.5 713,-283 718.5,-277.5 724,-277.5"/>
</g>
<!-- self.sm_top/PATROL&#45;&gt;self.sm_top/STOP -->
<g id="edge15" class="edge transition">
<title>self.sm_top/PATROL&#45;&gt;self.sm_top/STOP</title>
<path fill="none" stroke="black" d="M703.28,-338.91C708.29,-336.37 713.31,-333.7 718,-331 724.98,-326.98 732.25,-322.35 739.1,-317.79"/>
<polygon fill="black" stroke="black" points="741.18,-320.6 747.47,-312.08 737.24,-314.82 741.18,-320.6"/>
<text text-anchor="start" x="734" y="-323" font-family="Helvetica,sans-Serif" font-size="10.00">stop &#160;&#160;</text>
</g>
<!-- self.sm_top/RECHARGE&#45;&gt;self.sm_top/PATROL -->
<g id="edge16" class="edge transition">
<title>self.sm_top/RECHARGE&#45;&gt;self.sm_top/PATROL</title>
<path fill="none" stroke="black" d="M641.85,-312.04C644.82,-314.49 647.61,-317.15 650,-320 652.43,-322.9 654.55,-326.22 656.39,-329.65"/>
<polygon fill="black" stroke="black" points="653.23,-331.16 660.61,-338.76 659.58,-328.22 653.23,-331.16"/>
<text text-anchor="start" x="656" y="-323" font-family="Helvetica,sans-Serif" font-size="10.00">succeeded &#160;&#160;</text>
</g>
<!-- self.sm_top/ -->
<g id="node16" class="node state regular">
<title>self.sm_top/</title>
<polygon fill="#ffffff" fill-opacity="0.003922" stroke="transparent" stroke-width="2" points="814,-249 728,-249 728,-213 814,-213 814,-249"/>
<text text-anchor="start" x="739" y="-227.4" font-family="Helvetica,sans-Serif" font-size="12.00">self.sm_top/</text>
<path fill="none" stroke="black" stroke-width="2" d="M740,-214.5C740,-214.5 802,-214.5 802,-214.5 807.5,-214.5 813,-220 813,-225.5 813,-225.5 813,-236.5 813,-236.5 813,-242 807.5,-247.5 802,-247.5 802,-247.5 740,-247.5 740,-247.5 734.5,-247.5 729,-242 729,-236.5 729,-236.5 729,-225.5 729,-225.5 729,-220 734.5,-214.5 740,-214.5"/>
</g>
<!-- self.sm_top/STOP&#45;&gt;self.sm_top/ -->
<g id="edge17" class="edge transition">
<title>self.sm_top/STOP&#45;&gt;self.sm_top/</title>
<path fill="none" stroke="black" d="M771,-275.68C771,-270.62 771,-264.95 771,-259.42"/>
<polygon fill="black" stroke="black" points="774.5,-259.15 771,-249.15 767.5,-259.15 774.5,-259.15"/>
<text text-anchor="start" x="771" y="-260" font-family="Helvetica,sans-Serif" font-size="10.00">succeeded &#160;&#160;</text>
</g>
</g>
</svg>
