<?xml version="1.0" encoding="UTF-8" standalone="no"?>
<!DOCTYPE svg PUBLIC "-//W3C//DTD SVG 1.1//EN"
 "http://www.w3.org/Graphics/SVG/1.1/DTD/svg11.dtd">
<!-- Generated by graphviz version 2.49.1 (20210923.0004)
 -->
<!-- Title: state transitions Pages: 1 -->
<svg width="409pt" height="420pt"
 viewBox="0.00 0.00 409.00 420.00" xmlns="http://www.w3.org/2000/svg" xmlns:xlink="http://www.w3.org/1999/xlink">
<g id="graph0" class="graph" transform="scale(1 1) rotate(0) translate(4 416)">
<title>state transitions</title>
<polygon fill="white" stroke="transparent" points="-4,4 -4,-416 405,-416 405,4 -4,4"/>
<g id="clust1" class="cluster state regular">
<title>cluster_self.sm_patrol</title>
<path fill="none" stroke="black" stroke-width="2" d="M20,-8C20,-8 381,-8 381,-8 387,-8 393,-14 393,-20 393,-20 393,-392 393,-392 393,-398 387,-404 381,-404 381,-404 20,-404 20,-404 14,-404 8,-398 8,-392 8,-392 8,-20 8,-20 8,-14 14,-8 20,-8"/>
<text text-anchor="start" x="164.5" y="-385.9" font-family="Helvetica,sans-Serif" font-size="12.00">self.sm_patrol</text>
</g>
<!-- self.sm_patrol -->
<!-- self.sm_patrol/NAV_STATE_0 -->
<g id="node2" class="node state regular">
<title>self.sm_patrol/NAV_STATE_0</title>
<polygon fill="#ffffff" fill-opacity="0.003922" stroke="transparent" stroke-width="2" points="265,-304 83,-304 83,-268 265,-268 265,-304"/>
<text text-anchor="start" x="94" y="-282.4" font-family="Helvetica,sans-Serif" font-size="12.00">self.sm_patrol/NAV_STATE_0</text>
<path fill="none" stroke="black" stroke-width="2" d="M95,-269.5C95,-269.5 253,-269.5 253,-269.5 258.5,-269.5 264,-275 264,-280.5 264,-280.5 264,-291.5 264,-291.5 264,-297 258.5,-302.5 253,-302.5 253,-302.5 95,-302.5 95,-302.5 89.5,-302.5 84,-297 84,-291.5 84,-291.5 84,-280.5 84,-280.5 84,-275 89.5,-269.5 95,-269.5"/>
</g>
<!-- self.sm_patrol/NAV_STATE_1 -->
<g id="node3" class="node state regular">
<title>self.sm_patrol/NAV_STATE_1</title>
<polygon fill="#ffffff" fill-opacity="0.003922" stroke="transparent" stroke-width="2" points="209,-241 27,-241 27,-205 209,-205 209,-241"/>
<text text-anchor="start" x="38" y="-219.4" font-family="Helvetica,sans-Serif" font-size="12.00">self.sm_patrol/NAV_STATE_1</text>
<path fill="none" stroke="black" stroke-width="2" d="M39,-206.5C39,-206.5 197,-206.5 197,-206.5 202.5,-206.5 208,-212 208,-217.5 208,-217.5 208,-228.5 208,-228.5 208,-234 202.5,-239.5 197,-239.5 197,-239.5 39,-239.5 39,-239.5 33.5,-239.5 28,-234 28,-228.5 28,-228.5 28,-217.5 28,-217.5 28,-212 33.5,-206.5 39,-206.5"/>
</g>
<!-- self.sm_patrol/NAV_STATE_0&#45;&gt;self.sm_patrol/NAV_STATE_1 -->
<g id="edge1" class="edge transition">
<title>self.sm_patrol/NAV_STATE_0&#45;&gt;self.sm_patrol/NAV_STATE_1</title>
<path fill="none" stroke="black" d="M107.42,-267.92C104.64,-265.6 102.13,-262.97 100,-260 97.86,-257.01 97.35,-253.74 97.91,-250.41"/>
<polygon fill="black" stroke="black" points="101.16,-251.7 101.78,-241.12 94.7,-249 101.16,-251.7"/>
<text text-anchor="start" x="100" y="-252" font-family="Helvetica,sans-Serif" font-size="10.00">succeeded &#160;&#160;</text>
</g>
<!-- self.sm_patrol/NAV_STATE_0&#45;&gt;self.sm_patrol/NAV_STATE_1 -->
<g id="edge2" class="edge transition">
<title>self.sm_patrol/NAV_STATE_0&#45;&gt;self.sm_patrol/NAV_STATE_1</title>
<path fill="none" stroke="black" d="M168.71,-267.68C166.18,-261.32 162.66,-254.37 158,-249 157.69,-248.64 157.38,-248.29 157.06,-247.94"/>
<polygon fill="black" stroke="black" points="159.34,-245.29 149.6,-241.13 154.62,-250.46 159.34,-245.29"/>
<text text-anchor="start" x="165" y="-252" font-family="Helvetica,sans-Serif" font-size="10.00">aborted &#160;&#160;</text>
</g>
<!-- self.sm_patrol/NAV_STATE_2 -->
<g id="node4" class="node state regular">
<title>self.sm_patrol/NAV_STATE_2</title>
<polygon fill="#ffffff" fill-opacity="0.003922" stroke="transparent" stroke-width="2" points="198,-178 16,-178 16,-142 198,-142 198,-178"/>
<text text-anchor="start" x="27" y="-156.4" font-family="Helvetica,sans-Serif" font-size="12.00">self.sm_patrol/NAV_STATE_2</text>
<path fill="none" stroke="black" stroke-width="2" d="M28,-143.5C28,-143.5 186,-143.5 186,-143.5 191.5,-143.5 197,-149 197,-154.5 197,-154.5 197,-165.5 197,-165.5 197,-171 191.5,-176.5 186,-176.5 186,-176.5 28,-176.5 28,-176.5 22.5,-176.5 17,-171 17,-165.5 17,-165.5 17,-154.5 17,-154.5 17,-149 22.5,-143.5 28,-143.5"/>
</g>
<!-- self.sm_patrol/NAV_STATE_1&#45;&gt;self.sm_patrol/NAV_STATE_2 -->
<g id="edge3" class="edge transition">
<title>self.sm_patrol/NAV_STATE_1&#45;&gt;self.sm_patrol/NAV_STATE_2</title>
<path fill="none" stroke="black" d="M82.34,-204.94C79.86,-202.59 77.68,-199.95 76,-197 74.01,-193.5 73.91,-190.02 75.05,-186.68"/>
<polygon fill="black" stroke="black" points="78,-188.56 80.52,-178.27 72.13,-184.75 78,-188.56"/>
<text text-anchor="start" x="76" y="-189" font-family="Helvetica,sans-Serif" font-size="10.00">succeeded &#160;&#160;</text>
</g>
<!-- self.sm_patrol/NAV_STATE_1&#45;&gt;self.sm_patrol/NAV_STATE_2 -->
<g id="edge4" class="edge transition">
<title>self.sm_patrol/NAV_STATE_1&#45;&gt;self.sm_patrol/NAV_STATE_2</title>
<path fill="none" stroke="black" d="M131.83,-204.81C134.18,-200.34 135.74,-195.45 133.16,-187.37"/>
<polygon fill="black" stroke="black" points="136.32,-185.86 129.08,-178.13 129.91,-188.69 136.32,-185.86"/>
<text text-anchor="start" x="135" y="-189" font-family="Helvetica,sans-Serif" font-size="10.00">aborted &#160;&#160;</text>
</g>
<!-- self.sm_patrol/NAV_STATE_3 -->
<g id="node5" class="node state regular">
<title>self.sm_patrol/NAV_STATE_3</title>
<polygon fill="#ffffff" fill-opacity="0.003922" stroke="transparent" stroke-width="2" points="210,-115 28,-115 28,-79 210,-79 210,-115"/>
<text text-anchor="start" x="39" y="-93.4" font-family="Helvetica,sans-Serif" font-size="12.00">self.sm_patrol/NAV_STATE_3</text>
<path fill="none" stroke="black" stroke-width="2" d="M40,-80.5C40,-80.5 198,-80.5 198,-80.5 203.5,-80.5 209,-86 209,-91.5 209,-91.5 209,-102.5 209,-102.5 209,-108 203.5,-113.5 198,-113.5 198,-113.5 40,-113.5 40,-113.5 34.5,-113.5 29,-108 29,-102.5 29,-102.5 29,-91.5 29,-91.5 29,-86 34.5,-80.5 40,-80.5"/>
</g>
<!-- self.sm_patrol/NAV_STATE_2&#45;&gt;self.sm_patrol/NAV_STATE_3 -->
<g id="edge5" class="edge transition">
<title>self.sm_patrol/NAV_STATE_2&#45;&gt;self.sm_patrol/NAV_STATE_3</title>
<path fill="none" stroke="black" d="M80.47,-141.7C76.4,-137.4 73.72,-132.58 77.14,-124.16"/>
<polygon fill="black" stroke="black" points="80.26,-125.75 82.12,-115.32 74.16,-122.31 80.26,-125.75"/>
<text text-anchor="start" x="76" y="-126" font-family="Helvetica,sans-Serif" font-size="10.00">succeeded &#160;&#160;</text>
</g>
<!-- self.sm_patrol/NAV_STATE_2&#45;&gt;self.sm_patrol/NAV_STATE_3 -->
<g id="edge6" class="edge transition">
<title>self.sm_patrol/NAV_STATE_2&#45;&gt;self.sm_patrol/NAV_STATE_3</title>
<path fill="none" stroke="black" d="M129.08,-141.87C131.06,-139.44 132.77,-136.81 134,-134 135.29,-131.05 135.58,-127.96 135.21,-124.88"/>
<polygon fill="black" stroke="black" points="138.51,-123.72 132.12,-115.26 131.84,-125.85 138.51,-123.72"/>
<text text-anchor="start" x="135" y="-126" font-family="Helvetica,sans-Serif" font-size="10.00">aborted &#160;&#160;</text>
</g>
<!-- self.sm_patrol/NAV_STATE_4 -->
<g id="node6" class="node state regular">
<title>self.sm_patrol/NAV_STATE_4</title>
<polygon fill="#ffffff" fill-opacity="0.003922" stroke="transparent" stroke-width="2" points="309,-52 127,-52 127,-16 309,-16 309,-52"/>
<text text-anchor="start" x="138" y="-30.4" font-family="Helvetica,sans-Serif" font-size="12.00">self.sm_patrol/NAV_STATE_4</text>
<path fill="none" stroke="black" stroke-width="2" d="M139,-17.5C139,-17.5 297,-17.5 297,-17.5 302.5,-17.5 308,-23 308,-28.5 308,-28.5 308,-39.5 308,-39.5 308,-45 302.5,-50.5 297,-50.5 297,-50.5 139,-50.5 139,-50.5 133.5,-50.5 128,-45 128,-39.5 128,-39.5 128,-28.5 128,-28.5 128,-23 133.5,-17.5 139,-17.5"/>
</g>
<!-- self.sm_patrol/NAV_STATE_3&#45;&gt;self.sm_patrol/NAV_STATE_4 -->
<g id="edge7" class="edge transition">
<title>self.sm_patrol/NAV_STATE_3&#45;&gt;self.sm_patrol/NAV_STATE_4</title>
<path fill="none" stroke="black" d="M108.97,-78.91C106.56,-72.44 105.75,-65.35 110,-60 111.64,-57.94 114.16,-56.04 117.35,-54.28"/>
<polygon fill="black" stroke="black" points="118.84,-57.44 126.57,-50.2 116.01,-51.04 118.84,-57.44"/>
<text text-anchor="start" x="110" y="-63" font-family="Helvetica,sans-Serif" font-size="10.00">succeeded &#160;&#160;</text>
</g>
<!-- self.sm_patrol/NAV_STATE_3&#45;&gt;self.sm_patrol/NAV_STATE_4 -->
<g id="edge8" class="edge transition">
<title>self.sm_patrol/NAV_STATE_3&#45;&gt;self.sm_patrol/NAV_STATE_4</title>
<path fill="none" stroke="black" d="M154.16,-78.89C158.87,-76.35 163.6,-73.69 168,-71 174.4,-67.09 181.05,-62.62 187.33,-58.2"/>
<polygon fill="black" stroke="black" points="189.53,-60.92 195.6,-52.24 185.44,-55.24 189.53,-60.92"/>
<text text-anchor="start" x="183" y="-63" font-family="Helvetica,sans-Serif" font-size="10.00">aborted &#160;&#160;</text>
</g>
<!-- self.sm_patrol/NAV_STATE_4&#45;&gt;self.sm_patrol/NAV_STATE_0 -->
<g id="edge9" class="edge transition">
<title>self.sm_patrol/NAV_STATE_4&#45;&gt;self.sm_patrol/NAV_STATE_0</title>
<path fill="none" stroke="black" d="M228.74,-52.18C235.13,-64.04 242,-80.41 242,-96 242,-224 242,-224 242,-224 242,-239.61 231.95,-252.24 219.57,-261.86"/>
<polygon fill="black" stroke="black" points="217.35,-259.14 211.18,-267.76 221.38,-264.87 217.35,-259.14"/>
<text text-anchor="start" x="242" y="-157.5" font-family="Helvetica,sans-Serif" font-size="10.00">succeeded &#160;&#160;</text>
</g>
<!-- self.sm_patrol/NAV_STATE_4&#45;&gt;self.sm_patrol/NAV_STATE_0 -->
<g id="edge10" class="edge transition">
<title>self.sm_patrol/NAV_STATE_4&#45;&gt;self.sm_patrol/NAV_STATE_0</title>
<path fill="none" stroke="black" d="M309.17,-52.03C328.4,-61.06 343,-74.87 343,-96 343,-224 343,-224 343,-224 343,-241.47 310.66,-255.33 274.27,-265.39"/>
<polygon fill="black" stroke="black" points="273.21,-262.05 264.44,-268 275,-268.82 273.21,-262.05"/>
<text text-anchor="start" x="343" y="-157.5" font-family="Helvetica,sans-Serif" font-size="10.00">aborted &#160;&#160;</text>
</g>
<!-- self.sm_patrol/CHECK_COUNT -->
<g id="node7" class="node state regular">
<title>self.sm_patrol/CHECK_COUNT</title>
<polygon fill="#ffffff" fill-opacity="0.003922" stroke="transparent" stroke-width="2" points="355.5,-367 166.5,-367 166.5,-331 355.5,-331 355.5,-367"/>
<text text-anchor="start" x="178" y="-345.4" font-family="Helvetica,sans-Serif" font-size="12.00">self.sm_patrol/CHECK_COUNT</text>
<path fill="none" stroke="black" stroke-width="2" d="M178.5,-332.5C178.5,-332.5 343.5,-332.5 343.5,-332.5 349,-332.5 354.5,-338 354.5,-343.5 354.5,-343.5 354.5,-354.5 354.5,-354.5 354.5,-360 349,-365.5 343.5,-365.5 343.5,-365.5 178.5,-365.5 178.5,-365.5 173,-365.5 167.5,-360 167.5,-354.5 167.5,-354.5 167.5,-343.5 167.5,-343.5 167.5,-338 173,-332.5 178.5,-332.5"/>
</g>
<!-- self.sm_patrol/CHECK_COUNT&#45;&gt;self.sm_patrol/NAV_STATE_0 -->
<g id="edge11" class="edge transition">
<title>self.sm_patrol/CHECK_COUNT&#45;&gt;self.sm_patrol/NAV_STATE_0</title>
<path fill="none" stroke="black" d="M206.33,-330.85C202.3,-328.53 198.46,-325.93 195,-323 191.64,-320.16 188.7,-316.64 186.16,-312.92"/>
<polygon fill="black" stroke="black" points="189.06,-310.95 180.96,-304.12 183.03,-314.51 189.06,-310.95"/>
<text text-anchor="start" x="195" y="-315" font-family="Helvetica,sans-Serif" font-size="10.00">succeeded &#160;&#160;</text>
</g>
<!-- self.sm_patrol/ -->
<g id="node8" class="node state regular">
<title>self.sm_patrol/</title>
<polygon fill="#ffffff" fill-opacity="0.003922" stroke="transparent" stroke-width="2" points="385,-304 287,-304 287,-268 385,-268 385,-304"/>
<text text-anchor="start" x="298" y="-282.4" font-family="Helvetica,sans-Serif" font-size="12.00">self.sm_patrol/</text>
<path fill="none" stroke="black" stroke-width="2" d="M299,-269.5C299,-269.5 373,-269.5 373,-269.5 378.5,-269.5 384,-275 384,-280.5 384,-280.5 384,-291.5 384,-291.5 384,-297 378.5,-302.5 373,-302.5 373,-302.5 299,-302.5 299,-302.5 293.5,-302.5 288,-297 288,-291.5 288,-291.5 288,-280.5 288,-280.5 288,-275 293.5,-269.5 299,-269.5"/>
</g>
<!-- self.sm_patrol/CHECK_COUNT&#45;&gt;self.sm_patrol/ -->
<g id="edge12" class="edge transition">
<title>self.sm_patrol/CHECK_COUNT&#45;&gt;self.sm_patrol/</title>
<path fill="none" stroke="black" d="M257.01,-330.94C256.46,-324.47 257.13,-317.37 261,-312 262.43,-310.02 268.87,-307.2 277.43,-304.17"/>
<polygon fill="black" stroke="black" points="278.62,-307.46 286.99,-300.96 276.39,-300.82 278.62,-307.46"/>
<text text-anchor="start" x="261" y="-315" font-family="Helvetica,sans-Serif" font-size="10.00">aborted &#160;&#160;</text>
</g>
<!-- self.sm_patrol/CHECK_COUNT&#45;&gt;self.sm_patrol/ -->
<g id="edge13" class="edge transition">
<title>self.sm_patrol/CHECK_COUNT&#45;&gt;self.sm_patrol/</title>
<path fill="none" stroke="black" d="M293.23,-330.8C296.98,-328.35 300.66,-325.73 304,-323 308.1,-319.65 312.14,-315.75 315.88,-311.78"/>
<polygon fill="black" stroke="black" points="318.62,-313.97 322.67,-304.18 313.4,-309.3 318.62,-313.97"/>
<text text-anchor="start" x="315" y="-315" font-family="Helvetica,sans-Serif" font-size="10.00">preempted &#160;&#160;</text>
</g>
</g>
</svg>
