<?xml version="1.0" encoding="UTF-8" standalone="no"?>
<!DOCTYPE svg PUBLIC "-//W3C//DTD SVG 1.1//EN"
 "http://www.w3.org/Graphics/SVG/1.1/DTD/svg11.dtd">
<!-- Generated by graphviz version 2.49.1 (20210923.0004)
 -->
<!-- Title: state transitions Pages: 1 -->
<svg width="280pt" height="231pt"
 viewBox="0.00 0.00 280.00 231.00" xmlns="http://www.w3.org/2000/svg" xmlns:xlink="http://www.w3.org/1999/xlink">
<g id="graph0" class="graph" transform="scale(1 1) rotate(0) translate(4 227)">
<title>state transitions</title>
<polygon fill="white" stroke="transparent" points="-4,4 -4,-227 276,-227 276,4 -4,4"/>
<g id="clust1" class="cluster state regular">
<title>cluster_sm</title>
<path fill="none" stroke="black" stroke-width="2" d="M20,-8C20,-8 252,-8 252,-8 258,-8 264,-14 264,-20 264,-20 264,-203 264,-203 264,-209 258,-215 252,-215 252,-215 20,-215 20,-215 14,-215 8,-209 8,-203 8,-203 8,-20 8,-20 8,-14 14,-8 20,-8"/>
<text text-anchor="start" x="128" y="-196.9" font-family="Helvetica,sans-Serif" font-size="12.00">sm</text>
</g>
<!-- sm -->
<!-- sm/MovingToXYZ -->
<g id="node2" class="node state regular">
<title>sm/MovingToXYZ</title>
<polygon fill="#ffffff" fill-opacity="0.003922" stroke="transparent" stroke-width="2" points="163,-178 49,-178 49,-142 163,-142 163,-178"/>
<text text-anchor="start" x="60" y="-156.4" font-family="Helvetica,sans-Serif" font-size="12.00">sm/MovingToXYZ</text>
<path fill="none" stroke="black" stroke-width="2" d="M61,-143.5C61,-143.5 151,-143.5 151,-143.5 156.5,-143.5 162,-149 162,-154.5 162,-154.5 162,-165.5 162,-165.5 162,-171 156.5,-176.5 151,-176.5 151,-176.5 61,-176.5 61,-176.5 55.5,-176.5 50,-171 50,-165.5 50,-165.5 50,-154.5 50,-154.5 50,-149 55.5,-143.5 61,-143.5"/>
</g>
<!-- sm/MovingToXYZ&#45;&gt;sm/MovingToXYZ -->
<g id="edge3" class="edge transition">
<title>sm/MovingToXYZ&#45;&gt;sm/MovingToXYZ</title>
<path fill="none" stroke="black" d="M163.17,-165.47C175.8,-164.96 185,-163.13 185,-160 185,-157.8 180.45,-156.24 173.36,-155.33"/>
<polygon fill="black" stroke="black" points="173.41,-151.82 163.17,-154.53 172.86,-158.8 173.41,-151.82"/>
<text text-anchor="start" x="185" y="-157.5" font-family="Helvetica,sans-Serif" font-size="10.00">lost &#160;&#160;</text>
</g>
<!-- sm/FindFrontTarget -->
<g id="node3" class="node state regular">
<title>sm/FindFrontTarget</title>
<polygon fill="#ffffff" fill-opacity="0.003922" stroke="transparent" stroke-width="2" points="255.5,-115 130.5,-115 130.5,-79 255.5,-79 255.5,-115"/>
<text text-anchor="start" x="142" y="-93.4" font-family="Helvetica,sans-Serif" font-size="12.00">sm/FindFrontTarget</text>
<path fill="none" stroke="black" stroke-width="2" d="M142.5,-80.5C142.5,-80.5 243.5,-80.5 243.5,-80.5 249,-80.5 254.5,-86 254.5,-91.5 254.5,-91.5 254.5,-102.5 254.5,-102.5 254.5,-108 249,-113.5 243.5,-113.5 243.5,-113.5 142.5,-113.5 142.5,-113.5 137,-113.5 131.5,-108 131.5,-102.5 131.5,-102.5 131.5,-91.5 131.5,-91.5 131.5,-86 137,-80.5 142.5,-80.5"/>
</g>
<!-- sm/MovingToXYZ&#45;&gt;sm/FindFrontTarget -->
<g id="edge2" class="edge transition">
<title>sm/MovingToXYZ&#45;&gt;sm/FindFrontTarget</title>
<path fill="none" stroke="black" d="M101.9,-141.86C101.33,-135.37 102.01,-128.29 106,-123 110.13,-117.52 115.38,-113.18 121.25,-109.75"/>
<polygon fill="black" stroke="black" points="122.79,-112.89 130.24,-105.36 119.72,-106.61 122.79,-112.89"/>
<text text-anchor="start" x="106" y="-126" font-family="Helvetica,sans-Serif" font-size="10.00">cannot_see &#160;&#160;</text>
</g>
<!-- sm/IdentifyTarget -->
<g id="node4" class="node state regular">
<title>sm/IdentifyTarget</title>
<polygon fill="#ffffff" fill-opacity="0.003922" stroke="transparent" stroke-width="2" points="184.5,-52 73.5,-52 73.5,-16 184.5,-16 184.5,-52"/>
<text text-anchor="start" x="85" y="-30.4" font-family="Helvetica,sans-Serif" font-size="12.00">sm/IdentifyTarget</text>
<path fill="none" stroke="black" stroke-width="2" d="M85.5,-17.5C85.5,-17.5 172.5,-17.5 172.5,-17.5 178,-17.5 183.5,-23 183.5,-28.5 183.5,-28.5 183.5,-39.5 183.5,-39.5 183.5,-45 178,-50.5 172.5,-50.5 172.5,-50.5 85.5,-50.5 85.5,-50.5 80,-50.5 74.5,-45 74.5,-39.5 74.5,-39.5 74.5,-28.5 74.5,-28.5 74.5,-23 80,-17.5 85.5,-17.5"/>
</g>
<!-- sm/MovingToXYZ&#45;&gt;sm/IdentifyTarget -->
<g id="edge1" class="edge transition">
<title>sm/MovingToXYZ&#45;&gt;sm/IdentifyTarget</title>
<path fill="none" stroke="black" d="M74.39,-141.86C64.74,-134.9 55.3,-125.9 50,-115 43.01,-100.61 41.89,-92.79 50,-79 55.13,-70.27 62.69,-63.15 71.13,-57.37"/>
<polygon fill="black" stroke="black" points="73.12,-60.26 79.81,-52.04 69.45,-54.3 73.12,-60.26"/>
<text text-anchor="start" x="50" y="-94.5" font-family="Helvetica,sans-Serif" font-size="10.00">found_visually &#160;&#160;</text>
</g>
<!-- sm/FindFrontTarget&#45;&gt;sm/MovingToXYZ -->
<g id="edge5" class="edge transition">
<title>sm/FindFrontTarget&#45;&gt;sm/MovingToXYZ</title>
<path fill="none" stroke="black" d="M183.54,-115.02C179.19,-121.64 173.54,-128.85 167,-134 165.96,-134.82 164.9,-135.61 163.8,-136.38"/>
<polygon fill="black" stroke="black" points="161.64,-133.6 155.01,-141.86 165.35,-139.54 161.64,-133.6"/>
<text text-anchor="start" x="177" y="-126" font-family="Helvetica,sans-Serif" font-size="10.00">lost &#160;&#160;</text>
</g>
<!-- sm/FindFrontTarget&#45;&gt;sm/IdentifyTarget -->
<g id="edge4" class="edge transition">
<title>sm/FindFrontTarget&#45;&gt;sm/IdentifyTarget</title>
<path fill="none" stroke="black" d="M174.83,-78.68C168.56,-72.71 161.42,-65.9 154.66,-59.46"/>
<polygon fill="black" stroke="black" points="156.65,-56.52 146.99,-52.15 151.82,-61.58 156.65,-56.52"/>
<text text-anchor="start" x="166" y="-63" font-family="Helvetica,sans-Serif" font-size="10.00">found_visually &#160;&#160;</text>
</g>
</g>
</svg>
