<?xml version="1.0" encoding="UTF-8" standalone="no"?>
<!DOCTYPE svg PUBLIC "-//W3C//DTD SVG 1.1//EN"
 "http://www.w3.org/Graphics/SVG/1.1/DTD/svg11.dtd">
<!-- Generated by graphviz version 2.49.1 (20210923.0004)
 -->
<!-- Title: state transitions Pages: 1 -->
<svg width="222pt" height="168pt"
 viewBox="0.00 0.00 222.00 168.00" xmlns="http://www.w3.org/2000/svg" xmlns:xlink="http://www.w3.org/1999/xlink">
<g id="graph0" class="graph" transform="scale(1 1) rotate(0) translate(4 164)">
<title>state transitions</title>
<polygon fill="white" stroke="transparent" points="-4,4 -4,-164 218,-164 218,4 -4,4"/>
<g id="clust1" class="cluster state regular">
<title>cluster_main</title>
<path fill="none" stroke="black" stroke-width="2" d="M20,-8C20,-8 194,-8 194,-8 200,-8 206,-14 206,-20 206,-20 206,-140 206,-140 206,-146 200,-152 194,-152 194,-152 20,-152 20,-152 14,-152 8,-146 8,-140 8,-140 8,-20 8,-20 8,-14 14,-8 20,-8"/>
<text text-anchor="start" x="94" y="-133.9" font-family="Helvetica,sans-Serif" font-size="12.00">main</text>
</g>
<!-- main -->
<!-- main/Obstacle_Avoidance -->
<g id="node2" class="node state regular">
<title>main/Obstacle_Avoidance</title>
<polygon fill="#ffffff" fill-opacity="0.003922" stroke="transparent" stroke-width="2" points="176,-115 16,-115 16,-79 176,-79 176,-115"/>
<text text-anchor="start" x="27" y="-93.4" font-family="Helvetica,sans-Serif" font-size="12.00">main/Obstacle_Avoidance</text>
<path fill="none" stroke="black" stroke-width="2" d="M28,-80.5C28,-80.5 164,-80.5 164,-80.5 169.5,-80.5 175,-86 175,-91.5 175,-91.5 175,-102.5 175,-102.5 175,-108 169.5,-113.5 164,-113.5 164,-113.5 28,-113.5 28,-113.5 22.5,-113.5 17,-108 17,-102.5 17,-102.5 17,-91.5 17,-91.5 17,-86 22.5,-80.5 28,-80.5"/>
</g>
<!-- main/Waypoint -->
<g id="node3" class="node state regular">
<title>main/Waypoint</title>
<polygon fill="#ffffff" fill-opacity="0.003922" stroke="transparent" stroke-width="2" points="146,-52 46,-52 46,-16 146,-16 146,-52"/>
<text text-anchor="start" x="57" y="-30.4" font-family="Helvetica,sans-Serif" font-size="12.00">main/Waypoint</text>
<path fill="none" stroke="black" stroke-width="2" d="M58,-17.5C58,-17.5 134,-17.5 134,-17.5 139.5,-17.5 145,-23 145,-28.5 145,-28.5 145,-39.5 145,-39.5 145,-45 139.5,-50.5 134,-50.5 134,-50.5 58,-50.5 58,-50.5 52.5,-50.5 47,-45 47,-39.5 47,-39.5 47,-28.5 47,-28.5 47,-23 52.5,-17.5 58,-17.5"/>
</g>
<!-- main/Obstacle_Avoidance&#45;&gt;main/Waypoint -->
<g id="edge1" class="edge transition">
<title>main/Obstacle_Avoidance&#45;&gt;main/Waypoint</title>
<path fill="none" stroke="black" d="M96,-78.68C96,-73.62 96,-67.95 96,-62.42"/>
<polygon fill="black" stroke="black" points="99.5,-62.15 96,-52.15 92.5,-62.15 99.5,-62.15"/>
<text text-anchor="start" x="96" y="-63" font-family="Helvetica,sans-Serif" font-size="10.00">AvoidedObstacle &#160;&#160;</text>
</g>
</g>
</svg>
