<?xml version="1.0" encoding="UTF-8" standalone="no"?>
<!DOCTYPE svg PUBLIC "-//W3C//DTD SVG 1.1//EN"
 "http://www.w3.org/Graphics/SVG/1.1/DTD/svg11.dtd">
<!-- Generated by graphviz version 2.49.1 (20210923.0004)
 -->
<!-- Title: state transitions Pages: 1 -->
<svg width="190pt" height="168pt"
 viewBox="0.00 0.00 190.00 168.00" xmlns="http://www.w3.org/2000/svg" xmlns:xlink="http://www.w3.org/1999/xlink">
<g id="graph0" class="graph" transform="scale(1 1) rotate(0) translate(4 164)">
<title>state transitions</title>
<polygon fill="white" stroke="transparent" points="-4,4 -4,-164 186,-164 186,4 -4,4"/>
<g id="clust1" class="cluster state regular">
<title>cluster_main</title>
<path fill="none" stroke="black" stroke-width="2" d="M20,-8C20,-8 162,-8 162,-8 168,-8 174,-14 174,-20 174,-20 174,-140 174,-140 174,-146 168,-152 162,-152 162,-152 20,-152 20,-152 14,-152 8,-146 8,-140 8,-140 8,-20 8,-20 8,-14 14,-8 20,-8"/>
<text text-anchor="start" x="78" y="-133.9" font-family="Helvetica,sans-Serif" font-size="12.00">main</text>
</g>
<!-- main -->
<!-- main/Post_Code -->
<g id="node2" class="node state regular">
<title>main/Post_Code</title>
<polygon fill="#ffffff" fill-opacity="0.003922" stroke="transparent" stroke-width="2" points="143.5,-115 32.5,-115 32.5,-79 143.5,-79 143.5,-115"/>
<text text-anchor="start" x="44" y="-93.4" font-family="Helvetica,sans-Serif" font-size="12.00">main/Post_Code</text>
<path fill="none" stroke="black" stroke-width="2" d="M44.5,-80.5C44.5,-80.5 131.5,-80.5 131.5,-80.5 137,-80.5 142.5,-86 142.5,-91.5 142.5,-91.5 142.5,-102.5 142.5,-102.5 142.5,-108 137,-113.5 131.5,-113.5 131.5,-113.5 44.5,-113.5 44.5,-113.5 39,-113.5 33.5,-108 33.5,-102.5 33.5,-102.5 33.5,-91.5 33.5,-91.5 33.5,-86 39,-80.5 44.5,-80.5"/>
</g>
<!-- main/Mission_Complete -->
<g id="node3" class="node state regular">
<title>main/Mission_Complete</title>
<polygon fill="#ffffff" fill-opacity="0.003922" stroke="transparent" stroke-width="2" points="165.5,-52 16.5,-52 16.5,-16 165.5,-16 165.5,-52"/>
<text text-anchor="start" x="28" y="-30.4" font-family="Helvetica,sans-Serif" font-size="12.00">main/Mission_Complete</text>
<path fill="none" stroke="black" stroke-width="2" d="M28.5,-17.5C28.5,-17.5 153.5,-17.5 153.5,-17.5 159,-17.5 164.5,-23 164.5,-28.5 164.5,-28.5 164.5,-39.5 164.5,-39.5 164.5,-45 159,-50.5 153.5,-50.5 153.5,-50.5 28.5,-50.5 28.5,-50.5 23,-50.5 17.5,-45 17.5,-39.5 17.5,-39.5 17.5,-28.5 17.5,-28.5 17.5,-23 23,-17.5 28.5,-17.5"/>
</g>
<!-- main/Post_Code&#45;&gt;main/Mission_Complete -->
<g id="edge1" class="edge transition">
<title>main/Post_Code&#45;&gt;main/Mission_Complete</title>
<path fill="none" stroke="black" d="M88.85,-78.68C89.1,-73.62 89.38,-67.95 89.65,-62.42"/>
<polygon fill="black" stroke="black" points="93.16,-62.31 90.16,-52.15 86.17,-61.97 93.16,-62.31"/>
<text text-anchor="start" x="89" y="-63" font-family="Helvetica,sans-Serif" font-size="10.00">PostCompleted &#160;&#160;</text>
</g>
</g>
</svg>
