<?xml version="1.0" encoding="UTF-8" standalone="no"?>
<!DOCTYPE svg PUBLIC "-//W3C//DTD SVG 1.1//EN"
 "http://www.w3.org/Graphics/SVG/1.1/DTD/svg11.dtd">
<!-- Generated by graphviz version 2.49.1 (20210923.0004)
 -->
<!-- Title: state transitions Pages: 1 -->
<svg width="284pt" height="168pt"
 viewBox="0.00 0.00 284.00 168.00" xmlns="http://www.w3.org/2000/svg" xmlns:xlink="http://www.w3.org/1999/xlink">
<g id="graph0" class="graph" transform="scale(1 1) rotate(0) translate(4 164)">
<title>state transitions</title>
<polygon fill="white" stroke="transparent" points="-4,4 -4,-164 280,-164 280,4 -4,4"/>
<g id="clust1" class="cluster state regular">
<title>cluster_main</title>
<path fill="none" stroke="black" stroke-width="2" d="M20,-8C20,-8 256,-8 256,-8 262,-8 268,-14 268,-20 268,-20 268,-140 268,-140 268,-146 262,-152 256,-152 256,-152 20,-152 20,-152 14,-152 8,-146 8,-140 8,-140 8,-20 8,-20 8,-14 14,-8 20,-8"/>
<text text-anchor="start" x="125" y="-133.9" font-family="Helvetica,sans-Serif" font-size="12.00">main</text>
</g>
<!-- main -->
<!-- main/Mission_Complete -->
<g id="node2" class="node state regular">
<title>main/Mission_Complete</title>
<polygon fill="#ffffff" fill-opacity="0.003922" stroke="transparent" stroke-width="2" points="197.5,-115 48.5,-115 48.5,-79 197.5,-79 197.5,-115"/>
<text text-anchor="start" x="60" y="-93.4" font-family="Helvetica,sans-Serif" font-size="12.00">main/Mission_Complete</text>
<path fill="none" stroke="black" stroke-width="2" d="M60.5,-80.5C60.5,-80.5 185.5,-80.5 185.5,-80.5 191,-80.5 196.5,-86 196.5,-91.5 196.5,-91.5 196.5,-102.5 196.5,-102.5 196.5,-108 191,-113.5 185.5,-113.5 185.5,-113.5 60.5,-113.5 60.5,-113.5 55,-113.5 49.5,-108 49.5,-102.5 49.5,-102.5 49.5,-91.5 49.5,-91.5 49.5,-86 55,-80.5 60.5,-80.5"/>
</g>
<!-- main/Done -->
<g id="node3" class="node state regular">
<title>main/Done</title>
<polygon fill="#ffffff" fill-opacity="0.003922" stroke="transparent" stroke-width="2" points="96,-52 16,-52 16,-16 96,-16 96,-52"/>
<text text-anchor="start" x="27" y="-30.4" font-family="Helvetica,sans-Serif" font-size="12.00">main/Done</text>
<path fill="none" stroke="black" stroke-width="2" d="M28,-17.5C28,-17.5 84,-17.5 84,-17.5 89.5,-17.5 95,-23 95,-28.5 95,-28.5 95,-39.5 95,-39.5 95,-45 89.5,-50.5 84,-50.5 84,-50.5 28,-50.5 28,-50.5 22.5,-50.5 17,-45 17,-39.5 17,-39.5 17,-28.5 17,-28.5 17,-23 22.5,-17.5 28,-17.5"/>
</g>
<!-- main/Mission_Complete&#45;&gt;main/Done -->
<g id="edge1" class="edge transition">
<title>main/Mission_Complete&#45;&gt;main/Done</title>
<path fill="none" stroke="black" d="M53.42,-78.88C50.65,-76.57 48.15,-73.96 46,-71 44.08,-68.36 43.3,-65.36 43.29,-62.25"/>
<polygon fill="black" stroke="black" points="46.77,-62.74 45.42,-52.23 39.92,-61.29 46.77,-62.74"/>
<text text-anchor="start" x="46" y="-63" font-family="Helvetica,sans-Serif" font-size="10.00">MissionCompleted &#160;&#160;</text>
</g>
<!-- main/Waypoint -->
<g id="node4" class="node state regular">
<title>main/Waypoint</title>
<polygon fill="#ffffff" fill-opacity="0.003922" stroke="transparent" stroke-width="2" points="218,-52 118,-52 118,-16 218,-16 218,-52"/>
<text text-anchor="start" x="129" y="-30.4" font-family="Helvetica,sans-Serif" font-size="12.00">main/Waypoint</text>
<path fill="none" stroke="black" stroke-width="2" d="M130,-17.5C130,-17.5 206,-17.5 206,-17.5 211.5,-17.5 217,-23 217,-28.5 217,-28.5 217,-39.5 217,-39.5 217,-45 211.5,-50.5 206,-50.5 206,-50.5 130,-50.5 130,-50.5 124.5,-50.5 119,-45 119,-39.5 119,-39.5 119,-28.5 119,-28.5 119,-23 124.5,-17.5 130,-17.5"/>
</g>
<!-- main/Mission_Complete&#45;&gt;main/Waypoint -->
<g id="edge2" class="edge transition">
<title>main/Mission_Complete&#45;&gt;main/Waypoint</title>
<path fill="none" stroke="black" d="M135.77,-78.68C139.99,-72.97 144.77,-66.49 149.33,-60.3"/>
<polygon fill="black" stroke="black" points="152.23,-62.27 155.35,-52.15 146.6,-58.12 152.23,-62.27"/>
<text text-anchor="start" x="149" y="-63" font-family="Helvetica,sans-Serif" font-size="10.00">MissionNotCompleted &#160;&#160;</text>
</g>
</g>
</svg>
