<?xml version="1.0" encoding="UTF-8" standalone="no"?>
<!DOCTYPE svg PUBLIC "-//W3C//DTD SVG 1.1//EN"
 "http://www.w3.org/Graphics/SVG/1.1/DTD/svg11.dtd">
<!-- Generated by graphviz version 2.49.1 (20210923.0004)
 -->
<!-- Title: state transitions Pages: 1 -->
<svg width="259pt" height="168pt"
 viewBox="0.00 0.00 259.00 168.00" xmlns="http://www.w3.org/2000/svg" xmlns:xlink="http://www.w3.org/1999/xlink">
<g id="graph0" class="graph" transform="scale(1 1) rotate(0) translate(4 164)">
<title>state transitions</title>
<polygon fill="white" stroke="transparent" points="-4,4 -4,-164 255,-164 255,4 -4,4"/>
<g id="clust1" class="cluster state regular">
<title>cluster_main</title>
<path fill="none" stroke="black" stroke-width="2" d="M20,-8C20,-8 231,-8 231,-8 237,-8 243,-14 243,-20 243,-20 243,-140 243,-140 243,-146 237,-152 231,-152 231,-152 20,-152 20,-152 14,-152 8,-146 8,-140 8,-140 8,-20 8,-20 8,-14 14,-8 20,-8"/>
<text text-anchor="start" x="112.5" y="-133.9" font-family="Helvetica,sans-Serif" font-size="12.00">main</text>
</g>
<!-- main -->
<!-- main/Initialize -->
<g id="node2" class="node state regular">
<title>main/Initialize</title>
<polygon fill="#ffffff" fill-opacity="0.003922" stroke="transparent" stroke-width="2" points="108,-115 16,-115 16,-79 108,-79 108,-115"/>
<text text-anchor="start" x="27" y="-93.4" font-family="Helvetica,sans-Serif" font-size="12.00">main/Initialize</text>
<path fill="none" stroke="black" stroke-width="2" d="M28,-80.5C28,-80.5 96,-80.5 96,-80.5 101.5,-80.5 107,-86 107,-91.5 107,-91.5 107,-102.5 107,-102.5 107,-108 101.5,-113.5 96,-113.5 96,-113.5 28,-113.5 28,-113.5 22.5,-113.5 17,-108 17,-102.5 17,-102.5 17,-91.5 17,-91.5 17,-86 22.5,-80.5 28,-80.5"/>
</g>
<!-- main/Initialize&#45;&gt;main/Initialize -->
<g id="edge2" class="edge transition">
<title>main/Initialize&#45;&gt;main/Initialize</title>
<path fill="none" stroke="black" d="M108.08,-102.58C120.53,-102.29 130,-100.43 130,-97 130,-94.59 125.32,-92.95 118.21,-92.09"/>
<polygon fill="black" stroke="black" points="118.3,-88.59 108.08,-91.42 117.83,-95.58 118.3,-88.59"/>
<text text-anchor="start" x="130" y="-94.5" font-family="Helvetica,sans-Serif" font-size="10.00">InitializationFailed &#160;&#160;</text>
</g>
<!-- main/Waypoint -->
<g id="node3" class="node state regular">
<title>main/Waypoint</title>
<polygon fill="#ffffff" fill-opacity="0.003922" stroke="transparent" stroke-width="2" points="116,-52 16,-52 16,-16 116,-16 116,-52"/>
<text text-anchor="start" x="27" y="-30.4" font-family="Helvetica,sans-Serif" font-size="12.00">main/Waypoint</text>
<path fill="none" stroke="black" stroke-width="2" d="M28,-17.5C28,-17.5 104,-17.5 104,-17.5 109.5,-17.5 115,-23 115,-28.5 115,-28.5 115,-39.5 115,-39.5 115,-45 109.5,-50.5 104,-50.5 104,-50.5 28,-50.5 28,-50.5 22.5,-50.5 17,-45 17,-39.5 17,-39.5 17,-28.5 17,-28.5 17,-23 22.5,-17.5 28,-17.5"/>
</g>
<!-- main/Initialize&#45;&gt;main/Waypoint -->
<g id="edge1" class="edge transition">
<title>main/Initialize&#45;&gt;main/Waypoint</title>
<path fill="none" stroke="black" d="M63.14,-78.68C63.47,-73.62 63.84,-67.95 64.2,-62.42"/>
<polygon fill="black" stroke="black" points="67.71,-62.36 64.88,-52.15 60.73,-61.9 67.71,-62.36"/>
<text text-anchor="start" x="64" y="-63" font-family="Helvetica,sans-Serif" font-size="10.00">InitializationCompleted &#160;&#160;</text>
</g>
</g>
</svg>
