<?xml version="1.0" encoding="UTF-8" standalone="no"?>
<!DOCTYPE svg PUBLIC "-//W3C//DTD SVG 1.1//EN"
 "http://www.w3.org/Graphics/SVG/1.1/DTD/svg11.dtd">
<!-- Generated by graphviz version 2.49.1 (20210923.0004)
 -->
<!-- Title: state transitions Pages: 1 -->
<svg width="178pt" height="168pt"
 viewBox="0.00 0.00 178.00 168.00" xmlns="http://www.w3.org/2000/svg" xmlns:xlink="http://www.w3.org/1999/xlink">
<g id="graph0" class="graph" transform="scale(1 1) rotate(0) translate(4 164)">
<title>state transitions</title>
<polygon fill="white" stroke="transparent" points="-4,4 -4,-164 174,-164 174,4 -4,4"/>
<g id="clust1" class="cluster state regular">
<title>cluster_patrol</title>
<path fill="none" stroke="black" stroke-width="2" d="M20,-8C20,-8 150,-8 150,-8 156,-8 162,-14 162,-20 162,-20 162,-140 162,-140 162,-146 156,-152 150,-152 150,-152 20,-152 20,-152 14,-152 8,-146 8,-140 8,-140 8,-20 8,-20 8,-14 14,-8 20,-8"/>
<text text-anchor="start" x="70" y="-133.9" font-family="Helvetica,sans-Serif" font-size="12.00">patrol</text>
</g>
<!-- patrol -->
<!-- patrol/move_base -->
<g id="node2" class="node state regular">
<title>patrol/move_base</title>
<polygon fill="#ffffff" fill-opacity="0.003922" stroke="transparent" stroke-width="2" points="132,-115 16,-115 16,-79 132,-79 132,-115"/>
<text text-anchor="start" x="27" y="-93.4" font-family="Helvetica,sans-Serif" font-size="12.00">patrol/move_base</text>
<path fill="none" stroke="black" stroke-width="2" d="M28,-80.5C28,-80.5 120,-80.5 120,-80.5 125.5,-80.5 131,-86 131,-91.5 131,-91.5 131,-102.5 131,-102.5 131,-108 125.5,-113.5 120,-113.5 120,-113.5 28,-113.5 28,-113.5 22.5,-113.5 17,-108 17,-102.5 17,-102.5 17,-91.5 17,-91.5 17,-86 22.5,-80.5 28,-80.5"/>
</g>
<!-- patrol/waypoints -->
<g id="node3" class="node state regular">
<title>patrol/waypoints</title>
<polygon fill="#ffffff" fill-opacity="0.003922" stroke="transparent" stroke-width="2" points="127.5,-52 20.5,-52 20.5,-16 127.5,-16 127.5,-52"/>
<text text-anchor="start" x="32" y="-30.4" font-family="Helvetica,sans-Serif" font-size="12.00">patrol/waypoints</text>
<path fill="none" stroke="black" stroke-width="2" d="M32.5,-17.5C32.5,-17.5 115.5,-17.5 115.5,-17.5 121,-17.5 126.5,-23 126.5,-28.5 126.5,-28.5 126.5,-39.5 126.5,-39.5 126.5,-45 121,-50.5 115.5,-50.5 115.5,-50.5 32.5,-50.5 32.5,-50.5 27,-50.5 21.5,-45 21.5,-39.5 21.5,-39.5 21.5,-28.5 21.5,-28.5 21.5,-23 27,-17.5 32.5,-17.5"/>
</g>
<!-- patrol/move_base&#45;&gt;patrol/waypoints -->
<g id="edge1" class="edge transition">
<title>patrol/move_base&#45;&gt;patrol/waypoints</title>
<path fill="none" stroke="black" d="M74,-78.68C74,-73.62 74,-67.95 74,-62.42"/>
<polygon fill="black" stroke="black" points="77.5,-62.15 74,-52.15 70.5,-62.15 77.5,-62.15"/>
<text text-anchor="start" x="74" y="-63" font-family="Helvetica,sans-Serif" font-size="10.00">succeeded &#160;&#160;</text>
</g>
</g>
</svg>
