<?xml version="1.0" encoding="UTF-8" standalone="no"?>
<!DOCTYPE svg PUBLIC "-//W3C//DTD SVG 1.1//EN"
 "http://www.w3.org/Graphics/SVG/1.1/DTD/svg11.dtd">
<!-- Generated by graphviz version 2.49.1 (20210923.0004)
 -->
<!-- Title: state transitions Pages: 1 -->
<svg width="632pt" height="168pt"
 viewBox="0.00 0.00 632.00 168.00" xmlns="http://www.w3.org/2000/svg" xmlns:xlink="http://www.w3.org/1999/xlink">
<g id="graph0" class="graph" transform="scale(1 1) rotate(0) translate(4 164)">
<title>state transitions</title>
<polygon fill="white" stroke="transparent" points="-4,4 -4,-164 628,-164 628,4 -4,4"/>
<g id="clust1" class="cluster state regular">
<title>cluster_sm</title>
<path fill="none" stroke="black" stroke-width="2" d="M20,-8C20,-8 604,-8 604,-8 610,-8 616,-14 616,-20 616,-20 616,-140 616,-140 616,-146 610,-152 604,-152 604,-152 20,-152 20,-152 14,-152 8,-146 8,-140 8,-140 8,-20 8,-20 8,-14 14,-8 20,-8"/>
<text text-anchor="start" x="304" y="-133.9" font-family="Helvetica,sans-Serif" font-size="12.00">sm</text>
</g>
<!-- sm -->
<!-- sm/TAKEOFF -->
<g id="node2" class="node state regular">
<title>sm/TAKEOFF</title>
<polygon fill="#ffffff" fill-opacity="0.003922" stroke="transparent" stroke-width="2" points="212.5,-115 115.5,-115 115.5,-79 212.5,-79 212.5,-115"/>
<text text-anchor="start" x="127" y="-93.4" font-family="Helvetica,sans-Serif" font-size="12.00">sm/TAKEOFF</text>
<path fill="none" stroke="black" stroke-width="2" d="M127.5,-80.5C127.5,-80.5 200.5,-80.5 200.5,-80.5 206,-80.5 211.5,-86 211.5,-91.5 211.5,-91.5 211.5,-102.5 211.5,-102.5 211.5,-108 206,-113.5 200.5,-113.5 200.5,-113.5 127.5,-113.5 127.5,-113.5 122,-113.5 116.5,-108 116.5,-102.5 116.5,-102.5 116.5,-91.5 116.5,-91.5 116.5,-86 122,-80.5 127.5,-80.5"/>
</g>
<!-- sm/id -->
<g id="node7" class="node state regular">
<title>sm/id</title>
<polygon fill="#ffffff" fill-opacity="0.003922" stroke="transparent" stroke-width="2" points="218,-52 162,-52 162,-16 218,-16 218,-52"/>
<text text-anchor="start" x="175.5" y="-30.4" font-family="Helvetica,sans-Serif" font-size="12.00">sm/id</text>
<path fill="none" stroke="black" stroke-width="2" d="M174,-17.5C174,-17.5 206,-17.5 206,-17.5 211.5,-17.5 217,-23 217,-28.5 217,-28.5 217,-39.5 217,-39.5 217,-45 211.5,-50.5 206,-50.5 206,-50.5 174,-50.5 174,-50.5 168.5,-50.5 163,-45 163,-39.5 163,-39.5 163,-28.5 163,-28.5 163,-23 168.5,-17.5 174,-17.5"/>
</g>
<!-- sm/TAKEOFF&#45;&gt;sm/id -->
<g id="edge1" class="edge transition">
<title>sm/TAKEOFF&#45;&gt;sm/id</title>
<path fill="none" stroke="black" d="M164.41,-78.98C164.9,-74.34 165.77,-69.29 169.18,-61.28"/>
<polygon fill="black" stroke="black" points="172.37,-62.73 173.53,-52.19 166.06,-59.71 172.37,-62.73"/>
<text text-anchor="start" x="169" y="-63" font-family="Helvetica,sans-Serif" font-size="10.00">id &#160;&#160;</text>
</g>
<!-- sm/CONDSTATE -->
<g id="node3" class="node state regular">
<title>sm/CONDSTATE</title>
<polygon fill="#ffffff" fill-opacity="0.003922" stroke="transparent" stroke-width="2" points="585.5,-115 470.5,-115 470.5,-79 585.5,-79 585.5,-115"/>
<text text-anchor="start" x="482" y="-93.4" font-family="Helvetica,sans-Serif" font-size="12.00">sm/CONDSTATE</text>
<path fill="none" stroke="black" stroke-width="2" d="M482.5,-80.5C482.5,-80.5 573.5,-80.5 573.5,-80.5 579,-80.5 584.5,-86 584.5,-91.5 584.5,-91.5 584.5,-102.5 584.5,-102.5 584.5,-108 579,-113.5 573.5,-113.5 573.5,-113.5 482.5,-113.5 482.5,-113.5 477,-113.5 471.5,-108 471.5,-102.5 471.5,-102.5 471.5,-91.5 471.5,-91.5 471.5,-86 477,-80.5 482.5,-80.5"/>
</g>
<!-- sm/points -->
<g id="node8" class="node state regular">
<title>sm/points</title>
<polygon fill="#ffffff" fill-opacity="0.003922" stroke="transparent" stroke-width="2" points="364.5,-52 291.5,-52 291.5,-16 364.5,-16 364.5,-52"/>
<text text-anchor="start" x="303" y="-30.4" font-family="Helvetica,sans-Serif" font-size="12.00">sm/points</text>
<path fill="none" stroke="black" stroke-width="2" d="M303.5,-17.5C303.5,-17.5 352.5,-17.5 352.5,-17.5 358,-17.5 363.5,-23 363.5,-28.5 363.5,-28.5 363.5,-39.5 363.5,-39.5 363.5,-45 358,-50.5 352.5,-50.5 352.5,-50.5 303.5,-50.5 303.5,-50.5 298,-50.5 292.5,-45 292.5,-39.5 292.5,-39.5 292.5,-28.5 292.5,-28.5 292.5,-23 298,-17.5 303.5,-17.5"/>
</g>
<!-- sm/CONDSTATE&#45;&gt;sm/points -->
<g id="edge2" class="edge transition">
<title>sm/CONDSTATE&#45;&gt;sm/points</title>
<path fill="none" stroke="black" d="M470.14,-81.62C455.14,-77.66 441.19,-73.72 434,-71 423.78,-67.13 422.17,-64.02 412,-60 400.05,-55.28 386.85,-50.95 374.52,-47.27"/>
<polygon fill="black" stroke="black" points="375.44,-43.89 364.86,-44.47 373.48,-50.62 375.44,-43.89"/>
<text text-anchor="start" x="434" y="-63" font-family="Helvetica,sans-Serif" font-size="10.00">points &#160;&#160;</text>
</g>
<!-- sm/index -->
<g id="node9" class="node state regular">
<title>sm/index</title>
<polygon fill="#ffffff" fill-opacity="0.003922" stroke="transparent" stroke-width="2" points="469.5,-52 400.5,-52 400.5,-16 469.5,-16 469.5,-52"/>
<text text-anchor="start" x="412" y="-30.4" font-family="Helvetica,sans-Serif" font-size="12.00">sm/index</text>
<path fill="none" stroke="black" stroke-width="2" d="M412.5,-17.5C412.5,-17.5 457.5,-17.5 457.5,-17.5 463,-17.5 468.5,-23 468.5,-28.5 468.5,-28.5 468.5,-39.5 468.5,-39.5 468.5,-45 463,-50.5 457.5,-50.5 457.5,-50.5 412.5,-50.5 412.5,-50.5 407,-50.5 401.5,-45 401.5,-39.5 401.5,-39.5 401.5,-28.5 401.5,-28.5 401.5,-23 407,-17.5 412.5,-17.5"/>
</g>
<!-- sm/CONDSTATE&#45;&gt;sm/index -->
<g id="edge3" class="edge transition">
<title>sm/CONDSTATE&#45;&gt;sm/index</title>
<path fill="none" stroke="black" d="M503.32,-78.95C494.44,-72.9 484.32,-66.07 475,-60 473.76,-59.19 472.49,-58.37 471.21,-57.54"/>
<polygon fill="black" stroke="black" points="472.94,-54.5 462.63,-52.08 469.18,-60.4 472.94,-54.5"/>
<text text-anchor="start" x="491" y="-63" font-family="Helvetica,sans-Serif" font-size="10.00">index &#160;&#160;</text>
</g>
<!-- sm/maxreps -->
<g id="node10" class="node state regular">
<title>sm/maxreps</title>
<polygon fill="#ffffff" fill-opacity="0.003922" stroke="transparent" stroke-width="2" points="604,-52 518,-52 518,-16 604,-16 604,-52"/>
<text text-anchor="start" x="529" y="-30.4" font-family="Helvetica,sans-Serif" font-size="12.00">sm/maxreps</text>
<path fill="none" stroke="black" stroke-width="2" d="M530,-17.5C530,-17.5 592,-17.5 592,-17.5 597.5,-17.5 603,-23 603,-28.5 603,-28.5 603,-39.5 603,-39.5 603,-45 597.5,-50.5 592,-50.5 592,-50.5 530,-50.5 530,-50.5 524.5,-50.5 519,-45 519,-39.5 519,-39.5 519,-28.5 519,-28.5 519,-23 524.5,-17.5 530,-17.5"/>
</g>
<!-- sm/CONDSTATE&#45;&gt;sm/maxreps -->
<g id="edge4" class="edge transition">
<title>sm/CONDSTATE&#45;&gt;sm/maxreps</title>
<path fill="none" stroke="black" d="M537.37,-78.68C540.32,-73.23 543.65,-67.08 546.85,-61.15"/>
<polygon fill="black" stroke="black" points="550.04,-62.61 551.72,-52.15 543.89,-59.28 550.04,-62.61"/>
<text text-anchor="start" x="547" y="-63" font-family="Helvetica,sans-Serif" font-size="10.00">maxreps &#160;&#160;</text>
</g>
<!-- sm/FOLLOWCSV -->
<g id="node4" class="node state regular">
<title>sm/FOLLOWCSV</title>
<polygon fill="#ffffff" fill-opacity="0.003922" stroke="transparent" stroke-width="2" points="448.5,-115 331.5,-115 331.5,-79 448.5,-79 448.5,-115"/>
<text text-anchor="start" x="343" y="-93.4" font-family="Helvetica,sans-Serif" font-size="12.00">sm/FOLLOWCSV</text>
<path fill="none" stroke="black" stroke-width="2" d="M343.5,-80.5C343.5,-80.5 436.5,-80.5 436.5,-80.5 442,-80.5 447.5,-86 447.5,-91.5 447.5,-91.5 447.5,-102.5 447.5,-102.5 447.5,-108 442,-113.5 436.5,-113.5 436.5,-113.5 343.5,-113.5 343.5,-113.5 338,-113.5 332.5,-108 332.5,-102.5 332.5,-102.5 332.5,-91.5 332.5,-91.5 332.5,-86 338,-80.5 343.5,-80.5"/>
</g>
<!-- sm/FOLLOWCSV&#45;&gt;sm/id -->
<g id="edge5" class="edge transition">
<title>sm/FOLLOWCSV&#45;&gt;sm/id</title>
<path fill="none" stroke="black" d="M333.28,-78.97C324.48,-76.31 315.49,-73.59 307,-71 280.61,-62.97 250.91,-53.82 228.03,-46.76"/>
<polygon fill="black" stroke="black" points="228.94,-43.38 218.36,-43.78 226.88,-50.07 228.94,-43.38"/>
<text text-anchor="start" x="307" y="-63" font-family="Helvetica,sans-Serif" font-size="10.00">id &#160;&#160;</text>
</g>
<!-- sm/FOLLOWCSV&#45;&gt;sm/points -->
<g id="edge6" class="edge transition">
<title>sm/FOLLOWCSV&#45;&gt;sm/points</title>
<path fill="none" stroke="black" d="M341.95,-78.87C338.98,-76.56 336.28,-73.95 334,-71 331.95,-68.34 330.49,-65.24 329.46,-62"/>
<polygon fill="black" stroke="black" points="332.88,-61.27 327.54,-52.12 326.01,-62.61 332.88,-61.27"/>
<text text-anchor="start" x="334" y="-63" font-family="Helvetica,sans-Serif" font-size="10.00">points &#160;&#160;</text>
</g>
<!-- sm/FOLLOWCSV&#45;&gt;sm/index -->
<g id="edge7" class="edge transition">
<title>sm/FOLLOWCSV&#45;&gt;sm/index</title>
<path fill="none" stroke="black" d="M378.21,-78.7C375.48,-72.48 374.32,-65.63 378,-60 381.33,-54.9 385.96,-50.83 391.15,-47.59"/>
<polygon fill="black" stroke="black" points="393.01,-50.58 400.3,-42.88 389.8,-44.35 393.01,-50.58"/>
<text text-anchor="start" x="378" y="-63" font-family="Helvetica,sans-Serif" font-size="10.00">index &#160;&#160;</text>
</g>
<!-- sm/HOME -->
<g id="node5" class="node state regular">
<title>sm/HOME</title>
<polygon fill="#ffffff" fill-opacity="0.003922" stroke="transparent" stroke-width="2" points="93.5,-115 16.5,-115 16.5,-79 93.5,-79 93.5,-115"/>
<text text-anchor="start" x="28" y="-93.4" font-family="Helvetica,sans-Serif" font-size="12.00">sm/HOME</text>
<path fill="none" stroke="black" stroke-width="2" d="M28.5,-80.5C28.5,-80.5 81.5,-80.5 81.5,-80.5 87,-80.5 92.5,-86 92.5,-91.5 92.5,-91.5 92.5,-102.5 92.5,-102.5 92.5,-108 87,-113.5 81.5,-113.5 81.5,-113.5 28.5,-113.5 28.5,-113.5 23,-113.5 17.5,-108 17.5,-102.5 17.5,-102.5 17.5,-91.5 17.5,-91.5 17.5,-86 23,-80.5 28.5,-80.5"/>
</g>
<!-- sm/HOME&#45;&gt;sm/id -->
<g id="edge8" class="edge transition">
<title>sm/HOME&#45;&gt;sm/id</title>
<path fill="none" stroke="black" d="M92.96,-78.85C111.56,-70.44 133.88,-60.36 152.42,-51.98"/>
<polygon fill="black" stroke="black" points="154.06,-55.08 161.74,-47.77 151.18,-48.7 154.06,-55.08"/>
<text text-anchor="start" x="134" y="-63" font-family="Helvetica,sans-Serif" font-size="10.00">id &#160;&#160;</text>
</g>
<!-- sm/LAND -->
<g id="node6" class="node state regular">
<title>sm/LAND</title>
<polygon fill="#ffffff" fill-opacity="0.003922" stroke="transparent" stroke-width="2" points="309,-115 235,-115 235,-79 309,-79 309,-115"/>
<text text-anchor="start" x="246" y="-93.4" font-family="Helvetica,sans-Serif" font-size="12.00">sm/LAND</text>
<path fill="none" stroke="black" stroke-width="2" d="M247,-80.5C247,-80.5 297,-80.5 297,-80.5 302.5,-80.5 308,-86 308,-91.5 308,-91.5 308,-102.5 308,-102.5 308,-108 302.5,-113.5 297,-113.5 297,-113.5 247,-113.5 247,-113.5 241.5,-113.5 236,-108 236,-102.5 236,-102.5 236,-91.5 236,-91.5 236,-86 241.5,-80.5 247,-80.5"/>
</g>
<!-- sm/LAND&#45;&gt;sm/id -->
<g id="edge9" class="edge transition">
<title>sm/LAND&#45;&gt;sm/id</title>
<path fill="none" stroke="black" d="M234.98,-79.52C230.45,-76.92 226.01,-74.07 222,-71 217.71,-67.71 213.55,-63.79 209.73,-59.77"/>
<polygon fill="black" stroke="black" points="212.1,-57.18 202.84,-52.04 206.88,-61.84 212.1,-57.18"/>
<text text-anchor="start" x="222" y="-63" font-family="Helvetica,sans-Serif" font-size="10.00">id &#160;&#160;</text>
</g>
</g>
</svg>
