<?xml version="1.0" encoding="UTF-8" standalone="no"?>
<!DOCTYPE svg PUBLIC "-//W3C//DTD SVG 1.1//EN"
 "http://www.w3.org/Graphics/SVG/1.1/DTD/svg11.dtd">
<!-- Generated by graphviz version 2.49.1 (20210923.0004)
 -->
<!-- Title: state transitions Pages: 1 -->
<svg width="628pt" height="357pt"
 viewBox="0.00 0.00 628.00 357.00" xmlns="http://www.w3.org/2000/svg" xmlns:xlink="http://www.w3.org/1999/xlink">
<g id="graph0" class="graph" transform="scale(1 1) rotate(0) translate(4 353)">
<title>state transitions</title>
<polygon fill="white" stroke="transparent" points="-4,4 -4,-353 624,-353 624,4 -4,4"/>
<g id="clust1" class="cluster state regular">
<title>cluster_self.sm_fetchtea</title>
<path fill="none" stroke="black" stroke-width="2" d="M20,-8C20,-8 600,-8 600,-8 606,-8 612,-14 612,-20 612,-20 612,-329 612,-329 612,-335 606,-341 600,-341 600,-341 20,-341 20,-341 14,-341 8,-335 8,-329 8,-329 8,-20 8,-20 8,-14 14,-8 20,-8"/>
<text text-anchor="start" x="268" y="-322.9" font-family="Helvetica,sans-Serif" font-size="12.00">self.sm_fetchtea</text>
</g>
<!-- self.sm_fetchtea -->
<!-- self.sm_fetchtea/START_TIP -->
<g id="node2" class="node state regular">
<title>self.sm_fetchtea/START_TIP</title>
<polygon fill="#ffffff" fill-opacity="0.003922" stroke="transparent" stroke-width="2" points="512.5,-304 339.5,-304 339.5,-268 512.5,-268 512.5,-304"/>
<text text-anchor="start" x="351" y="-282.4" font-family="Helvetica,sans-Serif" font-size="12.00">self.sm_fetchtea/START_TIP</text>
<path fill="none" stroke="black" stroke-width="2" d="M351.5,-269.5C351.5,-269.5 500.5,-269.5 500.5,-269.5 506,-269.5 511.5,-275 511.5,-280.5 511.5,-280.5 511.5,-291.5 511.5,-291.5 511.5,-297 506,-302.5 500.5,-302.5 500.5,-302.5 351.5,-302.5 351.5,-302.5 346,-302.5 340.5,-297 340.5,-291.5 340.5,-291.5 340.5,-280.5 340.5,-280.5 340.5,-275 346,-269.5 351.5,-269.5"/>
</g>
<!-- self.sm_fetchtea/GET_LOCATION -->
<g id="node3" class="node state regular">
<title>self.sm_fetchtea/GET_LOCATION</title>
<polygon fill="#ffffff" fill-opacity="0.003922" stroke="transparent" stroke-width="2" points="449,-241 249,-241 249,-205 449,-205 449,-241"/>
<text text-anchor="start" x="260" y="-219.4" font-family="Helvetica,sans-Serif" font-size="12.00">self.sm_fetchtea/GET_LOCATION</text>
<path fill="none" stroke="black" stroke-width="2" d="M261,-206.5C261,-206.5 437,-206.5 437,-206.5 442.5,-206.5 448,-212 448,-217.5 448,-217.5 448,-228.5 448,-228.5 448,-234 442.5,-239.5 437,-239.5 437,-239.5 261,-239.5 261,-239.5 255.5,-239.5 250,-234 250,-228.5 250,-228.5 250,-217.5 250,-217.5 250,-212 255.5,-206.5 261,-206.5"/>
</g>
<!-- self.sm_fetchtea/START_TIP&#45;&gt;self.sm_fetchtea/GET_LOCATION -->
<g id="edge1" class="edge transition">
<title>self.sm_fetchtea/START_TIP&#45;&gt;self.sm_fetchtea/GET_LOCATION</title>
<path fill="none" stroke="black" d="M404.14,-267.68C396.19,-261.38 387.06,-254.16 378.56,-247.42"/>
<polygon fill="black" stroke="black" points="380.66,-244.62 370.65,-241.15 376.31,-250.1 380.66,-244.62"/>
<text text-anchor="start" x="394" y="-252" font-family="Helvetica,sans-Serif" font-size="10.00">succeeded &#160;&#160;</text>
</g>
<!-- self.sm_fetchtea/END_SPEAK_TO_TIP_ABORT -->
<g id="node5" class="node state regular">
<title>self.sm_fetchtea/END_SPEAK_TO_TIP_ABORT</title>
<polygon fill="#ffffff" fill-opacity="0.003922" stroke="transparent" stroke-width="2" points="604,-115 326,-115 326,-79 604,-79 604,-115"/>
<text text-anchor="start" x="337" y="-93.4" font-family="Helvetica,sans-Serif" font-size="12.00">self.sm_fetchtea/END_SPEAK_TO_TIP_ABORT</text>
<path fill="none" stroke="black" stroke-width="2" d="M338,-80.5C338,-80.5 592,-80.5 592,-80.5 597.5,-80.5 603,-86 603,-91.5 603,-91.5 603,-102.5 603,-102.5 603,-108 597.5,-113.5 592,-113.5 592,-113.5 338,-113.5 338,-113.5 332.5,-113.5 327,-108 327,-102.5 327,-102.5 327,-91.5 327,-91.5 327,-86 332.5,-80.5 338,-80.5"/>
</g>
<!-- self.sm_fetchtea/START_TIP&#45;&gt;self.sm_fetchtea/END_SPEAK_TO_TIP_ABORT -->
<g id="edge2" class="edge transition">
<title>self.sm_fetchtea/START_TIP&#45;&gt;self.sm_fetchtea/END_SPEAK_TO_TIP_ABORT</title>
<path fill="none" stroke="black" d="M449.91,-267.83C452.22,-265.41 454.32,-262.79 456,-260 481.03,-218.4 476.44,-159.39 470.76,-125.26"/>
<polygon fill="black" stroke="black" points="474.15,-124.33 468.92,-115.11 467.26,-125.58 474.15,-124.33"/>
<text text-anchor="start" x="475" y="-189" font-family="Helvetica,sans-Serif" font-size="10.00">aborted &#160;&#160;</text>
</g>
<!-- self.sm_fetchtea/NAV_TO_WAYPOINT -->
<g id="node4" class="node state regular">
<title>self.sm_fetchtea/NAV_TO_WAYPOINT</title>
<polygon fill="#ffffff" fill-opacity="0.003922" stroke="transparent" stroke-width="2" points="362.5,-178 137.5,-178 137.5,-142 362.5,-142 362.5,-178"/>
<text text-anchor="start" x="149" y="-156.4" font-family="Helvetica,sans-Serif" font-size="12.00">self.sm_fetchtea/NAV_TO_WAYPOINT</text>
<path fill="none" stroke="black" stroke-width="2" d="M149.5,-143.5C149.5,-143.5 350.5,-143.5 350.5,-143.5 356,-143.5 361.5,-149 361.5,-154.5 361.5,-154.5 361.5,-165.5 361.5,-165.5 361.5,-171 356,-176.5 350.5,-176.5 350.5,-176.5 149.5,-176.5 149.5,-176.5 144,-176.5 138.5,-171 138.5,-165.5 138.5,-165.5 138.5,-154.5 138.5,-154.5 138.5,-149 144,-143.5 149.5,-143.5"/>
</g>
<!-- self.sm_fetchtea/GET_LOCATION&#45;&gt;self.sm_fetchtea/NAV_TO_WAYPOINT -->
<g id="edge3" class="edge transition">
<title>self.sm_fetchtea/GET_LOCATION&#45;&gt;self.sm_fetchtea/NAV_TO_WAYPOINT</title>
<path fill="none" stroke="black" d="M321.16,-204.85C310.31,-198.16 297.74,-190.41 286.2,-183.31"/>
<polygon fill="black" stroke="black" points="287.98,-180.29 277.63,-178.03 284.31,-186.25 287.98,-180.29"/>
<text text-anchor="start" x="308" y="-189" font-family="Helvetica,sans-Serif" font-size="10.00">succeeded &#160;&#160;</text>
</g>
<!-- self.sm_fetchtea/GET_LOCATION&#45;&gt;self.sm_fetchtea/END_SPEAK_TO_TIP_ABORT -->
<g id="edge4" class="edge transition">
<title>self.sm_fetchtea/GET_LOCATION&#45;&gt;self.sm_fetchtea/END_SPEAK_TO_TIP_ABORT</title>
<path fill="none" stroke="black" d="M365.13,-204.76C385.13,-183.38 419.34,-146.8 442.07,-122.51"/>
<polygon fill="black" stroke="black" points="444.73,-124.79 449.01,-115.1 439.62,-120.01 444.73,-124.79"/>
<text text-anchor="start" x="422" y="-157.5" font-family="Helvetica,sans-Serif" font-size="10.00">aborted &#160;&#160;</text>
</g>
<!-- self.sm_fetchtea/NAV_TO_WAYPOINT&#45;&gt;self.sm_fetchtea/END_SPEAK_TO_TIP_ABORT -->
<g id="edge6" class="edge transition">
<title>self.sm_fetchtea/NAV_TO_WAYPOINT&#45;&gt;self.sm_fetchtea/END_SPEAK_TO_TIP_ABORT</title>
<path fill="none" stroke="black" d="M298.55,-141.96C317.33,-135.63 339.05,-128.63 359,-123 365.54,-121.15 372.33,-119.33 379.18,-117.56"/>
<polygon fill="black" stroke="black" points="380.39,-120.87 389.23,-115.02 378.67,-114.08 380.39,-120.87"/>
<text text-anchor="start" x="359" y="-126" font-family="Helvetica,sans-Serif" font-size="10.00">aborted &#160;&#160;</text>
</g>
<!-- self.sm_fetchtea/END_SPEAK_TO_TIP_SUCESS -->
<g id="node6" class="node state regular">
<title>self.sm_fetchtea/END_SPEAK_TO_TIP_SUCESS</title>
<polygon fill="#ffffff" fill-opacity="0.003922" stroke="transparent" stroke-width="2" points="303.5,-115 16.5,-115 16.5,-79 303.5,-79 303.5,-115"/>
<text text-anchor="start" x="28" y="-93.4" font-family="Helvetica,sans-Serif" font-size="12.00">self.sm_fetchtea/END_SPEAK_TO_TIP_SUCESS</text>
<path fill="none" stroke="black" stroke-width="2" d="M28.5,-80.5C28.5,-80.5 291.5,-80.5 291.5,-80.5 297,-80.5 302.5,-86 302.5,-91.5 302.5,-91.5 302.5,-102.5 302.5,-102.5 302.5,-108 297,-113.5 291.5,-113.5 291.5,-113.5 28.5,-113.5 28.5,-113.5 23,-113.5 17.5,-108 17.5,-102.5 17.5,-102.5 17.5,-91.5 17.5,-91.5 17.5,-86 23,-80.5 28.5,-80.5"/>
</g>
<!-- self.sm_fetchtea/NAV_TO_WAYPOINT&#45;&gt;self.sm_fetchtea/END_SPEAK_TO_TIP_SUCESS -->
<g id="edge5" class="edge transition">
<title>self.sm_fetchtea/NAV_TO_WAYPOINT&#45;&gt;self.sm_fetchtea/END_SPEAK_TO_TIP_SUCESS</title>
<path fill="none" stroke="black" d="M224.45,-141.68C214.87,-135.19 203.83,-127.71 193.63,-120.79"/>
<polygon fill="black" stroke="black" points="195.54,-117.86 185.3,-115.15 191.62,-123.66 195.54,-117.86"/>
<text text-anchor="start" x="213" y="-126" font-family="Helvetica,sans-Serif" font-size="10.00">succeeded &#160;&#160;</text>
</g>
<!-- self.sm_fetchtea/succeeded -->
<g id="node7" class="node state regular">
<title>self.sm_fetchtea/succeeded</title>
<polygon fill="#ffffff" fill-opacity="0.003922" stroke="transparent" stroke-width="2" points="341,-52 173,-52 173,-16 341,-16 341,-52"/>
<text text-anchor="start" x="184" y="-30.4" font-family="Helvetica,sans-Serif" font-size="12.00">self.sm_fetchtea/succeeded</text>
<path fill="none" stroke="black" stroke-width="2" d="M185,-17.5C185,-17.5 329,-17.5 329,-17.5 334.5,-17.5 340,-23 340,-28.5 340,-28.5 340,-39.5 340,-39.5 340,-45 334.5,-50.5 329,-50.5 329,-50.5 185,-50.5 185,-50.5 179.5,-50.5 174,-45 174,-39.5 174,-39.5 174,-28.5 174,-28.5 174,-23 179.5,-17.5 185,-17.5"/>
</g>
<!-- self.sm_fetchtea/END_SPEAK_TO_TIP_ABORT&#45;&gt;self.sm_fetchtea/succeeded -->
<g id="edge7" class="edge transition">
<title>self.sm_fetchtea/END_SPEAK_TO_TIP_ABORT&#45;&gt;self.sm_fetchtea/succeeded</title>
<path fill="none" stroke="black" d="M406.78,-78.93C381.42,-71.49 351.52,-62.72 325.13,-54.98"/>
<polygon fill="black" stroke="black" points="325.78,-51.52 315.2,-52.07 323.81,-58.24 325.78,-51.52"/>
<text text-anchor="start" x="379" y="-63" font-family="Helvetica,sans-Serif" font-size="10.00">succeeded &#160;&#160;</text>
</g>
<!-- self.sm_fetchtea/END_SPEAK_TO_TIP_SUCESS&#45;&gt;self.sm_fetchtea/succeeded -->
<g id="edge8" class="edge transition">
<title>self.sm_fetchtea/END_SPEAK_TO_TIP_SUCESS&#45;&gt;self.sm_fetchtea/succeeded</title>
<path fill="none" stroke="black" d="M187.28,-78.85C197.8,-72.23 209.99,-64.57 221.2,-57.52"/>
<polygon fill="black" stroke="black" points="223.32,-60.31 229.93,-52.03 219.6,-54.39 223.32,-60.31"/>
<text text-anchor="start" x="217" y="-63" font-family="Helvetica,sans-Serif" font-size="10.00">succeeded &#160;&#160;</text>
</g>
</g>
</svg>
