<?xml version="1.0" encoding="UTF-8" standalone="no"?>
<!DOCTYPE svg PUBLIC "-//W3C//DTD SVG 1.1//EN"
 "http://www.w3.org/Graphics/SVG/1.1/DTD/svg11.dtd">
<!-- Generated by graphviz version 2.49.1 (20210923.0004)
 -->
<!-- Title: state transitions Pages: 1 -->
<svg width="214pt" height="231pt"
 viewBox="0.00 0.00 214.00 231.00" xmlns="http://www.w3.org/2000/svg" xmlns:xlink="http://www.w3.org/1999/xlink">
<g id="graph0" class="graph" transform="scale(1 1) rotate(0) translate(4 227)">
<title>state transitions</title>
<polygon fill="white" stroke="transparent" points="-4,4 -4,-227 210,-227 210,4 -4,4"/>
<g id="clust1" class="cluster state regular">
<title>cluster_sm</title>
<path fill="none" stroke="black" stroke-width="2" d="M20,-8C20,-8 186,-8 186,-8 192,-8 198,-14 198,-20 198,-20 198,-203 198,-203 198,-209 192,-215 186,-215 186,-215 20,-215 20,-215 14,-215 8,-209 8,-203 8,-203 8,-20 8,-20 8,-14 14,-8 20,-8"/>
<text text-anchor="start" x="95" y="-196.9" font-family="Helvetica,sans-Serif" font-size="12.00">sm</text>
</g>
<!-- sm -->
<!-- sm/EGRESS -->
<g id="node2" class="node state regular">
<title>sm/EGRESS</title>
<polygon fill="#ffffff" fill-opacity="0.003922" stroke="transparent" stroke-width="2" points="108,-178 16,-178 16,-142 108,-142 108,-178"/>
<text text-anchor="start" x="27" y="-156.4" font-family="Helvetica,sans-Serif" font-size="12.00">sm/EGRESS</text>
<path fill="none" stroke="black" stroke-width="2" d="M28,-143.5C28,-143.5 96,-143.5 96,-143.5 101.5,-143.5 107,-149 107,-154.5 107,-154.5 107,-165.5 107,-165.5 107,-171 101.5,-176.5 96,-176.5 96,-176.5 28,-176.5 28,-176.5 22.5,-176.5 17,-171 17,-165.5 17,-165.5 17,-154.5 17,-154.5 17,-149 22.5,-143.5 28,-143.5"/>
</g>
<!-- sm/EGRESS&#45;&gt;sm/EGRESS -->
<g id="edge2" class="edge transition">
<title>sm/EGRESS&#45;&gt;sm/EGRESS</title>
<path fill="none" stroke="black" d="M108.08,-165.58C120.53,-165.29 130,-163.43 130,-160 130,-157.59 125.32,-155.95 118.21,-155.09"/>
<polygon fill="black" stroke="black" points="118.3,-151.59 108.08,-154.42 117.83,-158.58 118.3,-151.59"/>
<text text-anchor="start" x="130" y="-157.5" font-family="Helvetica,sans-Serif" font-size="10.00">aborted &#160;&#160;</text>
</g>
<!-- sm/INGRESS -->
<g id="node3" class="node state regular">
<title>sm/INGRESS</title>
<polygon fill="#ffffff" fill-opacity="0.003922" stroke="transparent" stroke-width="2" points="110,-115 16,-115 16,-79 110,-79 110,-115"/>
<text text-anchor="start" x="27" y="-93.4" font-family="Helvetica,sans-Serif" font-size="12.00">sm/INGRESS</text>
<path fill="none" stroke="black" stroke-width="2" d="M28,-80.5C28,-80.5 98,-80.5 98,-80.5 103.5,-80.5 109,-86 109,-91.5 109,-91.5 109,-102.5 109,-102.5 109,-108 103.5,-113.5 98,-113.5 98,-113.5 28,-113.5 28,-113.5 22.5,-113.5 17,-108 17,-102.5 17,-102.5 17,-91.5 17,-91.5 17,-86 22.5,-80.5 28,-80.5"/>
</g>
<!-- sm/EGRESS&#45;&gt;sm/INGRESS -->
<g id="edge1" class="edge transition">
<title>sm/EGRESS&#45;&gt;sm/INGRESS</title>
<path fill="none" stroke="black" d="M62.28,-141.68C62.37,-136.62 62.46,-130.95 62.55,-125.42"/>
<polygon fill="black" stroke="black" points="66.05,-125.21 62.72,-115.15 59.06,-125.09 66.05,-125.21"/>
<text text-anchor="start" x="62" y="-126" font-family="Helvetica,sans-Serif" font-size="10.00">succeeded &#160;&#160;</text>
</g>
<!-- sm/INGRESS&#45;&gt;sm/INGRESS -->
<g id="edge4" class="edge transition">
<title>sm/INGRESS&#45;&gt;sm/INGRESS</title>
<path fill="none" stroke="black" d="M110.09,-102.58C122.56,-102.26 132,-100.4 132,-97 132,-94.61 127.33,-92.98 120.22,-92.12"/>
<polygon fill="black" stroke="black" points="120.3,-88.61 110.09,-91.42 119.82,-95.6 120.3,-88.61"/>
<text text-anchor="start" x="132" y="-94.5" font-family="Helvetica,sans-Serif" font-size="10.00">aborted &#160;&#160;</text>
</g>
<!-- sm/done -->
<g id="node4" class="node state regular">
<title>sm/done</title>
<polygon fill="#ffffff" fill-opacity="0.003922" stroke="transparent" stroke-width="2" points="97,-52 29,-52 29,-16 97,-16 97,-52"/>
<text text-anchor="start" x="40" y="-30.4" font-family="Helvetica,sans-Serif" font-size="12.00">sm/done</text>
<path fill="none" stroke="black" stroke-width="2" d="M41,-17.5C41,-17.5 85,-17.5 85,-17.5 90.5,-17.5 96,-23 96,-28.5 96,-28.5 96,-39.5 96,-39.5 96,-45 90.5,-50.5 85,-50.5 85,-50.5 41,-50.5 41,-50.5 35.5,-50.5 30,-45 30,-39.5 30,-39.5 30,-28.5 30,-28.5 30,-23 35.5,-17.5 41,-17.5"/>
</g>
<!-- sm/INGRESS&#45;&gt;sm/done -->
<g id="edge3" class="edge transition">
<title>sm/INGRESS&#45;&gt;sm/done</title>
<path fill="none" stroke="black" d="M63,-78.68C63,-73.62 63,-67.95 63,-62.42"/>
<polygon fill="black" stroke="black" points="66.5,-62.15 63,-52.15 59.5,-62.15 66.5,-62.15"/>
<text text-anchor="start" x="63" y="-63" font-family="Helvetica,sans-Serif" font-size="10.00">succeeded &#160;&#160;</text>
</g>
</g>
</svg>
