<?xml version="1.0" encoding="UTF-8" standalone="no"?>
<!DOCTYPE svg PUBLIC "-//W3C//DTD SVG 1.1//EN"
 "http://www.w3.org/Graphics/SVG/1.1/DTD/svg11.dtd">
<!-- Generated by graphviz version 2.49.1 (20210923.0004)
 -->
<!-- Title: state transitions Pages: 1 -->
<svg width="464pt" height="420pt"
 viewBox="0.00 0.00 464.00 420.00" xmlns="http://www.w3.org/2000/svg" xmlns:xlink="http://www.w3.org/1999/xlink">
<g id="graph0" class="graph" transform="scale(1 1) rotate(0) translate(4 416)">
<title>state transitions</title>
<polygon fill="white" stroke="transparent" points="-4,4 -4,-416 460,-416 460,4 -4,4"/>
<g id="clust1" class="cluster state regular">
<title>cluster_sm</title>
<path fill="none" stroke="black" stroke-width="2" d="M20,-8C20,-8 436,-8 436,-8 442,-8 448,-14 448,-20 448,-20 448,-392 448,-392 448,-398 442,-404 436,-404 436,-404 20,-404 20,-404 14,-404 8,-398 8,-392 8,-392 8,-20 8,-20 8,-14 14,-8 20,-8"/>
<text text-anchor="start" x="220" y="-385.9" font-family="Helvetica,sans-Serif" font-size="12.00">sm</text>
</g>
<!-- sm -->
<!-- sm/PAUSE -->
<g id="node2" class="node state regular">
<title>sm/PAUSE</title>
<polygon fill="#ffffff" fill-opacity="0.003922" stroke="transparent" stroke-width="2" points="268.5,-367 185.5,-367 185.5,-331 268.5,-331 268.5,-367"/>
<text text-anchor="start" x="197" y="-345.4" font-family="Helvetica,sans-Serif" font-size="12.00">sm/PAUSE</text>
<path fill="none" stroke="black" stroke-width="2" d="M197.5,-332.5C197.5,-332.5 256.5,-332.5 256.5,-332.5 262,-332.5 267.5,-338 267.5,-343.5 267.5,-343.5 267.5,-354.5 267.5,-354.5 267.5,-360 262,-365.5 256.5,-365.5 256.5,-365.5 197.5,-365.5 197.5,-365.5 192,-365.5 186.5,-360 186.5,-354.5 186.5,-354.5 186.5,-343.5 186.5,-343.5 186.5,-338 192,-332.5 197.5,-332.5"/>
</g>
<!-- sm/STARTUPSEQUENCE -->
<g id="node3" class="node state regular">
<title>sm/STARTUPSEQUENCE</title>
<polygon fill="#ffffff" fill-opacity="0.003922" stroke="transparent" stroke-width="2" points="228,-304 64,-304 64,-268 228,-268 228,-304"/>
<text text-anchor="start" x="75" y="-282.4" font-family="Helvetica,sans-Serif" font-size="12.00">sm/STARTUPSEQUENCE</text>
<path fill="none" stroke="black" stroke-width="2" d="M76,-269.5C76,-269.5 216,-269.5 216,-269.5 221.5,-269.5 227,-275 227,-280.5 227,-280.5 227,-291.5 227,-291.5 227,-297 221.5,-302.5 216,-302.5 216,-302.5 76,-302.5 76,-302.5 70.5,-302.5 65,-297 65,-291.5 65,-291.5 65,-280.5 65,-280.5 65,-275 70.5,-269.5 76,-269.5"/>
</g>
<!-- sm/PAUSE&#45;&gt;sm/STARTUPSEQUENCE -->
<g id="edge1" class="edge transition">
<title>sm/PAUSE&#45;&gt;sm/STARTUPSEQUENCE</title>
<path fill="none" stroke="black" d="M194.67,-330.9C190.64,-328.4 186.65,-325.74 183,-323 178.23,-319.41 173.43,-315.26 168.95,-311.07"/>
<polygon fill="black" stroke="black" points="171.37,-308.54 161.76,-304.08 166.49,-313.56 171.37,-308.54"/>
<text text-anchor="start" x="183" y="-315" font-family="Helvetica,sans-Serif" font-size="10.00">startupSequence &#160;&#160;</text>
</g>
<!-- sm/FORWARD -->
<g id="node4" class="node state regular">
<title>sm/FORWARD</title>
<polygon fill="#ffffff" fill-opacity="0.003922" stroke="transparent" stroke-width="2" points="236.5,-241 133.5,-241 133.5,-205 236.5,-205 236.5,-241"/>
<text text-anchor="start" x="145" y="-219.4" font-family="Helvetica,sans-Serif" font-size="12.00">sm/FORWARD</text>
<path fill="none" stroke="black" stroke-width="2" d="M145.5,-206.5C145.5,-206.5 224.5,-206.5 224.5,-206.5 230,-206.5 235.5,-212 235.5,-217.5 235.5,-217.5 235.5,-228.5 235.5,-228.5 235.5,-234 230,-239.5 224.5,-239.5 224.5,-239.5 145.5,-239.5 145.5,-239.5 140,-239.5 134.5,-234 134.5,-228.5 134.5,-228.5 134.5,-217.5 134.5,-217.5 134.5,-212 140,-206.5 145.5,-206.5"/>
</g>
<!-- sm/PAUSE&#45;&gt;sm/FORWARD -->
<g id="edge2" class="edge transition">
<title>sm/PAUSE&#45;&gt;sm/FORWARD</title>
<path fill="none" stroke="black" d="M260.98,-330.76C263.34,-328.45 265.41,-325.87 267,-323 269.37,-318.72 268.37,-316.69 267,-312 259.34,-285.68 237.98,-263.22 218.98,-247.58"/>
<polygon fill="black" stroke="black" points="221.05,-244.75 211.03,-241.3 216.71,-250.24 221.05,-244.75"/>
<text text-anchor="start" x="264" y="-283.5" font-family="Helvetica,sans-Serif" font-size="10.00">forward &#160;&#160;</text>
</g>
<!-- sm/TURN -->
<g id="node5" class="node state regular">
<title>sm/TURN</title>
<polygon fill="#ffffff" fill-opacity="0.003922" stroke="transparent" stroke-width="2" points="157.5,-178 84.5,-178 84.5,-142 157.5,-142 157.5,-178"/>
<text text-anchor="start" x="96" y="-156.4" font-family="Helvetica,sans-Serif" font-size="12.00">sm/TURN</text>
<path fill="none" stroke="black" stroke-width="2" d="M96.5,-143.5C96.5,-143.5 145.5,-143.5 145.5,-143.5 151,-143.5 156.5,-149 156.5,-154.5 156.5,-154.5 156.5,-165.5 156.5,-165.5 156.5,-171 151,-176.5 145.5,-176.5 145.5,-176.5 96.5,-176.5 96.5,-176.5 91,-176.5 85.5,-171 85.5,-165.5 85.5,-165.5 85.5,-154.5 85.5,-154.5 85.5,-149 91,-143.5 96.5,-143.5"/>
</g>
<!-- sm/PAUSE&#45;&gt;sm/TURN -->
<g id="edge3" class="edge transition">
<title>sm/PAUSE&#45;&gt;sm/TURN</title>
<path fill="none" stroke="black" d="M185.15,-348.71C134.66,-348.56 54.13,-344.78 35,-323 -7.77,-274.3 38.4,-231.05 85,-186 85.44,-185.57 85.9,-185.14 86.36,-184.72"/>
<polygon fill="black" stroke="black" points="88.85,-187.19 94.27,-178.09 84.36,-181.82 88.85,-187.19"/>
<text text-anchor="start" x="29" y="-252" font-family="Helvetica,sans-Serif" font-size="10.00">turn &#160;&#160;</text>
</g>
<!-- sm/LASTFORWARD -->
<g id="node6" class="node state regular">
<title>sm/LASTFORWARD</title>
<polygon fill="#ffffff" fill-opacity="0.003922" stroke="transparent" stroke-width="2" points="366.5,-115 233.5,-115 233.5,-79 366.5,-79 366.5,-115"/>
<text text-anchor="start" x="245" y="-93.4" font-family="Helvetica,sans-Serif" font-size="12.00">sm/LASTFORWARD</text>
<path fill="none" stroke="black" stroke-width="2" d="M245.5,-80.5C245.5,-80.5 354.5,-80.5 354.5,-80.5 360,-80.5 365.5,-86 365.5,-91.5 365.5,-91.5 365.5,-102.5 365.5,-102.5 365.5,-108 360,-113.5 354.5,-113.5 354.5,-113.5 245.5,-113.5 245.5,-113.5 240,-113.5 234.5,-108 234.5,-102.5 234.5,-102.5 234.5,-91.5 234.5,-91.5 234.5,-86 240,-80.5 245.5,-80.5"/>
</g>
<!-- sm/PAUSE&#45;&gt;sm/LASTFORWARD -->
<g id="edge4" class="edge transition">
<title>sm/PAUSE&#45;&gt;sm/LASTFORWARD</title>
<path fill="none" stroke="black" d="M268.52,-346.06C298.29,-342.23 336.46,-331.77 356,-304 365.21,-290.92 363.43,-282.17 356,-268 346.22,-249.33 327.87,-259.06 317,-241 295.64,-205.52 294.81,-156.08 296.88,-125.6"/>
<polygon fill="black" stroke="black" points="300.39,-125.55 297.74,-115.29 293.42,-124.97 300.39,-125.55"/>
<text text-anchor="start" x="317" y="-220.5" font-family="Helvetica,sans-Serif" font-size="10.00">lastForward &#160;&#160;</text>
</g>
<!-- sm/STARTUPSEQUENCE&#45;&gt;sm/PAUSE -->
<g id="edge5" class="edge transition">
<title>sm/STARTUPSEQUENCE&#45;&gt;sm/PAUSE</title>
<path fill="none" stroke="black" d="M130.25,-304.36C126.49,-310.59 124.67,-317.43 129,-323 135.11,-330.86 155.05,-336.67 175.36,-340.69"/>
<polygon fill="black" stroke="black" points="174.83,-344.15 185.3,-342.53 176.1,-337.27 174.83,-344.15"/>
<text text-anchor="start" x="129" y="-315" font-family="Helvetica,sans-Serif" font-size="10.00">pause &#160;&#160;</text>
</g>
<!-- sm/STARTUPSEQUENCE&#45;&gt;sm/FORWARD -->
<g id="edge6" class="edge transition">
<title>sm/STARTUPSEQUENCE&#45;&gt;sm/FORWARD</title>
<path fill="none" stroke="black" d="M157.07,-267.68C160.64,-262.1 164.68,-255.78 168.55,-249.72"/>
<polygon fill="black" stroke="black" points="171.6,-251.46 174.04,-241.15 165.7,-247.69 171.6,-251.46"/>
<text text-anchor="start" x="168" y="-252" font-family="Helvetica,sans-Serif" font-size="10.00">forward &#160;&#160;</text>
</g>
<!-- sm/FORWARD&#45;&gt;sm/PAUSE -->
<g id="edge7" class="edge transition">
<title>sm/FORWARD&#45;&gt;sm/PAUSE</title>
<path fill="none" stroke="black" d="M236.63,-235.94C266.61,-244.03 300.17,-255.5 309,-268 318.23,-281.07 317.21,-290.27 309,-304 301.79,-316.05 290.03,-324.99 277.63,-331.54"/>
<polygon fill="black" stroke="black" points="276.05,-328.42 268.55,-335.9 279.08,-334.73 276.05,-328.42"/>
<text text-anchor="start" x="315" y="-283.5" font-family="Helvetica,sans-Serif" font-size="10.00">pause &#160;&#160;</text>
</g>
<!-- sm/FORWARD&#45;&gt;sm/TURN -->
<g id="edge8" class="edge transition">
<title>sm/FORWARD&#45;&gt;sm/TURN</title>
<path fill="none" stroke="black" d="M166.83,-204.68C160.56,-198.71 153.42,-191.9 146.66,-185.46"/>
<polygon fill="black" stroke="black" points="148.65,-182.52 138.99,-178.15 143.82,-187.58 148.65,-182.52"/>
<text text-anchor="start" x="158" y="-189" font-family="Helvetica,sans-Serif" font-size="10.00">turn &#160;&#160;</text>
</g>
<!-- sm/TURN&#45;&gt;sm/PAUSE -->
<g id="edge10" class="edge transition">
<title>sm/TURN&#45;&gt;sm/PAUSE</title>
<path fill="none" stroke="black" d="M111.67,-178.02C100.35,-198.19 80.25,-232.54 60,-260 57.2,-263.8 54.66,-263.58 53,-268 47.37,-282.98 43.33,-291.25 53,-304 67.75,-323.44 129.61,-335.57 175.39,-342.05"/>
<polygon fill="black" stroke="black" points="175.09,-345.54 185.48,-343.42 176.04,-338.6 175.09,-345.54"/>
<text text-anchor="start" x="67" y="-252" font-family="Helvetica,sans-Serif" font-size="10.00">pause &#160;&#160;</text>
</g>
<!-- sm/TURN&#45;&gt;sm/LASTFORWARD -->
<g id="edge9" class="edge transition">
<title>sm/TURN&#45;&gt;sm/LASTFORWARD</title>
<path fill="none" stroke="black" d="M157.66,-146.51C181.44,-138.4 212.99,-127.65 240.34,-118.33"/>
<polygon fill="black" stroke="black" points="241.49,-121.64 249.82,-115.1 239.23,-115.01 241.49,-121.64"/>
<text text-anchor="start" x="226" y="-126" font-family="Helvetica,sans-Serif" font-size="10.00">lastForward &#160;&#160;</text>
</g>
<!-- sm/LASTFORWARD&#45;&gt;sm/PAUSE -->
<g id="edge11" class="edge transition">
<title>sm/LASTFORWARD&#45;&gt;sm/PAUSE</title>
<path fill="none" stroke="black" d="M318.11,-115.28C337.24,-134.91 366.25,-168.94 378,-205 391.75,-247.19 384.37,-264.07 365,-304 360.18,-313.93 358.49,-317.36 349,-323 327.97,-335.51 301.69,-341.84 278.92,-345.02"/>
<polygon fill="black" stroke="black" points="278.23,-341.57 268.73,-346.26 279.08,-348.52 278.23,-341.57"/>
<text text-anchor="start" x="385" y="-220.5" font-family="Helvetica,sans-Serif" font-size="10.00">pause &#160;&#160;</text>
</g>
<!-- sm/complete -->
<g id="node7" class="node state regular">
<title>sm/complete</title>
<polygon fill="#ffffff" fill-opacity="0.003922" stroke="transparent" stroke-width="2" points="344.5,-52 255.5,-52 255.5,-16 344.5,-16 344.5,-52"/>
<text text-anchor="start" x="267" y="-30.4" font-family="Helvetica,sans-Serif" font-size="12.00">sm/complete</text>
<path fill="none" stroke="black" stroke-width="2" d="M267.5,-17.5C267.5,-17.5 332.5,-17.5 332.5,-17.5 338,-17.5 343.5,-23 343.5,-28.5 343.5,-28.5 343.5,-39.5 343.5,-39.5 343.5,-45 338,-50.5 332.5,-50.5 332.5,-50.5 267.5,-50.5 267.5,-50.5 262,-50.5 256.5,-45 256.5,-39.5 256.5,-39.5 256.5,-28.5 256.5,-28.5 256.5,-23 262,-17.5 267.5,-17.5"/>
</g>
<!-- sm/LASTFORWARD&#45;&gt;sm/complete -->
<g id="edge12" class="edge transition">
<title>sm/LASTFORWARD&#45;&gt;sm/complete</title>
<path fill="none" stroke="black" d="M300,-78.68C300,-73.62 300,-67.95 300,-62.42"/>
<polygon fill="black" stroke="black" points="303.5,-62.15 300,-52.15 296.5,-62.15 303.5,-62.15"/>
<text text-anchor="start" x="300" y="-63" font-family="Helvetica,sans-Serif" font-size="10.00">done &#160;&#160;</text>
</g>
</g>
</svg>
