<?xml version="1.0" encoding="UTF-8" standalone="no"?>
<!DOCTYPE svg PUBLIC "-//W3C//DTD SVG 1.1//EN"
 "http://www.w3.org/Graphics/SVG/1.1/DTD/svg11.dtd">
<!-- Generated by graphviz version 2.49.1 (20210923.0004)
 -->
<!-- Title: state transitions Pages: 1 -->
<svg width="719pt" height="609pt"
 viewBox="0.00 0.00 719.00 609.00" xmlns="http://www.w3.org/2000/svg" xmlns:xlink="http://www.w3.org/1999/xlink">
<g id="graph0" class="graph" transform="scale(1 1) rotate(0) translate(4 605)">
<title>state transitions</title>
<polygon fill="white" stroke="transparent" points="-4,4 -4,-605 715,-605 715,4 -4,4"/>
<g id="clust1" class="cluster state regular">
<title>cluster_sm</title>
<path fill="none" stroke="black" stroke-width="2" d="M20,-8C20,-8 691,-8 691,-8 697,-8 703,-14 703,-20 703,-20 703,-581 703,-581 703,-587 697,-593 691,-593 691,-593 20,-593 20,-593 14,-593 8,-587 8,-581 8,-581 8,-20 8,-20 8,-14 14,-8 20,-8"/>
<text text-anchor="start" x="347.5" y="-574.9" font-family="Helvetica,sans-Serif" font-size="12.00">sm</text>
</g>
<!-- sm -->
<!-- sm/PAUSE -->
<g id="node2" class="node state regular">
<title>sm/PAUSE</title>
<polygon fill="#ffffff" fill-opacity="0.003922" stroke="transparent" stroke-width="2" points="457.5,-556 374.5,-556 374.5,-520 457.5,-520 457.5,-556"/>
<text text-anchor="start" x="386" y="-534.4" font-family="Helvetica,sans-Serif" font-size="12.00">sm/PAUSE</text>
<path fill="none" stroke="black" stroke-width="2" d="M386.5,-521.5C386.5,-521.5 445.5,-521.5 445.5,-521.5 451,-521.5 456.5,-527 456.5,-532.5 456.5,-532.5 456.5,-543.5 456.5,-543.5 456.5,-549 451,-554.5 445.5,-554.5 445.5,-554.5 386.5,-554.5 386.5,-554.5 381,-554.5 375.5,-549 375.5,-543.5 375.5,-543.5 375.5,-532.5 375.5,-532.5 375.5,-527 381,-521.5 386.5,-521.5"/>
</g>
<!-- sm/STARTUPSEQUENCE -->
<g id="node3" class="node state regular">
<title>sm/STARTUPSEQUENCE</title>
<polygon fill="#ffffff" fill-opacity="0.003922" stroke="transparent" stroke-width="2" points="180,-493 16,-493 16,-457 180,-457 180,-493"/>
<text text-anchor="start" x="27" y="-471.4" font-family="Helvetica,sans-Serif" font-size="12.00">sm/STARTUPSEQUENCE</text>
<path fill="none" stroke="black" stroke-width="2" d="M28,-458.5C28,-458.5 168,-458.5 168,-458.5 173.5,-458.5 179,-464 179,-469.5 179,-469.5 179,-480.5 179,-480.5 179,-486 173.5,-491.5 168,-491.5 168,-491.5 28,-491.5 28,-491.5 22.5,-491.5 17,-486 17,-480.5 17,-480.5 17,-469.5 17,-469.5 17,-464 22.5,-458.5 28,-458.5"/>
</g>
<!-- sm/PAUSE&#45;&gt;sm/STARTUPSEQUENCE -->
<g id="edge1" class="edge transition">
<title>sm/PAUSE&#45;&gt;sm/STARTUPSEQUENCE</title>
<path fill="none" stroke="black" d="M374.5,-535.89C296.67,-533.48 134.75,-526.74 114,-512 110.58,-509.57 107.89,-506.25 105.76,-502.59"/>
<polygon fill="black" stroke="black" points="108.82,-500.86 101.56,-493.15 102.43,-503.71 108.82,-500.86"/>
<text text-anchor="start" x="114" y="-504" font-family="Helvetica,sans-Serif" font-size="10.00">startupSequence &#160;&#160;</text>
</g>
<!-- sm/EGRESS -->
<g id="node4" class="node state regular">
<title>sm/EGRESS</title>
<polygon fill="#ffffff" fill-opacity="0.003922" stroke="transparent" stroke-width="2" points="551,-493 459,-493 459,-457 551,-457 551,-493"/>
<text text-anchor="start" x="470" y="-471.4" font-family="Helvetica,sans-Serif" font-size="12.00">sm/EGRESS</text>
<path fill="none" stroke="black" stroke-width="2" d="M471,-458.5C471,-458.5 539,-458.5 539,-458.5 544.5,-458.5 550,-464 550,-469.5 550,-469.5 550,-480.5 550,-480.5 550,-486 544.5,-491.5 539,-491.5 539,-491.5 471,-491.5 471,-491.5 465.5,-491.5 460,-486 460,-480.5 460,-480.5 460,-469.5 460,-469.5 460,-464 465.5,-458.5 471,-458.5"/>
</g>
<!-- sm/PAUSE&#45;&gt;sm/EGRESS -->
<g id="edge2" class="edge transition">
<title>sm/PAUSE&#45;&gt;sm/EGRESS</title>
<path fill="none" stroke="black" d="M457.74,-520.69C462.72,-518.08 467.59,-515.17 472,-512 476.56,-508.72 480.97,-504.72 485,-500.6"/>
<polygon fill="black" stroke="black" points="487.62,-502.92 491.8,-493.18 482.46,-498.19 487.62,-502.92"/>
<text text-anchor="start" x="484" y="-504" font-family="Helvetica,sans-Serif" font-size="10.00">egress &#160;&#160;</text>
</g>
<!-- sm/TRANSIT -->
<g id="node5" class="node state regular">
<title>sm/TRANSIT</title>
<polygon fill="#ffffff" fill-opacity="0.003922" stroke="transparent" stroke-width="2" points="492,-430 402,-430 402,-394 492,-394 492,-430"/>
<text text-anchor="start" x="413" y="-408.4" font-family="Helvetica,sans-Serif" font-size="12.00">sm/TRANSIT</text>
<path fill="none" stroke="black" stroke-width="2" d="M414,-395.5C414,-395.5 480,-395.5 480,-395.5 485.5,-395.5 491,-401 491,-406.5 491,-406.5 491,-417.5 491,-417.5 491,-423 485.5,-428.5 480,-428.5 480,-428.5 414,-428.5 414,-428.5 408.5,-428.5 403,-423 403,-417.5 403,-417.5 403,-406.5 403,-406.5 403,-401 408.5,-395.5 414,-395.5"/>
</g>
<!-- sm/PAUSE&#45;&gt;sm/TRANSIT -->
<g id="edge3" class="edge transition">
<title>sm/PAUSE&#45;&gt;sm/TRANSIT</title>
<path fill="none" stroke="black" d="M412.18,-519.92C409.17,-503.58 406.21,-478.32 411,-457 413.05,-447.88 414.47,-445.53 420,-438 420.06,-437.92 420.12,-437.83 420.19,-437.75"/>
<polygon fill="black" stroke="black" points="422.79,-440.09 426.63,-430.22 417.47,-435.54 422.79,-440.09"/>
<text text-anchor="start" x="411" y="-472.5" font-family="Helvetica,sans-Serif" font-size="10.00">transit &#160;&#160;</text>
</g>
<!-- sm/SEARCH -->
<g id="node6" class="node state regular">
<title>sm/SEARCH</title>
<polygon fill="#ffffff" fill-opacity="0.003922" stroke="transparent" stroke-width="2" points="475,-367 383,-367 383,-331 475,-331 475,-367"/>
<text text-anchor="start" x="394" y="-345.4" font-family="Helvetica,sans-Serif" font-size="12.00">sm/SEARCH</text>
<path fill="none" stroke="black" stroke-width="2" d="M395,-332.5C395,-332.5 463,-332.5 463,-332.5 468.5,-332.5 474,-338 474,-343.5 474,-343.5 474,-354.5 474,-354.5 474,-360 468.5,-365.5 463,-365.5 463,-365.5 395,-365.5 395,-365.5 389.5,-365.5 384,-360 384,-354.5 384,-354.5 384,-343.5 384,-343.5 384,-338 389.5,-332.5 395,-332.5"/>
</g>
<!-- sm/PAUSE&#45;&gt;sm/SEARCH -->
<g id="edge4" class="edge transition">
<title>sm/PAUSE&#45;&gt;sm/SEARCH</title>
<path fill="none" stroke="black" d="M457.57,-536.6C500.86,-535.2 564.52,-530.02 580,-512 595.93,-493.46 588.98,-479.73 580,-457 565.9,-421.32 550.26,-418.8 521,-394 516.11,-389.86 513.86,-390.18 509,-386 503.99,-381.69 504.5,-378.66 499,-375 494.5,-372 489.61,-369.32 484.56,-366.92"/>
<polygon fill="black" stroke="black" points="485.93,-363.7 475.36,-362.92 483.13,-370.12 485.93,-363.7"/>
<text text-anchor="start" x="576" y="-441" font-family="Helvetica,sans-Serif" font-size="10.00">search &#160;&#160;</text>
</g>
<!-- sm/SEARCHTRANSIT -->
<g id="node7" class="node state regular">
<title>sm/SEARCHTRANSIT</title>
<polygon fill="#ffffff" fill-opacity="0.003922" stroke="transparent" stroke-width="2" points="350,-304 210,-304 210,-268 350,-268 350,-304"/>
<text text-anchor="start" x="221" y="-282.4" font-family="Helvetica,sans-Serif" font-size="12.00">sm/SEARCHTRANSIT</text>
<path fill="none" stroke="black" stroke-width="2" d="M222,-269.5C222,-269.5 338,-269.5 338,-269.5 343.5,-269.5 349,-275 349,-280.5 349,-280.5 349,-291.5 349,-291.5 349,-297 343.5,-302.5 338,-302.5 338,-302.5 222,-302.5 222,-302.5 216.5,-302.5 211,-297 211,-291.5 211,-291.5 211,-280.5 211,-280.5 211,-275 216.5,-269.5 222,-269.5"/>
</g>
<!-- sm/PAUSE&#45;&gt;sm/SEARCHTRANSIT -->
<g id="edge5" class="edge transition">
<title>sm/PAUSE&#45;&gt;sm/SEARCHTRANSIT</title>
<path fill="none" stroke="black" d="M375.7,-519.78C372.21,-517.44 368.91,-514.85 366,-512 309.73,-456.89 289.71,-361.1 283.06,-314.3"/>
<polygon fill="black" stroke="black" points="286.51,-313.76 281.73,-304.3 279.57,-314.67 286.51,-313.76"/>
<text text-anchor="start" x="312" y="-409.5" font-family="Helvetica,sans-Serif" font-size="10.00">searchTransit &#160;&#160;</text>
</g>
<!-- sm/SAMPLERECOGNITION -->
<g id="node8" class="node state regular">
<title>sm/SAMPLERECOGNITION</title>
<polygon fill="#ffffff" fill-opacity="0.003922" stroke="transparent" stroke-width="2" points="545.5,-241 374.5,-241 374.5,-205 545.5,-205 545.5,-241"/>
<text text-anchor="start" x="386" y="-219.4" font-family="Helvetica,sans-Serif" font-size="12.00">sm/SAMPLERECOGNITION</text>
<path fill="none" stroke="black" stroke-width="2" d="M386.5,-206.5C386.5,-206.5 533.5,-206.5 533.5,-206.5 539,-206.5 544.5,-212 544.5,-217.5 544.5,-217.5 544.5,-228.5 544.5,-228.5 544.5,-234 539,-239.5 533.5,-239.5 533.5,-239.5 386.5,-239.5 386.5,-239.5 381,-239.5 375.5,-234 375.5,-228.5 375.5,-228.5 375.5,-217.5 375.5,-217.5 375.5,-212 381,-206.5 386.5,-206.5"/>
</g>
<!-- sm/PAUSE&#45;&gt;sm/SAMPLERECOGNITION -->
<g id="edge6" class="edge transition">
<title>sm/PAUSE&#45;&gt;sm/SAMPLERECOGNITION</title>
<path fill="none" stroke="black" d="M457.63,-535.49C502.07,-533.11 568.82,-527.07 589,-512 613.7,-493.56 611.4,-479.11 618,-449 626.47,-410.35 582.48,-413.4 548,-394 541.07,-390.1 538.08,-391.12 532,-386 489.95,-350.6 518.91,-317.49 495,-268 491.86,-261.5 487.62,-255.09 483.17,-249.26"/>
<polygon fill="black" stroke="black" points="485.63,-246.73 476.61,-241.18 480.19,-251.15 485.63,-246.73"/>
<text text-anchor="start" x="532" y="-378" font-family="Helvetica,sans-Serif" font-size="10.00">sampleRecog &#160;&#160;</text>
</g>
<!-- sm/RETRIEVESAMPLE -->
<g id="node9" class="node state regular">
<title>sm/RETRIEVESAMPLE</title>
<polygon fill="#ffffff" fill-opacity="0.003922" stroke="transparent" stroke-width="2" points="589.5,-178 440.5,-178 440.5,-142 589.5,-142 589.5,-178"/>
<text text-anchor="start" x="452" y="-156.4" font-family="Helvetica,sans-Serif" font-size="12.00">sm/RETRIEVESAMPLE</text>
<path fill="none" stroke="black" stroke-width="2" d="M452.5,-143.5C452.5,-143.5 577.5,-143.5 577.5,-143.5 583,-143.5 588.5,-149 588.5,-154.5 588.5,-154.5 588.5,-165.5 588.5,-165.5 588.5,-171 583,-176.5 577.5,-176.5 577.5,-176.5 452.5,-176.5 452.5,-176.5 447,-176.5 441.5,-171 441.5,-165.5 441.5,-165.5 441.5,-154.5 441.5,-154.5 441.5,-149 447,-143.5 452.5,-143.5"/>
</g>
<!-- sm/PAUSE&#45;&gt;sm/RETRIEVESAMPLE -->
<g id="edge7" class="edge transition">
<title>sm/PAUSE&#45;&gt;sm/RETRIEVESAMPLE</title>
<path fill="none" stroke="black" d="M457.79,-533.33C511.56,-528.35 599.68,-519.25 613,-512 622.7,-506.72 624.05,-502.87 629,-493 653.03,-445.08 689.62,-415.06 654,-375 643.89,-363.63 597.88,-376.51 586,-367 568.17,-352.72 569,-341.34 569,-318.5 569,-318.5 569,-318.5 569,-222 569,-205.85 573.37,-199.16 564,-186 563.87,-185.82 563.74,-185.63 563.6,-185.45"/>
<polygon fill="black" stroke="black" points="565.96,-182.86 556.5,-178.08 560.92,-187.71 565.96,-182.86"/>
<text text-anchor="start" x="586" y="-346.5" font-family="Helvetica,sans-Serif" font-size="10.00">retSamp &#160;&#160;</text>
</g>
<!-- sm/ENDTRANSIT -->
<g id="node10" class="node state regular">
<title>sm/ENDTRANSIT</title>
<polygon fill="#ffffff" fill-opacity="0.003922" stroke="transparent" stroke-width="2" points="226,-115 110,-115 110,-79 226,-79 226,-115"/>
<text text-anchor="start" x="121" y="-93.4" font-family="Helvetica,sans-Serif" font-size="12.00">sm/ENDTRANSIT</text>
<path fill="none" stroke="black" stroke-width="2" d="M122,-80.5C122,-80.5 214,-80.5 214,-80.5 219.5,-80.5 225,-86 225,-91.5 225,-91.5 225,-102.5 225,-102.5 225,-108 219.5,-113.5 214,-113.5 214,-113.5 122,-113.5 122,-113.5 116.5,-113.5 111,-108 111,-102.5 111,-102.5 111,-91.5 111,-91.5 111,-86 116.5,-80.5 122,-80.5"/>
</g>
<!-- sm/PAUSE&#45;&gt;sm/ENDTRANSIT -->
<g id="edge8" class="edge transition">
<title>sm/PAUSE&#45;&gt;sm/ENDTRANSIT</title>
<path fill="none" stroke="black" d="M374.19,-536.02C324.47,-534.12 245.16,-528.51 221,-512 198.01,-496.29 205.2,-480.95 191,-457 154.92,-396.12 124.92,-390.91 105,-323 100.5,-307.65 105,-303 105,-287 105,-287 105,-287 105,-159 105,-143.64 114.79,-130.91 126.65,-121.13"/>
<polygon fill="black" stroke="black" points="128.75,-123.92 134.66,-115.12 124.55,-118.32 128.75,-123.92"/>
<text text-anchor="start" x="105" y="-315" font-family="Helvetica,sans-Serif" font-size="10.00">endTransit &#160;&#160;</text>
</g>
<!-- sm/STARTUPSEQUENCE&#45;&gt;sm/PAUSE -->
<g id="edge10" class="edge transition">
<title>sm/STARTUPSEQUENCE&#45;&gt;sm/PAUSE</title>
<path fill="none" stroke="black" d="M68.57,-493.17C61.89,-499.11 58.26,-505.84 64,-512 84,-533.47 271.18,-536.81 364.13,-537.13"/>
<polygon fill="black" stroke="black" points="364.17,-540.63 374.17,-537.15 364.18,-533.63 364.17,-540.63"/>
<text text-anchor="start" x="64" y="-504" font-family="Helvetica,sans-Serif" font-size="10.00">pause &#160;&#160;</text>
</g>
<!-- sm/complete -->
<g id="node11" class="node state regular">
<title>sm/complete</title>
<polygon fill="#ffffff" fill-opacity="0.003922" stroke="transparent" stroke-width="2" points="149.5,-52 60.5,-52 60.5,-16 149.5,-16 149.5,-52"/>
<text text-anchor="start" x="72" y="-30.4" font-family="Helvetica,sans-Serif" font-size="12.00">sm/complete</text>
<path fill="none" stroke="black" stroke-width="2" d="M72.5,-17.5C72.5,-17.5 137.5,-17.5 137.5,-17.5 143,-17.5 148.5,-23 148.5,-28.5 148.5,-28.5 148.5,-39.5 148.5,-39.5 148.5,-45 143,-50.5 137.5,-50.5 137.5,-50.5 72.5,-50.5 72.5,-50.5 67,-50.5 61.5,-45 61.5,-39.5 61.5,-39.5 61.5,-28.5 61.5,-28.5 61.5,-23 67,-17.5 72.5,-17.5"/>
</g>
<!-- sm/STARTUPSEQUENCE&#45;&gt;sm/complete -->
<g id="edge9" class="edge transition">
<title>sm/STARTUPSEQUENCE&#45;&gt;sm/complete</title>
<path fill="none" stroke="black" d="M84.4,-456.94C76.47,-445.26 68,-429.05 68,-413 68,-413 68,-413 68,-96 68,-83.03 74.19,-70.47 81.5,-60.15"/>
<polygon fill="black" stroke="black" points="84.43,-62.09 87.8,-52.05 78.9,-57.8 84.43,-62.09"/>
<text text-anchor="start" x="68" y="-252" font-family="Helvetica,sans-Serif" font-size="10.00">done &#160;&#160;</text>
</g>
<!-- sm/EGRESS&#45;&gt;sm/PAUSE -->
<g id="edge12" class="edge transition">
<title>sm/EGRESS&#45;&gt;sm/PAUSE</title>
<path fill="none" stroke="black" d="M458.81,-488.27C446.64,-492.22 435.61,-496.7 431,-501 428.16,-503.65 425.84,-506.92 423.95,-510.4"/>
<polygon fill="black" stroke="black" points="420.63,-509.25 419.88,-519.82 427.06,-512.02 420.63,-509.25"/>
<text text-anchor="start" x="431" y="-504" font-family="Helvetica,sans-Serif" font-size="10.00">pause &#160;&#160;</text>
</g>
<!-- sm/EGRESS&#45;&gt;sm/TRANSIT -->
<g id="edge11" class="edge transition">
<title>sm/EGRESS&#45;&gt;sm/TRANSIT</title>
<path fill="none" stroke="black" d="M458.93,-461.41C443.77,-456.82 430.19,-452.01 428,-449 425.81,-445.99 425.33,-442.7 425.94,-439.37"/>
<polygon fill="black" stroke="black" points="429.2,-440.64 430.04,-430.08 422.8,-437.81 429.2,-440.64"/>
<text text-anchor="start" x="428" y="-441" font-family="Helvetica,sans-Serif" font-size="10.00">transitEnter &#160;&#160;</text>
</g>
<!-- sm/TRANSIT&#45;&gt;sm/PAUSE -->
<g id="edge14" class="edge transition">
<title>sm/TRANSIT&#45;&gt;sm/PAUSE</title>
<path fill="none" stroke="black" d="M401.81,-427.52C388.21,-434.24 374.83,-443.76 367,-457 358.86,-470.77 360.48,-478.39 367,-493 370.34,-500.49 375.65,-507.23 381.58,-513.07"/>
<polygon fill="black" stroke="black" points="379.5,-515.91 389.3,-519.95 384.16,-510.68 379.5,-515.91"/>
<text text-anchor="start" x="367" y="-472.5" font-family="Helvetica,sans-Serif" font-size="10.00">pause &#160;&#160;</text>
</g>
<!-- sm/TRANSIT&#45;&gt;sm/SEARCH -->
<g id="edge13" class="edge transition">
<title>sm/TRANSIT&#45;&gt;sm/SEARCH</title>
<path fill="none" stroke="black" d="M432.55,-393.72C431.1,-391.25 429.85,-388.65 429,-386 428.1,-383.21 427.53,-380.24 427.2,-377.24"/>
<polygon fill="black" stroke="black" points="430.7,-377.06 426.86,-367.19 423.7,-377.3 430.7,-377.06"/>
<text text-anchor="start" x="429" y="-378" font-family="Helvetica,sans-Serif" font-size="10.00">searchEnter &#160;&#160;</text>
</g>
<!-- sm/SEARCH&#45;&gt;sm/PAUSE -->
<g id="edge16" class="edge transition">
<title>sm/SEARCH&#45;&gt;sm/PAUSE</title>
<path fill="none" stroke="black" d="M475.14,-364.05C481.19,-367.08 487.01,-370.7 492,-375 519.84,-399.02 500.48,-425.79 529,-449 540.7,-458.53 552.67,-445.14 562,-457 571.89,-469.58 570.1,-479.2 562,-493 552.16,-509.77 505.55,-521.78 467.61,-528.97"/>
<polygon fill="black" stroke="black" points="466.88,-525.55 457.67,-530.78 468.14,-532.43 466.88,-525.55"/>
<text text-anchor="start" x="529" y="-441" font-family="Helvetica,sans-Serif" font-size="10.00">pause &#160;&#160;</text>
</g>
<!-- sm/SEARCH&#45;&gt;sm/SEARCHTRANSIT -->
<g id="edge15" class="edge transition">
<title>sm/SEARCH&#45;&gt;sm/SEARCHTRANSIT</title>
<path fill="none" stroke="black" d="M382.92,-342.73C362.78,-339.12 339.38,-333.07 320,-323 314.02,-319.89 308.22,-315.67 303,-311.22"/>
<polygon fill="black" stroke="black" points="305.03,-308.33 295.29,-304.15 300.29,-313.49 305.03,-308.33"/>
<text text-anchor="start" x="320" y="-315" font-family="Helvetica,sans-Serif" font-size="10.00">searchTransitEnter &#160;&#160;</text>
</g>
<!-- sm/SEARCHTRANSIT&#45;&gt;sm/PAUSE -->
<g id="edge18" class="edge transition">
<title>sm/SEARCHTRANSIT&#45;&gt;sm/PAUSE</title>
<path fill="none" stroke="black" d="M272.04,-304.43C260.6,-332.08 242.69,-387.24 260,-430 278.06,-474.62 326.58,-503.22 364.76,-519.52"/>
<polygon fill="black" stroke="black" points="363.64,-522.85 374.22,-523.4 366.3,-516.37 363.64,-522.85"/>
<text text-anchor="start" x="260" y="-409.5" font-family="Helvetica,sans-Serif" font-size="10.00">pause &#160;&#160;</text>
</g>
<!-- sm/SEARCHTRANSIT&#45;&gt;sm/SAMPLERECOGNITION -->
<g id="edge17" class="edge transition">
<title>sm/SEARCHTRANSIT&#45;&gt;sm/SAMPLERECOGNITION</title>
<path fill="none" stroke="black" d="M283.84,-267.68C286.22,-260.85 290.02,-253.56 296,-249 307.47,-240.25 335.07,-234.52 364.43,-230.78"/>
<polygon fill="black" stroke="black" points="364.92,-234.25 374.43,-229.59 364.09,-227.3 364.92,-234.25"/>
<text text-anchor="start" x="296" y="-252" font-family="Helvetica,sans-Serif" font-size="10.00">sampleRecogEnter &#160;&#160;</text>
</g>
<!-- sm/SAMPLERECOGNITION&#45;&gt;sm/PAUSE -->
<g id="edge21" class="edge transition">
<title>sm/SAMPLERECOGNITION&#45;&gt;sm/PAUSE</title>
<path fill="none" stroke="black" d="M483.37,-241.03C486.39,-243.58 489.35,-246.27 492,-249 499.31,-256.52 501.05,-258.75 506,-268 528.11,-309.27 505.52,-337.66 542,-367 562.96,-383.86 581.14,-358.01 602,-375 642.98,-408.39 638.98,-444.92 617,-493 612.41,-503.04 610.67,-506.68 601,-512 578.75,-524.23 514.46,-530.85 467.91,-534.15"/>
<polygon fill="black" stroke="black" points="467.42,-530.68 457.68,-534.84 467.89,-537.66 467.42,-530.68"/>
<text text-anchor="start" x="613" y="-378" font-family="Helvetica,sans-Serif" font-size="10.00">pause &#160;&#160;</text>
</g>
<!-- sm/SAMPLERECOGNITION&#45;&gt;sm/SEARCH -->
<g id="edge19" class="edge transition">
<title>sm/SAMPLERECOGNITION&#45;&gt;sm/SEARCH</title>
<path fill="none" stroke="black" d="M433.3,-241.05C424.49,-248.2 415.75,-257.35 411,-268 404.48,-282.61 407.91,-288.3 411,-304 412.13,-309.77 414.03,-315.74 416.18,-321.34"/>
<polygon fill="black" stroke="black" points="413.11,-323.06 420.2,-330.93 419.56,-320.35 413.11,-323.06"/>
<text text-anchor="start" x="411" y="-283.5" font-family="Helvetica,sans-Serif" font-size="10.00">sampleNotFound &#160;&#160;</text>
</g>
<!-- sm/SAMPLERECOGNITION&#45;&gt;sm/RETRIEVESAMPLE -->
<g id="edge20" class="edge transition">
<title>sm/SAMPLERECOGNITION&#45;&gt;sm/RETRIEVESAMPLE</title>
<path fill="none" stroke="black" d="M475.61,-204.68C480.88,-198.84 486.87,-192.19 492.57,-185.88"/>
<polygon fill="black" stroke="black" points="495.44,-187.92 499.54,-178.15 490.24,-183.23 495.44,-187.92"/>
<text text-anchor="start" x="492" y="-189" font-family="Helvetica,sans-Serif" font-size="10.00">sampleFound &#160;&#160;</text>
</g>
<!-- sm/RETRIEVESAMPLE&#45;&gt;sm/PAUSE -->
<g id="edge23" class="edge transition">
<title>sm/RETRIEVESAMPLE&#45;&gt;sm/PAUSE</title>
<path fill="none" stroke="black" d="M589.53,-165.91C624.67,-172.72 659,-188.06 659,-222 659,-318.5 659,-318.5 659,-318.5 659,-368.39 682.03,-381.13 672,-430 663.51,-471.37 662.43,-494.49 624,-512 610.1,-518.34 524.82,-527.13 467.87,-532.42"/>
<polygon fill="black" stroke="black" points="467.22,-528.96 457.59,-533.36 467.86,-535.93 467.22,-528.96"/>
<text text-anchor="start" x="666" y="-346.5" font-family="Helvetica,sans-Serif" font-size="10.00">pause &#160;&#160;</text>
</g>
<!-- sm/RETRIEVESAMPLE&#45;&gt;sm/ENDTRANSIT -->
<g id="edge22" class="edge transition">
<title>sm/RETRIEVESAMPLE&#45;&gt;sm/ENDTRANSIT</title>
<path fill="none" stroke="black" d="M440.13,-145.84C379.49,-135.18 294.77,-120.28 236.03,-109.96"/>
<polygon fill="black" stroke="black" points="236.56,-106.5 226.11,-108.22 235.35,-113.39 236.56,-106.5"/>
<text text-anchor="start" x="372" y="-126" font-family="Helvetica,sans-Serif" font-size="10.00">endTransitEnter &#160;&#160;</text>
</g>
<!-- sm/ENDTRANSIT&#45;&gt;sm/PAUSE -->
<g id="edge25" class="edge transition">
<title>sm/ENDTRANSIT&#45;&gt;sm/PAUSE</title>
<path fill="none" stroke="black" d="M176.39,-115.18C181.48,-127.16 187,-143.69 187,-159 187,-381.5 187,-381.5 187,-381.5 187,-443.54 221.15,-456.06 271,-493 298.13,-513.11 334.51,-524.11 364.04,-530.09"/>
<polygon fill="black" stroke="black" points="363.7,-533.58 374.18,-532 365,-526.71 363.7,-533.58"/>
<text text-anchor="start" x="187" y="-315" font-family="Helvetica,sans-Serif" font-size="10.00">pause &#160;&#160;</text>
</g>
<!-- sm/ENDTRANSIT&#45;&gt;sm/complete -->
<g id="edge24" class="edge transition">
<title>sm/ENDTRANSIT&#45;&gt;sm/complete</title>
<path fill="none" stroke="black" d="M150.12,-78.68C143.94,-72.71 136.91,-65.9 130.26,-59.46"/>
<polygon fill="black" stroke="black" points="132.33,-56.59 122.71,-52.15 127.46,-61.62 132.33,-56.59"/>
<text text-anchor="start" x="142" y="-63" font-family="Helvetica,sans-Serif" font-size="10.00">end &#160;&#160;</text>
</g>
</g>
</svg>
