<?xml version="1.0" encoding="UTF-8" standalone="no"?>
<!DOCTYPE svg PUBLIC "-//W3C//DTD SVG 1.1//EN"
 "http://www.w3.org/Graphics/SVG/1.1/DTD/svg11.dtd">
<!-- Generated by graphviz version 2.49.1 (20210923.0004)
 -->
<!-- Title: state transitions Pages: 1 -->
<svg width="162pt" height="105pt"
 viewBox="0.00 0.00 162.00 105.00" xmlns="http://www.w3.org/2000/svg" xmlns:xlink="http://www.w3.org/1999/xlink">
<g id="graph0" class="graph" transform="scale(1 1) rotate(0) translate(4 101)">
<title>state transitions</title>
<polygon fill="white" stroke="transparent" points="-4,4 -4,-101 158,-101 158,4 -4,4"/>
<g id="clust1" class="cluster state regular">
<title>cluster_sm</title>
<path fill="none" stroke="black" stroke-width="2" d="M20,-8C20,-8 134,-8 134,-8 140,-8 146,-14 146,-20 146,-20 146,-77 146,-77 146,-83 140,-89 134,-89 134,-89 20,-89 20,-89 14,-89 8,-83 8,-77 8,-77 8,-20 8,-20 8,-14 14,-8 20,-8"/>
<text text-anchor="start" x="69" y="-70.9" font-family="Helvetica,sans-Serif" font-size="12.00">sm</text>
</g>
<!-- sm -->
<!-- sm/state.name -->
<g id="node2" class="node state regular">
<title>sm/state.name</title>
<polygon fill="#ffffff" fill-opacity="0.003922" stroke="transparent" stroke-width="2" points="115.5,-52 16.5,-52 16.5,-16 115.5,-16 115.5,-52"/>
<text text-anchor="start" x="28" y="-30.4" font-family="Helvetica,sans-Serif" font-size="12.00">sm/state.name</text>
<path fill="none" stroke="black" stroke-width="2" d="M28.5,-17.5C28.5,-17.5 103.5,-17.5 103.5,-17.5 109,-17.5 114.5,-23 114.5,-28.5 114.5,-28.5 114.5,-39.5 114.5,-39.5 114.5,-45 109,-50.5 103.5,-50.5 103.5,-50.5 28.5,-50.5 28.5,-50.5 23,-50.5 17.5,-45 17.5,-39.5 17.5,-39.5 17.5,-28.5 17.5,-28.5 17.5,-23 23,-17.5 28.5,-17.5"/>
</g>
</g>
</svg>
