<?xml version="1.0" encoding="UTF-8" standalone="no"?>
<!DOCTYPE svg PUBLIC "-//W3C//DTD SVG 1.1//EN"
 "http://www.w3.org/Graphics/SVG/1.1/DTD/svg11.dtd">
<!-- Generated by graphviz version 2.49.1 (20210923.0004)
 -->
<!-- Title: state transitions Pages: 1 -->
<svg width="426pt" height="294pt"
 viewBox="0.00 0.00 426.00 294.00" xmlns="http://www.w3.org/2000/svg" xmlns:xlink="http://www.w3.org/1999/xlink">
<g id="graph0" class="graph" transform="scale(1 1) rotate(0) translate(4 290)">
<title>state transitions</title>
<polygon fill="white" stroke="transparent" points="-4,4 -4,-290 422,-290 422,4 -4,4"/>
<g id="clust1" class="cluster state regular">
<title>cluster_sm</title>
<path fill="none" stroke="black" stroke-width="2" d="M20,-8C20,-8 394,-8 394,-8 400,-8 406,-14 406,-20 406,-20 406,-266 406,-266 406,-272 400,-278 394,-278 394,-278 20,-278 20,-278 14,-278 8,-272 8,-266 8,-266 8,-20 8,-20 8,-14 14,-8 20,-8"/>
<text text-anchor="start" x="199" y="-259.9" font-family="Helvetica,sans-Serif" font-size="12.00">sm</text>
</g>
<!-- sm -->
<!-- sm/DISENGAGE -->
<g id="node2" class="node state regular">
<title>sm/DISENGAGE</title>
<polygon fill="#ffffff" fill-opacity="0.003922" stroke="transparent" stroke-width="2" points="143,-241 31,-241 31,-205 143,-205 143,-241"/>
<text text-anchor="start" x="42" y="-219.4" font-family="Helvetica,sans-Serif" font-size="12.00">sm/DISENGAGE</text>
<path fill="none" stroke="black" stroke-width="2" d="M43,-206.5C43,-206.5 131,-206.5 131,-206.5 136.5,-206.5 142,-212 142,-217.5 142,-217.5 142,-228.5 142,-228.5 142,-234 136.5,-239.5 131,-239.5 131,-239.5 43,-239.5 43,-239.5 37.5,-239.5 32,-234 32,-228.5 32,-228.5 32,-217.5 32,-217.5 32,-212 37.5,-206.5 43,-206.5"/>
</g>
<!-- sm/FIND_SECONDARY -->
<g id="node5" class="node state regular">
<title>sm/FIND_SECONDARY</title>
<polygon fill="#ffffff" fill-opacity="0.003922" stroke="transparent" stroke-width="2" points="217,-178 67,-178 67,-142 217,-142 217,-178"/>
<text text-anchor="start" x="78" y="-156.4" font-family="Helvetica,sans-Serif" font-size="12.00">sm/FIND_SECONDARY</text>
<path fill="none" stroke="black" stroke-width="2" d="M79,-143.5C79,-143.5 205,-143.5 205,-143.5 210.5,-143.5 216,-149 216,-154.5 216,-154.5 216,-165.5 216,-165.5 216,-171 210.5,-176.5 205,-176.5 205,-176.5 79,-176.5 79,-176.5 73.5,-176.5 68,-171 68,-165.5 68,-165.5 68,-154.5 68,-154.5 68,-149 73.5,-143.5 79,-143.5"/>
</g>
<!-- sm/DISENGAGE&#45;&gt;sm/FIND_SECONDARY -->
<g id="edge1" class="edge transition">
<title>sm/DISENGAGE&#45;&gt;sm/FIND_SECONDARY</title>
<path fill="none" stroke="black" d="M108.14,-204.81C110.88,-202.29 113.57,-199.64 116,-197 119.07,-193.65 122.11,-189.93 124.97,-186.2"/>
<polygon fill="black" stroke="black" points="127.79,-188.26 130.87,-178.12 122.14,-184.13 127.79,-188.26"/>
<text text-anchor="start" x="125" y="-189" font-family="Helvetica,sans-Serif" font-size="10.00">started &#160;&#160;</text>
</g>
<!-- sm/aborted -->
<g id="node6" class="node state regular">
<title>sm/aborted</title>
<polygon fill="#ffffff" fill-opacity="0.003922" stroke="transparent" stroke-width="2" points="137,-52 55,-52 55,-16 137,-16 137,-52"/>
<text text-anchor="start" x="66" y="-30.4" font-family="Helvetica,sans-Serif" font-size="12.00">sm/aborted</text>
<path fill="none" stroke="black" stroke-width="2" d="M67,-17.5C67,-17.5 125,-17.5 125,-17.5 130.5,-17.5 136,-23 136,-28.5 136,-28.5 136,-39.5 136,-39.5 136,-45 130.5,-50.5 125,-50.5 125,-50.5 67,-50.5 67,-50.5 61.5,-50.5 56,-45 56,-39.5 56,-39.5 56,-28.5 56,-28.5 56,-23 61.5,-17.5 67,-17.5"/>
</g>
<!-- sm/DISENGAGE&#45;&gt;sm/aborted -->
<g id="edge2" class="edge transition">
<title>sm/DISENGAGE&#45;&gt;sm/aborted</title>
<path fill="none" stroke="black" d="M69.75,-204.96C52.58,-185.87 29.88,-153.58 38,-123 44.24,-99.51 59.62,-76.7 72.98,-60.19"/>
<polygon fill="black" stroke="black" points="75.97,-62.07 79.72,-52.16 70.61,-57.57 75.97,-62.07"/>
<text text-anchor="start" x="38" y="-126" font-family="Helvetica,sans-Serif" font-size="10.00">aborted &#160;&#160;</text>
</g>
<!-- sm/FIND_BINS -->
<g id="node3" class="node state regular">
<title>sm/FIND_BINS</title>
<polygon fill="#ffffff" fill-opacity="0.003922" stroke="transparent" stroke-width="2" points="303,-115 201,-115 201,-79 303,-79 303,-115"/>
<text text-anchor="start" x="212" y="-93.4" font-family="Helvetica,sans-Serif" font-size="12.00">sm/FIND_BINS</text>
<path fill="none" stroke="black" stroke-width="2" d="M213,-80.5C213,-80.5 291,-80.5 291,-80.5 296.5,-80.5 302,-86 302,-91.5 302,-91.5 302,-102.5 302,-102.5 302,-108 296.5,-113.5 291,-113.5 291,-113.5 213,-113.5 213,-113.5 207.5,-113.5 202,-108 202,-102.5 202,-102.5 202,-91.5 202,-91.5 202,-86 207.5,-80.5 213,-80.5"/>
</g>
<!-- sm/FIND_BINS&#45;&gt;sm/FIND_BINS -->
<g id="edge5" class="edge transition">
<title>sm/FIND_BINS&#45;&gt;sm/FIND_BINS</title>
<path fill="none" stroke="black" d="M303.17,-102.54C315.68,-102.13 325,-100.28 325,-97 325,-94.69 320.39,-93.1 313.31,-92.21"/>
<polygon fill="black" stroke="black" points="313.4,-88.7 303.17,-91.46 312.88,-95.69 313.4,-88.7"/>
<text text-anchor="start" x="325" y="-94.5" font-family="Helvetica,sans-Serif" font-size="10.00">retry &#160;&#160;</text>
</g>
<!-- sm/FIND_BINS&#45;&gt;sm/FIND_SECONDARY -->
<g id="edge3" class="edge transition">
<title>sm/FIND_BINS&#45;&gt;sm/FIND_SECONDARY</title>
<path fill="none" stroke="black" d="M200.88,-110.62C187.26,-114.6 174.74,-118.99 169,-123 164.89,-125.87 161.15,-129.56 157.85,-133.48"/>
<polygon fill="black" stroke="black" points="154.91,-131.56 151.7,-141.66 160.51,-135.77 154.91,-131.56"/>
<text text-anchor="start" x="169" y="-126" font-family="Helvetica,sans-Serif" font-size="10.00">found &#160;&#160;</text>
</g>
<!-- sm/FIND_BINS&#45;&gt;sm/aborted -->
<g id="edge4" class="edge transition">
<title>sm/FIND_BINS&#45;&gt;sm/aborted</title>
<path fill="none" stroke="black" d="M208.13,-78.85C189,-71.37 166.46,-62.55 146.62,-54.8"/>
<polygon fill="black" stroke="black" points="147.72,-51.47 137.13,-51.08 145.17,-57.98 147.72,-51.47"/>
<text text-anchor="start" x="188" y="-63" font-family="Helvetica,sans-Serif" font-size="10.00">aborted &#160;&#160;</text>
</g>
<!-- sm/task_complete -->
<g id="node7" class="node state regular">
<title>sm/task_complete</title>
<polygon fill="#ffffff" fill-opacity="0.003922" stroke="transparent" stroke-width="2" points="311,-52 193,-52 193,-16 311,-16 311,-52"/>
<text text-anchor="start" x="204" y="-30.4" font-family="Helvetica,sans-Serif" font-size="12.00">sm/task_complete</text>
<path fill="none" stroke="black" stroke-width="2" d="M205,-17.5C205,-17.5 299,-17.5 299,-17.5 304.5,-17.5 310,-23 310,-28.5 310,-28.5 310,-39.5 310,-39.5 310,-45 304.5,-50.5 299,-50.5 299,-50.5 205,-50.5 205,-50.5 199.5,-50.5 194,-45 194,-39.5 194,-39.5 194,-28.5 194,-28.5 194,-23 199.5,-17.5 205,-17.5"/>
</g>
<!-- sm/FIND_BINS&#45;&gt;sm/task_complete -->
<g id="edge6" class="edge transition">
<title>sm/FIND_BINS&#45;&gt;sm/task_complete</title>
<path fill="none" stroke="black" d="M252,-78.68C252,-73.62 252,-67.95 252,-62.42"/>
<polygon fill="black" stroke="black" points="255.5,-62.15 252,-52.15 248.5,-62.15 255.5,-62.15"/>
<text text-anchor="start" x="252" y="-63" font-family="Helvetica,sans-Serif" font-size="10.00">done &#160;&#160;</text>
</g>
<!-- sm/FIND_COVER -->
<g id="node4" class="node state regular">
<title>sm/FIND_COVER</title>
<polygon fill="#ffffff" fill-opacity="0.003922" stroke="transparent" stroke-width="2" points="341,-241 223,-241 223,-205 341,-205 341,-241"/>
<text text-anchor="start" x="234" y="-219.4" font-family="Helvetica,sans-Serif" font-size="12.00">sm/FIND_COVER</text>
<path fill="none" stroke="black" stroke-width="2" d="M235,-206.5C235,-206.5 329,-206.5 329,-206.5 334.5,-206.5 340,-212 340,-217.5 340,-217.5 340,-228.5 340,-228.5 340,-234 334.5,-239.5 329,-239.5 329,-239.5 235,-239.5 235,-239.5 229.5,-239.5 224,-234 224,-228.5 224,-228.5 224,-217.5 224,-217.5 224,-212 229.5,-206.5 235,-206.5"/>
</g>
<!-- sm/FIND_COVER&#45;&gt;sm/FIND_BINS -->
<g id="edge9" class="edge transition">
<title>sm/FIND_COVER&#45;&gt;sm/FIND_BINS</title>
<path fill="none" stroke="black" d="M277.83,-204.76C272.84,-184.12 264.42,-149.32 258.55,-125.08"/>
<polygon fill="black" stroke="black" points="261.89,-123.99 256.14,-115.1 255.09,-125.64 261.89,-123.99"/>
<text text-anchor="start" x="270" y="-157.5" font-family="Helvetica,sans-Serif" font-size="10.00">retry &#160;&#160;</text>
</g>
<!-- sm/FIND_COVER&#45;&gt;sm/FIND_SECONDARY -->
<g id="edge7" class="edge transition">
<title>sm/FIND_COVER&#45;&gt;sm/FIND_SECONDARY</title>
<path fill="none" stroke="black" d="M242.63,-204.85C226.39,-197.77 207.41,-189.5 190.33,-182.06"/>
<polygon fill="black" stroke="black" points="191.64,-178.81 181.07,-178.03 188.84,-185.23 191.64,-178.81"/>
<text text-anchor="start" x="224" y="-189" font-family="Helvetica,sans-Serif" font-size="10.00">drop &#160;&#160;</text>
</g>
<!-- sm/FIND_COVER&#45;&gt;sm/aborted -->
<g id="edge8" class="edge transition">
<title>sm/FIND_COVER&#45;&gt;sm/aborted</title>
<path fill="none" stroke="black" d="M290.53,-204.93C304.36,-177.38 330.49,-125.88 334,-123 343.67,-115.06 353.51,-125.03 361,-115 370.57,-102.18 370.79,-91.66 361,-79 336.4,-47.17 221.86,-57.42 182,-52 170.69,-50.46 158.62,-48.36 147.21,-46.17"/>
<polygon fill="black" stroke="black" points="147.88,-42.73 137.39,-44.22 146.52,-49.6 147.88,-42.73"/>
<text text-anchor="start" x="334" y="-126" font-family="Helvetica,sans-Serif" font-size="10.00">aborted &#160;&#160;</text>
</g>
<!-- sm/FIND_COVER&#45;&gt;sm/task_complete -->
<g id="edge10" class="edge transition">
<title>sm/FIND_COVER&#45;&gt;sm/task_complete</title>
<path fill="none" stroke="black" d="M311.47,-204.88C314.83,-202.42 318.09,-199.78 321,-197 368.81,-151.32 421,-111.07 379,-60 371.16,-50.46 346.64,-44.51 321.21,-40.81"/>
<polygon fill="black" stroke="black" points="321.45,-37.31 311.07,-39.46 320.52,-44.25 321.45,-37.31"/>
<text text-anchor="start" x="387" y="-126" font-family="Helvetica,sans-Serif" font-size="10.00">done &#160;&#160;</text>
</g>
<!-- sm/FIND_SECONDARY&#45;&gt;sm/DISENGAGE -->
<g id="edge12" class="edge transition">
<title>sm/FIND_SECONDARY&#45;&gt;sm/DISENGAGE</title>
<path fill="none" stroke="black" d="M90.05,-178.11C87.36,-180.42 84.97,-183.03 83,-186 81.25,-188.64 80.34,-191.64 80.02,-194.75"/>
<polygon fill="black" stroke="black" points="76.53,-194.99 80.62,-204.76 83.51,-194.57 76.53,-194.99"/>
<text text-anchor="start" x="83" y="-189" font-family="Helvetica,sans-Serif" font-size="10.00">drop &#160;&#160;</text>
</g>
<!-- sm/FIND_SECONDARY&#45;&gt;sm/FIND_BINS -->
<g id="edge14" class="edge transition">
<title>sm/FIND_SECONDARY&#45;&gt;sm/FIND_BINS</title>
<path fill="none" stroke="black" d="M187.23,-141.93C192.64,-139.46 198.01,-136.8 203,-134 209.58,-130.31 216.31,-125.87 222.59,-121.39"/>
<polygon fill="black" stroke="black" points="224.85,-124.07 230.82,-115.32 220.69,-118.44 224.85,-124.07"/>
<text text-anchor="start" x="219" y="-126" font-family="Helvetica,sans-Serif" font-size="10.00">retry &#160;&#160;</text>
</g>
<!-- sm/FIND_SECONDARY&#45;&gt;sm/aborted -->
<g id="edge13" class="edge transition">
<title>sm/FIND_SECONDARY&#45;&gt;sm/aborted</title>
<path fill="none" stroke="black" d="M105.21,-141.8C94.83,-135.01 84.8,-126.12 79,-115 70.36,-98.42 75.1,-77.73 81.75,-61.55"/>
<polygon fill="black" stroke="black" points="85.08,-62.68 86.03,-52.13 78.71,-59.78 85.08,-62.68"/>
<text text-anchor="start" x="79" y="-94.5" font-family="Helvetica,sans-Serif" font-size="10.00">aborted &#160;&#160;</text>
</g>
<!-- sm/FIND_SECONDARY&#45;&gt;sm/task_complete -->
<g id="edge11" class="edge transition">
<title>sm/FIND_SECONDARY&#45;&gt;sm/task_complete</title>
<path fill="none" stroke="black" d="M139.2,-141.97C136.65,-120.18 135.9,-82.54 156,-60 163.28,-51.83 172.87,-46.18 183.16,-42.29"/>
<polygon fill="black" stroke="black" points="184.32,-45.6 192.77,-39.2 182.17,-38.94 184.32,-45.6"/>
<text text-anchor="start" x="145" y="-94.5" font-family="Helvetica,sans-Serif" font-size="10.00">done &#160;&#160;</text>
</g>
</g>
</svg>
