<?xml version="1.0" encoding="UTF-8" standalone="no"?>
<!DOCTYPE svg PUBLIC "-//W3C//DTD SVG 1.1//EN"
 "http://www.w3.org/Graphics/SVG/1.1/DTD/svg11.dtd">
<!-- Generated by graphviz version 2.49.1 (20210923.0004)
 -->
<!-- Title: state transitions Pages: 1 -->
<svg width="418pt" height="357pt"
 viewBox="0.00 0.00 418.00 357.00" xmlns="http://www.w3.org/2000/svg" xmlns:xlink="http://www.w3.org/1999/xlink">
<g id="graph0" class="graph" transform="scale(1 1) rotate(0) translate(4 353)">
<title>state transitions</title>
<polygon fill="white" stroke="transparent" points="-4,4 -4,-353 414,-353 414,4 -4,4"/>
<g id="clust1" class="cluster state regular">
<title>cluster_stateMachine1</title>
<path fill="none" stroke="black" stroke-width="2" d="M20,-8C20,-8 390,-8 390,-8 396,-8 402,-14 402,-20 402,-20 402,-329 402,-329 402,-335 396,-341 390,-341 390,-341 20,-341 20,-341 14,-341 8,-335 8,-329 8,-329 8,-20 8,-20 8,-14 14,-8 20,-8"/>
<text text-anchor="start" x="167" y="-322.9" font-family="Helvetica,sans-Serif" font-size="12.00">stateMachine1</text>
</g>
<!-- stateMachine1 -->
<!-- stateMachine1/KITCHEN -->
<g id="node2" class="node state regular">
<title>stateMachine1/KITCHEN</title>
<polygon fill="#ffffff" fill-opacity="0.003922" stroke="transparent" stroke-width="2" points="346.5,-304 193.5,-304 193.5,-268 346.5,-268 346.5,-304"/>
<text text-anchor="start" x="205" y="-282.4" font-family="Helvetica,sans-Serif" font-size="12.00">stateMachine1/KITCHEN</text>
<path fill="none" stroke="black" stroke-width="2" d="M205.5,-269.5C205.5,-269.5 334.5,-269.5 334.5,-269.5 340,-269.5 345.5,-275 345.5,-280.5 345.5,-280.5 345.5,-291.5 345.5,-291.5 345.5,-297 340,-302.5 334.5,-302.5 334.5,-302.5 205.5,-302.5 205.5,-302.5 200,-302.5 194.5,-297 194.5,-291.5 194.5,-291.5 194.5,-280.5 194.5,-280.5 194.5,-275 200,-269.5 205.5,-269.5"/>
</g>
<!-- stateMachine1/SPEAK_KITCHEN -->
<g id="node3" class="node state regular">
<title>stateMachine1/SPEAK_KITCHEN</title>
<polygon fill="#ffffff" fill-opacity="0.003922" stroke="transparent" stroke-width="2" points="217.5,-241 16.5,-241 16.5,-205 217.5,-205 217.5,-241"/>
<text text-anchor="start" x="28" y="-219.4" font-family="Helvetica,sans-Serif" font-size="12.00">stateMachine1/SPEAK_KITCHEN</text>
<path fill="none" stroke="black" stroke-width="2" d="M28.5,-206.5C28.5,-206.5 205.5,-206.5 205.5,-206.5 211,-206.5 216.5,-212 216.5,-217.5 216.5,-217.5 216.5,-228.5 216.5,-228.5 216.5,-234 211,-239.5 205.5,-239.5 205.5,-239.5 28.5,-239.5 28.5,-239.5 23,-239.5 17.5,-234 17.5,-228.5 17.5,-228.5 17.5,-217.5 17.5,-217.5 17.5,-212 23,-206.5 28.5,-206.5"/>
</g>
<!-- stateMachine1/KITCHEN&#45;&gt;stateMachine1/SPEAK_KITCHEN -->
<g id="edge1" class="edge transition">
<title>stateMachine1/KITCHEN&#45;&gt;stateMachine1/SPEAK_KITCHEN</title>
<path fill="none" stroke="black" d="M226.97,-267.85C208.98,-260.67 187.9,-252.27 169.05,-244.75"/>
<polygon fill="black" stroke="black" points="170.29,-241.48 159.7,-241.03 167.7,-247.98 170.29,-241.48"/>
<text text-anchor="start" x="207" y="-252" font-family="Helvetica,sans-Serif" font-size="10.00">success &#160;&#160;</text>
</g>
<!-- stateMachine1/ENTRANCE -->
<g id="node4" class="node state regular">
<title>stateMachine1/ENTRANCE</title>
<polygon fill="#ffffff" fill-opacity="0.003922" stroke="transparent" stroke-width="2" points="324.5,-178 157.5,-178 157.5,-142 324.5,-142 324.5,-178"/>
<text text-anchor="start" x="169" y="-156.4" font-family="Helvetica,sans-Serif" font-size="12.00">stateMachine1/ENTRANCE</text>
<path fill="none" stroke="black" stroke-width="2" d="M169.5,-143.5C169.5,-143.5 312.5,-143.5 312.5,-143.5 318,-143.5 323.5,-149 323.5,-154.5 323.5,-154.5 323.5,-165.5 323.5,-165.5 323.5,-171 318,-176.5 312.5,-176.5 312.5,-176.5 169.5,-176.5 169.5,-176.5 164,-176.5 158.5,-171 158.5,-165.5 158.5,-165.5 158.5,-154.5 158.5,-154.5 158.5,-149 164,-143.5 169.5,-143.5"/>
</g>
<!-- stateMachine1/KITCHEN&#45;&gt;stateMachine1/ENTRANCE -->
<g id="edge2" class="edge transition">
<title>stateMachine1/KITCHEN&#45;&gt;stateMachine1/ENTRANCE</title>
<path fill="none" stroke="black" d="M265.97,-267.76C261.14,-247.12 253,-212.32 247.33,-188.08"/>
<polygon fill="black" stroke="black" points="250.68,-187.04 245,-178.1 243.87,-188.63 250.68,-187.04"/>
<text text-anchor="start" x="259" y="-220.5" font-family="Helvetica,sans-Serif" font-size="10.00">failed &#160;&#160;</text>
</g>
<!-- stateMachine1/SPEAK_KITCHEN&#45;&gt;stateMachine1/ENTRANCE -->
<g id="edge3" class="edge transition">
<title>stateMachine1/SPEAK_KITCHEN&#45;&gt;stateMachine1/ENTRANCE</title>
<path fill="none" stroke="black" d="M151.87,-204.85C165.99,-197.9 182.45,-189.8 197.35,-182.47"/>
<polygon fill="black" stroke="black" points="198.96,-185.58 206.39,-178.03 195.87,-179.3 198.96,-185.58"/>
<text text-anchor="start" x="190" y="-189" font-family="Helvetica,sans-Serif" font-size="10.00">success &#160;&#160;</text>
</g>
<!-- stateMachine1/FAILED -->
<g id="node6" class="node state regular">
<title>stateMachine1/FAILED</title>
<polygon fill="#ffffff" fill-opacity="0.003922" stroke="transparent" stroke-width="2" points="229,-52 85,-52 85,-16 229,-16 229,-52"/>
<text text-anchor="start" x="96" y="-30.4" font-family="Helvetica,sans-Serif" font-size="12.00">stateMachine1/FAILED</text>
<path fill="none" stroke="black" stroke-width="2" d="M97,-17.5C97,-17.5 217,-17.5 217,-17.5 222.5,-17.5 228,-23 228,-28.5 228,-28.5 228,-39.5 228,-39.5 228,-45 222.5,-50.5 217,-50.5 217,-50.5 97,-50.5 97,-50.5 91.5,-50.5 86,-45 86,-39.5 86,-39.5 86,-28.5 86,-28.5 86,-23 91.5,-17.5 97,-17.5"/>
</g>
<!-- stateMachine1/SPEAK_KITCHEN&#45;&gt;stateMachine1/FAILED -->
<g id="edge4" class="edge transition">
<title>stateMachine1/SPEAK_KITCHEN&#45;&gt;stateMachine1/FAILED</title>
<path fill="none" stroke="black" d="M116.08,-204.76C115.16,-177.36 115.55,-122.53 130,-79 132.08,-72.75 135.18,-66.46 138.56,-60.67"/>
<polygon fill="black" stroke="black" points="141.62,-62.39 143.98,-52.06 135.69,-58.66 141.62,-62.39"/>
<text text-anchor="start" x="120" y="-126" font-family="Helvetica,sans-Serif" font-size="10.00">failed &#160;&#160;</text>
</g>
<!-- stateMachine1/ENTRANCE&#45;&gt;stateMachine1/KITCHEN -->
<g id="edge6" class="edge transition">
<title>stateMachine1/ENTRANCE&#45;&gt;stateMachine1/KITCHEN</title>
<path fill="none" stroke="black" d="M271.77,-178.04C281.34,-185.04 290.76,-194.09 296,-205 304.36,-222.38 297.17,-243.13 288.25,-259.13"/>
<polygon fill="black" stroke="black" points="285.1,-257.58 282.91,-267.95 291.09,-261.21 285.1,-257.58"/>
<text text-anchor="start" x="299" y="-220.5" font-family="Helvetica,sans-Serif" font-size="10.00">failed &#160;&#160;</text>
</g>
<!-- stateMachine1/SPEAK_ENTRANCE -->
<g id="node5" class="node state regular">
<title>stateMachine1/SPEAK_ENTRANCE</title>
<polygon fill="#ffffff" fill-opacity="0.003922" stroke="transparent" stroke-width="2" points="355.5,-115 140.5,-115 140.5,-79 355.5,-79 355.5,-115"/>
<text text-anchor="start" x="152" y="-93.4" font-family="Helvetica,sans-Serif" font-size="12.00">stateMachine1/SPEAK_ENTRANCE</text>
<path fill="none" stroke="black" stroke-width="2" d="M152.5,-80.5C152.5,-80.5 343.5,-80.5 343.5,-80.5 349,-80.5 354.5,-86 354.5,-91.5 354.5,-91.5 354.5,-102.5 354.5,-102.5 354.5,-108 349,-113.5 343.5,-113.5 343.5,-113.5 152.5,-113.5 152.5,-113.5 147,-113.5 141.5,-108 141.5,-102.5 141.5,-102.5 141.5,-91.5 141.5,-91.5 141.5,-86 147,-80.5 152.5,-80.5"/>
</g>
<!-- stateMachine1/ENTRANCE&#45;&gt;stateMachine1/SPEAK_ENTRANCE -->
<g id="edge5" class="edge transition">
<title>stateMachine1/ENTRANCE&#45;&gt;stateMachine1/SPEAK_ENTRANCE</title>
<path fill="none" stroke="black" d="M242.99,-141.68C243.57,-136.62 244.22,-130.95 244.85,-125.42"/>
<polygon fill="black" stroke="black" points="248.37,-125.48 246.03,-115.15 241.41,-124.68 248.37,-125.48"/>
<text text-anchor="start" x="245" y="-126" font-family="Helvetica,sans-Serif" font-size="10.00">success &#160;&#160;</text>
</g>
<!-- stateMachine1/SPEAK_ENTRANCE&#45;&gt;stateMachine1/KITCHEN -->
<g id="edge7" class="edge transition">
<title>stateMachine1/SPEAK_ENTRANCE&#45;&gt;stateMachine1/KITCHEN</title>
<path fill="none" stroke="black" d="M304.95,-115.07C317.25,-121.5 328.73,-130.23 336,-142 359.13,-179.43 356.76,-202.21 336,-241 331.56,-249.29 324.79,-256.29 317.26,-262.1"/>
<polygon fill="black" stroke="black" points="315.07,-259.36 308.85,-267.93 319.06,-265.11 315.07,-259.36"/>
<text text-anchor="start" x="352" y="-189" font-family="Helvetica,sans-Serif" font-size="10.00">success &#160;&#160;</text>
</g>
<!-- stateMachine1/SPEAK_ENTRANCE&#45;&gt;stateMachine1/FAILED -->
<g id="edge8" class="edge transition">
<title>stateMachine1/SPEAK_ENTRANCE&#45;&gt;stateMachine1/FAILED</title>
<path fill="none" stroke="black" d="M222.17,-78.68C212.48,-72.19 201.32,-64.71 191,-57.79"/>
<polygon fill="black" stroke="black" points="192.84,-54.81 182.58,-52.15 188.94,-60.62 192.84,-54.81"/>
<text text-anchor="start" x="210" y="-63" font-family="Helvetica,sans-Serif" font-size="10.00">failed &#160;&#160;</text>
</g>
</g>
</svg>
