<?xml version="1.0" encoding="UTF-8" standalone="no"?>
<!DOCTYPE svg PUBLIC "-//W3C//DTD SVG 1.1//EN"
 "http://www.w3.org/Graphics/SVG/1.1/DTD/svg11.dtd">
<!-- Generated by graphviz version 2.49.1 (20210923.0004)
 -->
<!-- Title: state transitions Pages: 1 -->
<svg width="266pt" height="168pt"
 viewBox="0.00 0.00 266.00 168.00" xmlns="http://www.w3.org/2000/svg" xmlns:xlink="http://www.w3.org/1999/xlink">
<g id="graph0" class="graph" transform="scale(1 1) rotate(0) translate(4 164)">
<title>state transitions</title>
<polygon fill="white" stroke="transparent" points="-4,4 -4,-164 262,-164 262,4 -4,4"/>
<g id="clust1" class="cluster state regular">
<title>cluster_stateMachine1</title>
<path fill="none" stroke="black" stroke-width="2" d="M20,-8C20,-8 238,-8 238,-8 244,-8 250,-14 250,-20 250,-20 250,-140 250,-140 250,-146 244,-152 238,-152 238,-152 20,-152 20,-152 14,-152 8,-146 8,-140 8,-140 8,-20 8,-20 8,-14 14,-8 20,-8"/>
<text text-anchor="start" x="91" y="-133.9" font-family="Helvetica,sans-Serif" font-size="12.00">stateMachine1</text>
</g>
<!-- stateMachine1 -->
<!-- stateMachine1/KITCHEN -->
<g id="node2" class="node state regular">
<title>stateMachine1/KITCHEN</title>
<polygon fill="#ffffff" fill-opacity="0.003922" stroke="transparent" stroke-width="2" points="169.5,-115 16.5,-115 16.5,-79 169.5,-79 169.5,-115"/>
<text text-anchor="start" x="28" y="-93.4" font-family="Helvetica,sans-Serif" font-size="12.00">stateMachine1/KITCHEN</text>
<path fill="none" stroke="black" stroke-width="2" d="M28.5,-80.5C28.5,-80.5 157.5,-80.5 157.5,-80.5 163,-80.5 168.5,-86 168.5,-91.5 168.5,-91.5 168.5,-102.5 168.5,-102.5 168.5,-108 163,-113.5 157.5,-113.5 157.5,-113.5 28.5,-113.5 28.5,-113.5 23,-113.5 17.5,-108 17.5,-102.5 17.5,-102.5 17.5,-91.5 17.5,-91.5 17.5,-86 23,-80.5 28.5,-80.5"/>
</g>
<!-- stateMachine1/KITCHEN&#45;&gt;stateMachine1/KITCHEN -->
<g id="edge2" class="edge transition">
<title>stateMachine1/KITCHEN&#45;&gt;stateMachine1/KITCHEN</title>
<path fill="none" stroke="black" d="M169.82,-102.23C182.65,-101.5 191.5,-99.75 191.5,-97 191.5,-95.06 187.12,-93.63 180.06,-92.69"/>
<polygon fill="black" stroke="black" points="180.09,-89.18 169.82,-91.77 179.46,-96.15 180.09,-89.18"/>
<text text-anchor="start" x="191.5" y="-94.5" font-family="Helvetica,sans-Serif" font-size="10.00">failed &#160;&#160;</text>
</g>
<!-- stateMachine1/ENTRANCE -->
<g id="node3" class="node state regular">
<title>stateMachine1/ENTRANCE</title>
<polygon fill="#ffffff" fill-opacity="0.003922" stroke="transparent" stroke-width="2" points="187.5,-52 20.5,-52 20.5,-16 187.5,-16 187.5,-52"/>
<text text-anchor="start" x="32" y="-30.4" font-family="Helvetica,sans-Serif" font-size="12.00">stateMachine1/ENTRANCE</text>
<path fill="none" stroke="black" stroke-width="2" d="M32.5,-17.5C32.5,-17.5 175.5,-17.5 175.5,-17.5 181,-17.5 186.5,-23 186.5,-28.5 186.5,-28.5 186.5,-39.5 186.5,-39.5 186.5,-45 181,-50.5 175.5,-50.5 175.5,-50.5 32.5,-50.5 32.5,-50.5 27,-50.5 21.5,-45 21.5,-39.5 21.5,-39.5 21.5,-28.5 21.5,-28.5 21.5,-23 27,-17.5 32.5,-17.5"/>
</g>
<!-- stateMachine1/KITCHEN&#45;&gt;stateMachine1/ENTRANCE -->
<g id="edge1" class="edge transition">
<title>stateMachine1/KITCHEN&#45;&gt;stateMachine1/ENTRANCE</title>
<path fill="none" stroke="black" d="M69.26,-78.84C65.43,-74.46 62.87,-69.57 66.12,-61.15"/>
<polygon fill="black" stroke="black" points="69.2,-62.8 70.86,-52.33 63.04,-59.48 69.2,-62.8"/>
<text text-anchor="start" x="65" y="-63" font-family="Helvetica,sans-Serif" font-size="10.00">success &#160;&#160;</text>
</g>
<!-- stateMachine1/ENTRANCE&#45;&gt;stateMachine1/KITCHEN -->
<g id="edge3" class="edge transition">
<title>stateMachine1/ENTRANCE&#45;&gt;stateMachine1/KITCHEN</title>
<path fill="none" stroke="black" d="M111.57,-52.05C112.82,-56.5 113.57,-61.36 111.58,-69.12"/>
<polygon fill="black" stroke="black" points="108.2,-68.2 108.24,-78.79 114.81,-70.48 108.2,-68.2"/>
<text text-anchor="start" x="113" y="-63" font-family="Helvetica,sans-Serif" font-size="10.00">success &#160;&#160;</text>
</g>
<!-- stateMachine1/ENTRANCE&#45;&gt;stateMachine1/ENTRANCE -->
<g id="edge4" class="edge transition">
<title>stateMachine1/ENTRANCE&#45;&gt;stateMachine1/ENTRANCE</title>
<path fill="none" stroke="black" d="M187.58,-39.15C200.61,-38.38 209.5,-36.67 209.5,-34 209.5,-32.13 205.11,-30.72 197.97,-29.78"/>
<polygon fill="black" stroke="black" points="197.85,-26.26 187.58,-28.85 197.22,-33.23 197.85,-26.26"/>
<text text-anchor="start" x="209.5" y="-31.5" font-family="Helvetica,sans-Serif" font-size="10.00">failed &#160;&#160;</text>
</g>
</g>
</svg>
