<?xml version="1.0" encoding="UTF-8" standalone="no"?>
<!DOCTYPE svg PUBLIC "-//W3C//DTD SVG 1.1//EN"
 "http://www.w3.org/Graphics/SVG/1.1/DTD/svg11.dtd">
<!-- Generated by graphviz version 2.49.1 (20210923.0004)
 -->
<!-- Title: state transitions Pages: 1 -->
<svg width="428pt" height="483pt"
 viewBox="0.00 0.00 428.00 483.00" xmlns="http://www.w3.org/2000/svg" xmlns:xlink="http://www.w3.org/1999/xlink">
<g id="graph0" class="graph" transform="scale(1 1) rotate(0) translate(4 479)">
<title>state transitions</title>
<polygon fill="white" stroke="transparent" points="-4,4 -4,-479 424,-479 424,4 -4,4"/>
<g id="clust1" class="cluster state regular">
<title>cluster_sm</title>
<path fill="none" stroke="black" stroke-width="2" d="M20,-8C20,-8 361,-8 361,-8 367,-8 373,-14 373,-20 373,-20 373,-455 373,-455 373,-461 367,-467 361,-467 361,-467 20,-467 20,-467 14,-467 8,-461 8,-455 8,-455 8,-20 8,-20 8,-14 14,-8 20,-8"/>
<text text-anchor="start" x="182.5" y="-448.9" font-family="Helvetica,sans-Serif" font-size="12.00">sm</text>
</g>
<!-- sm -->
<!-- sm/STOP -->
<g id="node2" class="node state regular">
<title>sm/STOP</title>
<polygon fill="#ffffff" fill-opacity="0.003922" stroke="transparent" stroke-width="2" points="251,-430 177,-430 177,-394 251,-394 251,-430"/>
<text text-anchor="start" x="188" y="-408.4" font-family="Helvetica,sans-Serif" font-size="12.00">sm/STOP</text>
<path fill="none" stroke="black" stroke-width="2" d="M189,-395.5C189,-395.5 239,-395.5 239,-395.5 244.5,-395.5 250,-401 250,-406.5 250,-406.5 250,-417.5 250,-417.5 250,-423 244.5,-428.5 239,-428.5 239,-428.5 189,-428.5 189,-428.5 183.5,-428.5 178,-423 178,-417.5 178,-417.5 178,-406.5 178,-406.5 178,-401 183.5,-395.5 189,-395.5"/>
</g>
<!-- sm/STOP&#45;&gt;sm/STOP -->
<g id="edge1" class="edge transition">
<title>sm/STOP&#45;&gt;sm/STOP</title>
<path fill="none" stroke="black" d="M251.16,-417.62C263.32,-417.6 273,-415.72 273,-412 273,-409.44 268.42,-407.76 261.61,-406.94"/>
<polygon fill="black" stroke="black" points="261.34,-403.42 251.16,-406.38 260.96,-410.41 261.34,-403.42"/>
<text text-anchor="start" x="273" y="-409.5" font-family="Helvetica,sans-Serif" font-size="10.00">continue_stop &#160;&#160;</text>
</g>
<!-- sm/ROAMING -->
<g id="node3" class="node state regular">
<title>sm/ROAMING</title>
<polygon fill="#ffffff" fill-opacity="0.003922" stroke="transparent" stroke-width="2" points="262,-367 166,-367 166,-331 262,-331 262,-367"/>
<text text-anchor="start" x="177" y="-345.4" font-family="Helvetica,sans-Serif" font-size="12.00">sm/ROAMING</text>
<path fill="none" stroke="black" stroke-width="2" d="M178,-332.5C178,-332.5 250,-332.5 250,-332.5 255.5,-332.5 261,-338 261,-343.5 261,-343.5 261,-354.5 261,-354.5 261,-360 255.5,-365.5 250,-365.5 250,-365.5 178,-365.5 178,-365.5 172.5,-365.5 167,-360 167,-354.5 167,-354.5 167,-343.5 167,-343.5 167,-338 172.5,-332.5 178,-332.5"/>
</g>
<!-- sm/STOP&#45;&gt;sm/ROAMING -->
<g id="edge2" class="edge transition">
<title>sm/STOP&#45;&gt;sm/ROAMING</title>
<path fill="none" stroke="black" d="M214,-393.68C214,-388.62 214,-382.95 214,-377.42"/>
<polygon fill="black" stroke="black" points="217.5,-377.15 214,-367.15 210.5,-377.15 217.5,-377.15"/>
<text text-anchor="start" x="214" y="-378" font-family="Helvetica,sans-Serif" font-size="10.00">start_roaming &#160;&#160;</text>
</g>
<!-- sm/ROAMING&#45;&gt;sm/ROAMING -->
<g id="edge3" class="edge transition">
<title>sm/ROAMING&#45;&gt;sm/ROAMING</title>
<path fill="none" stroke="black" d="M262.09,-354.57C274.58,-354.22 284,-352.37 284,-349 284,-346.63 279.34,-345.01 272.24,-344.14"/>
<polygon fill="black" stroke="black" points="272.31,-340.63 262.09,-343.43 271.83,-347.62 272.31,-340.63"/>
<text text-anchor="start" x="284" y="-346.5" font-family="Helvetica,sans-Serif" font-size="10.00">No_one_detected &#160;&#160;</text>
</g>
<!-- sm/FOLLOW -->
<g id="node4" class="node state regular">
<title>sm/FOLLOW</title>
<polygon fill="#ffffff" fill-opacity="0.003922" stroke="transparent" stroke-width="2" points="108,-304 16,-304 16,-268 108,-268 108,-304"/>
<text text-anchor="start" x="27" y="-282.4" font-family="Helvetica,sans-Serif" font-size="12.00">sm/FOLLOW</text>
<path fill="none" stroke="black" stroke-width="2" d="M28,-269.5C28,-269.5 96,-269.5 96,-269.5 101.5,-269.5 107,-275 107,-280.5 107,-280.5 107,-291.5 107,-291.5 107,-297 101.5,-302.5 96,-302.5 96,-302.5 28,-302.5 28,-302.5 22.5,-302.5 17,-297 17,-291.5 17,-291.5 17,-280.5 17,-280.5 17,-275 22.5,-269.5 28,-269.5"/>
</g>
<!-- sm/ROAMING&#45;&gt;sm/FOLLOW -->
<g id="edge4" class="edge transition">
<title>sm/ROAMING&#45;&gt;sm/FOLLOW</title>
<path fill="none" stroke="black" d="M165.57,-347.97C119.29,-346.78 54.23,-341.7 38,-323 35.25,-319.84 34.84,-316.34 35.88,-312.81"/>
<polygon fill="black" stroke="black" points="38.93,-314.53 40.94,-304.13 32.88,-311.01 38.93,-314.53"/>
<text text-anchor="start" x="38" y="-315" font-family="Helvetica,sans-Serif" font-size="10.00">person_detected &#160;&#160;</text>
</g>
<!-- sm/FOLLOW&#45;&gt;sm/ROAMING -->
<g id="edge6" class="edge transition">
<title>sm/FOLLOW&#45;&gt;sm/ROAMING</title>
<path fill="none" stroke="black" d="M102.57,-304.19C124.15,-313.34 146.39,-322.76 147,-323 150.6,-324.43 154.31,-325.88 158.06,-327.33"/>
<polygon fill="black" stroke="black" points="156.81,-330.61 167.4,-330.91 159.32,-324.07 156.81,-330.61"/>
<text text-anchor="start" x="147" y="-315" font-family="Helvetica,sans-Serif" font-size="10.00">lost_person_in_follow &#160;&#160;</text>
</g>
<!-- sm/FOLLOW&#45;&gt;sm/FOLLOW -->
<g id="edge5" class="edge transition">
<title>sm/FOLLOW&#45;&gt;sm/FOLLOW</title>
<path fill="none" stroke="black" d="M108.08,-291.58C120.53,-291.29 130,-289.43 130,-286 130,-283.59 125.32,-281.95 118.21,-281.09"/>
<polygon fill="black" stroke="black" points="118.3,-277.59 108.08,-280.42 117.83,-284.58 118.3,-277.59"/>
<text text-anchor="start" x="130" y="-283.5" font-family="Helvetica,sans-Serif" font-size="10.00">following &#160;&#160;</text>
</g>
<!-- sm/SPEAK -->
<g id="node5" class="node state regular">
<title>sm/SPEAK</title>
<polygon fill="#ffffff" fill-opacity="0.003922" stroke="transparent" stroke-width="2" points="119.5,-241 36.5,-241 36.5,-205 119.5,-205 119.5,-241"/>
<text text-anchor="start" x="48" y="-219.4" font-family="Helvetica,sans-Serif" font-size="12.00">sm/SPEAK</text>
<path fill="none" stroke="black" stroke-width="2" d="M48.5,-206.5C48.5,-206.5 107.5,-206.5 107.5,-206.5 113,-206.5 118.5,-212 118.5,-217.5 118.5,-217.5 118.5,-228.5 118.5,-228.5 118.5,-234 113,-239.5 107.5,-239.5 107.5,-239.5 48.5,-239.5 48.5,-239.5 43,-239.5 37.5,-234 37.5,-228.5 37.5,-228.5 37.5,-217.5 37.5,-217.5 37.5,-212 43,-206.5 48.5,-206.5"/>
</g>
<!-- sm/FOLLOW&#45;&gt;sm/SPEAK -->
<g id="edge7" class="edge transition">
<title>sm/FOLLOW&#45;&gt;sm/SPEAK</title>
<path fill="none" stroke="black" d="M66.54,-267.68C67.9,-262.49 69.43,-256.66 70.92,-251"/>
<polygon fill="black" stroke="black" points="74.35,-251.71 73.5,-241.15 67.58,-249.93 74.35,-251.71"/>
<text text-anchor="start" x="71" y="-252" font-family="Helvetica,sans-Serif" font-size="10.00">reach_person &#160;&#160;</text>
</g>
<!-- sm/SPEAK&#45;&gt;sm/ROAMING -->
<g id="edge8" class="edge transition">
<title>sm/SPEAK&#45;&gt;sm/ROAMING</title>
<path fill="none" stroke="black" d="M119.78,-239.16C127.87,-242.29 136.24,-245.65 144,-249 161.7,-256.65 166.45,-258.11 183,-268 206.51,-282.05 209.4,-290.11 233,-304 240.2,-308.24 245.53,-304.95 250,-312 252.26,-315.57 252.43,-319.06 251.19,-322.38"/>
<polygon fill="black" stroke="black" points="248.2,-320.54 245.16,-330.69 253.86,-324.66 248.2,-320.54"/>
<text text-anchor="start" x="233" y="-283.5" font-family="Helvetica,sans-Serif" font-size="10.00">fail_speak &#160;&#160;</text>
</g>
<!-- sm/DO_GESTURE -->
<g id="node6" class="node state regular">
<title>sm/DO_GESTURE</title>
<polygon fill="#ffffff" fill-opacity="0.003922" stroke="transparent" stroke-width="2" points="139.5,-178 16.5,-178 16.5,-142 139.5,-142 139.5,-178"/>
<text text-anchor="start" x="28" y="-156.4" font-family="Helvetica,sans-Serif" font-size="12.00">sm/DO_GESTURE</text>
<path fill="none" stroke="black" stroke-width="2" d="M28.5,-143.5C28.5,-143.5 127.5,-143.5 127.5,-143.5 133,-143.5 138.5,-149 138.5,-154.5 138.5,-154.5 138.5,-165.5 138.5,-165.5 138.5,-171 133,-176.5 127.5,-176.5 127.5,-176.5 28.5,-176.5 28.5,-176.5 23,-176.5 17.5,-171 17.5,-165.5 17.5,-165.5 17.5,-154.5 17.5,-154.5 17.5,-149 23,-143.5 28.5,-143.5"/>
</g>
<!-- sm/SPEAK&#45;&gt;sm/DO_GESTURE -->
<g id="edge9" class="edge transition">
<title>sm/SPEAK&#45;&gt;sm/DO_GESTURE</title>
<path fill="none" stroke="black" d="M78,-204.68C78,-199.62 78,-193.95 78,-188.42"/>
<polygon fill="black" stroke="black" points="81.5,-188.15 78,-178.15 74.5,-188.15 81.5,-188.15"/>
<text text-anchor="start" x="78" y="-189" font-family="Helvetica,sans-Serif" font-size="10.00">speaked &#160;&#160;</text>
</g>
<!-- sm/DO_GESTURE&#45;&gt;sm/ROAMING -->
<g id="edge10" class="edge transition">
<title>sm/DO_GESTURE&#45;&gt;sm/ROAMING</title>
<path fill="none" stroke="black" d="M116.79,-178.12C120.74,-180.52 124.56,-183.15 128,-186 139.85,-195.8 157.61,-231.88 170,-241 189.82,-255.58 198.08,-254.24 222,-260 236.15,-263.41 277.36,-257.1 287,-268 297.6,-279.98 294.82,-290.04 287,-304 282.22,-312.53 275.05,-319.59 267.04,-325.36"/>
<polygon fill="black" stroke="black" points="264.94,-322.55 258.45,-330.93 268.75,-328.43 264.94,-322.55"/>
<text text-anchor="start" x="222" y="-252" font-family="Helvetica,sans-Serif" font-size="10.00">fail_doing_gesture &#160;&#160;</text>
</g>
<!-- sm/DETECT_GESTURE -->
<g id="node7" class="node state regular">
<title>sm/DETECT_GESTURE</title>
<polygon fill="#ffffff" fill-opacity="0.003922" stroke="transparent" stroke-width="2" points="169.5,-115 16.5,-115 16.5,-79 169.5,-79 169.5,-115"/>
<text text-anchor="start" x="28" y="-93.4" font-family="Helvetica,sans-Serif" font-size="12.00">sm/DETECT_GESTURE</text>
<path fill="none" stroke="black" stroke-width="2" d="M28.5,-80.5C28.5,-80.5 157.5,-80.5 157.5,-80.5 163,-80.5 168.5,-86 168.5,-91.5 168.5,-91.5 168.5,-102.5 168.5,-102.5 168.5,-108 163,-113.5 157.5,-113.5 157.5,-113.5 28.5,-113.5 28.5,-113.5 23,-113.5 17.5,-108 17.5,-102.5 17.5,-102.5 17.5,-91.5 17.5,-91.5 17.5,-86 23,-80.5 28.5,-80.5"/>
</g>
<!-- sm/DO_GESTURE&#45;&gt;sm/DETECT_GESTURE -->
<g id="edge11" class="edge transition">
<title>sm/DO_GESTURE&#45;&gt;sm/DETECT_GESTURE</title>
<path fill="none" stroke="black" d="M49.74,-141.82C44.08,-136.19 40.95,-129.67 45,-123 45.05,-122.91 45.11,-122.82 45.17,-122.73"/>
<polygon fill="black" stroke="black" points="47.7,-125.15 51.47,-115.25 42.35,-120.64 47.7,-125.15"/>
<text text-anchor="start" x="45" y="-126" font-family="Helvetica,sans-Serif" font-size="10.00">succeed_doing_gesture &#160;&#160;</text>
</g>
<!-- sm/DETECT_GESTURE&#45;&gt;sm/ROAMING -->
<g id="edge14" class="edge transition">
<title>sm/DETECT_GESTURE&#45;&gt;sm/ROAMING</title>
<path fill="none" stroke="black" d="M150.73,-115.06C153.48,-117.38 155.95,-120.01 158,-123 171.95,-143.31 160.61,-155.31 151,-178 149.27,-182.09 146.41,-181.78 145,-186 143.45,-190.64 142.38,-192.87 145,-197 149.47,-204.05 154.75,-200.86 162,-205 186.74,-219.11 188.15,-231.51 215,-241 235.18,-248.14 296.5,-233.25 311,-249 335.03,-275.12 309.68,-302.1 281,-323 277.96,-325.21 274.7,-327.25 271.32,-329.13"/>
<polygon fill="black" stroke="black" points="269.52,-326.12 262.15,-333.72 272.66,-332.38 269.52,-326.12"/>
<text text-anchor="start" x="215" y="-220.5" font-family="Helvetica,sans-Serif" font-size="10.00">fail_to_detect_gesture &#160;&#160;</text>
</g>
<!-- sm/DETECT_GESTURE&#45;&gt;sm/DETECT_GESTURE -->
<g id="edge12" class="edge transition">
<title>sm/DETECT_GESTURE&#45;&gt;sm/DETECT_GESTURE</title>
<path fill="none" stroke="black" d="M169.82,-102.23C182.65,-101.5 191.5,-99.75 191.5,-97 191.5,-95.06 187.12,-93.63 180.06,-92.69"/>
<polygon fill="black" stroke="black" points="180.09,-89.18 169.82,-91.77 179.46,-96.15 180.09,-89.18"/>
<text text-anchor="start" x="191.5" y="-94.5" font-family="Helvetica,sans-Serif" font-size="10.00">detecting_gesture &#160;&#160;</text>
</g>
<!-- sm/GO_TO_POINT -->
<g id="node8" class="node state regular">
<title>sm/GO_TO_POINT</title>
<polygon fill="#ffffff" fill-opacity="0.003922" stroke="transparent" stroke-width="2" points="359.5,-52 236.5,-52 236.5,-16 359.5,-16 359.5,-52"/>
<text text-anchor="start" x="248" y="-30.4" font-family="Helvetica,sans-Serif" font-size="12.00">sm/GO_TO_POINT</text>
<path fill="none" stroke="black" stroke-width="2" d="M248.5,-17.5C248.5,-17.5 347.5,-17.5 347.5,-17.5 353,-17.5 358.5,-23 358.5,-28.5 358.5,-28.5 358.5,-39.5 358.5,-39.5 358.5,-45 353,-50.5 347.5,-50.5 347.5,-50.5 248.5,-50.5 248.5,-50.5 243,-50.5 237.5,-45 237.5,-39.5 237.5,-39.5 237.5,-28.5 237.5,-28.5 237.5,-23 243,-17.5 248.5,-17.5"/>
</g>
<!-- sm/DETECT_GESTURE&#45;&gt;sm/GO_TO_POINT -->
<g id="edge13" class="edge transition">
<title>sm/DETECT_GESTURE&#45;&gt;sm/GO_TO_POINT</title>
<path fill="none" stroke="black" d="M145.66,-78.92C164.91,-72.79 186.89,-65.93 207,-60 213.33,-58.13 219.93,-56.23 226.55,-54.35"/>
<polygon fill="black" stroke="black" points="227.55,-57.71 236.23,-51.63 225.66,-50.97 227.55,-57.71"/>
<text text-anchor="start" x="207" y="-63" font-family="Helvetica,sans-Serif" font-size="10.00">gesture_detected &#160;&#160;</text>
</g>
<!-- sm/GO_TO_POINT&#45;&gt;sm/ROAMING -->
<g id="edge15" class="edge transition">
<title>sm/GO_TO_POINT&#45;&gt;sm/ROAMING</title>
<path fill="none" stroke="black" d="M299.49,-52.13C300.13,-69.45 298.64,-96.25 286,-115 251.77,-165.74 198.12,-132.72 168,-186 165.59,-190.26 164.63,-193.45 168,-197 179.72,-209.35 309.28,-192.65 321,-205 351.3,-236.93 338.49,-265.04 318,-304 308.75,-321.58 290.53,-332.14 271.89,-338.48"/>
<polygon fill="black" stroke="black" points="270.7,-335.18 262.14,-341.42 272.73,-341.88 270.7,-335.18"/>
<text text-anchor="start" x="168" y="-189" font-family="Helvetica,sans-Serif" font-size="10.00">fail_Reach_the_point &#160;&#160;</text>
</g>
<!-- sm/GO_TO_POINT&#45;&gt;sm/ROAMING -->
<g id="edge16" class="edge transition">
<title>sm/GO_TO_POINT&#45;&gt;sm/ROAMING</title>
<path fill="none" stroke="black" d="M306.85,-52.12C328.65,-96.85 379.78,-219.62 332,-304 319.84,-325.48 295.46,-336.57 272.01,-342.26"/>
<polygon fill="black" stroke="black" points="271.1,-338.87 262.05,-344.38 272.56,-345.72 271.1,-338.87"/>
<text text-anchor="start" x="350" y="-189" font-family="Helvetica,sans-Serif" font-size="10.00">point_reached &#160;&#160;</text>
</g>
</g>
</svg>
