<?xml version="1.0" encoding="UTF-8" standalone="no"?>
<!DOCTYPE svg PUBLIC "-//W3C//DTD SVG 1.1//EN"
 "http://www.w3.org/Graphics/SVG/1.1/DTD/svg11.dtd">
<!-- Generated by graphviz version 2.49.1 (20210923.0004)
 -->
<!-- Title: state transitions Pages: 1 -->
<svg width="474pt" height="483pt"
 viewBox="0.00 0.00 474.00 483.00" xmlns="http://www.w3.org/2000/svg" xmlns:xlink="http://www.w3.org/1999/xlink">
<g id="graph0" class="graph" transform="scale(1 1) rotate(0) translate(4 479)">
<title>state transitions</title>
<polygon fill="white" stroke="transparent" points="-4,4 -4,-479 470,-479 470,4 -4,4"/>
<g id="clust1" class="cluster state regular">
<title>cluster_sm</title>
<path fill="none" stroke="black" stroke-width="2" d="M20,-8C20,-8 407,-8 407,-8 413,-8 419,-14 419,-20 419,-20 419,-455 419,-455 419,-461 413,-467 407,-467 407,-467 20,-467 20,-467 14,-467 8,-461 8,-455 8,-455 8,-20 8,-20 8,-14 14,-8 20,-8"/>
<text text-anchor="start" x="205.5" y="-448.9" font-family="Helvetica,sans-Serif" font-size="12.00">sm</text>
</g>
<!-- sm -->
<!-- sm/STOP -->
<g id="node2" class="node state regular">
<title>sm/STOP</title>
<polygon fill="#ffffff" fill-opacity="0.003922" stroke="transparent" stroke-width="2" points="254,-430 180,-430 180,-394 254,-394 254,-430"/>
<text text-anchor="start" x="191" y="-408.4" font-family="Helvetica,sans-Serif" font-size="12.00">sm/STOP</text>
<path fill="none" stroke="black" stroke-width="2" d="M192,-395.5C192,-395.5 242,-395.5 242,-395.5 247.5,-395.5 253,-401 253,-406.5 253,-406.5 253,-417.5 253,-417.5 253,-423 247.5,-428.5 242,-428.5 242,-428.5 192,-428.5 192,-428.5 186.5,-428.5 181,-423 181,-417.5 181,-417.5 181,-406.5 181,-406.5 181,-401 186.5,-395.5 192,-395.5"/>
</g>
<!-- sm/STOP&#45;&gt;sm/STOP -->
<g id="edge1" class="edge transition">
<title>sm/STOP&#45;&gt;sm/STOP</title>
<path fill="none" stroke="black" d="M254.16,-417.62C266.32,-417.6 276,-415.72 276,-412 276,-409.44 271.42,-407.76 264.61,-406.94"/>
<polygon fill="black" stroke="black" points="264.34,-403.42 254.16,-406.38 263.96,-410.41 264.34,-403.42"/>
<text text-anchor="start" x="276" y="-409.5" font-family="Helvetica,sans-Serif" font-size="10.00">continue_stop &#160;&#160;</text>
</g>
<!-- sm/ROAMING -->
<g id="node3" class="node state regular">
<title>sm/ROAMING</title>
<polygon fill="#ffffff" fill-opacity="0.003922" stroke="transparent" stroke-width="2" points="238,-367 142,-367 142,-331 238,-331 238,-367"/>
<text text-anchor="start" x="153" y="-345.4" font-family="Helvetica,sans-Serif" font-size="12.00">sm/ROAMING</text>
<path fill="none" stroke="black" stroke-width="2" d="M154,-332.5C154,-332.5 226,-332.5 226,-332.5 231.5,-332.5 237,-338 237,-343.5 237,-343.5 237,-354.5 237,-354.5 237,-360 231.5,-365.5 226,-365.5 226,-365.5 154,-365.5 154,-365.5 148.5,-365.5 143,-360 143,-354.5 143,-354.5 143,-343.5 143,-343.5 143,-338 148.5,-332.5 154,-332.5"/>
</g>
<!-- sm/STOP&#45;&gt;sm/ROAMING -->
<g id="edge2" class="edge transition">
<title>sm/STOP&#45;&gt;sm/ROAMING</title>
<path fill="none" stroke="black" d="M209.34,-393.68C206.98,-388.36 204.33,-382.37 201.76,-376.57"/>
<polygon fill="black" stroke="black" points="204.84,-374.88 197.59,-367.15 198.44,-377.71 204.84,-374.88"/>
<text text-anchor="start" x="205" y="-378" font-family="Helvetica,sans-Serif" font-size="10.00">start_roaming &#160;&#160;</text>
</g>
<!-- sm/ROAMING&#45;&gt;sm/ROAMING -->
<g id="edge3" class="edge transition">
<title>sm/ROAMING&#45;&gt;sm/ROAMING</title>
<path fill="none" stroke="black" d="M238.09,-354.57C250.58,-354.22 260,-352.37 260,-349 260,-346.63 255.34,-345.01 248.24,-344.14"/>
<polygon fill="black" stroke="black" points="248.31,-340.63 238.09,-343.43 247.83,-347.62 248.31,-340.63"/>
<text text-anchor="start" x="260" y="-346.5" font-family="Helvetica,sans-Serif" font-size="10.00">No_one_detected &#160;&#160;</text>
</g>
<!-- sm/FOLLOW -->
<g id="node4" class="node state regular">
<title>sm/FOLLOW</title>
<polygon fill="#ffffff" fill-opacity="0.003922" stroke="transparent" stroke-width="2" points="108,-304 16,-304 16,-268 108,-268 108,-304"/>
<text text-anchor="start" x="27" y="-282.4" font-family="Helvetica,sans-Serif" font-size="12.00">sm/FOLLOW</text>
<path fill="none" stroke="black" stroke-width="2" d="M28,-269.5C28,-269.5 96,-269.5 96,-269.5 101.5,-269.5 107,-275 107,-280.5 107,-280.5 107,-291.5 107,-291.5 107,-297 101.5,-302.5 96,-302.5 96,-302.5 28,-302.5 28,-302.5 22.5,-302.5 17,-297 17,-291.5 17,-291.5 17,-280.5 17,-280.5 17,-275 22.5,-269.5 28,-269.5"/>
</g>
<!-- sm/ROAMING&#45;&gt;sm/FOLLOW -->
<g id="edge4" class="edge transition">
<title>sm/ROAMING&#45;&gt;sm/FOLLOW</title>
<path fill="none" stroke="black" d="M141.64,-346.65C102.27,-344.4 51.15,-338.49 38,-323 35.29,-319.81 34.9,-316.29 35.95,-312.76"/>
<polygon fill="black" stroke="black" points="39,-314.47 41.01,-304.07 32.95,-310.94 39,-314.47"/>
<text text-anchor="start" x="38" y="-315" font-family="Helvetica,sans-Serif" font-size="10.00">person_detected &#160;&#160;</text>
</g>
<!-- sm/FOLLOW&#45;&gt;sm/ROAMING -->
<g id="edge6" class="edge transition">
<title>sm/FOLLOW&#45;&gt;sm/ROAMING</title>
<path fill="none" stroke="black" d="M103.45,-304.07C109.37,-306.65 115.37,-309.34 121,-312 130.35,-316.41 140.27,-321.4 149.59,-326.23"/>
<polygon fill="black" stroke="black" points="148.18,-329.44 158.66,-330.98 151.43,-323.24 148.18,-329.44"/>
<text text-anchor="start" x="142" y="-315" font-family="Helvetica,sans-Serif" font-size="10.00">lost_person_in_follow &#160;&#160;</text>
</g>
<!-- sm/FOLLOW&#45;&gt;sm/FOLLOW -->
<g id="edge5" class="edge transition">
<title>sm/FOLLOW&#45;&gt;sm/FOLLOW</title>
<path fill="none" stroke="black" d="M108.08,-291.58C120.53,-291.29 130,-289.43 130,-286 130,-283.59 125.32,-281.95 118.21,-281.09"/>
<polygon fill="black" stroke="black" points="118.3,-277.59 108.08,-280.42 117.83,-284.58 118.3,-277.59"/>
<text text-anchor="start" x="130" y="-283.5" font-family="Helvetica,sans-Serif" font-size="10.00">following &#160;&#160;</text>
</g>
<!-- sm/SPEAK -->
<g id="node5" class="node state regular">
<title>sm/SPEAK</title>
<polygon fill="#ffffff" fill-opacity="0.003922" stroke="transparent" stroke-width="2" points="99.5,-241 16.5,-241 16.5,-205 99.5,-205 99.5,-241"/>
<text text-anchor="start" x="28" y="-219.4" font-family="Helvetica,sans-Serif" font-size="12.00">sm/SPEAK</text>
<path fill="none" stroke="black" stroke-width="2" d="M28.5,-206.5C28.5,-206.5 87.5,-206.5 87.5,-206.5 93,-206.5 98.5,-212 98.5,-217.5 98.5,-217.5 98.5,-228.5 98.5,-228.5 98.5,-234 93,-239.5 87.5,-239.5 87.5,-239.5 28.5,-239.5 28.5,-239.5 23,-239.5 17.5,-234 17.5,-228.5 17.5,-228.5 17.5,-217.5 17.5,-217.5 17.5,-212 23,-206.5 28.5,-206.5"/>
</g>
<!-- sm/FOLLOW&#45;&gt;sm/SPEAK -->
<g id="edge7" class="edge transition">
<title>sm/FOLLOW&#45;&gt;sm/SPEAK</title>
<path fill="none" stroke="black" d="M60.86,-267.68C60.53,-262.62 60.16,-256.95 59.8,-251.42"/>
<polygon fill="black" stroke="black" points="63.27,-250.9 59.12,-241.15 56.29,-251.36 63.27,-250.9"/>
<text text-anchor="start" x="60" y="-252" font-family="Helvetica,sans-Serif" font-size="10.00">reach_person &#160;&#160;</text>
</g>
<!-- sm/SPEAK&#45;&gt;sm/ROAMING -->
<g id="edge8" class="edge transition">
<title>sm/SPEAK&#45;&gt;sm/ROAMING</title>
<path fill="none" stroke="black" d="M99.76,-237.58C110.61,-241.2 122.27,-245.17 133,-249 155.39,-256.98 162.06,-256.74 183,-268 207.11,-280.97 209.57,-289.83 233,-304 239.8,-308.11 244.82,-305.24 249,-312 253.08,-318.6 251.34,-324.16 246.45,-328.78"/>
<polygon fill="black" stroke="black" points="244.36,-325.97 238.1,-334.52 248.33,-331.74 244.36,-325.97"/>
<text text-anchor="start" x="233" y="-283.5" font-family="Helvetica,sans-Serif" font-size="10.00">fail_speak &#160;&#160;</text>
</g>
<!-- sm/DO_GESTURE -->
<g id="node6" class="node state regular">
<title>sm/DO_GESTURE</title>
<polygon fill="#ffffff" fill-opacity="0.003922" stroke="transparent" stroke-width="2" points="139.5,-178 16.5,-178 16.5,-142 139.5,-142 139.5,-178"/>
<text text-anchor="start" x="28" y="-156.4" font-family="Helvetica,sans-Serif" font-size="12.00">sm/DO_GESTURE</text>
<path fill="none" stroke="black" stroke-width="2" d="M28.5,-143.5C28.5,-143.5 127.5,-143.5 127.5,-143.5 133,-143.5 138.5,-149 138.5,-154.5 138.5,-154.5 138.5,-165.5 138.5,-165.5 138.5,-171 133,-176.5 127.5,-176.5 127.5,-176.5 28.5,-176.5 28.5,-176.5 23,-176.5 17.5,-171 17.5,-165.5 17.5,-165.5 17.5,-154.5 17.5,-154.5 17.5,-149 23,-143.5 28.5,-143.5"/>
</g>
<!-- sm/SPEAK&#45;&gt;sm/DO_GESTURE -->
<g id="edge9" class="edge transition">
<title>sm/SPEAK&#45;&gt;sm/DO_GESTURE</title>
<path fill="none" stroke="black" d="M63.68,-204.68C65.38,-199.49 67.29,-193.66 69.15,-188"/>
<polygon fill="black" stroke="black" points="72.59,-188.74 72.38,-178.15 65.94,-186.56 72.59,-188.74"/>
<text text-anchor="start" x="69" y="-189" font-family="Helvetica,sans-Serif" font-size="10.00">speaked &#160;&#160;</text>
</g>
<!-- sm/DO_GESTURE&#45;&gt;sm/ROAMING -->
<g id="edge10" class="edge transition">
<title>sm/DO_GESTURE&#45;&gt;sm/ROAMING</title>
<path fill="none" stroke="black" d="M109.67,-178.07C112.71,-180.48 115.56,-183.13 118,-186 135.15,-206.19 120.78,-223.88 141,-241 155.11,-252.95 203.8,-256.75 222,-260 236.33,-262.55 277.36,-257.1 287,-268 297.6,-279.98 294.82,-290.04 287,-304 278.66,-318.9 263.71,-328.77 248.02,-335.31"/>
<polygon fill="black" stroke="black" points="246.35,-332.2 238.2,-338.96 248.79,-338.76 246.35,-332.2"/>
<text text-anchor="start" x="222" y="-252" font-family="Helvetica,sans-Serif" font-size="10.00">fail_doing_gesture &#160;&#160;</text>
</g>
<!-- sm/DETECT_GESTURE -->
<g id="node7" class="node state regular">
<title>sm/DETECT_GESTURE</title>
<polygon fill="#ffffff" fill-opacity="0.003922" stroke="transparent" stroke-width="2" points="169.5,-115 16.5,-115 16.5,-79 169.5,-79 169.5,-115"/>
<text text-anchor="start" x="28" y="-93.4" font-family="Helvetica,sans-Serif" font-size="12.00">sm/DETECT_GESTURE</text>
<path fill="none" stroke="black" stroke-width="2" d="M28.5,-80.5C28.5,-80.5 157.5,-80.5 157.5,-80.5 163,-80.5 168.5,-86 168.5,-91.5 168.5,-91.5 168.5,-102.5 168.5,-102.5 168.5,-108 163,-113.5 157.5,-113.5 157.5,-113.5 28.5,-113.5 28.5,-113.5 23,-113.5 17.5,-108 17.5,-102.5 17.5,-102.5 17.5,-91.5 17.5,-91.5 17.5,-86 23,-80.5 28.5,-80.5"/>
</g>
<!-- sm/DO_GESTURE&#45;&gt;sm/DETECT_GESTURE -->
<g id="edge11" class="edge transition">
<title>sm/DO_GESTURE&#45;&gt;sm/DETECT_GESTURE</title>
<path fill="none" stroke="black" d="M54.09,-141.75C50.25,-137.36 47.72,-132.48 51.15,-124.1"/>
<polygon fill="black" stroke="black" points="54.24,-125.75 56.12,-115.32 48.15,-122.3 54.24,-125.75"/>
<text text-anchor="start" x="50" y="-126" font-family="Helvetica,sans-Serif" font-size="10.00">succeed_doing_gesture &#160;&#160;</text>
</g>
<!-- sm/DETECT_GESTURE&#45;&gt;sm/ROAMING -->
<g id="edge14" class="edge transition">
<title>sm/DETECT_GESTURE&#45;&gt;sm/ROAMING</title>
<path fill="none" stroke="black" d="M154.47,-115.16C157.6,-117.46 160.49,-120.05 163,-123 197.61,-163.59 145.07,-205.63 185,-241 206,-259.6 291.8,-228.54 311,-249 335.17,-274.76 311.14,-303.04 282,-323 271.87,-329.94 259.87,-334.96 247.95,-338.59"/>
<polygon fill="black" stroke="black" points="246.72,-335.3 238,-341.32 248.57,-342.05 246.72,-335.3"/>
<text text-anchor="start" x="185" y="-220.5" font-family="Helvetica,sans-Serif" font-size="10.00">fail_to_detect_gesture &#160;&#160;</text>
</g>
<!-- sm/DETECT_GESTURE&#45;&gt;sm/DETECT_GESTURE -->
<g id="edge12" class="edge transition">
<title>sm/DETECT_GESTURE&#45;&gt;sm/DETECT_GESTURE</title>
<path fill="none" stroke="black" d="M169.82,-102.23C182.65,-101.5 191.5,-99.75 191.5,-97 191.5,-95.06 187.12,-93.63 180.06,-92.69"/>
<polygon fill="black" stroke="black" points="180.09,-89.18 169.82,-91.77 179.46,-96.15 180.09,-89.18"/>
<text text-anchor="start" x="191.5" y="-94.5" font-family="Helvetica,sans-Serif" font-size="10.00">detecting_gesture &#160;&#160;</text>
</g>
<!-- sm/GO_TO_POINT -->
<g id="node8" class="node state regular">
<title>sm/GO_TO_POINT</title>
<polygon fill="#ffffff" fill-opacity="0.003922" stroke="transparent" stroke-width="2" points="359.5,-52 236.5,-52 236.5,-16 359.5,-16 359.5,-52"/>
<text text-anchor="start" x="248" y="-30.4" font-family="Helvetica,sans-Serif" font-size="12.00">sm/GO_TO_POINT</text>
<path fill="none" stroke="black" stroke-width="2" d="M248.5,-17.5C248.5,-17.5 347.5,-17.5 347.5,-17.5 353,-17.5 358.5,-23 358.5,-28.5 358.5,-28.5 358.5,-39.5 358.5,-39.5 358.5,-45 353,-50.5 347.5,-50.5 347.5,-50.5 248.5,-50.5 248.5,-50.5 243,-50.5 237.5,-45 237.5,-39.5 237.5,-39.5 237.5,-28.5 237.5,-28.5 237.5,-23 243,-17.5 248.5,-17.5"/>
</g>
<!-- sm/DETECT_GESTURE&#45;&gt;sm/GO_TO_POINT -->
<g id="edge13" class="edge transition">
<title>sm/DETECT_GESTURE&#45;&gt;sm/GO_TO_POINT</title>
<path fill="none" stroke="black" d="M145.66,-78.92C164.91,-72.79 186.89,-65.93 207,-60 213.33,-58.13 219.93,-56.23 226.55,-54.35"/>
<polygon fill="black" stroke="black" points="227.55,-57.71 236.23,-51.63 225.66,-50.97 227.55,-57.71"/>
<text text-anchor="start" x="207" y="-63" font-family="Helvetica,sans-Serif" font-size="10.00">gesture_detected &#160;&#160;</text>
</g>
<!-- sm/GO_TO_POINT&#45;&gt;sm/STOP -->
<g id="edge16" class="edge transition">
<title>sm/GO_TO_POINT&#45;&gt;sm/STOP</title>
<path fill="none" stroke="black" d="M319.2,-52.19C350.55,-79.79 404.8,-137.02 397,-197 386.92,-274.5 405.69,-310.2 352,-367 329.28,-391.04 293.29,-401.96 264.18,-406.92"/>
<polygon fill="black" stroke="black" points="263.57,-403.47 254.2,-408.44 264.62,-410.4 263.57,-403.47"/>
<text text-anchor="start" x="396" y="-220.5" font-family="Helvetica,sans-Serif" font-size="10.00">point_reached &#160;&#160;</text>
</g>
<!-- sm/GO_TO_POINT&#45;&gt;sm/ROAMING -->
<g id="edge15" class="edge transition">
<title>sm/GO_TO_POINT&#45;&gt;sm/ROAMING</title>
<path fill="none" stroke="black" d="M295.49,-52.24C291.66,-82.07 285.8,-145.11 296,-197 300.08,-217.73 303.58,-222.62 314,-241 316.19,-244.87 318.59,-244.78 320,-249 327.74,-272.21 328.92,-282.11 318,-304 305.24,-329.56 275.74,-340.77 248.27,-345.49"/>
<polygon fill="black" stroke="black" points="247.66,-342.04 238.27,-346.95 248.67,-348.97 247.66,-342.04"/>
<text text-anchor="start" x="296" y="-189" font-family="Helvetica,sans-Serif" font-size="10.00">fail_Reach_the_point &#160;&#160;</text>
</g>
</g>
</svg>
