<?xml version="1.0" encoding="UTF-8" standalone="no"?>
<!DOCTYPE svg PUBLIC "-//W3C//DTD SVG 1.1//EN"
 "http://www.w3.org/Graphics/SVG/1.1/DTD/svg11.dtd">
<!-- Generated by graphviz version 2.49.1 (20210923.0004)
 -->
<!-- Title: state transitions Pages: 1 -->
<svg width="533pt" height="533pt"
 viewBox="0.00 0.00 533.00 533.00" xmlns="http://www.w3.org/2000/svg" xmlns:xlink="http://www.w3.org/1999/xlink">
<g id="graph0" class="graph" transform="scale(1 1) rotate(0) translate(4 529)">
<title>state transitions</title>
<polygon fill="white" stroke="transparent" points="-4,4 -4,-529 529,-529 529,4 -4,4"/>
<g id="clust1" class="cluster state regular">
<title>cluster__state_machine</title>
<path fill="none" stroke="black" stroke-width="2" d="M20,-8C20,-8 478,-8 478,-8 484,-8 490,-14 490,-20 490,-20 490,-505 490,-505 490,-511 484,-517 478,-517 478,-517 20,-517 20,-517 14,-517 8,-511 8,-505 8,-505 8,-20 8,-20 8,-14 14,-8 20,-8"/>
<text text-anchor="start" x="207" y="-498.9" font-family="Helvetica,sans-Serif" font-size="12.00">_state_machine</text>
</g>
<!-- _state_machine -->
<!-- _state_machine/EStop -->
<g id="node2" class="node state regular">
<title>_state_machine/EStop</title>
<polygon fill="#ffffff" fill-opacity="0.003922" stroke="transparent" stroke-width="2" points="384,-480 242,-480 242,-444 384,-444 384,-480"/>
<text text-anchor="start" x="253" y="-458.4" font-family="Helvetica,sans-Serif" font-size="12.00">_state_machine/EStop</text>
<path fill="none" stroke="black" stroke-width="2" d="M254,-445.5C254,-445.5 372,-445.5 372,-445.5 377.5,-445.5 383,-451 383,-456.5 383,-456.5 383,-467.5 383,-467.5 383,-473 377.5,-478.5 372,-478.5 372,-478.5 254,-478.5 254,-478.5 248.5,-478.5 243,-473 243,-467.5 243,-467.5 243,-456.5 243,-456.5 243,-451 248.5,-445.5 254,-445.5"/>
</g>
<!-- _state_machine/EStopFailure -->
<g id="node4" class="node state regular">
<title>_state_machine/EStopFailure</title>
<polygon fill="#ffffff" fill-opacity="0.003922" stroke="transparent" stroke-width="2" points="482,-373 304,-373 304,-337 482,-337 482,-373"/>
<text text-anchor="start" x="315" y="-351.4" font-family="Helvetica,sans-Serif" font-size="12.00">_state_machine/EStopFailure</text>
<path fill="none" stroke="black" stroke-width="2" d="M316,-338.5C316,-338.5 470,-338.5 470,-338.5 475.5,-338.5 481,-344 481,-349.5 481,-349.5 481,-360.5 481,-360.5 481,-366 475.5,-371.5 470,-371.5 470,-371.5 316,-371.5 316,-371.5 310.5,-371.5 305,-366 305,-360.5 305,-360.5 305,-349.5 305,-349.5 305,-344 310.5,-338.5 316,-338.5"/>
</g>
<!-- _state_machine/EStop&#45;&gt;_state_machine/EStopFailure -->
<g id="edge2" class="edge transition">
<title>_state_machine/EStop&#45;&gt;_state_machine/EStopFailure</title>
<path fill="none" stroke="black" d="M340.66,-443.79C350.64,-436.51 361.32,-427.32 369,-417 376.49,-406.93 381.98,-394.23 385.8,-383.02"/>
<polygon fill="black" stroke="black" points="389.21,-383.85 388.86,-373.26 382.53,-381.76 389.21,-383.85"/>
<text text-anchor="start" x="361" y="-428" font-family="Helvetica,sans-Serif" font-size="10.00">failed &#160;&#160;</text>
</g>
<!-- _state_machine/BackupQuery -->
<g id="node10" class="node state regular">
<title>_state_machine/BackupQuery</title>
<polygon fill="#ffffff" fill-opacity="0.003922" stroke="transparent" stroke-width="2" points="357.5,-417 178.5,-417 178.5,-381 357.5,-381 357.5,-417"/>
<text text-anchor="start" x="190" y="-395.4" font-family="Helvetica,sans-Serif" font-size="12.00">_state_machine/BackupQuery</text>
<path fill="none" stroke="black" stroke-width="2" d="M190.5,-382.5C190.5,-382.5 345.5,-382.5 345.5,-382.5 351,-382.5 356.5,-388 356.5,-393.5 356.5,-393.5 356.5,-404.5 356.5,-404.5 356.5,-410 351,-415.5 345.5,-415.5 345.5,-415.5 190.5,-415.5 190.5,-415.5 185,-415.5 179.5,-410 179.5,-404.5 179.5,-404.5 179.5,-393.5 179.5,-393.5 179.5,-388 185,-382.5 190.5,-382.5"/>
</g>
<!-- _state_machine/EStop&#45;&gt;_state_machine/BackupQuery -->
<g id="edge1" class="edge transition">
<title>_state_machine/EStop&#45;&gt;_state_machine/BackupQuery</title>
<path fill="none" stroke="black" d="M300.23,-443.68C296.01,-437.97 291.23,-431.49 286.67,-425.3"/>
<polygon fill="black" stroke="black" points="289.4,-423.12 280.65,-417.15 283.77,-427.27 289.4,-423.12"/>
<text text-anchor="start" x="294" y="-428" font-family="Helvetica,sans-Serif" font-size="10.00">done &#160;&#160;</text>
</g>
<!-- _state_machine/ClearCostmap -->
<g id="node3" class="node state regular">
<title>_state_machine/ClearCostmap</title>
<polygon fill="#ffffff" fill-opacity="0.003922" stroke="transparent" stroke-width="2" points="345.5,-203 160.5,-203 160.5,-167 345.5,-167 345.5,-203"/>
<text text-anchor="start" x="172" y="-181.4" font-family="Helvetica,sans-Serif" font-size="12.00">_state_machine/ClearCostmap</text>
<path fill="none" stroke="black" stroke-width="2" d="M172.5,-168.5C172.5,-168.5 333.5,-168.5 333.5,-168.5 339,-168.5 344.5,-174 344.5,-179.5 344.5,-179.5 344.5,-190.5 344.5,-190.5 344.5,-196 339,-201.5 333.5,-201.5 333.5,-201.5 172.5,-201.5 172.5,-201.5 167,-201.5 161.5,-196 161.5,-190.5 161.5,-190.5 161.5,-179.5 161.5,-179.5 161.5,-174 167,-168.5 172.5,-168.5"/>
</g>
<!-- _state_machine/CostmapFailure -->
<g id="node5" class="node state regular">
<title>_state_machine/CostmapFailure</title>
<polygon fill="#ffffff" fill-opacity="0.003922" stroke="transparent" stroke-width="2" points="457.5,-115 264.5,-115 264.5,-79 457.5,-79 457.5,-115"/>
<text text-anchor="start" x="276" y="-93.4" font-family="Helvetica,sans-Serif" font-size="12.00">_state_machine/CostmapFailure</text>
<path fill="none" stroke="black" stroke-width="2" d="M276.5,-80.5C276.5,-80.5 445.5,-80.5 445.5,-80.5 451,-80.5 456.5,-86 456.5,-91.5 456.5,-91.5 456.5,-102.5 456.5,-102.5 456.5,-108 451,-113.5 445.5,-113.5 445.5,-113.5 276.5,-113.5 276.5,-113.5 271,-113.5 265.5,-108 265.5,-102.5 265.5,-102.5 265.5,-91.5 265.5,-91.5 265.5,-86 271,-80.5 276.5,-80.5"/>
</g>
<!-- _state_machine/ClearCostmap&#45;&gt;_state_machine/CostmapFailure -->
<g id="edge4" class="edge transition">
<title>_state_machine/ClearCostmap&#45;&gt;_state_machine/CostmapFailure</title>
<path fill="none" stroke="black" d="M274.6,-166.8C290.93,-153.8 313.54,-135.79 331.54,-121.46"/>
<polygon fill="black" stroke="black" points="333.8,-124.13 339.44,-115.17 329.44,-118.66 333.8,-124.13"/>
<text text-anchor="start" x="329" y="-138.5" font-family="Helvetica,sans-Serif" font-size="10.00">failed &#160;&#160;</text>
</g>
<!-- _state_machine/Cleared -->
<g id="node9" class="node state regular">
<title>_state_machine/Cleared</title>
<polygon fill="#ffffff" fill-opacity="0.003922" stroke="transparent" stroke-width="2" points="242.5,-115 91.5,-115 91.5,-79 242.5,-79 242.5,-115"/>
<text text-anchor="start" x="103" y="-93.4" font-family="Helvetica,sans-Serif" font-size="12.00">_state_machine/Cleared</text>
<path fill="none" stroke="black" stroke-width="2" d="M103.5,-80.5C103.5,-80.5 230.5,-80.5 230.5,-80.5 236,-80.5 241.5,-86 241.5,-91.5 241.5,-91.5 241.5,-102.5 241.5,-102.5 241.5,-108 236,-113.5 230.5,-113.5 230.5,-113.5 103.5,-113.5 103.5,-113.5 98,-113.5 92.5,-108 92.5,-102.5 92.5,-102.5 92.5,-91.5 92.5,-91.5 92.5,-86 98,-80.5 103.5,-80.5"/>
</g>
<!-- _state_machine/ClearCostmap&#45;&gt;_state_machine/Cleared -->
<g id="edge3" class="edge transition">
<title>_state_machine/ClearCostmap&#45;&gt;_state_machine/Cleared</title>
<path fill="none" stroke="black" d="M249.48,-167C245.9,-153.51 239.1,-135 227,-123 226.44,-122.45 225.87,-121.91 225.29,-121.38"/>
<polygon fill="black" stroke="black" points="227.17,-118.41 217.09,-115.13 222.92,-123.98 227.17,-118.41"/>
<text text-anchor="start" x="246" y="-138.5" font-family="Helvetica,sans-Serif" font-size="10.00">done &#160;&#160;</text>
</g>
<!-- _state_machine/failed -->
<g id="node12" class="node state regular">
<title>_state_machine/failed</title>
<polygon fill="#ffffff" fill-opacity="0.003922" stroke="transparent" stroke-width="2" points="455.5,-52 318.5,-52 318.5,-16 455.5,-16 455.5,-52"/>
<text text-anchor="start" x="330" y="-30.4" font-family="Helvetica,sans-Serif" font-size="12.00">_state_machine/failed</text>
<path fill="none" stroke="black" stroke-width="2" d="M330.5,-17.5C330.5,-17.5 443.5,-17.5 443.5,-17.5 449,-17.5 454.5,-23 454.5,-28.5 454.5,-28.5 454.5,-39.5 454.5,-39.5 454.5,-45 449,-50.5 443.5,-50.5 443.5,-50.5 330.5,-50.5 330.5,-50.5 325,-50.5 319.5,-45 319.5,-39.5 319.5,-39.5 319.5,-28.5 319.5,-28.5 319.5,-23 325,-17.5 330.5,-17.5"/>
</g>
<!-- _state_machine/EStopFailure&#45;&gt;_state_machine/failed -->
<g id="edge5" class="edge transition">
<title>_state_machine/EStopFailure&#45;&gt;_state_machine/failed</title>
<path fill="none" stroke="black" d="M426.12,-336.79C428.73,-334.45 431.09,-331.86 433,-329 495.4,-235.69 526.63,-175.33 469,-79 463.77,-70.27 456.15,-63.17 447.64,-57.42"/>
<polygon fill="black" stroke="black" points="449.24,-54.3 438.87,-52.13 445.62,-60.29 449.24,-54.3"/>
<text text-anchor="start" x="494" y="-214" font-family="Helvetica,sans-Serif" font-size="10.00">done &#160;&#160;</text>
</g>
<!-- _state_machine/CostmapFailure&#45;&gt;_state_machine/failed -->
<g id="edge6" class="edge transition">
<title>_state_machine/CostmapFailure&#45;&gt;_state_machine/failed</title>
<path fill="none" stroke="black" d="M368.38,-78.68C370.65,-73.36 373.2,-67.37 375.67,-61.57"/>
<polygon fill="black" stroke="black" points="378.99,-62.72 379.69,-52.15 372.55,-59.98 378.99,-62.72"/>
<text text-anchor="start" x="376" y="-63" font-family="Helvetica,sans-Serif" font-size="10.00">done &#160;&#160;</text>
</g>
<!-- _state_machine/ShortBackup -->
<g id="node6" class="node state regular">
<title>_state_machine/ShortBackup</title>
<polygon fill="#ffffff" fill-opacity="0.003922" stroke="transparent" stroke-width="2" points="192,-329 16,-329 16,-293 192,-293 192,-329"/>
<text text-anchor="start" x="27" y="-307.4" font-family="Helvetica,sans-Serif" font-size="12.00">_state_machine/ShortBackup</text>
<path fill="none" stroke="black" stroke-width="2" d="M28,-294.5C28,-294.5 180,-294.5 180,-294.5 185.5,-294.5 191,-300 191,-305.5 191,-305.5 191,-316.5 191,-316.5 191,-322 185.5,-327.5 180,-327.5 180,-327.5 28,-327.5 28,-327.5 22.5,-327.5 17,-322 17,-316.5 17,-316.5 17,-305.5 17,-305.5 17,-300 22.5,-294.5 28,-294.5"/>
</g>
<!-- _state_machine/ClearCostmapQuery -->
<g id="node7" class="node state regular">
<title>_state_machine/ClearCostmapQuery</title>
<polygon fill="#ffffff" fill-opacity="0.003922" stroke="transparent" stroke-width="2" points="352,-266 136,-266 136,-230 352,-230 352,-266"/>
<text text-anchor="start" x="147" y="-244.4" font-family="Helvetica,sans-Serif" font-size="12.00">_state_machine/ClearCostmapQuery</text>
<path fill="none" stroke="black" stroke-width="2" d="M148,-231.5C148,-231.5 340,-231.5 340,-231.5 345.5,-231.5 351,-237 351,-242.5 351,-242.5 351,-253.5 351,-253.5 351,-259 345.5,-264.5 340,-264.5 340,-264.5 148,-264.5 148,-264.5 142.5,-264.5 137,-259 137,-253.5 137,-253.5 137,-242.5 137,-242.5 137,-237 142.5,-231.5 148,-231.5"/>
</g>
<!-- _state_machine/ShortBackup&#45;&gt;_state_machine/ClearCostmapQuery -->
<g id="edge7" class="edge transition">
<title>_state_machine/ShortBackup&#45;&gt;_state_machine/ClearCostmapQuery</title>
<path fill="none" stroke="black" d="M143.37,-292.85C159.61,-285.77 178.59,-277.5 195.67,-270.06"/>
<polygon fill="black" stroke="black" points="197.16,-273.23 204.93,-266.03 194.36,-266.81 197.16,-273.23"/>
<text text-anchor="start" x="186" y="-277" font-family="Helvetica,sans-Serif" font-size="10.00">done &#160;&#160;</text>
</g>
<!-- _state_machine/ShortBackup&#45;&gt;_state_machine/ClearCostmapQuery -->
<g id="edge8" class="edge transition">
<title>_state_machine/ShortBackup&#45;&gt;_state_machine/ClearCostmapQuery</title>
<path fill="none" stroke="black" d="M109.92,-292.78C113.08,-285.96 117.67,-278.66 124,-274 125.26,-273.07 126.54,-272.18 127.85,-271.32"/>
<polygon fill="black" stroke="black" points="129.95,-274.14 136.81,-266.07 126.42,-268.1 129.95,-274.14"/>
<text text-anchor="start" x="124" y="-277" font-family="Helvetica,sans-Serif" font-size="10.00">failed &#160;&#160;</text>
</g>
<!-- _state_machine/ClearCostmapQuery&#45;&gt;_state_machine/ClearCostmap -->
<g id="edge9" class="edge transition">
<title>_state_machine/ClearCostmapQuery&#45;&gt;_state_machine/ClearCostmap</title>
<path fill="none" stroke="black" d="M246.55,-229.68C247.3,-224.62 248.14,-218.95 248.95,-213.42"/>
<polygon fill="black" stroke="black" points="252.47,-213.55 250.47,-203.15 245.55,-212.53 252.47,-213.55"/>
<text text-anchor="start" x="249" y="-214" font-family="Helvetica,sans-Serif" font-size="10.00">yes &#160;&#160;</text>
</g>
<!-- _state_machine/SkipClearCostmap -->
<g id="node8" class="node state regular">
<title>_state_machine/SkipClearCostmap</title>
<polygon fill="#ffffff" fill-opacity="0.003922" stroke="transparent" stroke-width="2" points="225.5,-159 16.5,-159 16.5,-123 225.5,-123 225.5,-159"/>
<text text-anchor="start" x="28" y="-137.4" font-family="Helvetica,sans-Serif" font-size="12.00">_state_machine/SkipClearCostmap</text>
<path fill="none" stroke="black" stroke-width="2" d="M28.5,-124.5C28.5,-124.5 213.5,-124.5 213.5,-124.5 219,-124.5 224.5,-130 224.5,-135.5 224.5,-135.5 224.5,-146.5 224.5,-146.5 224.5,-152 219,-157.5 213.5,-157.5 213.5,-157.5 28.5,-157.5 28.5,-157.5 23,-157.5 17.5,-152 17.5,-146.5 17.5,-146.5 17.5,-135.5 17.5,-135.5 17.5,-130 23,-124.5 28.5,-124.5"/>
</g>
<!-- _state_machine/ClearCostmapQuery&#45;&gt;_state_machine/SkipClearCostmap -->
<g id="edge10" class="edge transition">
<title>_state_machine/ClearCostmapQuery&#45;&gt;_state_machine/SkipClearCostmap</title>
<path fill="none" stroke="black" d="M191.19,-229.91C176.53,-223.26 161.5,-214.43 150,-203 140.54,-193.6 133.77,-180.52 129.16,-168.88"/>
<polygon fill="black" stroke="black" points="132.33,-167.37 125.65,-159.15 125.75,-169.74 132.33,-167.37"/>
<text text-anchor="start" x="174" y="-214" font-family="Helvetica,sans-Serif" font-size="10.00">no &#160;&#160;</text>
</g>
<!-- _state_machine/finished -->
<g id="node13" class="node state regular">
<title>_state_machine/finished</title>
<polygon fill="#ffffff" fill-opacity="0.003922" stroke="transparent" stroke-width="2" points="184.5,-52 35.5,-52 35.5,-16 184.5,-16 184.5,-52"/>
<text text-anchor="start" x="47" y="-30.4" font-family="Helvetica,sans-Serif" font-size="12.00">_state_machine/finished</text>
<path fill="none" stroke="black" stroke-width="2" d="M47.5,-17.5C47.5,-17.5 172.5,-17.5 172.5,-17.5 178,-17.5 183.5,-23 183.5,-28.5 183.5,-28.5 183.5,-39.5 183.5,-39.5 183.5,-45 178,-50.5 172.5,-50.5 172.5,-50.5 47.5,-50.5 47.5,-50.5 42,-50.5 36.5,-45 36.5,-39.5 36.5,-39.5 36.5,-28.5 36.5,-28.5 36.5,-23 42,-17.5 47.5,-17.5"/>
</g>
<!-- _state_machine/SkipClearCostmap&#45;&gt;_state_machine/finished -->
<g id="edge11" class="edge transition">
<title>_state_machine/SkipClearCostmap&#45;&gt;_state_machine/finished</title>
<path fill="none" stroke="black" d="M57.39,-122.94C54.62,-120.62 52.11,-117.99 50,-115 40.75,-101.94 42.77,-93.27 50,-79 54.03,-71.05 60.24,-64.19 67.18,-58.41"/>
<polygon fill="black" stroke="black" points="69.66,-60.92 75.55,-52.12 65.46,-55.32 69.66,-60.92"/>
<text text-anchor="start" x="50" y="-94.5" font-family="Helvetica,sans-Serif" font-size="10.00">done &#160;&#160;</text>
</g>
<!-- _state_machine/Cleared&#45;&gt;_state_machine/finished -->
<g id="edge12" class="edge transition">
<title>_state_machine/Cleared&#45;&gt;_state_machine/finished</title>
<path fill="none" stroke="black" d="M150.82,-78.68C145.24,-72.71 138.87,-65.9 132.86,-59.46"/>
<polygon fill="black" stroke="black" points="135.41,-57.07 126.02,-52.15 130.29,-61.85 135.41,-57.07"/>
<text text-anchor="start" x="143" y="-63" font-family="Helvetica,sans-Serif" font-size="10.00">done &#160;&#160;</text>
</g>
<!-- _state_machine/BackupQuery&#45;&gt;_state_machine/ShortBackup -->
<g id="edge15" class="edge transition">
<title>_state_machine/BackupQuery&#45;&gt;_state_machine/ShortBackup</title>
<path fill="none" stroke="black" d="M235.21,-380.8C209.42,-367.28 173.34,-348.36 145.54,-333.78"/>
<polygon fill="black" stroke="black" points="146.94,-330.56 136.46,-329.02 143.69,-336.76 146.94,-330.56"/>
<text text-anchor="start" x="219" y="-352.5" font-family="Helvetica,sans-Serif" font-size="10.00">short &#160;&#160;</text>
</g>
<!-- _state_machine/BackupQuery&#45;&gt;_state_machine/ClearCostmapQuery -->
<g id="edge13" class="edge transition">
<title>_state_machine/BackupQuery&#45;&gt;_state_machine/ClearCostmapQuery</title>
<path fill="none" stroke="black" d="M287.26,-380.93C289.4,-378.43 291.39,-375.76 293,-373 301.37,-358.66 290.2,-347.58 303,-337 319.84,-323.08 386.19,-345.07 401,-329 411.84,-317.24 410.67,-305.75 401,-293 393.67,-283.34 373.66,-275.21 350.27,-268.68"/>
<polygon fill="black" stroke="black" points="351,-265.25 340.44,-266.07 349.21,-272.02 351,-265.25"/>
<text text-anchor="start" x="408" y="-308.5" font-family="Helvetica,sans-Serif" font-size="10.00">no &#160;&#160;</text>
</g>
<!-- _state_machine/LongBackup -->
<g id="node11" class="node state regular">
<title>_state_machine/LongBackup</title>
<polygon fill="#ffffff" fill-opacity="0.003922" stroke="transparent" stroke-width="2" points="389.5,-329 214.5,-329 214.5,-293 389.5,-293 389.5,-329"/>
<text text-anchor="start" x="226" y="-307.4" font-family="Helvetica,sans-Serif" font-size="12.00">_state_machine/LongBackup</text>
<path fill="none" stroke="black" stroke-width="2" d="M226.5,-294.5C226.5,-294.5 377.5,-294.5 377.5,-294.5 383,-294.5 388.5,-300 388.5,-305.5 388.5,-305.5 388.5,-316.5 388.5,-316.5 388.5,-322 383,-327.5 377.5,-327.5 377.5,-327.5 226.5,-327.5 226.5,-327.5 221,-327.5 215.5,-322 215.5,-316.5 215.5,-316.5 215.5,-305.5 215.5,-305.5 215.5,-300 221,-294.5 226.5,-294.5"/>
</g>
<!-- _state_machine/BackupQuery&#45;&gt;_state_machine/LongBackup -->
<g id="edge14" class="edge transition">
<title>_state_machine/BackupQuery&#45;&gt;_state_machine/LongBackup</title>
<path fill="none" stroke="black" d="M262.21,-380.91C259.41,-369.98 257.42,-355.58 265.09,-338.35"/>
<polygon fill="black" stroke="black" points="268.42,-339.55 270.03,-329.08 262.24,-336.26 268.42,-339.55"/>
<text text-anchor="start" x="264" y="-352.5" font-family="Helvetica,sans-Serif" font-size="10.00">long &#160;&#160;</text>
</g>
<!-- _state_machine/LongBackup&#45;&gt;_state_machine/ClearCostmapQuery -->
<g id="edge16" class="edge transition">
<title>_state_machine/LongBackup&#45;&gt;_state_machine/ClearCostmapQuery</title>
<path fill="none" stroke="black" d="M250.92,-292.81C248.28,-290.52 245.93,-287.93 244,-285 242.27,-282.37 241.22,-279.38 240.65,-276.28"/>
<polygon fill="black" stroke="black" points="244.15,-276.1 240.22,-266.26 237.15,-276.4 244.15,-276.1"/>
<text text-anchor="start" x="244" y="-277" font-family="Helvetica,sans-Serif" font-size="10.00">done &#160;&#160;</text>
</g>
<!-- _state_machine/LongBackup&#45;&gt;_state_machine/ClearCostmapQuery -->
<g id="edge17" class="edge transition">
<title>_state_machine/LongBackup&#45;&gt;_state_machine/ClearCostmapQuery</title>
<path fill="none" stroke="black" d="M291.02,-292.74C286.69,-286.53 281.45,-279.66 276,-274 275.67,-273.66 275.33,-273.32 275,-272.97"/>
<polygon fill="black" stroke="black" points="277.13,-270.19 267.4,-266.01 272.4,-275.35 277.13,-270.19"/>
<text text-anchor="start" x="284" y="-277" font-family="Helvetica,sans-Serif" font-size="10.00">failed &#160;&#160;</text>
</g>
</g>
</svg>
