<?xml version="1.0" encoding="UTF-8" standalone="no"?>
<!DOCTYPE svg PUBLIC "-//W3C//DTD SVG 1.1//EN"
 "http://www.w3.org/Graphics/SVG/1.1/DTD/svg11.dtd">
<!-- Generated by graphviz version 2.49.1 (20210923.0004)
 -->
<!-- Title: state transitions Pages: 1 -->
<svg width="349pt" height="231pt"
 viewBox="0.00 0.00 349.00 231.00" xmlns="http://www.w3.org/2000/svg" xmlns:xlink="http://www.w3.org/1999/xlink">
<g id="graph0" class="graph" transform="scale(1 1) rotate(0) translate(4 227)">
<title>state transitions</title>
<polygon fill="white" stroke="transparent" points="-4,4 -4,-227 345,-227 345,4 -4,4"/>
<g id="clust1" class="cluster state regular">
<title>cluster__state_machine</title>
<path fill="none" stroke="black" stroke-width="2" d="M20,-8C20,-8 321,-8 321,-8 327,-8 333,-14 333,-20 333,-20 333,-203 333,-203 333,-209 327,-215 321,-215 321,-215 20,-215 20,-215 14,-215 8,-209 8,-203 8,-203 8,-20 8,-20 8,-14 14,-8 20,-8"/>
<text text-anchor="start" x="128.5" y="-196.9" font-family="Helvetica,sans-Serif" font-size="12.00">_state_machine</text>
</g>
<!-- _state_machine -->
<!-- _state_machine/Navtogoal -->
<g id="node2" class="node state regular">
<title>_state_machine/Navtogoal</title>
<polygon fill="#ffffff" fill-opacity="0.003922" stroke="transparent" stroke-width="2" points="223.5,-178 62.5,-178 62.5,-142 223.5,-142 223.5,-178"/>
<text text-anchor="start" x="74" y="-156.4" font-family="Helvetica,sans-Serif" font-size="12.00">_state_machine/Navtogoal</text>
<path fill="none" stroke="black" stroke-width="2" d="M74.5,-143.5C74.5,-143.5 211.5,-143.5 211.5,-143.5 217,-143.5 222.5,-149 222.5,-154.5 222.5,-154.5 222.5,-165.5 222.5,-165.5 222.5,-171 217,-176.5 211.5,-176.5 211.5,-176.5 74.5,-176.5 74.5,-176.5 69,-176.5 63.5,-171 63.5,-165.5 63.5,-165.5 63.5,-154.5 63.5,-154.5 63.5,-149 69,-143.5 74.5,-143.5"/>
</g>
<!-- _state_machine/Returntocounter -->
<g id="node3" class="node state regular">
<title>_state_machine/Returntocounter</title>
<polygon fill="#ffffff" fill-opacity="0.003922" stroke="transparent" stroke-width="2" points="211.5,-115 20.5,-115 20.5,-79 211.5,-79 211.5,-115"/>
<text text-anchor="start" x="32" y="-93.4" font-family="Helvetica,sans-Serif" font-size="12.00">_state_machine/Returntocounter</text>
<path fill="none" stroke="black" stroke-width="2" d="M32.5,-80.5C32.5,-80.5 199.5,-80.5 199.5,-80.5 205,-80.5 210.5,-86 210.5,-91.5 210.5,-91.5 210.5,-102.5 210.5,-102.5 210.5,-108 205,-113.5 199.5,-113.5 199.5,-113.5 32.5,-113.5 32.5,-113.5 27,-113.5 21.5,-108 21.5,-102.5 21.5,-102.5 21.5,-91.5 21.5,-91.5 21.5,-86 27,-80.5 32.5,-80.5"/>
</g>
<!-- _state_machine/Navtogoal&#45;&gt;_state_machine/Returntocounter -->
<g id="edge1" class="edge transition">
<title>_state_machine/Navtogoal&#45;&gt;_state_machine/Returntocounter</title>
<path fill="none" stroke="black" d="M135.34,-141.68C132.98,-136.36 130.33,-130.37 127.76,-124.57"/>
<polygon fill="black" stroke="black" points="130.84,-122.88 123.59,-115.15 124.44,-125.71 130.84,-122.88"/>
<text text-anchor="start" x="131" y="-126" font-family="Helvetica,sans-Serif" font-size="10.00">arrived &#160;&#160;</text>
</g>
<!-- _state_machine/failed -->
<g id="node4" class="node state regular">
<title>_state_machine/failed</title>
<polygon fill="#ffffff" fill-opacity="0.003922" stroke="transparent" stroke-width="2" points="324.5,-52 187.5,-52 187.5,-16 324.5,-16 324.5,-52"/>
<text text-anchor="start" x="199" y="-30.4" font-family="Helvetica,sans-Serif" font-size="12.00">_state_machine/failed</text>
<path fill="none" stroke="black" stroke-width="2" d="M199.5,-17.5C199.5,-17.5 312.5,-17.5 312.5,-17.5 318,-17.5 323.5,-23 323.5,-28.5 323.5,-28.5 323.5,-39.5 323.5,-39.5 323.5,-45 318,-50.5 312.5,-50.5 312.5,-50.5 199.5,-50.5 199.5,-50.5 194,-50.5 188.5,-45 188.5,-39.5 188.5,-39.5 188.5,-28.5 188.5,-28.5 188.5,-23 194,-17.5 199.5,-17.5"/>
</g>
<!-- _state_machine/Navtogoal&#45;&gt;_state_machine/failed -->
<g id="edge2" class="edge transition">
<title>_state_machine/Navtogoal&#45;&gt;_state_machine/failed</title>
<path fill="none" stroke="black" d="M186.63,-141.78C199.64,-134.99 213.07,-126.11 223,-115 236.44,-99.97 244.85,-78.73 249.82,-61.91"/>
<polygon fill="black" stroke="black" points="253.24,-62.67 252.48,-52.1 246.48,-60.83 253.24,-62.67"/>
<text text-anchor="start" x="243" y="-94.5" font-family="Helvetica,sans-Serif" font-size="10.00">failed &#160;&#160;</text>
</g>
<!-- _state_machine/Returntocounter&#45;&gt;_state_machine/failed -->
<g id="edge4" class="edge transition">
<title>_state_machine/Returntocounter&#45;&gt;_state_machine/failed</title>
<path fill="none" stroke="black" d="M155.37,-78.85C171.61,-71.77 190.59,-63.5 207.67,-56.06"/>
<polygon fill="black" stroke="black" points="209.16,-59.23 216.93,-52.03 206.36,-52.81 209.16,-59.23"/>
<text text-anchor="start" x="198" y="-63" font-family="Helvetica,sans-Serif" font-size="10.00">failed &#160;&#160;</text>
</g>
<!-- _state_machine/finished -->
<g id="node5" class="node state regular">
<title>_state_machine/finished</title>
<polygon fill="#ffffff" fill-opacity="0.003922" stroke="transparent" stroke-width="2" points="165.5,-52 16.5,-52 16.5,-16 165.5,-16 165.5,-52"/>
<text text-anchor="start" x="28" y="-30.4" font-family="Helvetica,sans-Serif" font-size="12.00">_state_machine/finished</text>
<path fill="none" stroke="black" stroke-width="2" d="M28.5,-17.5C28.5,-17.5 153.5,-17.5 153.5,-17.5 159,-17.5 164.5,-23 164.5,-28.5 164.5,-28.5 164.5,-39.5 164.5,-39.5 164.5,-45 159,-50.5 153.5,-50.5 153.5,-50.5 28.5,-50.5 28.5,-50.5 23,-50.5 17.5,-45 17.5,-39.5 17.5,-39.5 17.5,-28.5 17.5,-28.5 17.5,-23 23,-17.5 28.5,-17.5"/>
</g>
<!-- _state_machine/Returntocounter&#45;&gt;_state_machine/finished -->
<g id="edge3" class="edge transition">
<title>_state_machine/Returntocounter&#45;&gt;_state_machine/finished</title>
<path fill="none" stroke="black" d="M108.9,-78.68C106.72,-73.36 104.27,-67.37 101.89,-61.57"/>
<polygon fill="black" stroke="black" points="105.06,-60.07 98.03,-52.15 98.58,-62.73 105.06,-60.07"/>
<text text-anchor="start" x="105" y="-63" font-family="Helvetica,sans-Serif" font-size="10.00">arrived &#160;&#160;</text>
</g>
</g>
</svg>
