<?xml version="1.0" encoding="UTF-8" standalone="no"?>
<!DOCTYPE svg PUBLIC "-//W3C//DTD SVG 1.1//EN"
 "http://www.w3.org/Graphics/SVG/1.1/DTD/svg11.dtd">
<!-- Generated by graphviz version 2.49.1 (20210923.0004)
 -->
<!-- Title: state transitions Pages: 1 -->
<svg width="885pt" height="168pt"
 viewBox="0.00 0.00 885.00 168.00" xmlns="http://www.w3.org/2000/svg" xmlns:xlink="http://www.w3.org/1999/xlink">
<g id="graph0" class="graph" transform="scale(1 1) rotate(0) translate(4 164)">
<title>state transitions</title>
<polygon fill="white" stroke="transparent" points="-4,4 -4,-164 881,-164 881,4 -4,4"/>
<g id="clust2" class="cluster state regular">
<title>cluster__state_machine</title>
<path fill="none" stroke="black" stroke-width="2" d="M556,-8C556,-8 857,-8 857,-8 863,-8 869,-14 869,-20 869,-20 869,-140 869,-140 869,-146 863,-152 857,-152 857,-152 556,-152 556,-152 550,-152 544,-146 544,-140 544,-140 544,-20 544,-20 544,-14 550,-8 556,-8"/>
<text text-anchor="start" x="664.5" y="-133.9" font-family="Helvetica,sans-Serif" font-size="12.00">_state_machine</text>
</g>
<g id="clust1" class="cluster state regular">
<title>cluster__sm_lookatcontainer_0</title>
<path fill="none" stroke="black" stroke-width="2" d="M20,-8C20,-8 524,-8 524,-8 530,-8 536,-14 536,-20 536,-20 536,-140 536,-140 536,-146 530,-152 524,-152 524,-152 20,-152 20,-152 14,-152 8,-146 8,-140 8,-140 8,-20 8,-20 8,-14 14,-8 20,-8"/>
<text text-anchor="start" x="211" y="-133.9" font-family="Helvetica,sans-Serif" font-size="12.00">_sm_lookatcontainer_0</text>
</g>
<!-- _sm_lookatcontainer_0 -->
<!-- _sm_lookatcontainer_0/LookAtOperational -->
<g id="node2" class="node state regular">
<title>_sm_lookatcontainer_0/LookAtOperational</title>
<polygon fill="#ffffff" fill-opacity="0.003922" stroke="transparent" stroke-width="2" points="506,-115 260,-115 260,-79 506,-79 506,-115"/>
<text text-anchor="start" x="271" y="-93.4" font-family="Helvetica,sans-Serif" font-size="12.00">_sm_lookatcontainer_0/LookAtOperational</text>
<path fill="none" stroke="black" stroke-width="2" d="M272,-80.5C272,-80.5 494,-80.5 494,-80.5 499.5,-80.5 505,-86 505,-91.5 505,-91.5 505,-102.5 505,-102.5 505,-108 499.5,-113.5 494,-113.5 494,-113.5 272,-113.5 272,-113.5 266.5,-113.5 261,-108 261,-102.5 261,-102.5 261,-91.5 261,-91.5 261,-86 266.5,-80.5 272,-80.5"/>
</g>
<!-- _sm_lookatcontainer_0/finished -->
<g id="node4" class="node state regular">
<title>_sm_lookatcontainer_0/finished</title>
<polygon fill="#ffffff" fill-opacity="0.003922" stroke="transparent" stroke-width="2" points="506,-52 318,-52 318,-16 506,-16 506,-52"/>
<text text-anchor="start" x="329" y="-30.4" font-family="Helvetica,sans-Serif" font-size="12.00">_sm_lookatcontainer_0/finished</text>
<path fill="none" stroke="black" stroke-width="2" d="M330,-17.5C330,-17.5 494,-17.5 494,-17.5 499.5,-17.5 505,-23 505,-28.5 505,-28.5 505,-39.5 505,-39.5 505,-45 499.5,-50.5 494,-50.5 494,-50.5 330,-50.5 330,-50.5 324.5,-50.5 319,-45 319,-39.5 319,-39.5 319,-28.5 319,-28.5 319,-23 324.5,-17.5 330,-17.5"/>
</g>
<!-- _sm_lookatcontainer_0/LookAtOperational&#45;&gt;_sm_lookatcontainer_0/finished -->
<g id="edge1" class="edge transition">
<title>_sm_lookatcontainer_0/LookAtOperational&#45;&gt;_sm_lookatcontainer_0/finished</title>
<path fill="none" stroke="black" d="M450.47,-78.99C453.29,-76.66 455.83,-74.01 458,-71 460.87,-67.02 461.01,-63.26 459.35,-59.78"/>
<polygon fill="black" stroke="black" points="461.9,-57.37 452.66,-52.18 456.65,-62 461.9,-57.37"/>
<text text-anchor="start" x="461" y="-63" font-family="Helvetica,sans-Serif" font-size="10.00">done &#160;&#160;</text>
</g>
<!-- _sm_lookatcontainer_0/failed -->
<g id="node5" class="node state regular">
<title>_sm_lookatcontainer_0/failed</title>
<polygon fill="#ffffff" fill-opacity="0.003922" stroke="transparent" stroke-width="2" points="253,-52 77,-52 77,-16 253,-16 253,-52"/>
<text text-anchor="start" x="88" y="-30.4" font-family="Helvetica,sans-Serif" font-size="12.00">_sm_lookatcontainer_0/failed</text>
<path fill="none" stroke="black" stroke-width="2" d="M89,-17.5C89,-17.5 241,-17.5 241,-17.5 246.5,-17.5 252,-23 252,-28.5 252,-28.5 252,-39.5 252,-39.5 252,-45 246.5,-50.5 241,-50.5 241,-50.5 89,-50.5 89,-50.5 83.5,-50.5 78,-45 78,-39.5 78,-39.5 78,-28.5 78,-28.5 78,-23 83.5,-17.5 89,-17.5"/>
</g>
<!-- _sm_lookatcontainer_0/LookAtOperational&#45;&gt;_sm_lookatcontainer_0/failed -->
<g id="edge2" class="edge transition">
<title>_sm_lookatcontainer_0/LookAtOperational&#45;&gt;_sm_lookatcontainer_0/failed</title>
<path fill="none" stroke="black" d="M396.05,-78.76C399.34,-72.26 400.75,-65.2 396,-60 389.3,-52.67 316.87,-53.03 307,-52 292.86,-50.52 277.93,-48.85 263.28,-47.15"/>
<polygon fill="black" stroke="black" points="263.54,-43.65 253.2,-45.97 262.73,-50.61 263.54,-43.65"/>
<text text-anchor="start" x="400" y="-63" font-family="Helvetica,sans-Serif" font-size="10.00">failure &#160;&#160;</text>
</g>
<!-- _sm_lookatcontainer_0/ObjectMonitor -->
<g id="node3" class="node state regular">
<title>_sm_lookatcontainer_0/ObjectMonitor</title>
<polygon fill="#ffffff" fill-opacity="0.003922" stroke="transparent" stroke-width="2" points="237.5,-115 16.5,-115 16.5,-79 237.5,-79 237.5,-115"/>
<text text-anchor="start" x="28" y="-93.4" font-family="Helvetica,sans-Serif" font-size="12.00">_sm_lookatcontainer_0/ObjectMonitor</text>
<path fill="none" stroke="black" stroke-width="2" d="M28.5,-80.5C28.5,-80.5 225.5,-80.5 225.5,-80.5 231,-80.5 236.5,-86 236.5,-91.5 236.5,-91.5 236.5,-102.5 236.5,-102.5 236.5,-108 231,-113.5 225.5,-113.5 225.5,-113.5 28.5,-113.5 28.5,-113.5 23,-113.5 17.5,-108 17.5,-102.5 17.5,-102.5 17.5,-91.5 17.5,-91.5 17.5,-86 23,-80.5 28.5,-80.5"/>
</g>
<!-- _sm_lookatcontainer_0/ObjectMonitor&#45;&gt;_sm_lookatcontainer_0/finished -->
<g id="edge3" class="edge transition">
<title>_sm_lookatcontainer_0/ObjectMonitor&#45;&gt;_sm_lookatcontainer_0/finished</title>
<path fill="none" stroke="black" d="M237.89,-79.47C252.43,-76.87 267.11,-74.03 281,-71 299.01,-67.07 303.22,-64.89 321,-60 327.12,-58.32 333.46,-56.57 339.83,-54.82"/>
<polygon fill="black" stroke="black" points="341.12,-58.1 349.83,-52.08 339.26,-51.35 341.12,-58.1"/>
<text text-anchor="start" x="321" y="-63" font-family="Helvetica,sans-Serif" font-size="10.00">no_detections &#160;&#160;</text>
</g>
<!-- _sm_lookatcontainer_0/ObjectMonitor&#45;&gt;_sm_lookatcontainer_0/failed -->
<g id="edge4" class="edge transition">
<title>_sm_lookatcontainer_0/ObjectMonitor&#45;&gt;_sm_lookatcontainer_0/failed</title>
<path fill="none" stroke="black" d="M39.51,-78.83C33.22,-74.01 31.54,-67.85 38,-60 42.71,-54.27 53.43,-49.84 66.75,-46.41"/>
<polygon fill="black" stroke="black" points="67.89,-49.74 76.85,-44.09 66.32,-42.91 67.89,-49.74"/>
<text text-anchor="start" x="38" y="-63" font-family="Helvetica,sans-Serif" font-size="10.00">have_detections &#160;&#160;</text>
</g>
<!-- _sm_lookatcontainer_0/ObjectMonitor&#45;&gt;_sm_lookatcontainer_0/failed -->
<g id="edge5" class="edge transition">
<title>_sm_lookatcontainer_0/ObjectMonitor&#45;&gt;_sm_lookatcontainer_0/failed</title>
<path fill="none" stroke="black" d="M134.09,-78.67C136.23,-73.96 138.76,-68.85 144.16,-60.4"/>
<polygon fill="black" stroke="black" points="147.09,-62.31 149.71,-52.04 141.26,-58.44 147.09,-62.31"/>
<text text-anchor="start" x="144" y="-63" font-family="Helvetica,sans-Serif" font-size="10.00">detection_matches &#160;&#160;</text>
</g>
<!-- _sm_lookatcontainer_0/ObjectMonitor&#45;&gt;_sm_lookatcontainer_0/failed -->
<g id="edge6" class="edge transition">
<title>_sm_lookatcontainer_0/ObjectMonitor&#45;&gt;_sm_lookatcontainer_0/failed</title>
<path fill="none" stroke="black" d="M224.98,-79C230.41,-76.64 234.62,-73.98 237,-71 240.39,-66.76 241.09,-62.98 239.84,-59.61"/>
<polygon fill="black" stroke="black" points="242.41,-57.23 233.16,-52.08 237.18,-61.88 242.41,-57.23"/>
<text text-anchor="start" x="241" y="-63" font-family="Helvetica,sans-Serif" font-size="10.00">failure &#160;&#160;</text>
</g>
<!-- _state_machine -->
<!-- _state_machine/LookAtContainer -->
<g id="node7" class="node state regular">
<title>_state_machine/LookAtContainer</title>
<polygon fill="#ffffff" fill-opacity="0.003922" stroke="transparent" stroke-width="2" points="780.5,-115 583.5,-115 583.5,-79 780.5,-79 780.5,-115"/>
<text text-anchor="start" x="595" y="-93.4" font-family="Helvetica,sans-Serif" font-size="12.00">_state_machine/LookAtContainer</text>
<path fill="none" stroke="red" stroke-width="2" d="M595.5,-80.5C595.5,-80.5 768.5,-80.5 768.5,-80.5 774,-80.5 779.5,-86 779.5,-91.5 779.5,-91.5 779.5,-102.5 779.5,-102.5 779.5,-108 774,-113.5 768.5,-113.5 768.5,-113.5 595.5,-113.5 595.5,-113.5 590,-113.5 584.5,-108 584.5,-102.5 584.5,-102.5 584.5,-91.5 584.5,-91.5 584.5,-86 590,-80.5 595.5,-80.5"/>
</g>
<!-- _state_machine/finished -->
<g id="node8" class="node state regular">
<title>_state_machine/finished</title>
<polygon fill="#ffffff" fill-opacity="0.003922" stroke="transparent" stroke-width="2" points="701.5,-52 552.5,-52 552.5,-16 701.5,-16 701.5,-52"/>
<text text-anchor="start" x="564" y="-30.4" font-family="Helvetica,sans-Serif" font-size="12.00">_state_machine/finished</text>
<path fill="none" stroke="black" stroke-width="2" d="M564.5,-17.5C564.5,-17.5 689.5,-17.5 689.5,-17.5 695,-17.5 700.5,-23 700.5,-28.5 700.5,-28.5 700.5,-39.5 700.5,-39.5 700.5,-45 695,-50.5 689.5,-50.5 689.5,-50.5 564.5,-50.5 564.5,-50.5 559,-50.5 553.5,-45 553.5,-39.5 553.5,-39.5 553.5,-28.5 553.5,-28.5 553.5,-23 559,-17.5 564.5,-17.5"/>
</g>
<!-- _state_machine/LookAtContainer&#45;&gt;_state_machine/finished -->
<g id="edge7" class="edge transition">
<title>_state_machine/LookAtContainer&#45;&gt;_state_machine/finished</title>
<path fill="none" stroke="black" d="M651.19,-78.8C648.21,-76.41 645.41,-73.81 643,-71 640.54,-68.13 638.39,-64.83 636.54,-61.4"/>
<polygon fill="black" stroke="black" points="639.7,-59.9 632.32,-52.3 633.35,-62.84 639.7,-59.9"/>
<text text-anchor="start" x="643" y="-63" font-family="Helvetica,sans-Serif" font-size="10.00">finished &#160;&#160;</text>
</g>
<!-- _state_machine/failed -->
<g id="node9" class="node state regular">
<title>_state_machine/failed</title>
<polygon fill="#ffffff" fill-opacity="0.003922" stroke="transparent" stroke-width="2" points="860.5,-52 723.5,-52 723.5,-16 860.5,-16 860.5,-52"/>
<text text-anchor="start" x="735" y="-30.4" font-family="Helvetica,sans-Serif" font-size="12.00">_state_machine/failed</text>
<path fill="none" stroke="black" stroke-width="2" d="M735.5,-17.5C735.5,-17.5 848.5,-17.5 848.5,-17.5 854,-17.5 859.5,-23 859.5,-28.5 859.5,-28.5 859.5,-39.5 859.5,-39.5 859.5,-45 854,-50.5 848.5,-50.5 848.5,-50.5 735.5,-50.5 735.5,-50.5 730,-50.5 724.5,-45 724.5,-39.5 724.5,-39.5 724.5,-28.5 724.5,-28.5 724.5,-23 730,-17.5 735.5,-17.5"/>
</g>
<!-- _state_machine/LookAtContainer&#45;&gt;_state_machine/failed -->
<g id="edge8" class="edge transition">
<title>_state_machine/LookAtContainer&#45;&gt;_state_machine/failed</title>
<path fill="none" stroke="black" d="M712.93,-78.85C725.22,-72.03 739.51,-64.11 752.53,-56.89"/>
<polygon fill="black" stroke="black" points="754.25,-59.94 761.3,-52.03 750.86,-53.81 754.25,-59.94"/>
<text text-anchor="start" x="746" y="-63" font-family="Helvetica,sans-Serif" font-size="10.00">failed &#160;&#160;</text>
</g>
</g>
</svg>
